<svg width="302" height="101" viewBox="0 0 302 101" fill="none" xmlns="http://www.w3.org/2000/svg">
<path fill-rule="evenodd" clip-rule="evenodd" d="M198.1 1.119C194.845 1.59 191.785 2.656 189.779 4.016C182.457 8.978 182.53 20.174 189.91 24.171C191.956 25.279 192.786 25.541 202.1 28.014C206.256 29.117 208.022 30.443 208.33 32.694C209.246 39.376 196.926 40.616 190.6 34.478C185.318 29.354 179.925 35.904 185.049 41.22C191.23 47.633 204.923 48.699 212.1 43.327C217.603 39.207 218.843 30.741 214.741 25.294C212.448 22.249 210.124 21.092 201.9 18.901C195.238 17.126 193.471 16.208 193.12 14.339C192.14 9.112 203.058 7.345 208.896 11.786C211.621 13.859 214.595 13.493 215.939 10.919C218.652 5.723 207.73 -0.277 198.1 1.119ZM281.5 1.194C273.297 2.366 268.553 6.883 268.254 13.805C267.933 21.222 270.932 24.02 282.5 27.097C290.489 29.221 292.183 30.27 292.194 33.1C292.221 39.487 280.829 40.455 274.526 34.602C272.705 32.91 271.85 32.497 270.488 32.651C267.395 32.999 265.895 36.076 267.365 39.057C270.646 45.715 283.66 48.887 292.587 45.205C303.186 40.835 304.034 26.665 294 21.6C292.055 20.618 292.324 20.702 282.4 18.004C277.04 16.547 275.311 13.735 278.185 11.151C281.442 8.223 288.614 8.666 293.074 12.07C296.14 14.41 300.101 12.719 300.079 9.079C300.049 4.093 290.266 -0.0589997 281.5 1.194ZM59.1272 1.881C57.5882 2.454 56.4122 4.104 56.4062 5.7C56.4002 7.089 56.4522 7.23 60.4992 16.7C61.2982 18.57 63.0992 22.8 64.5012 26.1C72.1802 44.168 72.0242 43.835 73.3652 45.015C75.2562 46.68 78.5572 46.881 80.6472 45.458C81.9252 44.589 82.6442 43.175 86.9912 32.987C89.3122 27.549 91.5652 22.29 91.9982 21.3C94.7722 14.956 97.9902 7.186 98.1072 6.549C98.8402 2.556 93.8952 -0.0539984 90.9322 2.761C90.0552 3.594 89.5642 4.568 87.7372 9.1C86.8062 11.41 85.5472 14.515 84.9402 16C82.5632 21.82 81.8992 23.449 80.2552 27.5C77.6082 34.025 77.5122 34.247 77.3162 34.236C77.2152 34.23 76.9802 33.838 76.7952 33.363C76.6102 32.888 76.0302 31.465 75.5072 30.2C74.9842 28.935 74.0802 26.73 73.4982 25.3C72.9162 23.87 72.1262 21.935 71.7412 21C70.9622 19.102 69.7842 16.222 67.8982 11.6C67.2022 9.895 66.2712 7.617 65.8292 6.539C64.0202 2.126 62.0832 0.780001 59.1272 1.881ZM226.137 1.89C225.14 2.245 224.626 2.72 224.176 3.7C223.742 4.646 223.6 28.33 224.011 31.286C225.355 40.951 232.292 46.669 242.7 46.693C252.664 46.716 259.037 41.906 261.24 32.7C261.748 30.576 262.059 6.106 261.6 4.4C260.741 1.21 255.584 0.483 253.645 3.278L253.1 4.065L252.987 17.083C252.861 31.545 252.902 31.094 251.46 33.845C248.049 40.356 237.219 40.192 233.889 33.578C232.718 31.253 232.74 31.523 232.609 17.6C232.48 3.939 232.477 3.901 231.522 2.824C230.517 1.69 227.947 1.244 226.137 1.89ZM3.03419 2.427C2.51619 2.685 1.95419 3.187 1.63419 3.679L1.10019 4.5L1.04619 23.69L0.992188 42.88L1.49119 43.89C1.78919 44.495 2.28719 45.101 2.73019 45.4L3.47119 45.9H23.1172H42.7632L43.5312 45.279C45.2392 43.899 45.1002 45.782 45.1002 24V4.7L44.6392 3.897C44.3862 3.455 43.8532 2.87 43.4542 2.597L42.7292 2.1L23.3152 2.049L3.90019 1.997L3.03419 2.427ZM107.2 2.185C104.749 2.944 103.344 4.659 102.988 7.325C102.852 8.349 102.8 14.571 102.839 25.1L102.9 41.3L103.467 42.527C104.144 43.991 104.947 44.817 106.3 45.44L107.3 45.9L120.3 45.961C129.333 46.003 133.53 45.955 134.053 45.802C137.784 44.713 137.567 38.886 133.764 38.009C133.251 37.891 128.655 37.808 122.444 37.805C112.676 37.8 111.978 37.777 111.844 37.45C111.558 36.755 111.675 27.891 111.974 27.531C112.222 27.232 113.14 27.2 121.474 27.196C131.574 27.191 131.627 27.185 132.743 25.971C134.558 23.997 133.895 20.483 131.5 19.378C130.759 19.036 130.016 19.008 121.474 19.004C113.14 19 112.222 18.968 111.974 18.669C111.676 18.309 111.562 11.237 111.844 10.55C111.978 10.223 112.652 10.2 121.944 10.196C132.535 10.192 134.042 10.097 135.109 9.366C137.297 7.867 137.266 4.113 135.054 2.597L134.33 2.1L121.015 2.065C113.692 2.046 107.475 2.1 107.2 2.185ZM147.3 2.139C145.552 2.591 143.928 4.035 143.281 5.712C142.916 6.658 142.9 7.484 142.9 25.233V43.766L143.504 44.633C144.895 46.631 148.421 47.023 150.286 45.386C151.544 44.28 151.6 43.849 151.6 35.164C151.6 30.894 151.674 27.4 151.764 27.4C151.959 27.4 152.938 28.413 159.49 35.4C167.094 43.509 168.911 45.321 169.928 45.813C172.518 47.067 175.43 46.065 176.291 43.624C177.142 41.215 176.951 40.947 167.366 31.068C164.802 28.425 164.819 28.489 166.607 28.313C180.604 26.934 182.168 6.75 168.6 2.581C167.149 2.135 148.789 1.754 147.3 2.139ZM165.584 10.57C170.396 12.572 170.167 18.957 165.244 20.076C163.17 20.548 152.384 20.556 151.914 20.086C151.362 19.534 151.454 10.946 152.017 10.383C152.674 9.726 163.929 9.881 165.584 10.57ZM25.0072 10.95C26.7752 11.852 27.0002 12.491 27.0002 16.615V19.968L30.5652 20.034C35.4702 20.125 36.7962 21.042 36.5592 24.179C36.3312 27.205 35.2522 27.874 30.4502 27.967L27.0002 28.033V31.385C27.0002 36.134 26.1562 37.457 23.1282 37.457C20.0532 37.457 19.1802 36.164 19.0432 31.4L18.9462 28.039L15.5232 27.966C10.8132 27.866 9.60919 27.058 9.60919 24C9.60919 20.932 10.8112 20.124 15.5082 20.034L18.9462 19.968L19.0422 16.634C19.1662 12.374 19.5592 11.432 21.5132 10.716C22.7512 10.263 23.7972 10.333 25.0072 10.95ZM282.1 55.325C273.178 56.676 268.561 60.905 268.254 68.005C267.953 74.954 271.044 78.242 280.18 80.693C286.137 82.29 287.085 82.561 288.248 82.997C294.057 85.174 293.425 90.921 287.221 92.332C282.278 93.455 278.28 92.293 274.245 88.559C269.446 84.118 264.287 89.253 268.18 94.596C273.276 101.589 288.275 103.171 295.945 97.525C302.518 92.686 302.717 82.08 296.324 77.274C293.94 75.482 292.445 74.909 284.912 72.895C278.605 71.21 276.987 70.224 276.97 68.056C276.93 62.921 286.856 61.828 293.124 66.278C298.39 70.016 302.836 63.686 297.998 59.336C294.834 56.491 287.168 54.557 282.1 55.325ZM118.525 56.094C116.748 56.727 115.666 58.53 115.849 60.552C115.953 61.696 116.18 62.327 117.992 66.5C118.518 67.71 119.808 70.725 120.86 73.2C124.478 81.711 128.225 90.506 129.74 94.042C132.292 99.999 134.764 101.678 138.903 100.268C141.022 99.546 141.33 99.033 145.485 89.297C146.987 85.779 148.57 82.09 149.003 81.1C151.179 76.123 156.981 62.377 157.27 61.514C158.761 57.062 153.452 53.8 150.119 57.121C149.462 57.777 148.987 58.762 147.14 63.3C146.423 65.06 145.415 67.535 144.898 68.8C144.381 70.065 143.303 72.72 142.501 74.7C141.188 77.942 139.936 81.015 137.665 86.571C136.777 88.742 136.646 88.808 136.08 87.369C135.848 86.781 134.959 84.59 134.102 82.5C133.246 80.41 132.343 78.205 132.097 77.6C130.093 72.681 128.367 68.465 126.897 64.9C125.945 62.59 125.047 60.376 124.902 59.981C123.65 56.555 121.281 55.111 118.525 56.094ZM165.958 55.998C164.984 56.291 164.162 57.042 163.679 58.08L163.204 59.1V78.2V97.3L163.674 98.3C165.158 101.46 170.164 101.46 171.622 98.3C172.194 97.061 172.196 59.35 171.624 58.092C170.777 56.228 168.27 55.301 165.958 55.998ZM226.358 55.998C225.435 56.276 224.57 57.024 224.181 57.88C223.742 58.847 223.596 82.504 224.011 85.486C225.368 95.243 232.217 100.885 242.7 100.882C252.802 100.88 259.173 96.052 261.254 86.822C261.77 84.532 262.059 60.304 261.59 58.564C260.734 55.382 255.524 54.734 253.582 57.567L253.1 58.27L252.986 71.285C252.861 85.512 252.885 85.219 251.631 87.788C248.251 94.71 236.8 94.49 233.683 87.442C232.709 85.239 232.73 85.545 232.612 71.9C232.489 57.632 232.509 57.855 231.242 56.731C230.33 55.921 227.848 55.549 226.358 55.998ZM186.5 56.606C185.143 57.129 184.202 57.95 183.493 59.229L182.9 60.3V79.217V98.134L183.464 98.949C185.139 101.365 189.681 101.098 190.996 98.506L191.5 97.512L191.6 89.537L191.7 81.562L193.803 83.731C194.96 84.924 198.584 88.752 201.857 92.238C205.13 95.723 208.176 98.891 208.627 99.277C211.741 101.943 216.415 100.306 216.396 96.556C216.388 94.987 215.856 94.279 210.335 88.49C204.878 82.767 204.752 82.6 205.899 82.6C211.173 82.6 216.088 78.441 217.427 72.845C219.264 65.168 215.035 58.248 207.5 56.602C204.781 56.008 188.044 56.011 186.5 56.606ZM288.574 56.714C296.123 57.828 301.266 62.463 298.136 65.331C296.791 66.563 295.342 66.475 293.375 65.04C287.063 60.438 276.189 61.964 275.836 67.501C275.602 71.181 277.37 72.261 288.13 75.012C296.071 77.042 299.457 80.392 299.752 86.51C299.967 90.962 298.069 94.826 294.568 97.065C286.706 102.094 271.917 99.694 268.411 92.821C266.575 89.223 270.132 86.494 273.121 89.206C276.987 92.715 279.619 93.844 283.899 93.831C286.314 93.823 286.631 93.777 288.6 93.151C294.961 91.13 295.086 84.392 288.809 81.921C287.902 81.564 287.402 81.422 280.7 79.611C272.167 77.307 269.316 74.515 269.36 68.507C269.422 60.115 277.602 55.094 288.574 56.714ZM121.743 57.393C122.532 57.875 123.239 58.967 123.985 60.86C124.298 61.652 124.869 63.065 125.255 64C125.935 65.645 126.614 67.305 128.94 73C129.546 74.485 130.357 76.465 130.741 77.4C131.126 78.335 131.916 80.27 132.498 81.7C136.264 90.959 136.095 90.6 136.688 90.6C137.227 90.6 137.464 90.259 138.164 88.482C138.562 87.471 140.44 82.854 142.102 78.8C142.963 76.7 144.209 73.639 146.499 68C146.968 66.845 147.983 64.345 148.755 62.446C150.719 57.614 151.382 56.866 153.541 57.045C155.42 57.201 156.514 58.465 156.32 60.257C156.229 61.1 153.665 67.348 148.997 78.1C148.472 79.31 146.626 83.63 144.894 87.7C139.849 99.562 139.713 99.736 135.857 99.338C133.38 99.082 132.847 98.341 129.505 90.5C128.099 87.2 126.295 82.97 125.497 81.1C124.699 79.23 122.9 75 121.5 71.7C120.099 68.4 118.542 64.755 118.039 63.6C116.889 60.96 116.714 59.465 117.432 58.42C118.369 57.059 120.401 56.575 121.743 57.393ZM169.54 57.392C170.874 58.205 170.8 56.978 170.799 78.24C170.799 97.205 170.792 97.51 170.395 98.162C169.289 99.976 165.642 99.816 164.779 97.915C164.205 96.652 164.204 59.751 164.778 58.488C165.429 57.053 168.011 56.459 169.54 57.392ZM229.929 57.327C231.344 57.999 231.288 57.446 231.409 71.8C231.528 85.97 231.5 85.633 232.806 88.3C236.377 95.589 247.972 96.016 252.3 89.018C254.018 86.24 254.192 84.518 254.197 70.28L254.2 58.859L254.656 58.182C255.886 56.358 259.481 56.572 260.295 58.518C260.752 59.612 260.747 82.26 260.289 85.345C258.88 94.83 252.035 100.162 241.8 99.746C231.691 99.336 225.722 93.493 224.999 83.3C224.775 80.148 224.761 60.685 224.981 59.346C225.318 57.294 227.76 56.298 229.929 57.327ZM204.8 57.399C212.413 58.155 216.602 62.453 216.596 69.5C216.589 76.25 212.458 80.775 205.725 81.407C202.604 81.7 202.641 82.169 206.06 85.735C215.581 95.662 215.198 95.212 215.199 96.47C215.202 98.918 212.741 100.129 210.266 98.896C209.466 98.497 208.069 97.129 203.578 92.346C192.072 80.092 192.38 80.4 191.635 80.4C190.418 80.4 190.431 80.308 190.363 89.202C190.311 95.919 190.249 97.399 190 97.882C189.014 99.796 185.642 99.946 184.314 98.135C183.902 97.574 183.9 97.464 183.9 79.335V61.1L184.338 60.151C185.073 58.561 186.233 57.734 188.2 57.4C189.508 57.178 202.566 57.177 204.8 57.399ZM191.863 63.22C190.457 63.627 190.4 63.869 190.4 69.44C190.4 76.361 189.736 75.8 197.927 75.8C205.474 75.8 206.958 75.501 208.635 73.645C211.352 70.638 210.137 65.588 206.287 63.886C204.462 63.079 194.018 62.597 191.863 63.22ZM205.141 64.672C210.081 66.278 210.247 72.707 205.388 74.219C203.884 74.687 192.288 74.808 191.84 74.36C191.324 73.844 191.518 64.622 192.05 64.397C192.878 64.047 203.934 64.279 205.141 64.672Z" fill="#E41D25"/>
</svg>
