<svg width="400" height="157" viewBox="0 0 400 157" fill="none" xmlns="http://www.w3.org/2000/svg">
<path fill-rule="evenodd" clip-rule="evenodd" d="M155.772 0.375C155.716 0.581 155.67 35.719 155.669 78.458L155.667 156.167H233.917H312.167V78.637C312.167 18.722 312.121 0.981 311.967 0.553L311.766 0H233.819H155.872L155.772 0.375ZM201.333 25.002C204.02 25.196 207.333 26.215 207.333 26.847C207.333 26.931 207.427 27.001 207.542 27.002C207.862 27.004 211.333 30.648 211.333 30.981C211.333 31.044 211.708 31.637 212.167 32.301C212.625 32.964 213 33.655 213 33.837C213 34.018 213.057 34.167 213.126 34.167C213.283 34.167 214 35.708 214 36.045C214 36.181 214.105 36.38 214.234 36.486C214.362 36.593 214.514 36.865 214.57 37.09C214.627 37.316 214.747 37.5 214.837 37.5C214.926 37.5 215 37.683 215 37.907C215 38.131 215.079 38.363 215.176 38.422C215.273 38.482 215.538 38.956 215.766 39.474C215.993 39.992 216.254 40.551 216.346 40.716C217.166 42.19 217.575 43.023 217.868 43.818C218.056 44.331 218.292 44.852 218.391 44.976C218.613 45.256 218.953 45.834 219.09 46.167C219.147 46.304 219.338 46.725 219.513 47.102C219.689 47.478 219.833 47.872 219.833 47.977C219.833 48.081 219.908 48.167 220 48.167C220.092 48.167 220.167 48.307 220.167 48.478C220.167 48.648 220.317 48.979 220.5 49.212C220.683 49.445 220.833 49.746 220.833 49.881C220.833 50.016 220.946 50.219 221.083 50.333C221.221 50.447 221.333 50.694 221.333 50.882C221.333 51.07 221.432 51.342 221.552 51.487C221.672 51.632 221.911 52.087 222.083 52.5C222.255 52.913 222.494 53.368 222.615 53.513C222.735 53.658 222.833 53.892 222.833 54.034C222.833 54.176 222.946 54.386 223.083 54.5C223.221 54.614 223.333 54.844 223.333 55.011C223.333 55.177 223.413 55.363 223.509 55.422C223.606 55.482 223.873 55.956 224.102 56.474C224.33 56.992 224.844 58.092 225.242 58.917C225.641 59.742 226.128 60.754 226.325 61.167C226.522 61.579 226.749 62.029 226.83 62.167C226.91 62.304 227.018 62.529 227.07 62.667C227.122 62.804 227.23 63.029 227.31 63.167C227.732 63.893 228.5 65.551 228.5 65.736C228.5 65.853 228.65 66.122 228.833 66.333C229.017 66.545 229.167 66.794 229.167 66.888C229.167 67.126 230.852 70.492 231.025 70.599C231.103 70.647 231.167 70.872 231.167 71.098C231.167 71.325 231.279 71.554 231.417 71.606C231.554 71.659 231.667 71.835 231.667 71.997C231.667 72.16 231.774 72.382 231.906 72.491C232.038 72.6 232.193 72.909 232.252 73.176C232.311 73.444 232.428 73.706 232.513 73.758C232.597 73.81 232.667 73.989 232.667 74.156C232.667 74.633 233.079 74.892 233.489 74.672C233.679 74.571 233.833 74.377 233.833 74.242C233.833 74.106 233.9 73.865 233.981 73.706C234.063 73.547 234.334 72.985 234.584 72.458C234.835 71.931 235.106 71.5 235.187 71.5C235.267 71.5 235.333 71.322 235.333 71.104C235.333 70.886 235.446 70.614 235.583 70.5C235.721 70.386 235.833 70.161 235.833 70C235.833 69.839 235.946 69.614 236.083 69.5C236.221 69.386 236.333 69.122 236.333 68.914C236.333 68.706 236.446 68.492 236.583 68.44C236.721 68.387 236.833 68.231 236.833 68.093C236.833 67.79 237.533 66.273 237.708 66.194C237.777 66.164 237.833 66.057 237.833 65.957C237.833 65.696 239.202 62.927 239.364 62.861C239.439 62.831 239.5 62.633 239.5 62.423C239.5 62.213 239.612 61.947 239.75 61.833C239.887 61.719 240 61.49 240 61.325C240 61.159 240.112 60.911 240.25 60.774C240.387 60.636 240.5 60.366 240.5 60.173C240.5 59.981 240.612 59.78 240.75 59.727C240.887 59.674 241 59.554 241 59.461C241 59.266 242.953 55.124 243.496 54.167C243.873 53.502 244.667 51.721 244.667 51.539C244.667 51.426 244.739 51.333 244.827 51.333C244.915 51.333 245.073 51.015 245.177 50.625C245.282 50.235 245.42 49.879 245.484 49.833C245.648 49.715 247.833 45.268 247.833 45.052C247.833 44.954 247.946 44.781 248.083 44.667C248.221 44.553 248.333 44.29 248.333 44.083C248.333 43.877 248.446 43.614 248.583 43.5C248.721 43.386 248.833 43.161 248.833 43C248.833 42.839 248.946 42.614 249.083 42.5C249.221 42.386 249.333 42.161 249.333 42C249.333 41.839 249.446 41.614 249.583 41.5C249.721 41.386 249.833 41.161 249.833 41C249.833 40.839 249.941 40.618 250.073 40.509C250.204 40.4 250.36 40.09 250.419 39.822C250.478 39.553 250.596 39.333 250.68 39.333C250.764 39.333 250.833 39.217 250.833 39.075C250.833 38.932 250.979 38.539 251.157 38.2C251.335 37.861 251.608 37.283 251.765 36.917C251.921 36.55 252.1 36.212 252.161 36.167C252.257 36.095 252.705 35.186 253.065 34.333C253.123 34.196 253.358 33.753 253.585 33.349C253.813 32.945 254 32.548 254 32.467C254 32.289 254.699 31.273 254.875 31.194C254.944 31.164 255 31.036 255 30.911C255 30.786 255.096 30.623 255.212 30.55C255.329 30.477 255.55 30.219 255.704 29.977C256.163 29.254 258.783 26.705 259.198 26.578C259.41 26.512 259.686 26.377 259.811 26.276C260.103 26.042 260.948 25.73 262.417 25.314C263.639 24.967 276.762 24.626 278.235 24.903L278.833 25.015V33.181C278.833 43.088 279.291 41.948 275.285 42.026C273.347 42.063 272.28 42.148 272.202 42.269C272.137 42.371 271.931 42.502 271.745 42.56C271.342 42.686 269.667 44.25 269.667 44.501C269.667 44.598 269.554 44.72 269.417 44.773C269.279 44.826 269.167 44.962 269.167 45.076C269.167 45.189 269.017 45.455 268.833 45.667C268.65 45.878 268.5 46.19 268.5 46.359C268.5 46.528 268.431 46.667 268.347 46.667C268.262 46.667 268.145 46.885 268.086 47.153C268.028 47.42 267.872 47.68 267.74 47.731C267.608 47.781 267.5 48.004 267.5 48.224C267.5 48.445 267.387 48.719 267.25 48.833C267.112 48.947 267 49.178 267 49.345C267 49.513 266.906 49.71 266.792 49.783C266.509 49.964 266 50.957 266 51.326C266 51.491 265.895 51.713 265.766 51.82C265.638 51.926 265.482 52.216 265.42 52.464C265.358 52.711 265.257 52.952 265.195 52.998C265.134 53.045 264.85 53.533 264.564 54.083C263.604 55.933 263.15 56.749 262.991 56.908C262.904 56.995 262.833 57.235 262.833 57.44C262.833 57.646 262.77 57.853 262.692 57.901C262.615 57.949 261.859 59.377 261.013 61.075C260.167 62.773 259.405 64.206 259.321 64.258C259.236 64.31 259.167 64.499 259.167 64.677C259.167 64.854 259.097 65 259.011 65C258.926 65 258.803 65.169 258.739 65.375C258.675 65.581 258.493 65.938 258.334 66.167C258.175 66.396 257.941 66.883 257.814 67.25C257.687 67.617 257.49 68.016 257.375 68.137C257.26 68.258 257.167 68.497 257.167 68.669C257.167 68.84 257.101 69.021 257.022 69.07C256.942 69.119 256.661 69.592 256.398 70.121C256.135 70.65 255.869 71.122 255.807 71.168C255.744 71.215 255.642 71.456 255.58 71.703C255.518 71.951 255.362 72.24 255.234 72.347C255.105 72.454 255 72.638 255 72.757C255 72.994 254.487 74.03 254.299 74.172C254.107 74.317 252.559 77.41 252.438 77.89C252.377 78.134 252.259 78.333 252.177 78.333C252.094 78.333 251.977 78.558 251.917 78.833C251.856 79.108 251.744 79.333 251.667 79.333C251.59 79.333 251.477 79.558 251.417 79.833C251.356 80.108 251.238 80.333 251.153 80.333C251.069 80.333 251 80.427 250.999 80.542C250.998 80.752 250.23 82.288 249.436 83.667C249.199 84.079 248.96 84.529 248.907 84.667C248.853 84.804 248.739 85.029 248.654 85.167C248.568 85.304 248.455 85.529 248.404 85.667C248.352 85.804 248.244 86.029 248.165 86.167C248.085 86.304 247.523 87.429 246.914 88.667C246.306 89.904 245.74 91.029 245.656 91.167C245.573 91.304 245.159 92.11 244.736 92.958C244.313 93.806 243.899 94.5 243.817 94.5C243.734 94.5 243.667 94.69 243.667 94.922C243.667 95.154 243.554 95.387 243.417 95.44C243.279 95.492 243.166 95.659 243.166 95.809C243.165 95.96 243.052 96.3 242.913 96.565C242.694 96.986 242.663 99.263 242.67 114.531C242.674 124.147 242.633 132.086 242.579 132.174C242.439 132.401 224.08 132.388 223.656 132.161C223.34 131.992 223.333 131.616 223.333 114.174C223.333 95.208 223.375 96.351 222.642 95C222.497 94.734 221.953 93.583 221.776 93.167C221.717 93.029 221.605 92.804 221.527 92.667C221.217 92.118 221.001 91.71 220.556 90.833C220.3 90.329 219.882 89.571 219.628 89.148C219.374 88.726 219.167 88.265 219.167 88.124C219.167 87.984 219.054 87.826 218.917 87.773C218.779 87.72 218.667 87.534 218.667 87.359C218.667 87.184 218.554 86.947 218.417 86.833C218.279 86.719 218.167 86.53 218.167 86.413C218.167 86.237 216.848 83.538 216.337 82.667C216.256 82.529 215.88 81.779 215.501 81C215.122 80.221 214.668 79.358 214.491 79.083C214.315 78.808 214.123 78.471 214.065 78.333C213.685 77.431 213.282 76.655 213.152 76.574C213.069 76.523 213 76.302 213 76.083C213 75.865 212.92 75.637 212.823 75.577C212.726 75.517 212.574 75.306 212.487 75.109C212.399 74.911 212.142 74.419 211.914 74.015C211.686 73.611 211.5 73.19 211.5 73.08C211.5 72.969 211.35 72.688 211.167 72.455C210.983 72.221 210.833 71.911 210.833 71.765C210.833 71.619 210.764 71.5 210.68 71.5C210.596 71.5 210.477 71.275 210.417 71C210.356 70.725 210.253 70.5 210.188 70.5C210.123 70.5 209.863 70.05 209.61 69.5C209.358 68.95 209.08 68.5 208.992 68.5C208.905 68.5 208.833 68.322 208.833 68.104C208.833 67.886 208.721 67.614 208.583 67.5C208.446 67.386 208.333 67.156 208.333 66.989C208.333 66.823 208.258 66.64 208.167 66.583C207.978 66.467 206.667 63.78 206.667 63.51C206.667 63.413 206.592 63.333 206.5 63.333C206.408 63.333 206.333 63.259 206.333 63.168C206.333 62.873 205.608 61.333 205.469 61.333C205.394 61.333 205.333 61.231 205.333 61.106C205.333 60.981 205.183 60.688 205 60.455C204.817 60.221 204.667 59.921 204.667 59.786C204.667 59.651 204.554 59.447 204.417 59.333C204.279 59.219 204.167 58.99 204.167 58.825C204.167 58.659 204.054 58.411 203.917 58.274C203.779 58.136 203.667 57.911 203.667 57.774C203.667 57.636 203.573 57.425 203.458 57.304C203.127 56.954 202.5 55.731 202.5 55.436C202.5 55.288 202.426 55.167 202.337 55.167C202.247 55.167 202.122 54.96 202.059 54.708C201.996 54.456 201.732 53.904 201.472 53.482C201.212 53.059 201 52.637 201 52.544C201 52.45 200.887 52.281 200.75 52.167C200.612 52.053 200.5 51.79 200.5 51.583C200.5 51.377 200.387 51.114 200.25 51C200.112 50.886 200 50.689 200 50.563C200 50.437 199.926 50.333 199.837 50.333C199.747 50.333 199.624 50.139 199.565 49.902C199.505 49.664 199.277 49.158 199.059 48.777C198.84 48.395 198.571 47.877 198.461 47.625C198.351 47.373 198.202 47.167 198.13 47.167C198.059 47.167 198 47.088 198 46.991C198 46.744 197.337 45.316 197.107 45.069C197.002 44.956 196.654 44.543 196.333 44.151C195.456 43.08 194.815 42.5 194.509 42.5C194.357 42.5 194.14 42.406 194.025 42.292C193.881 42.148 192.907 42.058 190.867 42C189.244 41.954 187.823 41.856 187.708 41.782C187.331 41.538 187.413 25.047 187.792 24.948C188.304 24.814 199.343 24.858 201.333 25.002ZM26.667 25.691C41.379 25.753 53.942 25.84 54.583 25.884L55.75 25.964L54.583 25.796C53.847 25.69 43.559 25.619 26.667 25.603L-0.0830078 25.577L26.667 25.691ZM56.583 26.242C56.95 26.37 57.475 26.472 57.75 26.468C58.194 26.462 58.175 26.444 57.583 26.306C56.328 26.014 55.838 25.982 56.583 26.242ZM59.061 26.751C59.323 26.888 59.623 26.997 59.727 26.994C60 26.986 59.132 26.513 58.833 26.507C58.696 26.504 58.798 26.614 59.061 26.751ZM60.758 27.148C60.845 27.229 61.104 27.35 61.333 27.415C61.738 27.531 61.74 27.527 61.417 27.273C61.066 26.997 60.477 26.885 60.758 27.148ZM62.477 27.757C63.189 28.065 63.316 28.065 62.907 27.755C62.729 27.621 62.433 27.511 62.25 27.512C62.019 27.513 62.089 27.588 62.477 27.757ZM63.727 28.251C64.329 28.565 64.428 28.565 64.167 28.25C64.053 28.113 63.8 28 63.605 28.001C63.297 28.002 63.314 28.035 63.727 28.251ZM64.708 28.615C64.869 28.657 65 28.761 65 28.846C65 28.93 65.086 29 65.19 29C65.402 29 66.869 29.691 67 29.852C67.046 29.909 67.271 30.01 67.5 30.076C67.897 30.192 67.901 30.187 67.583 29.961C67.034 29.572 64.822 28.499 64.612 28.519C64.504 28.53 64.548 28.573 64.708 28.615ZM68.333 30.496C68.563 30.682 68.844 30.911 68.958 31.007C69.077 31.105 69.167 31.112 69.167 31.023C69.167 30.937 68.885 30.707 68.542 30.513C67.955 30.181 67.942 30.18 68.333 30.496ZM69.771 31.464C69.966 31.621 70.291 31.863 70.495 32C70.698 32.137 70.999 32.362 71.164 32.5C71.328 32.637 71.784 33.012 72.177 33.333C72.569 33.654 73.131 34.123 73.425 34.375C73.72 34.627 74.018 34.833 74.088 34.833C74.282 34.833 73.154 33.862 71.069 32.234C70.317 31.647 69.638 31.169 69.559 31.172C69.481 31.175 69.576 31.307 69.771 31.464ZM74.667 35.474C74.667 35.552 74.817 35.751 75 35.917C75.183 36.083 75.333 36.169 75.333 36.109C75.333 36.049 75.183 35.85 75 35.667C74.817 35.483 74.667 35.397 74.667 35.474ZM75.748 36.832C76.011 37.106 76.254 37.301 76.289 37.267C76.376 37.18 75.577 36.333 75.408 36.333C75.333 36.333 75.486 36.558 75.748 36.832ZM76.333 37.575C76.333 37.653 76.596 37.971 76.917 38.283C77.237 38.594 77.5 38.785 77.5 38.707C77.5 38.629 77.237 38.311 76.917 38C76.596 37.689 76.333 37.498 76.333 37.575ZM78.333 40.267C78.333 40.35 78.596 40.787 78.917 41.238C79.247 41.703 79.5 41.938 79.5 41.779C79.5 41.626 79.43 41.5 79.345 41.5C79.259 41.5 79.144 41.359 79.09 41.186C78.974 40.822 78.333 40.043 78.333 40.267ZM29.839 42.822C29.599 43.271 29.599 78.563 29.839 79.011C29.935 79.189 30.176 79.327 30.381 79.32C30.63 79.311 30.669 79.276 30.5 79.212C30.363 79.16 30.195 79.034 30.128 78.933C29.903 78.597 29.974 42.926 30.2 42.7C30.349 42.551 30.35 42.5 30.206 42.5C30.099 42.5 29.934 42.645 29.839 42.822ZM48 42.738C48.688 42.859 49.7 42.999 50.25 43.051L51.25 43.144L50.167 42.894C49.571 42.756 48.558 42.615 47.917 42.581L46.75 42.519L48 42.738ZM80 43.126C80 43.218 80.112 43.386 80.25 43.5C80.389 43.616 80.5 43.634 80.5 43.541C80.5 43.449 80.387 43.281 80.25 43.167C80.111 43.051 80 43.033 80 43.126ZM52.583 43.635C53.036 43.812 54.446 44.448 55.204 44.818C55.545 44.984 55.782 45.052 55.73 44.967C55.624 44.796 53.946 44 53.691 44C53.601 44 53.503 43.927 53.472 43.837C53.442 43.748 53.154 43.636 52.833 43.589C52.457 43.535 52.368 43.551 52.583 43.635ZM80.5 44.313C80.5 44.429 80.612 44.636 80.75 44.774C81.069 45.093 81.066 44.851 80.745 44.426C80.607 44.245 80.5 44.195 80.5 44.313ZM56 45.231C56 45.263 56.297 45.486 56.661 45.726C57.024 45.967 57.284 46.071 57.238 45.957C57.163 45.772 56 45.09 56 45.231ZM81 45.297C81 45.409 81.157 45.782 81.35 46.126C81.671 46.7 81.69 46.711 81.589 46.264C81.47 45.735 81 44.964 81 45.297ZM57.5 46.195C57.5 46.346 58.852 47.704 58.927 47.629C58.963 47.592 58.657 47.233 58.247 46.83C57.836 46.427 57.5 46.141 57.5 46.195ZM59.167 47.965C59.167 48.035 59.317 48.221 59.5 48.378C59.683 48.535 59.833 48.606 59.833 48.535C59.833 48.465 59.683 48.279 59.5 48.122C59.317 47.965 59.167 47.894 59.167 47.965ZM82.007 47.947C81.997 48.244 82.331 49.058 82.424 48.965C82.469 48.92 82.394 48.629 82.259 48.317C82.124 48.005 82.01 47.839 82.007 47.947ZM60.119 49.292C60.496 49.881 60.833 50.233 60.833 50.037C60.833 49.953 60.683 49.711 60.5 49.5C60.317 49.289 60.167 49.052 60.167 48.974C60.167 48.897 60.09 48.833 59.996 48.833C59.902 48.833 59.958 49.04 60.119 49.292ZM82.501 49.786C82.5 49.897 82.606 50.31 82.736 50.703C82.866 51.095 83.013 51.567 83.062 51.75C83.112 51.933 83.114 51.727 83.066 51.291C82.988 50.58 82.504 49.289 82.501 49.786ZM60.833 50.429C60.833 50.481 60.946 50.636 61.083 50.774C61.355 51.045 61.389 51.005 61.232 50.597C61.137 50.349 60.833 50.221 60.833 50.429ZM61.333 51.459C61.333 51.551 61.446 51.719 61.583 51.833C61.723 51.949 61.833 51.967 61.833 51.874C61.833 51.782 61.721 51.614 61.583 51.5C61.444 51.384 61.333 51.366 61.333 51.459ZM61.852 52.25C61.867 52.623 62.308 53.576 62.315 53.25C62.318 53.067 62.214 52.729 62.083 52.5C61.952 52.271 61.848 52.158 61.852 52.25ZM83.175 52.667C83.179 52.896 83.285 53.308 83.411 53.583L83.64 54.083L83.653 53.644C83.661 53.402 83.555 52.99 83.418 52.727C83.169 52.251 83.169 52.251 83.175 52.667ZM62.409 54.083C62.55 54.7 62.836 55.034 62.828 54.575C62.825 54.396 62.704 54.1 62.558 53.917C62.305 53.597 62.298 53.604 62.409 54.083ZM142.544 54.953C142.797 54.991 143.172 54.99 143.377 54.951C143.582 54.911 143.375 54.88 142.917 54.881C142.458 54.882 142.291 54.915 142.544 54.953ZM320.995 55.09C320.717 55.424 320.752 71.117 321.031 71.454C321.151 71.598 321.614 71.656 322.479 71.633L323.75 71.6L322.46 71.543C320.834 71.471 320.981 72.367 321.037 62.917L321.083 55.083L327.083 54.997L333.083 54.91L327.145 54.872C321.975 54.838 321.18 54.866 320.995 55.09ZM391.886 54.958C393.427 54.986 395.902 54.986 397.386 54.958C398.869 54.93 397.608 54.908 394.583 54.908C391.558 54.908 390.344 54.931 391.886 54.958ZM138.917 55.257L138.25 55.489L138.917 55.402C139.283 55.354 140.071 55.256 140.667 55.184L141.75 55.052L140.667 55.039C140.071 55.032 139.283 55.13 138.917 55.257ZM145.736 55.167C146.003 55.251 146.288 55.416 146.37 55.535C146.475 55.688 146.503 55.653 146.466 55.417C146.427 55.165 146.271 55.075 145.832 55.049L145.25 55.015L145.736 55.167ZM334.5 55.124C335.004 55.158 335.488 55.256 335.575 55.343C335.662 55.429 335.962 55.494 336.242 55.487L336.75 55.475L336.167 55.25C335.846 55.126 335.133 55.034 334.583 55.044L333.583 55.062L334.5 55.124ZM386.083 55.258L385.583 55.501L386.083 55.408C386.358 55.357 386.846 55.253 387.167 55.177L387.75 55.038L387.167 55.027C386.846 55.02 386.358 55.124 386.083 55.258ZM62.858 55.917C62.853 56.192 62.958 56.642 63.092 56.917C63.365 57.48 63.343 57.161 63.026 56L62.867 55.417L62.858 55.917ZM136.69 55.691C135.762 55.958 136.214 56.025 137.183 55.764C137.678 55.631 137.896 55.524 137.667 55.526C137.438 55.528 136.998 55.603 136.69 55.691ZM337.25 55.619C337.433 55.663 337.655 55.767 337.742 55.85C337.829 55.932 337.979 55.998 338.075 55.995C338.171 55.992 338.104 55.879 337.926 55.745C337.749 55.61 337.449 55.509 337.26 55.519C336.925 55.538 336.925 55.541 337.25 55.619ZM83.767 56.583C83.892 57.845 83.894 63.727 83.771 65.167C83.691 66.099 83.705 66.18 83.868 65.75C84.142 65.032 84.144 56.563 83.871 56C83.697 55.642 83.683 55.724 83.767 56.583ZM383.542 56.117C383.06 56.358 382.696 56.585 382.732 56.621C382.768 56.657 383.086 56.532 383.438 56.343C383.79 56.154 384.169 56 384.279 56C384.39 56 384.527 55.925 384.583 55.833C384.744 55.573 384.489 55.643 383.542 56.117ZM90.197 56.418C89.938 56.986 89.915 71.864 90.173 72.344C90.335 72.649 90.534 72.665 93.714 72.63L97.083 72.594L93.75 72.505L90.417 72.417V64.333V56.25L100.333 56.203C106.516 56.173 110.501 56.218 110.917 56.321C111.283 56.413 111.846 56.527 112.167 56.576L112.75 56.666L112.083 56.377C111.479 56.116 110.435 56.084 100.905 56.037L90.393 55.986L90.197 56.418ZM134.75 56.342C133.886 56.751 134.355 56.744 135.333 56.333C135.746 56.16 135.933 56.021 135.75 56.023C135.567 56.025 135.117 56.169 134.75 56.342ZM338.538 56.228C338.663 56.353 338.95 56.509 339.174 56.574C339.505 56.67 339.478 56.626 339.038 56.346C338.409 55.947 338.21 55.9 338.538 56.228ZM133.029 57.088C132.633 57.307 132.149 57.536 131.954 57.598C131.627 57.702 131.033 58.167 131.228 58.167C131.275 58.167 131.824 57.905 132.448 57.584C133.073 57.264 133.677 57.001 133.792 57.001C133.906 57 134 56.925 134 56.833C134 56.598 133.847 56.638 133.029 57.088ZM339.667 56.728C339.667 56.906 340.716 57.84 340.81 57.746C340.853 57.702 340.857 57.648 340.819 57.625C340.78 57.602 340.505 57.363 340.208 57.094C339.91 56.825 339.667 56.66 339.667 56.728ZM381.872 57.172C381.573 57.444 381.423 57.663 381.539 57.657C381.655 57.652 381.924 57.427 382.138 57.157C382.625 56.541 382.562 56.544 381.872 57.172ZM114.252 57.352C114.618 57.545 115.051 57.822 115.216 57.967C115.456 58.18 115.496 58.184 115.421 57.989C115.329 57.748 114.065 56.999 113.752 57C113.662 57 113.887 57.158 114.252 57.352ZM130.422 58.463C130.15 58.621 129.833 58.836 129.718 58.942C129.603 59.048 129.244 59.297 128.921 59.497C128.598 59.697 128.333 59.929 128.333 60.013C128.333 60.142 129.252 59.54 130.75 58.429C131.202 58.093 131.027 58.112 130.422 58.463ZM380.278 58.861C380.043 59.161 379.895 59.446 379.948 59.495C380.002 59.544 380.082 59.48 380.127 59.354C380.172 59.228 380.355 58.978 380.535 58.799C380.714 58.619 380.826 58.437 380.783 58.394C380.74 58.351 380.513 58.561 380.278 58.861ZM116.629 59.376C116.833 59.594 117 59.86 117 59.969C117 60.078 117.075 60.167 117.167 60.167C117.258 60.167 117.339 60.298 117.346 60.458C117.355 60.645 117.391 60.672 117.446 60.534C117.548 60.28 116.859 59.214 116.504 59.077C116.364 59.022 116.417 59.151 116.629 59.376ZM379.667 59.845C379.667 59.943 379.554 60.136 379.417 60.274C379.279 60.411 379.168 60.612 379.17 60.72C379.175 60.979 379.825 60.146 379.83 59.875C379.832 59.76 379.796 59.667 379.75 59.667C379.704 59.667 379.667 59.747 379.667 59.845ZM127.717 60.381C127.643 60.499 127.367 60.761 127.103 60.964C126.838 61.167 126.701 61.333 126.799 61.333C126.896 61.333 127.255 61.071 127.595 60.75C127.935 60.429 128.132 60.167 128.032 60.167C127.932 60.167 127.79 60.263 127.717 60.381ZM342.833 60.959C342.833 61.051 342.946 61.219 343.083 61.333C343.223 61.449 343.333 61.467 343.333 61.374C343.333 61.282 343.221 61.114 343.083 61C342.944 60.884 342.833 60.866 342.833 60.959ZM117.5 61.146C117.5 61.249 117.57 61.333 117.655 61.333C117.74 61.333 117.843 61.502 117.882 61.708C117.952 62.068 117.956 62.068 117.977 61.729C117.99 61.534 117.888 61.281 117.75 61.167C117.577 61.023 117.5 61.017 117.5 61.146ZM378.833 61.417C378.716 61.559 378.657 61.712 378.702 61.758C378.748 61.804 378.882 61.725 379 61.583C379.118 61.441 379.177 61.288 379.131 61.242C379.085 61.196 378.951 61.275 378.833 61.417ZM125.542 62.428C124.716 63.284 124.528 63.668 125.25 63.026C125.905 62.442 126.729 61.5 126.574 61.511C126.488 61.517 126.023 61.93 125.542 62.428ZM343.333 62.261C343.333 62.351 343.437 62.574 343.563 62.755C343.69 62.935 343.83 63.196 343.875 63.333C343.92 63.471 343.927 63.359 343.891 63.086C343.831 62.625 343.333 61.889 343.333 62.261ZM378.363 62.681C378.242 62.874 378.176 63.064 378.215 63.104C378.33 63.219 378.703 62.693 378.64 62.504C378.608 62.408 378.484 62.488 378.363 62.681ZM118.003 63.032C118.004 63.243 118.078 63.529 118.167 63.667C118.29 63.857 118.329 63.79 118.331 63.385C118.332 63.092 118.258 62.807 118.167 62.75C118.074 62.693 118.001 62.817 118.003 63.032ZM377.865 64.058C377.756 64.36 377.67 64.714 377.675 64.845C377.679 64.976 377.797 64.757 377.936 64.359C378.076 63.96 378.162 63.606 378.127 63.571C378.092 63.537 377.975 63.756 377.865 64.058ZM63.034 64.954C62.923 65.321 62.839 65.801 62.846 66.019C62.854 66.238 62.882 66.342 62.91 66.25C62.937 66.158 63.053 65.773 63.167 65.394C63.281 65.015 63.342 64.611 63.304 64.495C63.265 64.38 63.144 64.586 63.034 64.954ZM118.404 68C118.404 69.971 118.428 70.777 118.458 69.792C118.487 68.806 118.487 67.194 118.458 66.208C118.428 65.223 118.404 66.029 118.404 68ZM123.062 65.292C122.283 66.362 122.361 66.518 123.167 65.5C123.457 65.133 123.627 64.833 123.545 64.833C123.463 64.833 123.246 65.04 123.062 65.292ZM344.5 65.198C344.5 65.251 344.616 65.547 344.758 65.856C345.016 66.415 345.016 66.415 344.913 65.917C344.824 65.485 344.5 64.921 344.5 65.198ZM377.333 65.583C377.216 65.725 377.157 65.879 377.202 65.925C377.248 65.971 377.382 65.892 377.5 65.75C377.618 65.608 377.677 65.454 377.631 65.409C377.585 65.363 377.451 65.441 377.333 65.583ZM122.048 66.667C122 66.85 121.901 67 121.827 67C121.753 67 121.644 67.225 121.583 67.5C121.523 67.775 121.412 68 121.338 68C121.263 68 121.155 68.123 121.097 68.274C120.869 68.868 121.498 68.124 121.872 67.357C122.08 66.931 122.325 66.528 122.417 66.461C122.518 66.387 122.495 66.337 122.359 66.336C122.236 66.334 122.096 66.483 122.048 66.667ZM376.842 66.901C376.715 67.138 376.655 67.377 376.708 67.431C376.836 67.558 377.206 66.867 377.131 66.642C377.099 66.547 376.969 66.663 376.842 66.901ZM345 66.898C345 66.933 345.112 67.177 345.249 67.439C345.509 67.938 345.566 67.847 345.395 67.208C345.313 66.904 345 66.657 345 66.898ZM62.528 67.281C62.24 67.818 62.292 68.134 62.596 67.699C62.74 67.493 62.828 67.233 62.79 67.121C62.749 66.998 62.645 67.062 62.528 67.281ZM83.368 68.114C83.257 68.314 83.17 68.652 83.173 68.864C83.18 69.233 83.191 69.23 83.434 68.782C83.573 68.525 83.661 68.187 83.628 68.032C83.578 67.793 83.538 67.806 83.368 68.114ZM345.505 68.125C345.508 68.194 345.621 68.396 345.755 68.574C346.005 68.904 346.081 68.739 345.899 68.264C345.797 67.998 345.495 67.892 345.505 68.125ZM376.363 68.348C376.242 68.541 376.176 68.731 376.215 68.77C376.33 68.886 376.703 68.36 376.64 68.171C376.608 68.075 376.484 68.155 376.363 68.348ZM62.015 68.848C61.748 69.739 61.879 69.871 62.167 69C62.288 68.632 62.35 68.294 62.304 68.248C62.258 68.202 62.128 68.472 62.015 68.848ZM120.195 69.781C119.925 70.285 119.951 70.406 120.263 70.094C120.408 69.949 120.496 69.737 120.458 69.624C120.416 69.497 120.315 69.557 120.195 69.781ZM346.005 69.592C346.002 69.688 346.068 69.838 346.15 69.925C346.233 70.012 346.337 70.233 346.381 70.417C346.459 70.742 346.462 70.742 346.481 70.407C346.491 70.218 346.39 69.918 346.255 69.74C346.121 69.562 346.008 69.495 346.005 69.592ZM61.531 70.036C61.297 70.27 61.273 70.5 61.482 70.5C61.635 70.5 61.886 69.997 61.784 69.896C61.753 69.864 61.639 69.928 61.531 70.036ZM119.708 70.829C119.405 71.315 119.453 71.641 119.762 71.199C119.907 70.993 120 70.751 119.97 70.661C119.94 70.571 119.822 70.646 119.708 70.829ZM82.796 70.759C82.741 70.847 82.653 71.219 82.598 71.585C82.544 71.951 82.543 72.137 82.595 72C82.648 71.862 82.769 71.589 82.865 71.391C83.041 71.028 82.979 70.463 82.796 70.759ZM375.292 71.273C374.881 72.081 374.926 72.382 375.342 71.607C375.53 71.256 375.661 70.908 375.634 70.834C375.606 70.759 375.452 70.957 375.292 71.273ZM61 71C60.868 71.082 60.815 71.204 60.883 71.271C60.95 71.339 61.093 71.307 61.2 71.2C61.452 70.948 61.311 70.808 61 71ZM346.5 70.948C346.5 71.256 346.989 71.781 346.995 71.479C346.998 71.33 346.887 71.114 346.75 71C346.613 70.886 346.5 70.862 346.5 70.948ZM398.129 71.622C398.521 71.657 399.121 71.657 399.463 71.621C399.804 71.585 399.483 71.557 398.75 71.557C398.017 71.558 397.737 71.587 398.129 71.622ZM324.333 71.917C324.881 72.23 325.152 72.233 324.74 71.922C324.562 71.787 324.304 71.678 324.167 71.678C324.022 71.678 324.092 71.779 324.333 71.917ZM396.517 71.847C396.298 71.935 396.158 72.047 396.206 72.095C396.255 72.144 396.547 72.073 396.856 71.939C397.469 71.671 397.164 71.589 396.517 71.847ZM119.204 72.039C119.106 72.156 118.975 72.458 118.912 72.709C118.759 73.319 118.544 73.287 118.353 72.625C118.167 71.981 118.09 72.614 118.272 73.292C118.378 73.688 118.833 73.818 118.833 73.452C118.833 73.334 118.982 72.945 119.164 72.588C119.502 71.926 119.522 71.656 119.204 72.039ZM325.167 72.268C325.167 72.323 325.356 72.517 325.587 72.699C325.818 72.881 326.123 73.255 326.266 73.53C326.408 73.806 326.563 73.993 326.609 73.947C326.721 73.834 326.191 73.01 325.705 72.542C325.309 72.16 325.167 72.087 325.167 72.268ZM347.005 72.343C347.008 72.475 347.121 72.729 347.255 72.907C347.428 73.135 347.498 73.159 347.495 72.99C347.492 72.858 347.379 72.604 347.245 72.426C347.072 72.198 347.002 72.174 347.005 72.343ZM395.625 72.399C395.465 72.52 395.333 72.666 395.333 72.721C395.333 72.909 395.807 72.643 395.899 72.404C396.008 72.118 395.995 72.117 395.625 72.399ZM82.184 72.968C82.071 73.178 82.012 73.478 82.053 73.634C82.109 73.844 82.133 73.824 82.147 73.556C82.158 73.357 82.253 73.166 82.358 73.131C82.464 73.095 82.514 72.958 82.47 72.825C82.41 72.647 82.336 72.683 82.184 72.968ZM97.5 72.786C97.638 72.837 97.975 72.986 98.25 73.116L98.75 73.353L98.333 73.014C98.104 72.827 97.767 72.678 97.583 72.684C97.345 72.69 97.321 72.72 97.5 72.786ZM374.581 73.179C374.519 73.46 374.513 73.735 374.567 73.79C374.622 73.844 374.667 73.731 374.667 73.538C374.667 73.344 374.742 73.14 374.833 73.083C375.043 72.954 375.052 72.667 374.847 72.667C374.762 72.667 374.643 72.897 374.581 73.179ZM59.442 73.471C59.291 73.639 59.167 73.838 59.167 73.914C59.167 73.989 59.317 73.878 59.5 73.667C59.683 73.455 59.833 73.256 59.833 73.224C59.833 73.1 59.706 73.18 59.442 73.471ZM347.5 73.79C347.5 74.04 347.989 74.606 347.995 74.363C347.998 74.242 347.887 74.03 347.75 73.893C347.613 73.755 347.5 73.709 347.5 73.79ZM394.562 73.905C394.459 74.017 394.323 74.291 394.26 74.513C394.166 74.842 394.213 74.815 394.51 74.368C394.878 73.815 394.91 73.526 394.562 73.905ZM99.275 74.333C99.351 74.563 99.433 87.911 99.456 103.997C99.479 120.083 99.53 133.321 99.569 133.414C99.608 133.507 99.646 120.373 99.654 104.227C99.665 77.671 99.641 74.826 99.401 74.394C99.172 73.982 99.155 73.974 99.275 74.333ZM145.5 74.167C144.762 74.257 144.702 74.284 145.195 74.306C145.531 74.321 145.915 74.375 146.048 74.426C146.181 74.477 146.335 74.402 146.39 74.26C146.445 74.117 146.473 74.012 146.453 74.027C146.433 74.042 146.004 74.105 145.5 74.167ZM374.175 74.24C374.061 74.377 374.007 74.585 374.054 74.703C374.111 74.843 374.145 74.821 374.154 74.639C374.161 74.486 374.26 74.328 374.375 74.287C374.49 74.246 374.538 74.163 374.482 74.102C374.426 74.042 374.288 74.104 374.175 74.24ZM58.458 74.514C58.298 74.69 58.23 74.833 58.308 74.833C58.385 74.833 58.584 74.683 58.75 74.5C58.916 74.317 58.984 74.173 58.901 74.181C58.818 74.188 58.619 74.338 58.458 74.514ZM81.788 74.267C81.721 74.334 81.667 74.504 81.667 74.644C81.667 74.832 81.716 74.851 81.852 74.715C81.954 74.613 82.009 74.443 81.974 74.337C81.938 74.232 81.855 74.201 81.788 74.267ZM137.75 74.421C137.383 74.542 136.896 74.65 136.667 74.661C136.438 74.673 136.025 74.792 135.75 74.926C135.326 75.133 135.313 75.155 135.667 75.072C135.896 75.017 136.608 74.867 137.25 74.738C137.892 74.609 138.679 74.435 139 74.352L139.583 74.201H139C138.679 74.201 138.117 74.3 137.75 74.421ZM326.68 74.338C326.673 74.478 326.77 74.74 326.897 74.921C327.023 75.102 327.163 75.362 327.208 75.5C327.253 75.637 327.261 75.529 327.226 75.258C327.191 74.988 327.099 74.725 327.022 74.675C326.946 74.625 326.84 74.471 326.788 74.333C326.705 74.114 326.691 74.115 326.68 74.338ZM57.277 75.606C56.421 76.273 56.241 76.539 56.958 76.076C57.43 75.773 58.273 75 58.133 75C58.09 75 57.705 75.273 57.277 75.606ZM81.514 75.25C81.5 75.433 81.379 75.729 81.245 75.907C81.11 76.085 81.001 76.31 81.003 76.407C81.004 76.504 81.16 76.342 81.349 76.047C81.538 75.752 81.658 75.377 81.616 75.213C81.549 74.956 81.535 74.961 81.514 75.25ZM134.292 75.282C134.131 75.323 134 75.427 134 75.512C134 75.597 133.831 75.675 133.625 75.686C133.397 75.698 133.352 75.733 133.51 75.775C133.653 75.814 134.103 75.694 134.51 75.51C135.174 75.208 135.054 75.082 134.292 75.282ZM393.955 75.267C393.888 75.334 393.833 75.504 393.833 75.644C393.833 75.832 393.883 75.851 394.019 75.715C394.121 75.613 394.175 75.443 394.14 75.337C394.105 75.232 394.022 75.201 393.955 75.267ZM373.702 75.739C373.423 76.352 373.449 76.48 373.762 76.033C373.907 75.827 373.998 75.577 373.964 75.477C373.931 75.377 373.813 75.495 373.702 75.739ZM327.333 76.23C327.333 76.368 327.4 76.521 327.481 76.572C327.562 76.622 327.677 76.908 327.736 77.206C327.863 77.848 328.333 78.572 328.333 78.125C328.333 77.975 328.258 77.807 328.167 77.75C328.075 77.693 327.916 77.313 327.813 76.904C327.627 76.165 327.333 75.753 327.333 76.23ZM348.519 76.376C348.509 76.536 348.657 76.949 348.85 77.292C349.18 77.882 349.193 77.889 349.086 77.418C349.024 77.144 348.913 76.882 348.839 76.835C348.766 76.788 348.668 76.6 348.622 76.417C348.554 76.145 348.535 76.137 348.519 76.376ZM55.625 76.762C55.281 76.987 55 77.212 55 77.262C55 77.388 55.988 76.795 56.2 76.542C56.441 76.254 56.346 76.29 55.625 76.762ZM131.423 76.64C130.942 76.909 130.259 77.46 130.586 77.314C131.32 76.988 132 76.581 132 76.469C132 76.307 132.037 76.296 131.423 76.64ZM80.696 77.015C80.576 77.208 80.509 77.398 80.548 77.437C80.664 77.553 81.037 77.027 80.974 76.837C80.942 76.742 80.817 76.821 80.696 77.015ZM373.208 76.996C372.905 77.481 372.953 77.808 373.262 77.366C373.407 77.16 373.5 76.918 373.47 76.827C373.44 76.737 373.322 76.813 373.208 76.996ZM54.074 77.578C53.896 77.713 53.829 77.825 53.926 77.828C54.024 77.831 54.249 77.723 54.426 77.589C54.604 77.454 54.671 77.342 54.574 77.339C54.476 77.336 54.251 77.443 54.074 77.578ZM129.631 77.75C129.383 77.979 129.138 78.167 129.086 78.167C129.033 78.167 128.611 78.467 128.147 78.833C127.683 79.2 127.349 79.5 127.405 79.5C127.604 79.5 128.833 78.62 128.833 78.478C128.833 78.398 128.927 78.331 129.042 78.329C129.295 78.323 130.487 77.344 130.248 77.338C130.156 77.335 129.878 77.521 129.631 77.75ZM392.958 77.94C392.798 78.255 392.669 78.642 392.673 78.799C392.676 78.955 392.831 78.759 393.016 78.364C393.423 77.496 393.372 77.125 392.958 77.94ZM53 78C53 78.092 52.869 78.173 52.708 78.18C52.548 78.187 52.498 78.227 52.597 78.268C52.696 78.309 52.996 78.228 53.264 78.089C53.705 77.859 53.716 77.835 53.375 77.834C53.169 77.834 53 77.908 53 78ZM80.197 78.036C80.089 78.145 80 78.348 80 78.487C80 78.661 80.084 78.621 80.267 78.36C80.559 77.942 80.512 77.721 80.197 78.036ZM372.696 78.586C372.581 78.837 372.522 79.077 372.564 79.119C372.677 79.232 373.031 78.51 372.963 78.305C372.931 78.208 372.81 78.335 372.696 78.586ZM51.167 78.583C50.6 78.907 51.113 78.912 51.856 78.59C52.366 78.368 52.379 78.346 52 78.346C51.771 78.345 51.396 78.452 51.167 78.583ZM328.339 78.76C328.336 78.857 328.443 79.082 328.578 79.26C328.713 79.438 328.825 79.504 328.828 79.407C328.831 79.31 328.723 79.085 328.589 78.907C328.454 78.729 328.342 78.663 328.339 78.76ZM48.75 79.08C48.2 79.196 47.938 79.297 48.167 79.305C48.396 79.312 49.033 79.217 49.583 79.093C50.133 78.969 50.396 78.868 50.167 78.869C49.938 78.869 49.3 78.964 48.75 79.08ZM79.667 79.083C79.549 79.225 79.49 79.379 79.536 79.425C79.582 79.471 79.716 79.392 79.833 79.25C79.951 79.108 80.01 78.954 79.964 78.909C79.918 78.863 79.784 78.941 79.667 79.083ZM392.353 79.553C392.08 80.239 392.127 80.496 392.422 79.93C392.562 79.663 392.645 79.363 392.608 79.264C392.57 79.165 392.456 79.294 392.353 79.553ZM372.346 79.694C372.339 79.847 372.247 80.001 372.142 80.036C372.036 80.071 371.986 80.209 372.03 80.341C372.09 80.52 372.164 80.483 372.316 80.199C372.429 79.988 372.485 79.725 372.441 79.616C372.395 79.503 372.354 79.536 372.346 79.694ZM126.153 80.681C125.595 81.238 125.164 81.719 125.194 81.749C125.225 81.778 125.728 81.322 126.312 80.735C126.895 80.147 127.327 79.667 127.27 79.667C127.213 79.667 126.71 80.123 126.153 80.681ZM349.672 79.758C349.669 79.855 349.734 80.005 349.817 80.092C349.9 80.179 350.004 80.4 350.048 80.583C350.126 80.909 350.128 80.908 350.147 80.574C350.158 80.385 350.057 80.085 349.922 79.907C349.787 79.729 349.675 79.662 349.672 79.758ZM79.1 80.193C78.953 80.403 78.833 80.67 78.833 80.787C78.833 80.904 78.766 81 78.684 81C78.603 81 78.487 81.127 78.427 81.282C78.332 81.53 78.361 81.527 78.659 81.256C78.847 81.087 79 80.872 79 80.779C79 80.686 79.125 80.472 79.277 80.304C79.429 80.136 79.512 79.956 79.46 79.905C79.409 79.854 79.247 79.983 79.1 80.193ZM328.844 80.167C328.844 80.304 328.954 80.562 329.089 80.74C329.273 80.985 329.333 81.003 329.333 80.814C329.333 80.676 329.223 80.418 329.089 80.24C328.904 79.996 328.844 79.978 328.844 80.167ZM391.874 80.829C391.571 81.315 391.62 81.641 391.929 81.199C392.073 80.993 392.167 80.751 392.137 80.661C392.107 80.571 391.989 80.646 391.874 80.829ZM350.172 81.092C350.169 81.188 350.234 81.338 350.317 81.425C350.4 81.512 350.504 81.733 350.548 81.917C350.626 82.242 350.628 82.242 350.647 81.907C350.658 81.718 350.557 81.418 350.422 81.24C350.287 81.062 350.175 80.995 350.172 81.092ZM329.334 81.343C329.334 81.486 329.443 81.749 329.578 81.926C329.896 82.347 329.9 82.165 329.584 81.561C329.447 81.298 329.335 81.2 329.334 81.343ZM371.622 81.434C371.555 81.501 371.5 81.671 371.5 81.811C371.5 81.999 371.549 82.017 371.685 81.881C371.787 81.779 371.842 81.61 371.807 81.504C371.772 81.399 371.688 81.367 371.622 81.434ZM391.374 82.163C391.071 82.648 391.12 82.975 391.429 82.533C391.573 82.327 391.667 82.084 391.637 81.994C391.607 81.904 391.489 81.98 391.374 82.163ZM77.697 82.369C77.464 82.603 77.44 82.833 77.649 82.833C77.802 82.833 78.053 82.331 77.951 82.229C77.92 82.198 77.806 82.261 77.697 82.369ZM371.347 82.417C371.334 82.6 371.213 82.896 371.078 83.074C370.943 83.251 370.842 83.551 370.853 83.74C370.871 84.067 370.876 84.068 370.955 83.757C371.001 83.577 371.148 83.262 371.283 83.057C371.417 82.851 371.493 82.548 371.45 82.383C371.381 82.119 371.369 82.123 371.347 82.417ZM350.668 82.605C350.667 82.8 350.779 83.053 350.917 83.167C351.231 83.428 351.232 83.329 350.918 82.727C350.702 82.314 350.669 82.297 350.668 82.605ZM329.834 82.676C329.834 82.819 329.943 83.082 330.078 83.26C330.396 83.681 330.4 83.498 330.084 82.894C329.947 82.631 329.835 82.534 329.834 82.676ZM124.111 83.165C123.867 83.439 123.667 83.719 123.667 83.786C123.667 83.853 123.895 83.657 124.175 83.351C124.455 83.045 124.655 82.766 124.619 82.73C124.584 82.695 124.355 82.891 124.111 83.165ZM77.067 83.358C76.752 83.713 76.752 83.714 77.125 83.518C77.331 83.41 77.5 83.249 77.5 83.161C77.5 82.924 77.42 82.96 77.067 83.358ZM390.861 83.448C390.574 83.985 390.625 84.3 390.929 83.866C391.073 83.66 391.161 83.4 391.124 83.288C391.083 83.165 390.979 83.228 390.861 83.448ZM330.416 84.083C330.538 84.63 330.621 84.768 330.753 84.636C330.8 84.588 330.719 84.332 330.572 84.066L330.304 83.583L330.416 84.083ZM351.173 83.938C351.189 84.33 351.655 84.926 351.661 84.562C351.664 84.367 351.554 84.114 351.417 84C351.279 83.886 351.169 83.858 351.173 83.938ZM123.281 84.339C123.127 84.56 123 84.805 123 84.882C123 84.96 122.888 85.136 122.75 85.274C122.612 85.411 122.506 85.65 122.513 85.804C122.524 86.03 122.545 86.037 122.623 85.836C122.677 85.7 122.821 85.489 122.943 85.366C123.066 85.243 123.167 85.039 123.167 84.913C123.167 84.787 123.289 84.615 123.438 84.531C123.588 84.448 123.677 84.28 123.636 84.158C123.586 84.007 123.474 84.065 123.281 84.339ZM370.414 84.679C370.352 84.96 370.346 85.235 370.401 85.29C370.455 85.344 370.5 85.231 370.5 85.038C370.5 84.844 370.575 84.64 370.667 84.583C370.876 84.454 370.885 84.167 370.68 84.167C370.596 84.167 370.476 84.397 370.414 84.679ZM390.352 84.852C390.23 85.127 390.166 85.388 390.209 85.432C390.253 85.475 390.384 85.281 390.5 85C390.776 84.334 390.641 84.199 390.352 84.852ZM74.061 86.792C72.245 88.567 71.553 89.167 71.319 89.167C71.235 89.167 71.167 89.246 71.167 89.343C71.167 89.807 73.822 87.504 75.567 85.526C76.299 84.697 75.612 85.274 74.061 86.792ZM330.833 85.295C330.833 85.408 330.983 85.781 331.167 86.123C331.35 86.465 331.5 86.652 331.5 86.539C331.5 86.425 331.35 86.052 331.167 85.71C330.983 85.368 330.833 85.181 330.833 85.295ZM351.667 85.297C351.667 85.409 351.824 85.782 352.016 86.126C352.338 86.7 352.357 86.711 352.256 86.264C352.137 85.735 351.667 84.964 351.667 85.297ZM370.014 85.975C369.914 86.16 369.834 86.41 369.834 86.531C369.835 86.651 369.949 86.533 370.087 86.267C370.226 86.001 370.307 85.751 370.266 85.711C370.226 85.671 370.113 85.79 370.014 85.975ZM389.857 86.19C389.74 86.379 389.68 86.569 389.725 86.614C389.77 86.659 389.893 86.532 390 86.333C390.252 85.863 390.135 85.746 389.857 86.19ZM122.101 86.43C121.945 86.838 121.979 86.878 122.25 86.607C122.533 86.324 122.569 86.167 122.351 86.167C122.269 86.167 122.157 86.285 122.101 86.43ZM369.427 87.603C369.273 88.215 369.395 88.252 369.618 87.66C369.721 87.389 369.744 87.167 369.67 87.167C369.596 87.167 369.487 87.363 369.427 87.603ZM389.288 87.601C389.221 87.668 389.167 87.837 389.167 87.978C389.167 88.165 389.216 88.184 389.352 88.048C389.454 87.946 389.509 87.776 389.474 87.671C389.438 87.565 389.355 87.534 389.288 87.601ZM121.292 88.44C120.881 89.248 120.926 89.549 121.342 88.774C121.53 88.423 121.661 88.075 121.634 88C121.606 87.926 121.452 88.124 121.292 88.44ZM352.667 88.13C352.667 88.243 352.824 88.616 353.016 88.959C353.338 89.533 353.357 89.544 353.256 89.097C353.137 88.569 352.667 87.797 352.667 88.13ZM332.011 88.417C332.011 88.508 332.121 88.729 332.255 88.907C332.39 89.085 332.5 89.155 332.5 89.064C332.5 88.972 332.39 88.751 332.255 88.574C332.121 88.396 332.011 88.325 332.011 88.417ZM369.03 88.681C368.909 88.874 368.842 89.064 368.881 89.104C368.997 89.219 369.37 88.693 369.307 88.504C369.275 88.408 369.15 88.488 369.03 88.681ZM388.792 88.94C388.381 89.748 388.426 90.049 388.842 89.274C389.03 88.923 389.161 88.575 389.134 88.5C389.106 88.426 388.952 88.624 388.792 88.94ZM70.333 90.008C70.104 90.189 69.77 90.449 69.591 90.586C69.073 90.979 69.458 90.873 70.048 90.458C70.343 90.252 70.621 90.038 70.667 89.983C70.712 89.928 70.862 89.84 71 89.788C71.222 89.704 71.222 89.692 71 89.685C70.862 89.681 70.563 89.826 70.333 90.008ZM120.695 89.948C120.407 90.485 120.458 90.8 120.762 90.366C120.907 90.16 120.994 89.9 120.957 89.788C120.916 89.665 120.812 89.728 120.695 89.948ZM332.511 89.75C332.511 89.842 332.621 90.062 332.755 90.24C332.89 90.418 333 90.489 333 90.397C333 90.305 332.89 90.085 332.755 89.907C332.621 89.729 332.511 89.658 332.511 89.75ZM368.535 90.072C368.256 90.685 368.283 90.813 368.596 90.366C368.74 90.16 368.831 89.91 368.798 89.81C368.765 89.71 368.646 89.828 368.535 90.072ZM353.339 89.856C353.336 89.914 353.445 90.177 353.582 90.439C353.719 90.702 353.832 90.8 353.832 90.657C353.833 90.412 353.35 89.628 353.339 89.856ZM388.187 90.553C387.914 91.239 387.961 91.496 388.256 90.93C388.395 90.663 388.479 90.363 388.441 90.264C388.404 90.165 388.289 90.294 388.187 90.553ZM67.917 91.588C67.55 91.813 67.175 92.026 67.083 92.06C66.992 92.093 66.972 92.181 67.041 92.254C67.109 92.327 67.302 92.262 67.47 92.11C67.639 91.958 67.834 91.833 67.904 91.833C67.973 91.833 68.221 91.683 68.455 91.5C69.04 91.039 68.723 91.091 67.917 91.588ZM333.201 91.492C333.431 91.861 333.592 91.815 333.442 91.424C333.388 91.282 333.266 91.167 333.17 91.167C333.061 91.167 333.072 91.286 333.201 91.492ZM367.939 91.823C367.768 92.178 367.669 92.569 367.718 92.693C367.774 92.835 367.812 92.799 367.82 92.596C367.827 92.42 367.952 92.145 368.098 91.984C368.243 91.823 368.337 91.576 368.306 91.434C368.272 91.277 368.129 91.428 367.939 91.823ZM120.208 91.785C120.094 92.032 120.003 92.387 120.007 92.575C120.011 92.822 120.082 92.757 120.262 92.342C120.559 91.657 120.509 91.139 120.208 91.785ZM387.681 91.806C387.567 92.02 387.506 92.228 387.546 92.268C387.677 92.399 388.034 91.851 387.96 91.631C387.915 91.496 387.813 91.56 387.681 91.806ZM333.512 92.167C333.512 92.407 333.982 93.361 333.994 93.144C333.997 93.086 333.89 92.786 333.757 92.477C333.623 92.169 333.513 92.029 333.512 92.167ZM387.202 93.072C386.911 93.712 386.955 94.007 387.256 93.43C387.395 93.163 387.486 92.873 387.457 92.787C387.428 92.7 387.313 92.828 387.202 93.072ZM65.26 93.089C64.844 93.403 64.998 93.401 65.606 93.084C65.869 92.947 65.971 92.837 65.833 92.84C65.696 92.842 65.438 92.954 65.26 93.089ZM354.333 92.898C354.333 92.933 354.445 93.177 354.582 93.439C354.842 93.938 354.899 93.847 354.728 93.208C354.647 92.904 354.333 92.657 354.333 92.898ZM64 93.587C63.771 93.722 63.367 93.91 63.102 94.004C62.837 94.099 62.658 94.213 62.703 94.259C62.79 94.345 64.065 93.815 64.5 93.513C64.88 93.248 64.474 93.308 64 93.587ZM119.708 94.153C119.594 94.524 119.505 94.998 119.512 95.206C119.518 95.429 119.625 95.253 119.771 94.777C119.907 94.333 119.996 93.86 119.968 93.724C119.94 93.589 119.823 93.782 119.708 94.153ZM334.019 93.641C334.009 93.764 334.106 94.064 334.235 94.308C334.365 94.551 334.567 95.007 334.684 95.32C334.801 95.634 334.928 95.8 334.965 95.69C335.001 95.579 334.958 95.398 334.868 95.286C334.779 95.175 334.653 94.84 334.589 94.542C334.526 94.244 334.41 94 334.332 94C334.255 94 334.157 93.869 334.115 93.708C334.073 93.548 334.03 93.518 334.019 93.641ZM354.833 94.218C354.833 94.351 354.946 94.553 355.083 94.667C355.272 94.824 355.333 94.826 355.333 94.675C355.333 94.566 355.221 94.364 355.083 94.226C354.869 94.012 354.833 94.011 354.833 94.218ZM61.517 94.514C60.859 94.777 61.21 94.837 61.923 94.583C62.286 94.454 62.433 94.349 62.25 94.351C62.067 94.353 61.737 94.426 61.517 94.514ZM386.611 94.444C386.362 94.694 386.489 95.05 386.75 94.833C386.887 94.719 387 94.56 387 94.48C387 94.307 386.769 94.286 386.611 94.444ZM366.746 94.846C366.686 95.036 366.681 95.236 366.735 95.29C366.789 95.345 366.833 95.264 366.833 95.111C366.833 94.958 366.908 94.833 367 94.833C367.092 94.833 367.167 94.758 367.167 94.667C367.167 94.363 366.858 94.494 366.746 94.846ZM59.5 95.167C59.297 95.298 59.318 95.329 59.615 95.331C59.816 95.332 60.027 95.258 60.083 95.167C60.214 94.954 59.828 94.954 59.5 95.167ZM355.333 95.448C355.333 95.547 355.452 95.843 355.598 96.106L355.862 96.583L355.753 96.083C355.641 95.573 355.333 95.107 355.333 95.448ZM386.21 95.785C386.096 96.027 386.034 96.256 386.072 96.294C386.172 96.394 386.531 95.674 386.469 95.496C386.44 95.413 386.324 95.543 386.21 95.785ZM57.634 95.588C57.586 95.637 57.217 95.747 56.815 95.833C56.1 95.987 56.105 95.988 57 95.902C57.832 95.821 58.613 95.5 57.978 95.5C57.837 95.5 57.683 95.54 57.634 95.588ZM366.338 96.238C366.075 96.929 366.147 97.158 366.426 96.516C366.561 96.205 366.635 95.913 366.591 95.868C366.546 95.824 366.432 95.99 366.338 96.238ZM54.075 96.154C53.988 96.238 53.729 96.341 53.5 96.382C53.271 96.422 53.469 96.424 53.941 96.385C55.284 96.274 55.967 96.033 54.992 96.014C54.575 96.006 54.162 96.069 54.075 96.154ZM335.011 96.167C335.011 96.304 335.156 96.717 335.333 97.083C335.51 97.45 335.655 97.638 335.655 97.5C335.655 97.362 335.51 96.95 335.333 96.583C335.156 96.217 335.011 96.029 335.011 96.167ZM29.926 96.87C29.612 97.318 29.52 133.943 29.833 133.75C29.943 133.682 30.001 127.426 30.002 115.532C30.004 105.568 30.05 97.248 30.105 97.043L30.205 96.669L40.561 96.625L50.917 96.581L40.551 96.54L30.186 96.5L29.926 96.87ZM119.184 97.722C119.083 98.302 119.005 98.996 119.011 99.264C119.029 100.113 119.318 99.144 119.441 97.818C119.575 96.377 119.428 96.322 119.184 97.722ZM385.785 96.917C385.72 97.1 385.62 97.362 385.563 97.5C385.48 97.702 385.515 97.698 385.746 97.478C385.903 97.328 386.003 97.066 385.968 96.895C385.907 96.601 385.896 96.602 385.785 96.917ZM355.833 97.031C355.833 97.175 355.946 97.386 356.083 97.5C356.401 97.764 356.398 97.516 356.078 97.093C355.882 96.834 355.833 96.822 355.833 97.031ZM385.353 98.092C385.342 98.28 385.245 98.522 385.136 98.631C385.028 98.739 384.984 98.873 385.039 98.928C385.196 99.085 385.53 98.35 385.447 98.033C385.388 97.811 385.368 97.823 385.353 98.092ZM335.944 98.691C336.248 99.574 336.667 100.209 336.667 99.787C336.667 99.629 336.593 99.5 336.502 99.5C336.412 99.5 336.253 99.162 336.149 98.75C336.045 98.337 335.903 98 335.833 98C335.763 98 335.813 98.311 335.944 98.691ZM365.667 98.228C365.667 98.384 365.547 98.694 365.401 98.917C365.255 99.14 365.174 99.419 365.221 99.536C365.275 99.67 365.312 99.641 365.32 99.458C365.327 99.298 365.402 99.167 365.487 99.167C365.667 99.167 365.911 98.188 365.766 98.044C365.711 97.989 365.667 98.072 365.667 98.228ZM356.333 98.543C356.333 98.68 356.446 98.886 356.583 99C356.787 99.169 356.833 99.161 356.833 98.957C356.833 98.82 356.721 98.614 356.583 98.5C356.38 98.331 356.333 98.339 356.333 98.543ZM384.771 99.452C384.714 99.616 384.623 99.844 384.569 99.958C384.516 100.073 384.545 100.167 384.635 100.167C384.724 100.167 384.846 99.97 384.907 99.73C385.033 99.226 384.927 99.008 384.771 99.452ZM356.839 99.607C356.836 99.711 356.982 100.124 357.163 100.523C357.344 100.923 357.492 101.138 357.491 101C357.488 100.702 356.847 99.332 356.839 99.607ZM364.848 100.306C364.733 100.52 364.673 100.728 364.713 100.768C364.844 100.899 365.2 100.351 365.127 100.131C365.082 99.996 364.979 100.06 364.848 100.306ZM336.672 100.688C336.669 100.837 336.779 101.053 336.917 101.167C337.237 101.433 337.24 101.161 336.922 100.74C336.716 100.468 336.676 100.46 336.672 100.688ZM357.505 101.523C357.502 101.581 357.612 101.843 357.749 102.106C357.886 102.369 357.998 102.466 357.999 102.324C358 102.079 357.517 101.295 357.505 101.523ZM364.364 101.703C364.255 101.811 364.167 102.014 364.167 102.154C364.167 102.328 364.25 102.288 364.434 102.026C364.726 101.609 364.679 101.388 364.364 101.703ZM337.167 102.126C337.167 102.218 337.279 102.386 337.417 102.5C337.556 102.616 337.667 102.634 337.667 102.541C337.667 102.449 337.554 102.281 337.417 102.167C337.277 102.051 337.167 102.033 337.167 102.126ZM383.531 102.703C383.422 102.811 383.334 103.054 383.334 103.242C383.335 103.524 383.379 103.5 383.587 103.1C383.864 102.57 383.838 102.395 383.531 102.703ZM364.013 102.861C364.006 103.014 363.914 103.168 363.808 103.203C363.703 103.238 363.653 103.375 363.697 103.508C363.757 103.687 363.831 103.65 363.983 103.365C364.096 103.154 364.152 102.892 364.107 102.782C364.061 102.669 364.021 102.703 364.013 102.861ZM337.686 103.023C337.675 103.172 337.776 103.547 337.91 103.856C338.089 104.267 338.155 104.325 338.16 104.075C338.164 103.887 338.099 103.662 338.016 103.575C337.933 103.488 337.83 103.267 337.786 103.083C337.729 102.849 337.7 102.831 337.686 103.023ZM358 103.064C358 103.201 358.075 103.36 358.167 103.417C358.258 103.473 358.333 103.407 358.333 103.27C358.333 103.132 358.258 102.973 358.167 102.917C358.075 102.86 358 102.926 358 103.064ZM358.341 103.891C358.337 104.061 358.439 104.436 358.568 104.725C358.698 105.014 358.848 105.362 358.902 105.5C358.957 105.638 358.97 105.563 358.931 105.333C358.824 104.701 358.349 103.541 358.341 103.891ZM383.028 103.948C382.74 104.485 382.792 104.8 383.096 104.366C383.24 104.16 383.328 103.9 383.29 103.788C383.249 103.665 383.145 103.728 383.028 103.948ZM338.218 104.722C338.281 104.89 338.333 105.096 338.333 105.18C338.333 105.264 338.408 105.333 338.5 105.333C338.757 105.333 338.698 105.007 338.384 104.696C338.12 104.434 338.109 104.436 338.218 104.722ZM363.342 104.901C363.215 105.138 363.155 105.377 363.208 105.431C363.336 105.558 363.706 104.867 363.631 104.642C363.599 104.547 363.469 104.663 363.342 104.901ZM382.514 105.473C382.4 105.687 382.339 105.895 382.379 105.935C382.51 106.066 382.867 105.517 382.794 105.298C382.749 105.163 382.646 105.227 382.514 105.473ZM338.682 106C338.667 106.353 338.957 106.766 339.111 106.611C339.182 106.54 339.16 106.43 339.062 106.366C338.964 106.302 338.84 106.138 338.788 106C338.704 105.778 338.692 105.778 338.682 106ZM359.006 106.093C359.003 106.282 359.11 106.582 359.245 106.76C359.575 107.196 359.579 106.742 359.25 106.167C359.032 105.786 359.011 105.779 359.006 106.093ZM362.771 106.812C362.599 107.35 362.499 107.894 362.549 108.02C362.599 108.147 362.646 108.059 362.654 107.825C362.661 107.591 362.736 107.329 362.82 107.242C362.972 107.085 363.26 105.833 363.144 105.833C363.11 105.833 362.943 106.274 362.771 106.812ZM382.038 106.708C381.754 107.493 381.793 107.706 382.094 107.013C382.23 106.699 382.319 106.375 382.292 106.292C382.265 106.21 382.15 106.397 382.038 106.708ZM339.169 107.171C339.173 107.509 339.458 107.931 339.591 107.798C339.651 107.737 339.581 107.517 339.434 107.307C339.262 107.061 339.168 107.013 339.169 107.171ZM359.505 108.092C359.508 108.27 359.63 108.567 359.775 108.75C360.029 109.07 360.035 109.063 359.925 108.583C359.783 107.967 359.498 107.633 359.505 108.092ZM381.531 108.036C381.297 108.27 381.273 108.5 381.482 108.5C381.635 108.5 381.886 107.997 381.784 107.896C381.753 107.864 381.639 107.928 381.531 108.036ZM362.279 108.786C362.216 108.889 362.136 109.297 362.102 109.695C362.068 110.092 362.071 110.267 362.11 110.083C362.149 109.9 362.261 109.589 362.36 109.391C362.554 109.002 362.482 108.458 362.279 108.786ZM381.18 109.194C381.173 109.347 381.08 109.501 380.975 109.536C380.87 109.571 380.82 109.709 380.864 109.841C380.923 110.02 380.997 109.983 381.15 109.699C381.263 109.488 381.319 109.225 381.274 109.116C381.228 109.003 381.187 109.036 381.18 109.194ZM340.251 109.984C340.336 110.554 340.642 111.08 340.798 110.925C340.843 110.879 340.79 110.732 340.679 110.598C340.568 110.464 340.407 110.144 340.322 109.886C340.175 109.442 340.171 109.448 340.251 109.984ZM360.012 109.917C360.012 110.266 360.484 111.224 360.494 110.894C360.497 110.79 360.39 110.453 360.257 110.144C360.088 109.757 360.013 109.687 360.012 109.917ZM380.42 110.888C380.255 111.194 380.162 111.551 380.214 111.681C380.282 111.853 380.311 111.836 380.32 111.619C380.327 111.455 380.456 111.134 380.606 110.906C380.756 110.677 380.843 110.454 380.799 110.41C380.756 110.367 380.585 110.582 380.42 110.888ZM361.669 111.458C361.671 111.815 361.707 111.861 361.833 111.667C362.044 111.341 362.044 111 361.833 111C361.742 111 361.668 111.206 361.669 111.458ZM340.833 111.679C340.833 111.777 340.946 111.97 341.083 112.107C341.343 112.367 341.407 112.219 341.232 111.764C341.118 111.466 340.833 111.405 340.833 111.679ZM360.506 112.375C360.512 112.775 361.253 113.803 361.416 113.639C361.47 113.585 361.539 113.288 361.569 112.979C361.598 112.67 361.59 112.585 361.55 112.792C361.446 113.333 361.207 113.253 360.927 112.583C360.647 111.912 360.497 111.838 360.506 112.375ZM341.339 112.843C341.342 112.975 341.454 113.229 341.589 113.407C341.761 113.635 341.832 113.659 341.828 113.49C341.825 113.358 341.713 113.104 341.578 112.926C341.406 112.698 341.335 112.674 341.339 112.843ZM379.338 113.744C379.226 113.879 379.164 114.075 379.199 114.18C379.234 114.285 379.352 114.175 379.461 113.936C379.684 113.447 379.64 113.38 379.338 113.744ZM341.845 114.167C341.845 114.304 341.952 114.604 342.083 114.833C342.221 115.074 342.322 115.144 342.322 115C342.322 114.862 342.214 114.563 342.083 114.333C341.946 114.093 341.845 114.022 341.845 114.167ZM378.724 115.257C378.574 115.648 378.736 115.694 378.966 115.326C379.095 115.12 379.106 115 378.996 115C378.901 115 378.778 115.116 378.724 115.257ZM342.336 115.505C342.339 115.842 342.624 116.265 342.758 116.131C342.818 116.071 342.747 115.85 342.6 115.64C342.428 115.395 342.334 115.346 342.336 115.505ZM378.341 116.24C378.228 116.377 378.167 116.585 378.206 116.702C378.251 116.837 378.354 116.773 378.486 116.527C378.731 116.069 378.637 115.884 378.341 116.24ZM342.839 116.938C342.849 117.233 343.333 117.753 343.333 117.469C343.333 117.325 343.221 117.114 343.083 117C342.946 116.886 342.836 116.858 342.839 116.938ZM377.852 117.685C377.73 117.961 377.666 118.221 377.709 118.265C377.753 118.308 377.884 118.114 378 117.833C378.276 117.167 378.141 117.032 377.852 117.685ZM343.34 118.126C343.336 118.241 343.483 118.614 343.667 118.956C343.85 119.299 343.997 119.467 343.993 119.331C343.984 119.016 343.35 117.845 343.34 118.126ZM377.363 119.015C377.242 119.208 377.176 119.398 377.215 119.437C377.33 119.553 377.703 119.027 377.64 118.837C377.608 118.742 377.484 118.821 377.363 119.015ZM344.011 119.958C344.005 120.165 344.075 120.333 344.167 120.333C344.258 120.333 344.333 120.453 344.333 120.6C344.333 120.951 344.852 122.037 344.965 121.924C345.014 121.875 344.937 121.591 344.795 121.293C344.653 120.994 344.42 120.487 344.279 120.167C344.068 119.689 344.019 119.652 344.011 119.958ZM376.875 120.26C376.76 120.384 376.667 120.581 376.667 120.697C376.667 120.813 376.787 120.736 376.934 120.526C377.234 120.097 377.194 119.914 376.875 120.26ZM376.273 121.823C376.102 122.178 376.002 122.569 376.051 122.693C376.108 122.835 376.145 122.799 376.154 122.596C376.161 122.42 376.286 122.145 376.431 121.984C376.577 121.823 376.671 121.576 376.64 121.434C376.605 121.277 376.462 121.428 376.273 121.823ZM345 122.586C345 122.633 345.073 122.801 345.162 122.961C345.252 123.12 345.44 123.543 345.581 123.901C345.722 124.258 345.883 124.506 345.938 124.451C345.993 124.396 345.88 124.023 345.686 123.623C345.492 123.222 345.333 122.806 345.333 122.697C345.333 122.589 345.258 122.5 345.167 122.5C345.075 122.5 345 122.539 345 122.586ZM375.273 124.361C375.103 124.723 374.999 125.055 375.043 125.099C375.148 125.204 375.705 124.026 375.636 123.844C375.607 123.766 375.444 123.999 375.273 124.361ZM346.006 125.106C346.003 125.21 346.112 125.51 346.249 125.773C346.386 126.035 346.496 126.138 346.493 126C346.487 125.701 346.014 124.833 346.006 125.106ZM374.702 126.005C374.591 126.183 374.5 126.424 374.501 126.539C374.502 126.655 374.615 126.533 374.754 126.267C375.043 125.713 375.005 125.521 374.702 126.005ZM346.5 126.626C346.5 126.718 346.613 126.886 346.75 127C346.889 127.116 347 127.134 347 127.041C347 126.949 346.887 126.781 346.75 126.667C346.611 126.551 346.5 126.533 346.5 126.626ZM374.197 127.203C374.089 127.311 374 127.514 374 127.654C374 127.828 374.084 127.788 374.267 127.526C374.559 127.109 374.512 126.888 374.197 127.203ZM347.011 127.75C347.011 127.933 347.121 128.229 347.255 128.407C347.58 128.836 347.576 128.404 347.25 127.833C347.039 127.465 347.012 127.455 347.011 127.75ZM373.667 128.667C373.55 128.948 373.493 129.215 373.538 129.261C373.584 129.307 373.717 129.114 373.833 128.833C373.95 128.552 374.007 128.285 373.962 128.239C373.916 128.193 373.783 128.386 373.667 128.667ZM347.501 129.105C347.5 129.3 347.613 129.553 347.75 129.667C348.065 129.928 348.065 129.829 347.751 129.227C347.535 128.814 347.502 128.797 347.501 129.105ZM373.201 130.008C373.072 130.214 373.061 130.333 373.17 130.333C373.266 130.333 373.388 130.218 373.442 130.076C373.592 129.685 373.431 129.639 373.201 130.008ZM372.675 131.234C372.548 131.472 372.488 131.71 372.542 131.764C372.669 131.892 373.039 131.201 372.964 130.975C372.932 130.88 372.802 130.997 372.675 131.234ZM348.581 131.75C348.84 132.912 347.97 132.833 360.597 132.833C372.588 132.833 372.5 132.839 372.5 132.129C372.5 132.03 372.36 132.11 372.189 132.308L371.878 132.667H360.54H349.202L348.835 131.958C348.529 131.364 348.487 131.331 348.581 131.75ZM9.97599 133.876C10.046 133.946 14.486 133.983 19.843 133.96L29.583 133.917L19.717 133.833C14.29 133.787 9.90699 133.807 9.97599 133.876ZM99.81 133.876C99.879 133.946 104.094 133.983 109.176 133.96L118.417 133.917L109.05 133.833C103.898 133.787 99.74 133.807 99.81 133.876Z" fill="#BB1425"/>
<path fill-rule="evenodd" clip-rule="evenodd" d="M0 34.08V42.5H4.916H9.833L9.875 88.125L9.917 133.75L19.792 133.793L29.667 133.836V115.52C29.667 98.32 29.684 97.182 29.958 96.854C30.249 96.506 30.298 96.504 42.033 96.461C51.19 96.426 53.863 96.37 54.025 96.208C54.14 96.094 54.612 95.997 55.075 95.993C55.919 95.985 56.319 95.918 58.333 95.44C60.302 94.973 60.911 94.802 61.442 94.566C61.731 94.438 62.088 94.333 62.236 94.333C62.384 94.333 62.635 94.263 62.794 94.177C63.058 94.035 63.751 93.726 65.333 93.047C65.654 92.909 66.029 92.728 66.167 92.643C66.304 92.559 66.548 92.446 66.708 92.392C66.869 92.339 67 92.247 67.001 92.189C67.001 92.131 67.432 91.858 67.957 91.583C68.483 91.308 68.999 91.008 69.103 90.917C69.207 90.825 69.46 90.638 69.666 90.5C69.871 90.362 70.21 90.119 70.421 89.958C70.631 89.798 70.884 89.667 70.985 89.667C71.085 89.667 71.167 89.554 71.167 89.417C71.167 89.279 71.235 89.167 71.319 89.167C71.685 89.167 75.826 85.223 75.83 84.87C75.832 84.752 75.946 84.613 76.083 84.56C76.221 84.508 76.333 84.402 76.333 84.325C76.333 84.248 76.595 83.9 76.916 83.551C77.236 83.202 77.499 82.841 77.499 82.748C77.5 82.656 77.688 82.378 77.917 82.131C78.146 81.883 78.333 81.608 78.333 81.519C78.333 81.43 78.428 81.258 78.544 81.137C78.659 81.016 78.846 80.729 78.959 80.5C79.072 80.271 79.24 79.952 79.332 79.792C79.424 79.631 79.575 79.369 79.668 79.208C79.76 79.048 79.878 78.804 79.93 78.667C79.982 78.529 80.094 78.304 80.18 78.167C80.265 78.029 80.381 77.804 80.436 77.667C80.491 77.529 80.752 76.967 81.015 76.417C81.279 75.867 81.543 75.171 81.602 74.872C81.661 74.572 81.775 74.286 81.855 74.237C81.935 74.187 82 73.943 82 73.694C82 73.445 82.101 73.093 82.225 72.912C82.349 72.731 82.499 72.216 82.559 71.767C82.618 71.318 82.736 70.867 82.821 70.765C82.905 70.663 83.026 70.093 83.089 69.498C83.152 68.903 83.303 68.258 83.424 68.065C83.978 67.179 84.005 54.567 83.455 53.719C83.384 53.61 83.22 52.973 83.089 52.302C82.656 50.082 82.457 49.256 82.227 48.725C82.102 48.436 82 48.005 82 47.766C82 47.528 81.925 47.333 81.833 47.333C81.742 47.333 81.667 47.201 81.667 47.039C81.667 46.877 81.528 46.484 81.359 46.164C81.19 45.845 81.001 45.377 80.939 45.125C80.877 44.873 80.753 44.667 80.663 44.667C80.574 44.667 80.5 44.451 80.5 44.187C80.5 43.923 80.395 43.62 80.266 43.514C80.138 43.407 79.986 43.135 79.93 42.91C79.873 42.684 79.753 42.5 79.663 42.5C79.574 42.5 79.5 42.401 79.5 42.279C79.5 42.158 79.238 41.689 78.917 41.238C78.596 40.787 78.333 40.324 78.333 40.209C78.333 40.094 78.258 40 78.167 40C78.075 40 78 39.885 78 39.745C78 39.604 77.888 39.446 77.75 39.394C77.612 39.341 77.5 39.199 77.5 39.078C77.5 38.958 77.257 38.616 76.96 38.319C76.663 38.022 76.345 37.649 76.252 37.49C75.877 36.847 74.57 35.351 74.375 35.343C74.26 35.338 74.164 35.24 74.16 35.125C74.157 35.01 73.814 34.654 73.399 34.333C72.983 34.012 72.476 33.6 72.271 33.417C72.067 33.233 71.653 32.896 71.352 32.667C71.051 32.438 70.715 32.175 70.606 32.083C70.12 31.675 69.333 31.167 69.187 31.167C69.1 31.167 69.003 31.11 68.972 31.042C68.88 30.833 67.937 30.222 67.497 30.084C67.269 30.013 67.046 29.909 67 29.852C66.869 29.691 65.402 29 65.19 29C65.086 29 65 28.925 65 28.833C65 28.742 64.906 28.666 64.792 28.666C64.677 28.665 64.378 28.557 64.126 28.426C63.874 28.295 63.087 27.993 62.376 27.756C61.665 27.519 60.953 27.252 60.794 27.162C60.635 27.073 60.287 27 60.021 27C59.756 27 59.323 26.888 59.061 26.751C58.798 26.614 58.32 26.502 57.999 26.501C57.677 26.5 57.152 26.417 56.832 26.315C55.352 25.846 52.589 25.792 26.708 25.727L0 25.661V34.08ZM50.333 42.881C51.021 43.035 51.733 43.232 51.917 43.319C52.1 43.405 52.531 43.522 52.875 43.579C53.219 43.635 53.5 43.753 53.5 43.841C53.5 43.928 53.579 44 53.676 44C53.971 44 55.277 44.64 56.059 45.168C56.466 45.442 56.85 45.667 56.912 45.667C57.074 45.667 59.833 48.389 59.833 48.549C59.833 48.621 59.91 48.771 60.003 48.882C60.657 49.658 60.833 49.903 60.833 50.037C60.833 50.122 60.946 50.303 61.083 50.44C61.221 50.578 61.333 50.831 61.333 51.002C61.333 51.173 61.406 51.359 61.495 51.414C61.699 51.539 62.333 52.958 62.333 53.287C62.333 53.422 62.438 53.731 62.566 53.974C63.513 55.773 63.504 65.601 62.553 67.833C62.456 68.063 62.213 68.737 62.014 69.333C61.815 69.929 61.58 70.442 61.493 70.472C61.405 70.503 61.333 70.674 61.333 70.852C61.333 71.031 61.221 71.22 61.083 71.273C60.946 71.326 60.833 71.513 60.833 71.69C60.833 71.866 60.721 72.054 60.583 72.106C60.446 72.159 60.333 72.292 60.333 72.401C60.333 73.329 56.622 76.57 54.404 77.578C50.635 79.291 50.28 79.332 39.214 79.333C30.286 79.333 30.007 79.324 29.839 79.011C29.597 78.559 29.599 43.27 29.841 42.818C30.088 42.357 48.239 42.412 50.333 42.881ZM140.667 55.172C140.071 55.247 139.096 55.388 138.5 55.487C137.289 55.686 134.114 56.668 134.028 56.87C133.997 56.941 133.892 57 133.793 57C133.087 57 128.953 59.511 127.482 60.833C127.227 61.063 126.92 61.335 126.801 61.439C126.681 61.543 126.218 62.012 125.771 62.481C125.324 62.95 124.892 63.333 124.812 63.333C124.732 63.333 124.667 63.411 124.667 63.506C124.667 63.6 124.442 63.898 124.167 64.167C123.892 64.435 123.667 64.706 123.667 64.769C123.667 64.866 122.601 66.255 122.339 66.5C122.29 66.546 122.08 66.931 121.872 67.357C121.665 67.782 121.384 68.223 121.247 68.335C121.111 68.448 121 68.636 121 68.753C121 68.869 120.888 69.008 120.75 69.06C120.612 69.113 120.5 69.346 120.5 69.578C120.5 69.81 120.43 70 120.345 70C120.259 70 120.141 70.169 120.083 70.375C120.025 70.581 119.874 70.975 119.749 71.25C118.988 72.918 118.833 73.292 118.833 73.469C118.833 73.787 118.335 73.696 118.32 73.375C118.312 73.215 118.289 70.983 118.268 68.417C118.231 64.014 118.031 61.563 117.69 61.345C117.609 61.293 117.489 61.006 117.424 60.708C117.36 60.41 117.238 60.167 117.153 60.167C117.069 60.167 117 60.064 117 59.938C117 59.616 115.149 57.806 114.476 57.471C112.015 56.242 112.11 56.251 100.583 56.25H90.417V64.333V72.417L94.099 72.5C97.992 72.588 97.924 72.574 98.784 73.457C99.723 74.421 99.662 72.371 99.708 104.334L99.75 133.75L109.239 133.793C116.72 133.827 118.757 133.792 118.862 133.626C118.935 133.511 118.997 125.579 119 116C119.005 101.26 119.044 98.404 119.253 97.417C119.389 96.775 119.501 95.913 119.503 95.5C119.504 95.088 119.613 94.45 119.745 94.083C119.877 93.717 119.989 93.144 119.993 92.811C119.997 92.477 120.112 91.99 120.249 91.727C120.386 91.465 120.498 91.021 120.499 90.74C120.5 90.46 120.61 90.085 120.745 89.907C120.879 89.729 120.992 89.452 120.995 89.291C120.998 89.13 121.15 88.719 121.333 88.377C121.517 88.035 121.667 87.623 121.667 87.461C121.667 87.299 121.742 87.167 121.833 87.167C121.925 87.167 122 87.022 122 86.845C122 86.668 122.112 86.411 122.25 86.274C122.388 86.136 122.5 85.911 122.5 85.774C122.5 85.636 122.595 85.425 122.71 85.304C122.826 85.182 123.013 84.896 123.126 84.667C123.432 84.045 123.7 83.655 124.208 83.091C124.459 82.812 124.665 82.498 124.666 82.393C124.666 82.288 124.779 82.159 124.917 82.106C125.054 82.054 125.167 81.934 125.167 81.84C125.167 81.513 128.729 78.167 129.077 78.167C129.134 78.167 129.383 77.979 129.631 77.75C129.878 77.521 130.169 77.333 130.278 77.333C130.387 77.333 130.575 77.239 130.696 77.124C131.003 76.832 133.446 75.667 133.75 75.667C133.888 75.667 134 75.595 134 75.508C134 75.42 134.281 75.298 134.625 75.236C134.969 75.174 135.37 75.061 135.517 74.985C136.479 74.49 138.417 74.259 142.333 74.173L146.417 74.083L146.463 65.083C146.511 55.59 146.505 55.437 146.043 55.253C145.595 55.074 141.887 55.018 140.667 55.172ZM321.125 55.096C320.963 55.259 320.966 71.024 321.128 71.268C321.195 71.37 321.925 71.492 322.75 71.538C324.967 71.665 326.833 72.998 326.833 74.456C326.833 74.572 326.905 74.667 326.992 74.667C327.08 74.667 327.203 74.941 327.266 75.276C327.329 75.611 327.482 76.08 327.606 76.318C327.73 76.556 327.832 76.867 327.832 77.01C327.833 77.153 327.943 77.415 328.078 77.593C328.213 77.771 328.328 78.067 328.333 78.25C328.339 78.433 328.454 78.729 328.589 78.907C328.723 79.085 328.836 79.385 328.839 79.574C328.842 79.762 328.954 80.062 329.089 80.24C329.223 80.418 329.334 80.681 329.334 80.824C329.335 80.966 329.447 81.298 329.584 81.561C329.721 81.823 329.833 82.109 329.833 82.195C329.833 82.359 330.397 83.71 330.673 84.206C330.761 84.365 330.833 84.629 330.833 84.792C330.833 84.955 330.983 85.368 331.167 85.71C331.35 86.052 331.5 86.436 331.5 86.564C331.5 86.691 331.612 87.01 331.749 87.273C331.886 87.535 332.001 87.862 332.004 88C332.008 88.138 332.121 88.396 332.255 88.574C332.39 88.751 332.502 89.051 332.505 89.24C332.508 89.429 332.621 89.729 332.755 89.907C332.89 90.085 333 90.414 333 90.638C333 90.863 333.1 91.13 333.223 91.232C333.345 91.333 333.624 91.998 333.843 92.708C334.062 93.419 334.296 94 334.363 94C334.43 94 334.534 94.263 334.595 94.585C334.655 94.907 334.771 95.211 334.852 95.262C334.934 95.312 335.003 95.48 335.006 95.635C335.009 95.79 335.156 96.217 335.333 96.583C335.51 96.95 335.658 97.419 335.661 97.625C335.664 97.831 335.733 98 335.814 98C335.894 98 336.045 98.337 336.149 98.75C336.253 99.162 336.412 99.5 336.502 99.5C336.593 99.5 336.669 99.706 336.672 99.958C336.675 100.21 336.787 100.562 336.922 100.74C337.057 100.918 337.167 101.265 337.167 101.511C337.167 101.758 337.277 102.051 337.412 102.163C337.547 102.275 337.706 102.623 337.764 102.935C337.823 103.248 337.938 103.545 338.019 103.595C338.1 103.645 338.167 103.864 338.167 104.081C338.167 104.298 338.266 104.576 338.388 104.698C338.51 104.82 338.658 105.218 338.718 105.583C338.777 105.949 338.902 106.273 338.996 106.304C339.09 106.336 339.167 106.468 339.167 106.598C339.167 106.728 339.317 107.114 339.5 107.456C339.683 107.799 339.833 108.202 339.833 108.353C339.833 108.505 339.945 108.843 340.082 109.106C340.219 109.369 340.332 109.7 340.332 109.843C340.333 109.986 340.443 110.249 340.578 110.426C340.713 110.604 340.825 110.887 340.828 111.054C340.831 111.221 340.946 111.47 341.083 111.607C341.221 111.745 341.333 112.025 341.333 112.23C341.333 112.435 341.443 112.749 341.578 112.926C341.713 113.104 341.825 113.379 341.828 113.536C341.833 113.819 342.148 114.643 342.6 115.555C342.728 115.815 342.833 116.199 342.833 116.41C342.833 116.62 342.946 116.886 343.083 117C343.221 117.114 343.333 117.346 343.333 117.516C343.333 117.686 343.476 118.145 343.651 118.537C343.825 118.929 344.094 119.587 344.247 120C344.401 120.412 344.633 120.962 344.763 121.222C344.893 121.481 345 121.875 345 122.097C345 122.319 345.075 122.5 345.167 122.5C345.258 122.5 345.333 122.597 345.333 122.715C345.333 122.833 345.483 123.224 345.667 123.583C345.85 123.943 346.003 124.39 346.006 124.577C346.009 124.764 346.119 125.104 346.25 125.333C346.381 125.563 346.491 125.904 346.494 126.092C346.497 126.28 346.588 126.521 346.695 126.628C346.893 126.827 347.217 127.622 347.526 128.667C347.62 128.987 347.766 129.321 347.849 129.408C347.932 129.495 348 129.672 348 129.8C348 130.023 348.146 130.386 348.87 131.958L349.196 132.667H360.537H371.878L372.189 132.308C372.36 132.11 372.5 131.854 372.5 131.738C372.5 131.622 372.606 131.315 372.736 131.055C373.276 129.972 373.825 128.504 373.954 127.797C373.999 127.548 374.141 127.257 374.268 127.152C374.396 127.046 374.502 126.8 374.505 126.605C374.508 126.41 374.621 126.104 374.755 125.926C374.89 125.749 375 125.453 375 125.271C375 124.977 375.403 123.954 375.845 123.127C375.93 122.968 376 122.724 376 122.585C376 122.446 376.15 122.052 376.333 121.71C376.517 121.368 376.667 120.951 376.667 120.782C376.667 120.614 376.779 120.364 376.917 120.226C377.054 120.089 377.169 119.813 377.172 119.613C377.175 119.413 377.287 119.104 377.422 118.926C377.557 118.749 377.667 118.476 377.667 118.321C377.667 118.165 377.779 117.823 377.916 117.561C378.053 117.298 378.165 116.924 378.166 116.729C378.166 116.534 378.279 116.281 378.417 116.167C378.554 116.053 378.667 115.779 378.667 115.558C378.667 115.337 378.779 115.113 378.917 115.06C379.068 115.002 379.167 114.75 379.167 114.419C379.167 114.119 379.271 113.788 379.399 113.682C379.526 113.576 379.681 113.154 379.742 112.745C379.804 112.335 379.924 112 380.01 112C380.096 112 380.167 111.831 380.168 111.625C380.168 111.419 380.318 111.025 380.5 110.75C380.682 110.475 380.832 110.081 380.832 109.875C380.833 109.669 380.907 109.5 380.998 109.5C381.089 109.5 381.21 109.201 381.269 108.836C381.327 108.472 381.478 108.087 381.604 107.983C381.73 107.878 381.833 107.67 381.833 107.521C381.834 107.181 382.473 105.471 382.679 105.258C382.764 105.171 382.833 104.904 382.833 104.665C382.833 104.426 382.943 104.085 383.078 103.907C383.213 103.729 383.325 103.424 383.328 103.229C383.331 103.034 383.446 102.781 383.583 102.667C383.721 102.553 383.834 102.337 383.834 102.188C383.835 102.039 383.947 101.702 384.084 101.439C384.221 101.177 384.333 100.854 384.333 100.722C384.333 100.491 384.84 99.225 385.173 98.627C385.261 98.468 385.336 98.243 385.339 98.127C385.342 98.011 385.49 97.617 385.667 97.25C385.844 96.883 385.991 96.498 385.994 96.394C385.997 96.29 386.112 95.99 386.249 95.727C386.386 95.465 386.498 95.079 386.499 94.87C386.5 94.661 386.613 94.446 386.75 94.394C386.887 94.341 387 94.121 387 93.904C387 93.542 387.169 93.066 387.763 91.75C387.887 91.475 388.037 91.043 388.096 90.79C388.155 90.537 388.27 90.289 388.352 90.239C388.433 90.188 388.5 90.001 388.5 89.823C388.5 89.645 388.65 89.219 388.833 88.877C389.017 88.535 389.167 88.169 389.167 88.063C389.167 87.958 389.279 87.657 389.416 87.394C389.553 87.131 389.667 86.804 389.671 86.667C389.674 86.529 389.787 86.271 389.922 86.093C390.057 85.915 390.167 85.643 390.167 85.487C390.167 85.332 390.279 84.99 390.416 84.727C390.553 84.465 390.665 84.133 390.666 83.99C390.666 83.847 390.777 83.585 390.911 83.407C391.046 83.229 391.161 82.933 391.167 82.75C391.172 82.567 391.287 82.271 391.422 82.093C391.557 81.915 391.669 81.615 391.672 81.426C391.675 81.238 391.787 80.938 391.922 80.76C392.057 80.582 392.167 80.319 392.168 80.176C392.168 80.034 392.281 79.702 392.418 79.439C392.555 79.177 392.667 78.858 392.667 78.73C392.667 78.603 392.817 78.219 393 77.877C393.183 77.535 393.333 77.123 393.333 76.961C393.333 76.799 393.402 76.667 393.485 76.667C393.569 76.667 393.688 76.367 393.75 76.001C393.812 75.635 393.922 75.298 393.996 75.253C394.069 75.207 394.178 74.907 394.239 74.585C394.299 74.263 394.413 74 394.491 74C394.57 74 394.712 73.775 394.808 73.5C394.904 73.225 395.062 73 395.158 73C395.254 73 395.334 72.906 395.335 72.792C395.341 72.177 397.193 71.502 398.875 71.501L400 71.5V63.25V55L393.958 55.007C390.635 55.011 387.617 55.082 387.25 55.164C384.724 55.733 384.8 55.708 383.042 56.531C382.653 56.713 382.192 57.043 382.018 57.265C381.844 57.486 381.619 57.667 381.518 57.667C381.416 57.667 381.333 57.779 381.333 57.917C381.333 58.054 381.221 58.167 381.083 58.167C380.946 58.167 380.833 58.242 380.833 58.333C380.833 58.425 380.702 58.645 380.542 58.821C379.977 59.444 379.833 59.655 379.83 59.868C379.828 59.986 379.679 60.271 379.5 60.5C379.321 60.729 379.172 61.039 379.17 61.188C379.168 61.337 379.054 61.553 378.917 61.667C378.779 61.781 378.667 62.081 378.667 62.333C378.667 62.586 378.562 62.879 378.435 62.985C378.307 63.091 378.164 63.381 378.116 63.63C377.925 64.624 377.607 65.597 377.393 65.846C377.268 65.991 377.167 66.296 377.167 66.523C377.167 66.75 377.057 67.082 376.922 67.26C376.787 67.438 376.675 67.78 376.672 68.021C376.669 68.262 376.56 68.548 376.43 68.656C376.299 68.764 376.143 69.148 376.082 69.509C376.021 69.87 375.903 70.207 375.819 70.259C375.735 70.311 375.667 70.499 375.667 70.677C375.667 70.855 375.517 71.281 375.333 71.623C375.15 71.965 375 72.41 375 72.613C375 72.815 374.934 73.021 374.852 73.072C374.771 73.122 374.655 73.426 374.595 73.748C374.534 74.07 374.417 74.333 374.333 74.333C374.25 74.333 374.136 74.615 374.081 74.958C374.025 75.302 373.872 75.782 373.74 76.026C373.608 76.269 373.498 76.607 373.495 76.776C373.492 76.945 373.379 77.229 373.245 77.407C373.11 77.585 373 77.927 373 78.167C373 78.407 372.89 78.749 372.755 78.926C372.621 79.104 372.508 79.402 372.505 79.588C372.502 79.774 372.394 80.078 372.264 80.263C372.134 80.449 371.975 80.879 371.912 81.219C371.848 81.559 371.729 81.878 371.648 81.928C371.566 81.979 371.5 82.188 371.5 82.395C371.5 82.601 371.39 82.915 371.255 83.093C371.121 83.271 371.008 83.529 371.004 83.667C371.001 83.804 370.893 84.118 370.765 84.364C370.636 84.61 370.478 85.06 370.413 85.364C370.348 85.668 370.24 85.992 370.173 86.083C370.105 86.175 369.875 86.813 369.66 87.5C369.445 88.188 369.171 88.868 369.051 89.013C368.931 89.158 368.831 89.458 368.828 89.68C368.825 89.902 368.713 90.229 368.578 90.407C368.443 90.585 368.333 90.969 368.333 91.261C368.333 91.554 368.221 91.886 368.083 92C367.946 92.114 367.833 92.33 367.832 92.479C367.832 92.628 367.73 92.944 367.606 93.182C367.482 93.42 367.329 93.889 367.266 94.224C367.203 94.559 367.086 94.833 367.006 94.833C366.925 94.833 366.812 95.077 366.753 95.375C366.642 95.935 366.437 96.552 366.073 97.417C365.957 97.692 365.815 98.198 365.757 98.542C365.699 98.885 365.581 99.167 365.494 99.167C365.408 99.167 365.29 99.465 365.231 99.83C365.173 100.195 365.022 100.579 364.896 100.684C364.77 100.789 364.664 101.071 364.661 101.312C364.658 101.553 364.546 101.896 364.411 102.074C364.277 102.251 364.167 102.556 364.167 102.75C364.167 102.944 364.057 103.249 363.922 103.426C363.787 103.604 363.675 104.015 363.672 104.338C363.669 104.661 363.564 105.074 363.44 105.255C363.315 105.435 363.16 105.938 363.097 106.371C363.033 106.804 362.917 107.198 362.839 107.246C362.762 107.294 362.649 107.727 362.59 108.209C362.53 108.69 362.415 109.233 362.335 109.417C362.192 109.74 361.973 110.804 361.671 112.641C361.484 113.78 361.405 113.843 360.915 113.243C360.614 112.875 360.509 112.539 360.5 111.917C360.494 111.458 360.381 110.896 360.25 110.667C360.119 110.438 360.009 109.983 360.006 109.657C360.003 109.331 359.89 108.918 359.755 108.74C359.621 108.562 359.508 108.133 359.505 107.786C359.502 107.439 359.396 106.989 359.269 106.786C359.141 106.583 358.989 106.139 358.929 105.799C358.87 105.459 358.712 104.971 358.578 104.715C358.445 104.459 358.335 104.086 358.334 103.885C358.334 103.684 358.258 103.473 358.167 103.417C358.075 103.36 358 103.161 358 102.974C358 102.787 357.899 102.397 357.775 102.109C357.239 100.858 356.833 99.724 356.833 99.476C356.833 99.328 356.721 99.114 356.583 99C356.446 98.886 356.333 98.548 356.333 98.25C356.333 97.952 356.221 97.614 356.083 97.5C355.946 97.386 355.833 97.133 355.832 96.938C355.832 96.743 355.719 96.369 355.582 96.106C355.445 95.843 355.333 95.459 355.333 95.251C355.333 95.044 355.221 94.781 355.083 94.667C354.946 94.553 354.831 94.337 354.828 94.188C354.825 94.039 354.677 93.617 354.5 93.25C354.323 92.883 354.175 92.485 354.172 92.365C354.164 92.03 353.637 90.437 353.476 90.258C353.397 90.171 353.333 89.983 353.333 89.839C353.333 89.696 353.183 89.299 353 88.956C352.817 88.614 352.667 88.151 352.667 87.927C352.667 87.703 352.592 87.473 352.5 87.417C352.408 87.36 352.333 87.195 352.333 87.05C352.333 86.905 352.194 86.478 352.023 86.102C351.64 85.256 351.328 84.383 351.211 83.833C351.163 83.604 351.03 83.304 350.916 83.167C350.802 83.029 350.659 82.639 350.598 82.299C350.537 81.959 350.378 81.471 350.245 81.215C350.111 80.959 350.002 80.623 350.001 80.468C350 80.313 349.932 80.144 349.848 80.092C349.764 80.041 349.645 79.699 349.583 79.333C349.522 78.968 349.403 78.626 349.319 78.574C349.235 78.523 349.167 78.352 349.167 78.196C349.167 78.04 349.017 77.632 348.833 77.29C348.65 76.948 348.5 76.564 348.5 76.436C348.5 76.309 348.388 75.99 348.251 75.727C348.114 75.465 347.999 75.1 347.996 74.917C347.992 74.733 347.879 74.438 347.745 74.26C347.61 74.082 347.5 73.777 347.5 73.583C347.5 73.389 347.39 73.085 347.255 72.907C347.121 72.729 347.008 72.43 347.005 72.244C347.002 72.057 346.85 71.61 346.667 71.25C346.483 70.89 346.333 70.466 346.333 70.308C346.333 70.149 346.258 69.973 346.167 69.917C346.075 69.86 346 69.623 346 69.391C346 69.158 345.892 68.769 345.759 68.526C345.44 67.94 345.139 67.165 344.68 65.75C344.472 65.108 344.196 64.347 344.067 64.058C343.939 63.769 343.831 63.432 343.828 63.308C343.825 63.184 343.713 62.938 343.578 62.76C343.443 62.582 343.333 62.235 343.333 61.989C343.333 61.742 343.221 61.447 343.083 61.333C342.946 61.219 342.833 60.951 342.833 60.738C342.833 60.524 342.739 60.29 342.623 60.217C342.508 60.143 342.264 59.794 342.082 59.44C341.899 59.086 341.656 58.759 341.542 58.714C341.427 58.668 341.333 58.527 341.333 58.399C341.333 58.271 341.262 58.167 341.174 58.167C341.087 58.167 340.693 57.84 340.299 57.441C339.906 57.042 339.396 56.657 339.167 56.585C338.938 56.514 338.712 56.403 338.667 56.339C338.466 56.061 337.349 55.638 336.583 55.55C336.125 55.497 335.645 55.371 335.516 55.269C335.245 55.054 321.332 54.887 321.125 55.096Z" fill="#1C1C1C"/>
</svg>
