<svg width="95" height="95" viewBox="0 0 95 95" fill="none" xmlns="http://www.w3.org/2000/svg">
<path d="M74.7802 32.5805L68.2816 27.167L61.783 32.5805L58.7697 30.302L61.9775 22.8163L55.0796 18.2147L56.2107 14.8437H64.1937L66.3015 7.46484H70.2618L72.3696 14.8437H80.3526L81.4851 18.2147L74.5873 22.8163L77.795 30.302L74.7802 32.5805Z" fill="#F9DC25"/>
<path d="M72.7344 48.9844H87.5781V56.4062H72.7344V48.9844Z" fill="#F9DC25"/>
<path d="M7.42188 65.3125H22.2656V72.7344H7.42188V65.3125Z" fill="#F9DC25"/>
<path d="M86.0938 1.48438H50.4688C46.3763 1.48438 43.0469 4.81383 43.0469 8.90625V16.3281H8.90625C4.81383 16.3281 1.48438 19.6576 1.48438 23.75V47.5C1.48438 51.5924 4.81383 54.9219 8.90625 54.9219H35.625C35.625 59.1271 37.8278 62.8188 41.1335 64.9295C33.6166 67.5687 28.2031 74.7175 28.2031 83.125V93.5156H66.7969V83.125C66.7969 74.7175 61.3834 67.5687 53.8665 64.9295C57.1722 62.8188 59.375 59.1271 59.375 54.9219C59.375 49.9492 56.2994 45.6876 51.9531 43.9212V40.0781H86.0938C90.1862 40.0781 93.5156 36.7487 93.5156 32.6562V8.90625C93.5156 4.81383 90.1862 1.48438 86.0938 1.48438ZM63.8281 83.125V90.5469H59.375V77.1875H56.4062V90.5469H38.5938V77.1875H35.625V90.5469H31.1719V83.125C31.1719 74.1223 38.4973 66.7969 47.5 66.7969C56.5027 66.7969 63.8281 74.1223 63.8281 83.125ZM56.4062 54.9219C56.4062 59.8337 52.4118 63.8281 47.5 63.8281C42.5882 63.8281 38.5938 59.8337 38.5938 54.9219C38.5938 50.0101 42.5882 46.0156 47.5 46.0156C52.4118 46.0156 56.4062 50.0101 56.4062 54.9219ZM47.5 43.0469C41.9796 43.0469 37.3395 46.8395 36.0154 51.9531H8.90625C6.45109 51.9531 4.45312 49.9552 4.45312 47.5V23.75C4.45312 21.2948 6.45109 19.2969 8.90625 19.2969H44.5312C46.9864 19.2969 48.9844 21.2948 48.9844 23.75V43.1493C48.4975 43.0884 48.0032 43.0469 47.5 43.0469ZM90.5469 32.6562C90.5469 35.1114 88.5489 37.1094 86.0938 37.1094H51.9531V23.75C51.9531 20.1667 49.3985 17.1683 46.0156 16.478V8.90625C46.0156 6.45109 48.0136 4.45312 50.4688 4.45312H86.0938C88.5489 4.45312 90.5469 6.45109 90.5469 8.90625V32.6562Z" fill="#3F3D56"/>
<path d="M33.3936 30.6701L26.711 24.7326L20.0313 30.6701L13.2996 24.6792L10.1572 27.8216L16.9111 46.3941L18.2812 45.9399C18.3243 45.9251 22.5711 44.5312 26.7184 44.5312C30.8657 44.5312 35.1125 45.9251 35.1571 45.9399L36.5271 46.3956L43.2811 27.8216L40.1401 24.6792L33.3936 30.6701ZM34.7058 42.7143C32.9765 42.2527 29.8697 41.5625 26.7184 41.5625C23.5671 41.5625 20.4603 42.2527 18.731 42.7143L13.7687 29.0715L20.0313 34.6423L26.711 28.7048L33.3936 34.6423L39.6681 29.0685L34.7058 42.7143Z" fill="#3F3D56"/>
<path d="M83.125 43.0469H77.1875C71.4593 43.0469 66.7969 47.7093 66.7969 53.4375V63.8281H83.125C88.8532 63.8281 93.5156 59.1657 93.5156 53.4375C93.5156 47.7093 88.8532 43.0469 83.125 43.0469ZM83.125 60.8594H69.7656V53.4375C69.7656 49.3451 73.0951 46.0156 77.1875 46.0156H83.125C87.2174 46.0156 90.5469 49.3451 90.5469 53.4375C90.5469 57.5299 87.2174 60.8594 83.125 60.8594Z" fill="#3F3D56"/>
<path d="M72.7344 48.9844H75.7031V51.9531H72.7344V48.9844Z" fill="#3F3D56"/>
<path d="M78.6719 48.9844H81.6406V51.9531H78.6719V48.9844Z" fill="#3F3D56"/>
<path d="M84.6094 48.9844H87.5781V51.9531H84.6094V48.9844Z" fill="#3F3D56"/>
<path d="M72.7344 54.9219H87.5781V57.8906H72.7344V54.9219Z" fill="#3F3D56"/>
<path d="M28.2031 57.8906H11.875C6.1468 57.8906 1.48438 62.553 1.48438 68.2812C1.48438 74.0095 6.1468 78.6719 11.875 78.6719H17.8125C23.5407 78.6719 28.2031 74.0095 28.2031 68.2812V57.8906ZM25.2344 68.2812C25.2344 72.3737 21.9049 75.7031 17.8125 75.7031H11.875C7.78258 75.7031 4.45312 72.3737 4.45312 68.2812C4.45312 64.1888 7.78258 60.8594 11.875 60.8594H25.2344V68.2812Z" fill="#3F3D56"/>
<path d="M19.2969 69.7656H22.2656V72.7344H19.2969V69.7656Z" fill="#3F3D56"/>
<path d="M13.3594 69.7656H16.3281V72.7344H13.3594V69.7656Z" fill="#3F3D56"/>
<path d="M7.42188 69.7656H10.3906V72.7344H7.42188V69.7656Z" fill="#3F3D56"/>
<path d="M7.42188 63.8281H22.2656V66.7969H7.42188V63.8281Z" fill="#3F3D56"/>
<path d="M25.2344 35.625H28.2031V38.5938H25.2344V35.625Z" fill="#3F3D56"/>
</svg>
