<svg width="375" height="629" viewBox="0 0 375 629" fill="none" xmlns="http://www.w3.org/2000/svg">
<path fill-rule="evenodd" clip-rule="evenodd" d="M191.22 50.3202C269.195 66.869 333.061 113.597 376.533 176.198C426.378 247.977 472.241 332.147 440.924 409.903C408.161 491.25 316.352 534.24 224.314 554.135C132.828 573.911 28.1882 573.706 -43.7503 514.67C-111.504 459.069 -105.448 367.173 -103.496 285.121C-101.759 212.121 -92.6363 136.16 -33.6284 89.1485C26.4093 41.3164 111.954 33.4974 191.22 50.3202Z" fill="#C8DDF5" fill-opacity="0.2"/>
<path fill-rule="evenodd" clip-rule="evenodd" d="M191.22 50.3202C269.195 66.869 333.061 113.597 376.533 176.198C426.378 247.977 472.241 332.147 440.924 409.903C408.161 491.25 316.352 534.24 224.314 554.135C132.828 573.911 28.1882 573.706 -43.7503 514.67C-111.504 459.069 -105.448 367.173 -103.496 285.121C-101.759 212.121 -92.6363 136.16 -33.6284 89.1485C26.4093 41.3164 111.954 33.4974 191.22 50.3202Z" fill="url(#paint0_linear)" style="mix-blend-mode:screen"/>
<path fill-rule="evenodd" clip-rule="evenodd" d="M191.22 50.3202C269.195 66.869 333.061 113.597 376.533 176.198C426.378 247.977 472.241 332.147 440.924 409.903C408.161 491.25 316.352 534.24 224.314 554.135C132.828 573.911 28.1882 573.706 -43.7503 514.67C-111.504 459.069 -105.448 367.173 -103.496 285.121C-101.759 212.121 -92.6363 136.16 -33.6284 89.1485C26.4093 41.3164 111.954 33.4974 191.22 50.3202Z" fill="url(#paint1_linear)"/>
<g clip-path="url(#clip0)">
<path d="M63.6955 504.424C83.1734 504.424 98.9634 472.168 98.9634 432.378C98.9634 392.588 83.1734 360.332 63.6955 360.332C44.2177 360.332 28.4277 392.588 28.4277 432.378C28.4277 472.168 44.2177 504.424 63.6955 504.424Z" fill="#F9DC25"/>
<path d="M63.3719 433.125C65.1311 401.764 68.6757 380.581 68.7113 380.371L67.9422 380.24C67.9066 380.451 64.3558 401.668 62.5937 433.069C60.9675 462.051 60.5752 505.888 67.942 550.141L68.7115 550.012C61.3572 505.835 61.7486 462.065 63.3719 433.125Z" fill="#3F3D56"/>
<path d="M95.2168 417.767L63.3291 434.855L63.6972 435.543L95.5849 418.456L95.2168 417.767Z" fill="#3F3D56"/>
<path d="M30.034 426.331L29.666 427.02L61.5583 444.099L61.9262 443.41L30.034 426.331Z" fill="#3F3D56"/>
<path d="M308.246 496.934C333.515 496.934 354 455.088 354 403.467C354 351.847 333.515 310 308.246 310C282.977 310 262.492 351.847 262.492 403.467C262.492 455.088 282.977 496.934 308.246 496.934Z" fill="#F9DC25"/>
<path d="M307.69 404.425C309.973 363.732 314.573 336.246 314.619 335.973L313.89 335.85C313.844 336.123 309.238 363.641 306.953 404.372C304.843 441.964 304.334 498.823 313.89 556.222L314.619 556.1C305.076 498.773 305.584 441.976 307.69 404.425Z" fill="#3F3D56"/>
<path d="M349.204 384.632L307.835 406.8L308.184 407.453L349.553 385.285L349.204 384.632Z" fill="#3F3D56"/>
<path d="M264.512 395.743L264.163 396.396L305.538 418.553L305.887 417.9L264.512 395.743Z" fill="#3F3D56"/>
<path d="M253.12 522.249C262.562 522.249 270.215 506.614 270.215 487.327C270.215 468.041 262.562 452.406 253.12 452.406C243.679 452.406 236.025 468.041 236.025 487.327C236.025 506.614 243.679 522.249 253.12 522.249Z" fill="#E6E6E6"/>
<path d="M253.105 488.832L253.206 489.021L268.662 480.738L268.313 480.086L253.137 488.218C253.977 472.742 255.694 462.353 255.729 462.149L255 462.025C254.962 462.248 252.921 474.586 252.197 492.437L236.89 484.235L236.541 484.888L251.997 493.17L252.182 492.825C251.602 507.559 251.927 525.983 255 544.439L255.729 544.317C252.379 524.194 252.306 504.109 253.105 488.832Z" fill="#3F3D56"/>
<path d="M339.739 563.889C248.684 535.031 166.119 536.569 112.889 542.94C55.2213 549.843 18.6282 563.743 18.2654 563.882L18 563.191C18.3638 563.051 55.0431 549.118 112.801 542.205C146.776 538.143 181.055 537.265 215.193 539.582C257.572 542.454 299.457 550.377 339.962 563.184L339.739 563.889Z" fill="#3F3D56"/>
<path d="M135.043 555.734C135.043 555.734 135.298 550.377 140.533 550.999Z" fill="#3F3D56"/>
<path d="M133.563 550.636C135.01 550.636 136.183 549.461 136.183 548.013C136.183 546.564 135.01 545.389 133.563 545.389C132.116 545.389 130.943 546.564 130.943 548.013C130.943 549.461 132.116 550.636 133.563 550.636Z" fill="#F9DC25"/>
<path d="M133.877 552.43H133.138V557.613H133.877V552.43Z" fill="#3F3D56"/>
<path d="M230.449 556.844C230.449 556.844 230.705 551.487 235.94 552.11Z" fill="#3F3D56"/>
<path d="M228.97 551.746C230.417 551.746 231.59 550.572 231.59 549.123C231.59 547.675 230.417 546.5 228.97 546.5C227.523 546.5 226.35 547.675 226.35 549.123C226.35 550.572 227.523 551.746 228.97 551.746Z" fill="#F9DC25"/>
<path d="M229.283 553.541H228.543V558.724H229.283V553.541Z" fill="#3F3D56"/>
<path d="M73.2881 547.589C73.2881 547.589 73.5435 542.232 78.7784 542.854Z" fill="#3F3D56"/>
<path d="M71.8085 542.491C73.2556 542.491 74.4286 541.316 74.4286 539.868C74.4286 538.419 73.2556 537.244 71.8085 537.244C70.3615 537.244 69.1885 538.419 69.1885 539.868C69.1885 541.316 70.3615 542.491 71.8085 542.491Z" fill="#F9DC25"/>
<path d="M72.1224 544.285H71.3828V549.468H72.1224V544.285Z" fill="#3F3D56"/>
<path d="M113.596 540.554C113.596 540.554 113.851 535.197 119.086 535.82Z" fill="#3F3D56"/>
<path d="M112.116 535.456C113.563 535.456 114.736 534.282 114.736 532.833C114.736 531.385 113.563 530.21 112.116 530.21C110.669 530.21 109.496 531.385 109.496 532.833C109.496 534.282 110.669 535.456 112.116 535.456Z" fill="#F9DC25"/>
<path d="M112.429 537.25H111.689V542.434H112.429V537.25Z" fill="#3F3D56"/>
<path d="M214.548 550.551C214.548 550.551 214.803 545.193 220.038 545.816Z" fill="#3F3D56"/>
<path d="M213.068 545.453C214.515 545.453 215.688 544.278 215.688 542.829C215.688 541.381 214.515 540.206 213.068 540.206C211.621 540.206 210.448 541.381 210.448 542.829C210.448 544.278 211.621 545.453 213.068 545.453Z" fill="#F9DC25"/>
<path d="M213.382 547.247H212.643V552.43H213.382V547.247Z" fill="#3F3D56"/>
<path d="M328.259 539.811L343.479 562.406L329.308 576.593L327.472 572.914L330.621 565.558C330.621 565.558 330.096 558.727 328.259 556.888C326.422 555.049 318.287 544.015 318.287 544.015L328.259 539.811Z" fill="#FFB8B8"/>
<path d="M308.841 466.774C308.841 466.774 311.727 471.347 305.692 491.052C305.692 491.052 333.844 538.621 329.383 541.774C324.922 544.927 312.85 551.904 309.701 549.802C306.552 547.7 283.649 476.495 283.649 476.495L308.841 466.774Z" fill="#2F2E41"/>
<path d="M340.724 558.333L345.316 562.931C347.677 565.295 349.252 568.711 344.791 571.601C340.33 574.491 324.848 585.262 319.599 581.847C314.351 578.432 325.897 575.279 325.897 575.279C325.897 575.279 327.806 568.192 328.82 569.765C329.833 571.338 329.833 574.491 329.833 574.491L340.724 558.333Z" fill="#2F2E41"/>
<path d="M285.223 552.159C285.223 552.159 276.826 567.66 276.826 569.499C276.826 571.338 277.351 576.593 277.351 576.593L261.344 580.533L255.833 577.906L257.67 573.177C257.67 573.177 267.642 569.762 269.741 563.194C271.84 556.626 274.202 549.795 274.202 549.795L285.223 552.159Z" fill="#FFB8B8"/>
<path d="M294.932 397.941C301.019 397.941 305.954 393.001 305.954 386.906C305.954 380.812 301.019 375.872 294.932 375.872C288.846 375.872 283.911 380.812 283.911 386.906C283.911 393.001 288.846 397.941 294.932 397.941Z" fill="#FFB8B8"/>
<path d="M292.046 396.364L297.308 411.501L308.84 406.348C308.84 406.348 300.968 394.263 300.968 392.686L292.046 396.364Z" fill="#FFB8B8"/>
<path d="M290.471 450.223H304.379C304.379 450.223 314.351 465.461 308.578 481.487C307.694 483.941 306.816 487.379 305.94 491.443C303.926 500.79 301.92 513.452 299.865 525.086C296.978 541.429 293.992 555.746 290.747 556.006C284.187 556.531 271.43 556.443 271.43 553.816C271.43 551.189 279.975 475.181 279.975 475.181L281.812 472.029L282.159 458.296C282.214 456.129 283.115 454.07 284.669 452.56C286.223 451.051 288.306 450.212 290.471 450.223V450.223Z" fill="#2F2E41"/>
<path d="M276.695 569.368C276.695 569.368 279.713 574.491 278.926 578.169C278.139 581.847 276.827 581.322 271.054 581.847C265.281 582.372 245.6 582.372 245.6 578.694C245.6 575.016 260.952 570.24 261.017 571.708C261.082 573.177 261.607 576.067 260.032 576.593C258.458 577.118 259.901 576.724 259.901 576.724L276.695 569.368Z" fill="#2F2E41"/>
<path d="M292.048 483.015C292.048 483.015 290.907 501.678 283.293 496.122C275.68 490.566 286.26 480.53 286.26 480.53L292.048 483.015Z" fill="white"/>
<path d="M307.244 458.436C307.61 458.601 308.013 458.663 308.412 458.616C308.811 458.569 309.189 458.414 309.506 458.167C309.967 457.805 310.273 457.282 310.365 456.703C311.465 450.35 312.806 432.737 313.577 423.831C314.546 412.655 309.708 403.999 309.667 403.947L306.816 400.021C306.52 399.611 306.094 399.314 305.607 399.177C305.12 399.04 304.602 399.072 304.136 399.268C304.136 399.268 295.234 408.515 295.202 408.872C295.062 410.405 294.003 413.802 288.481 419.33C282.439 425.379 282.405 430.659 282.539 432.133C282.548 432.23 282.552 432.327 282.552 432.423C282.541 433.085 282.631 433.744 282.819 434.378C285.349 442.366 283.367 451.929 280.185 461.911C280.064 462.363 280.087 462.84 280.249 463.278C280.412 463.715 280.706 464.092 281.091 464.355C282.021 464.988 280.906 464.048 281.238 464.455C283.431 467.146 286.587 463.396 290.198 459.303C291.456 457.878 292.881 456.262 294.561 454.58C296.871 452.267 301.285 457.545 303.337 457.545C304.688 457.561 306.019 457.865 307.244 458.436V458.436Z" fill="#575A89"/>
<path d="M308.469 408.022C308.469 408.022 314.233 412.889 310.958 419.201C307.683 425.513 308.119 430.169 308.119 430.169C308.119 430.169 307.247 473.532 297.014 471.425L292.359 484.291L283.952 481.254L288.813 469.905C288.813 469.905 284.92 469.663 286.057 467.007C286.857 465.141 291.162 444.897 293.654 433.012C294.71 427.975 295.44 424.439 295.44 424.439C295.44 424.439 298.752 406.709 308.469 408.022Z" fill="#575A89"/>
<path opacity="0.2" d="M309.677 430.058L306.436 451.349L308.184 428.583L309.677 430.058Z" fill="black"/>
<path d="M282.908 382.017C282.908 382.017 281.055 367.58 296.173 372.315C296.173 372.315 306.971 370.331 310.512 383.853L314.097 398.028L312.35 397.076L311.535 398.858L308.704 399.576L307.492 397.168L306.906 400.093L283.714 402.407C283.714 402.407 294.101 396.257 294.266 385.234L292.287 387.328L282.908 382.017Z" fill="#2F2E41"/>
<path opacity="0.2" d="M300.155 525.916L305.327 491.416L301.121 528.661L300.155 525.916Z" fill="black"/>
<path d="M308.607 378.294C311.828 378.294 314.439 375.68 314.439 372.456C314.439 369.231 311.828 366.617 308.607 366.617C305.386 366.617 302.775 369.231 302.775 372.456C302.775 375.68 305.386 378.294 308.607 378.294Z" fill="#2F2E41"/>
<path d="M302.598 371.027C302.694 369.545 303.35 368.156 304.433 367.142C305.516 366.128 306.944 365.566 308.427 365.57C308.307 365.554 308.187 365.536 308.064 365.528C307.3 365.478 306.533 365.58 305.808 365.827C305.083 366.074 304.413 366.462 303.838 366.968C303.262 367.475 302.792 368.089 302.454 368.778C302.116 369.466 301.917 370.214 301.867 370.98C301.818 371.745 301.92 372.513 302.168 373.238C302.415 373.964 302.802 374.634 303.308 375.21C303.814 375.786 304.429 376.257 305.116 376.595C305.804 376.933 306.552 377.132 307.316 377.181C307.439 377.189 307.56 377.186 307.681 377.186C306.21 376.999 304.865 376.258 303.921 375.114C302.977 373.97 302.504 372.508 302.598 371.027V371.027Z" fill="#2F2E41"/>
<path opacity="0.2" d="M291.965 436.693L286.834 464.225L293.484 433.815L291.965 436.693Z" fill="black"/>
<path d="M292.284 394.858L289.294 397.116C286.214 395.564 283.904 391.974 283.064 388.547L286.323 386.901C286.579 390.396 289.057 392.719 292.284 394.858Z" fill="white"/>
<path d="M293.527 387.398H286.076C286.01 387.398 285.946 387.372 285.9 387.325C285.853 387.279 285.827 387.216 285.827 387.15C285.827 387.084 285.853 387.02 285.9 386.974C285.946 386.927 286.01 386.901 286.076 386.901H293.527C293.593 386.901 293.656 386.927 293.702 386.974C293.749 387.02 293.775 387.084 293.775 387.15C293.775 387.216 293.749 387.279 293.702 387.325C293.656 387.372 293.593 387.398 293.527 387.398V387.398Z" fill="white"/>
<path d="M292.036 394.858C291.996 394.858 291.956 394.848 291.92 394.829C291.884 394.81 291.853 394.783 291.831 394.749C291.808 394.715 291.794 394.677 291.789 394.636C291.785 394.596 291.791 394.555 291.806 394.517L293.793 389.544C293.805 389.514 293.823 389.486 293.846 389.462C293.868 389.439 293.896 389.42 293.926 389.407C293.956 389.394 293.988 389.387 294.02 389.387C294.053 389.387 294.086 389.393 294.116 389.405C294.146 389.417 294.174 389.435 294.197 389.458C294.221 389.481 294.239 389.508 294.252 389.538C294.265 389.568 294.272 389.6 294.272 389.633C294.272 389.666 294.266 389.698 294.254 389.729L292.267 394.702C292.248 394.748 292.217 394.788 292.176 394.815C292.134 394.843 292.086 394.858 292.036 394.858V394.858Z" fill="white"/>
<path d="M294.027 390.337C295.034 390.337 295.85 389.193 295.85 387.782C295.85 386.371 295.034 385.228 294.027 385.228C293.021 385.228 292.205 386.371 292.205 387.782C292.205 389.193 293.021 390.337 294.027 390.337Z" fill="#FFB8B8"/>
<path d="M165.617 395.477L185.026 399.924L193.226 384.439L176.631 377.952L165.617 395.477Z" fill="#2F2E41"/>
<path d="M175.929 478.834C175.929 478.834 169.69 493.148 169.69 497.313C169.69 497.313 172.159 508.634 171.379 511.757L168.65 517.613L162.931 515.271L161.371 499.655L161.631 474.67L175.929 478.834Z" fill="#FFB9B9"/>
<path d="M179.438 393.207C179.438 393.207 179.958 401.796 178.918 404.399C177.878 407.001 182.818 411.946 182.818 411.946L190.616 401.796C190.616 401.796 185.417 396.591 186.717 390.865L179.438 393.207Z" fill="#FFB9B9"/>
<path d="M163.191 452.677C163.191 452.677 155.652 466.732 162.931 465.691C170.209 464.649 167.74 452.287 167.74 452.287" fill="#E6E6E6"/>
<path d="M167.741 452.287L170.21 427.692L170.08 412.727L164.361 413.768V427.562L163.191 452.677" fill="#FFB9B9"/>
<path d="M161.501 513.449L172.68 509.024L173.979 531.147C173.979 531.147 176.319 537.914 175.539 540.516C175.539 540.516 176.059 544.941 174.759 545.201C173.459 545.461 169.82 545.982 169.56 545.722C169.3 545.461 169.3 544.68 169.3 544.68C169.3 544.68 166.701 546.502 166.441 548.584C166.441 548.584 155.522 551.968 155.263 548.845C155.003 545.722 160.722 543.119 160.722 543.119L165.141 536.352L161.501 513.449Z" fill="#2F2E41"/>
<path d="M199.195 478.834C199.195 478.834 192.956 493.148 192.956 497.313C192.956 497.313 195.426 508.634 194.646 511.757L191.916 517.613L186.197 515.271L184.638 499.655L184.898 474.67L199.195 478.834Z" fill="#FFB9B9"/>
<path d="M185.158 513.449L196.336 509.024L197.636 531.147C197.636 531.147 199.975 537.914 199.195 540.516C199.195 540.516 199.715 544.941 198.415 545.201C197.116 545.461 193.476 545.982 193.216 545.722C192.956 545.461 192.956 544.68 192.956 544.68C192.956 544.68 190.357 546.502 190.097 548.584C190.097 548.584 179.179 551.968 178.919 548.845C178.659 545.722 184.378 543.119 184.378 543.119L188.797 536.352L185.158 513.449Z" fill="#2F2E41"/>
<path d="M190.358 387.222C190.357 389.272 189.602 391.249 188.236 392.776C186.87 394.303 184.99 395.271 182.955 395.497C180.92 395.723 178.874 395.189 177.207 393.999C175.541 392.808 174.371 391.044 173.922 389.045C173.786 388.447 173.717 387.836 173.719 387.222C173.72 385.014 174.597 382.897 176.158 381.336C177.718 379.775 179.833 378.898 182.039 378.898C184.244 378.898 186.359 379.775 187.919 381.336C189.48 382.897 190.357 385.014 190.358 387.222V387.222Z" fill="#FFB9B9"/>
<path d="M183.078 403.878L189.533 400.522L192.436 402.837C192.436 402.837 199.455 402.577 202.055 405.7C204.654 408.823 206.084 416.761 206.084 416.761C206.084 416.761 197.505 414.939 198.545 422.227L196.986 418.062L195.556 421.576L178.139 427.562L170.34 414.289C170.34 414.289 165.141 412.727 163.321 416.371C163.321 416.371 163.711 403.227 168.78 402.837C172.189 402.574 174.759 402.577 174.759 402.577L177.619 402.056L179.45 401.405L183.078 403.878Z" fill="#575A89"/>
<path d="M194.125 432.377C194.125 432.377 207.773 473.368 203.874 479.094C203.874 479.094 189.316 486.381 160.201 476.491L172.029 430.555C179.295 429.067 186.66 429.675 194.125 432.377Z" fill="#2F2E41"/>
<path d="M194.126 432.377L197.967 419.162C193.359 414.145 197.336 403.021 197.336 403.021L191.776 401.828C191.776 401.828 186.197 416.891 180.478 415.069C174.759 413.247 177.879 401.536 177.879 401.536L172.679 402.056L170.34 411.165L172.03 430.555C179.076 429.95 186.467 430.654 194.126 432.377Z" fill="#575A89"/>
<path d="M200.885 452.287L202.705 427.562L203.225 412.727L197.506 413.768V427.562L196.336 452.677" fill="#FFB9B9"/>
<path d="M196.335 452.677C196.335 452.677 188.796 466.732 196.075 465.691C203.354 464.649 200.884 452.287 200.884 452.287" fill="white"/>
<path d="M206.084 416.761C206.084 416.761 205.16 403.395 197.434 403.441V418.898C197.434 418.898 203.225 415.46 206.084 416.761Z" fill="#575A89"/>
<path d="M184.699 389.372C184.655 389.372 184.612 389.358 184.576 389.333C184.54 389.307 184.513 389.271 184.498 389.23C184.484 389.188 184.482 389.143 184.495 389.101C184.507 389.058 184.532 389.021 184.566 388.993L188.809 385.595C188.83 385.578 188.855 385.564 188.882 385.557C188.909 385.549 188.937 385.546 188.965 385.549C188.993 385.552 189.02 385.561 189.044 385.574C189.069 385.587 189.091 385.606 189.108 385.628C189.125 385.649 189.138 385.675 189.146 385.702C189.154 385.728 189.156 385.757 189.153 385.784C189.15 385.812 189.141 385.839 189.128 385.864C189.114 385.888 189.096 385.91 189.074 385.927L184.831 389.325C184.794 389.355 184.747 389.372 184.699 389.372Z" fill="white"/>
<path d="M185.019 394.469C184.926 394.583 184.833 394.698 184.735 394.804C183.61 395.315 182.384 395.569 181.149 395.546C179.913 395.524 178.698 395.226 177.591 394.674C176.485 394.123 175.515 393.331 174.752 392.357C173.99 391.384 173.454 390.252 173.183 389.045L177.203 388.304L185.019 389.045C183.229 391.228 183.445 391.984 185.019 394.469Z" fill="white"/>
<path d="M177.34 375.564C177.34 375.564 173.041 376.374 172.047 381.742C171.891 382.648 171.863 383.57 171.962 384.484C172.062 385.517 171.918 387.7 169.676 390.27C168.214 391.937 166.851 393.689 165.596 395.517V395.517L170.088 396.714L172.096 389.262C173.069 385.649 174.568 382.199 176.545 379.023L176.586 378.957C176.586 378.957 178.078 382.949 182.078 383.496L180.845 381.87C180.845 381.87 185.52 384.576 188.169 385.403C188.471 385.497 188.742 385.672 188.952 385.91C189.162 386.147 189.304 386.437 189.362 386.748C189.419 387.06 189.391 387.382 189.28 387.678C189.169 387.975 188.979 388.236 188.73 388.433C188.712 388.448 188.692 388.462 188.673 388.477C186.725 389.959 182.75 393.494 184.32 396.913C185.891 400.333 184.059 400.957 184.059 400.957L187.436 399.671L188.981 399.008L188.825 400.152L196.37 400.31C196.37 400.31 198.409 400.298 194.787 394.849C194.787 394.849 193.913 392.806 194.631 391.246C195.206 390.064 195.493 388.762 195.467 387.447C195.239 381.954 192.928 370.779 177.34 375.564Z" fill="#2F2E41"/>
<path d="M71.5074 532.03C71.5074 532.03 71.5074 567.373 63.4056 576.643C63.4056 576.643 61.6695 581.278 61.0908 583.017C60.7672 584.006 60.3806 584.974 59.9333 585.913V588.231C59.9333 588.231 44.3084 586.493 42.5723 582.437L45.4658 578.961C45.4658 578.961 46.0445 578.381 45.4658 576.643C44.8871 574.905 46.6232 574.905 46.6232 574.905L50.6741 565.635L50.0954 527.395L52.9889 474.671L77.8731 473.512L71.5074 532.03Z" fill="#2F2E41"/>
<path d="M58.7753 584.755C58.7753 584.755 62.8262 596.922 58.7753 597.501C54.7243 598.081 19.4234 598.66 20.0022 594.025C20.5809 589.39 32.1549 589.969 32.1549 589.969L44.3077 582.437L58.7753 584.755Z" fill="#2F2E41"/>
<path d="M94.6549 474.671C94.6549 474.671 95.8123 482.203 91.1827 490.314C86.553 498.426 89.4465 525.657 89.4465 525.657L130.534 561.579C130.534 561.579 122.433 575.484 119.539 574.905C116.646 574.326 70.9281 537.245 70.9281 537.245L52.9883 476.989L94.6549 474.671Z" fill="#2F2E41"/>
<path d="M129.971 560.044C129.971 560.044 142.404 563.132 140.724 566.868C139.045 570.604 120.635 600.765 117.035 597.794C113.434 594.824 120.119 585.347 120.119 585.347L120.271 571.038L129.971 560.044Z" fill="#2F2E41"/>
<path d="M85.3964 366.906C85.401 369.958 84.353 372.919 82.4294 375.287C80.9083 377.174 78.9006 378.609 76.6236 379.436C74.3465 380.262 71.8869 380.45 69.5111 379.978C68.3215 379.747 67.1701 379.351 66.0909 378.799C64.3769 377.934 62.8702 376.708 61.6742 375.205C60.4782 373.702 59.6212 371.958 59.1621 370.092C58.9035 369.05 58.7736 367.98 58.7754 366.906C58.7754 363.372 60.1778 359.982 62.674 357.483C65.1702 354.984 68.5557 353.58 72.0859 353.58C75.6161 353.58 79.0016 354.984 81.4978 357.483C83.994 359.982 85.3964 363.372 85.3964 366.906V366.906Z" fill="#A0616A"/>
<path d="M82.5584 371.607L81.9697 388.755L70.7702 393.185C70.7702 393.185 69.6719 375.627 68.1215 374.653C66.5711 373.68 82.5584 371.607 82.5584 371.607Z" fill="#A0616A"/>
<path d="M68.0348 395.295C68.0348 395.295 83.6598 379.651 87.7107 380.231C91.7616 380.81 91.7616 382.548 91.7616 383.707C91.7616 384.866 90.6042 385.445 91.7616 386.025C92.9191 386.604 94.0764 386.025 94.0764 387.763C94.0764 389.501 104.493 406.883 101.021 426.002C97.5487 445.122 93.4978 454.392 95.2339 464.821C96.97 475.25 95.8126 477.568 95.8126 477.568C95.8126 477.568 52.4098 481.044 51.8311 476.989C51.2524 472.933 53.5672 475.25 50.6737 472.353C47.7802 469.457 48.9376 469.457 48.9376 467.718C48.9376 465.98 61.6691 395.295 68.0348 395.295Z" fill="#575A89"/>
<path d="M76.137 474.092C76.137 474.092 69.1925 490.894 63.9842 486.838C58.7759 482.782 66.299 468.877 66.299 468.877L76.137 474.092Z" fill="white"/>
<path d="M92.9191 396.454C92.9191 396.454 106.516 398.012 101.454 423.016C96.3913 448.019 76.7154 476.989 76.7154 476.989L63.4053 470.615L80.7664 436.431L76.7154 414.994C76.7154 414.994 74.4006 394.716 92.9191 396.454Z" fill="#575A89"/>
<path opacity="0.2" d="M81.0564 436.721L61.959 468.587L63.6951 470.326L81.0564 436.721Z" fill="black"/>
<path opacity="0.2" d="M91.1644 451.571L75.8477 476.699H81.0562L91.1644 451.571Z" fill="black"/>
<path opacity="0.2" d="M56.5653 497.235L55.7959 497.529L71.0244 537.504L71.7938 537.211L56.5653 497.235Z" fill="black"/>
<path d="M68.1172 398.476C68.5719 398.476 68.9404 398.107 68.9404 397.652C68.9404 397.197 68.5719 396.828 68.1172 396.828C67.6625 396.828 67.2939 397.197 67.2939 397.652C67.2939 398.107 67.6625 398.476 68.1172 398.476Z" fill="#D0CDE1"/>
<path d="M61.1193 420.73C61.2073 420.73 61.2929 420.702 61.3637 420.649C61.4344 420.597 61.4866 420.524 61.5125 420.439L68.51 397.774C68.5261 397.722 68.5319 397.667 68.5269 397.614C68.522 397.56 68.5065 397.507 68.4813 397.459C68.4561 397.411 68.4217 397.369 68.3801 397.334C68.3385 397.3 68.2904 397.274 68.2387 397.258C68.1871 397.241 68.1327 397.236 68.0789 397.241C68.025 397.246 67.9726 397.262 67.9248 397.287C67.877 397.312 67.8346 397.347 67.8001 397.388C67.7656 397.43 67.7397 397.478 67.7238 397.53L60.7262 420.196C60.7073 420.258 60.703 420.323 60.7138 420.387C60.7247 420.45 60.7502 420.51 60.7884 420.562C60.8267 420.614 60.8765 420.656 60.934 420.686C60.9914 420.715 61.0549 420.73 61.1193 420.73V420.73Z" fill="#D0CDE1"/>
<path d="M69.4165 377.112L66.0902 380.28C62.6646 378.554 59.3557 373.904 58.4219 370.092L62.7861 368.261C63.071 372.149 65.8272 374.733 69.4165 377.112Z" fill="white"/>
<path d="M70.2457 369.921C70.2325 369.921 70.2194 369.92 70.2063 369.918L62.4709 368.812C62.4349 368.807 62.4004 368.794 62.3691 368.776C62.3379 368.757 62.3106 368.733 62.2888 368.704C62.267 368.675 62.2511 368.642 62.2421 368.607C62.2331 368.571 62.231 368.535 62.2361 368.499C62.2412 368.463 62.2534 368.428 62.2718 368.397C62.2903 368.366 62.3147 368.338 62.3437 368.317C62.3728 368.295 62.4058 368.279 62.4409 368.27C62.4761 368.261 62.5126 368.259 62.5486 368.264L70.284 369.37C70.3532 369.38 70.4161 369.416 70.4601 369.47C70.504 369.525 70.5257 369.594 70.5209 369.663C70.516 369.733 70.4849 369.799 70.4339 369.846C70.3828 369.894 70.3156 369.921 70.2457 369.921V369.921Z" fill="white"/>
<path d="M69.1406 377.112C69.0923 377.112 69.0449 377.1 69.003 377.076C68.9612 377.052 68.9263 377.017 68.902 376.975C68.8776 376.934 68.8646 376.886 68.8643 376.838C68.8639 376.79 68.8762 376.742 68.8999 376.7L71.4629 372.132C71.4807 372.1 71.5045 372.072 71.533 372.05C71.5615 372.027 71.5942 372.01 71.6292 372.001C71.6642 371.991 71.7008 371.988 71.7368 371.992C71.7729 371.997 71.8078 372.008 71.8395 372.026C71.8711 372.044 71.899 372.068 71.9214 372.096C71.9438 372.125 71.9603 372.158 71.9701 372.193C71.9798 372.228 71.9825 372.264 71.9781 372.3C71.9737 372.337 71.9622 372.371 71.9443 372.403L69.3812 376.971C69.3573 377.014 69.3223 377.05 69.28 377.074C69.2377 377.099 69.1896 377.112 69.1406 377.112V377.112Z" fill="white"/>
<path d="M78.111 374.912C77.0335 374.342 75.7818 374.224 74.6155 373.87C70.4428 372.601 67.6475 367.879 68.5399 363.605C68.7048 363.057 68.7788 362.486 68.7591 361.913C68.6031 360.648 67.3095 359.831 66.069 359.541C64.8286 359.251 63.5088 359.293 62.3232 358.827C60.4927 358.107 59.2767 356.223 59.0131 354.272C58.7495 352.321 59.3278 350.331 60.2685 348.601L60.7165 349.892C61.3998 349.313 61.9071 348.553 62.1805 347.7C62.6897 347.786 63.1684 348.001 63.5708 348.325C63.9732 348.649 64.2857 349.071 64.4786 349.55C65.1978 349.975 65.3014 348.231 66.0958 347.974C66.4285 347.866 66.7705 348.071 67.0874 348.219C68.6881 348.966 70.548 348.327 72.2651 347.913C75.2386 347.199 78.3381 347.195 81.3133 347.902C83.2898 348.374 85.2463 349.196 86.6606 350.657C87.8222 351.856 88.5459 353.408 89.1621 354.96C90.6791 358.782 91.6813 362.918 91.1805 367.001C90.7634 370.341 89.3675 373.483 87.1688 376.031C86.0234 377.352 82.2865 381.961 80.2375 381.175C77.6629 380.188 81.1446 376.518 78.111 374.912Z" fill="#2F2E41"/>
</g>
<defs>
<linearGradient id="paint0_linear" x1="161" y1="551" x2="52.928" y2="280.046" gradientUnits="userSpaceOnUse">
<stop stop-color="#687ECD" stop-opacity="0.21"/>
<stop offset="1" stop-color="white" stop-opacity="0"/>
</linearGradient>
<linearGradient id="paint1_linear" x1="-49.4893" y1="326.633" x2="522.393" y2="186.47" gradientUnits="userSpaceOnUse">
<stop stop-color="white"/>
<stop offset="0.769795" stop-color="white" stop-opacity="0"/>
</linearGradient>
<clipPath id="clip0">
<rect x="18" y="310" width="336" height="288" fill="white"/>
</clipPath>
</defs>
</svg>
