<svg width="1440" height="969" viewBox="0 0 1440 969" fill="none" xmlns="http://www.w3.org/2000/svg">
<rect width="1440" height="895" fill="white"/>
<path fill-rule="evenodd" clip-rule="evenodd" d="M676.621 183.178C774.58 115.052 890.466 90.9286 998.621 101.178C1122.63 112.929 1253.3 159.55 1298.62 263.178C1346.04 371.592 1301.79 477.706 1225.72 593.747C1150.1 709.091 1040.71 820.395 906.43 843.698C779.962 865.645 694.098 776.154 613.827 699.932C542.412 632.119 475.733 553.76 490.144 448.409C504.806 341.22 577.039 252.431 676.621 183.178Z" fill="#C8DDF5" fill-opacity="0.2"/>
<path fill-rule="evenodd" clip-rule="evenodd" d="M676.621 183.178C774.58 115.052 890.466 90.9286 998.621 101.178C1122.63 112.929 1253.3 159.55 1298.62 263.178C1346.04 371.592 1301.79 477.706 1225.72 593.747C1150.1 709.091 1040.71 820.395 906.43 843.698C779.962 865.645 694.098 776.154 613.827 699.932C542.412 632.119 475.733 553.76 490.144 448.409C504.806 341.22 577.039 252.431 676.621 183.178Z" fill="url(#paint0_linear)" style="mix-blend-mode:screen"/>
<path fill-rule="evenodd" clip-rule="evenodd" d="M676.621 183.178C774.58 115.052 890.466 90.9286 998.621 101.178C1122.63 112.929 1253.3 159.55 1298.62 263.178C1346.04 371.592 1301.79 477.706 1225.72 593.747C1150.1 709.091 1040.71 820.395 906.43 843.698C779.962 865.645 694.098 776.154 613.827 699.932C542.412 632.119 475.733 553.76 490.144 448.409C504.806 341.22 577.039 252.431 676.621 183.178Z" fill="url(#paint1_linear)"/>
<g clip-path="url(#clip0)">
<path d="M811.116 680.423C847.985 680.423 877.873 619.495 877.873 544.336C877.873 469.178 847.985 408.25 811.116 408.25C774.247 408.25 744.359 469.178 744.359 544.336C744.359 619.495 774.247 680.423 811.116 680.423Z" fill="#F9DC25"/>
<path d="M810.503 545.748C813.833 486.51 820.543 446.497 820.61 446.1L819.154 445.854C819.087 446.251 812.366 486.328 809.03 545.642C805.952 600.385 805.21 683.188 819.154 766.776L820.61 766.534C806.69 683.087 807.431 600.41 810.503 545.748Z" fill="#3F3D56"/>
<path d="M870.782 516.738L810.423 549.014L811.12 550.315L871.478 518.039L870.782 516.738Z" fill="#3F3D56"/>
<path d="M747.4 532.915L746.703 534.216L807.071 566.476L807.767 565.175L747.4 532.915Z" fill="#3F3D56"/>
<path d="M1274.01 666.275C1321.85 666.275 1360.62 587.232 1360.62 489.727C1360.62 392.221 1321.85 313.178 1274.01 313.178C1226.18 313.178 1187.41 392.221 1187.41 489.727C1187.41 587.232 1226.18 666.275 1274.01 666.275Z" fill="#F9DC25"/>
<path d="M1272.96 491.535C1277.28 414.672 1285.99 362.754 1286.08 362.239L1284.7 362.005C1284.61 362.521 1275.89 414.5 1271.57 491.435C1267.57 562.442 1266.61 669.844 1284.7 778.263L1286.08 778.033C1268.01 669.748 1268.98 562.466 1272.96 491.535Z" fill="#3F3D56"/>
<path d="M1351.54 454.15L1273.24 496.023L1273.9 497.256L1352.2 455.383L1351.54 454.15Z" fill="#3F3D56"/>
<path d="M1191.23 475.136L1190.57 476.37L1268.89 518.222L1269.55 516.988L1191.23 475.136Z" fill="#3F3D56"/>
<path d="M1169.67 714.092C1187.54 714.092 1202.03 684.56 1202.03 648.129C1202.03 611.699 1187.54 582.166 1169.67 582.166C1151.8 582.166 1137.31 611.699 1137.31 648.129C1137.31 684.56 1151.8 714.092 1169.67 714.092Z" fill="#E6E6E6"/>
<path d="M1169.64 650.971L1169.83 651.329L1199.09 635.684L1198.43 634.45L1169.7 649.812C1171.29 620.58 1174.54 600.956 1174.61 600.569L1173.23 600.336C1173.16 600.758 1169.29 624.061 1167.92 657.781L1138.95 642.288L1138.29 643.521L1167.55 659.166L1167.9 658.514C1166.8 686.345 1167.41 721.145 1173.23 756.006L1174.61 755.777C1168.27 717.767 1168.13 679.829 1169.64 650.971Z" fill="#3F3D56"/>
<path d="M1333.63 792.747C1161.27 738.237 1004.99 741.14 904.233 753.176C795.076 766.214 725.81 792.469 725.124 792.733L724.621 791.427C725.31 791.163 794.738 764.846 904.067 751.787C968.376 744.114 1033.26 742.456 1097.88 746.833C1178.1 752.258 1257.38 767.224 1334.05 791.414L1333.63 792.747Z" fill="#3F3D56"/>
<path d="M946.167 777.341C946.167 777.341 946.65 767.222 956.559 768.398Z" fill="#3F3D56"/>
<path d="M943.367 767.712C946.106 767.712 948.326 765.493 948.326 762.757C948.326 760.02 946.106 757.802 943.367 757.802C940.628 757.802 938.407 760.02 938.407 762.757C938.407 765.493 940.628 767.712 943.367 767.712Z" fill="#F9DC25"/>
<path d="M943.959 771.101H942.56V780.891H943.959V771.101Z" fill="#3F3D56"/>
<path d="M1126.76 779.439C1126.76 779.439 1127.24 769.32 1137.15 770.496Z" fill="#3F3D56"/>
<path d="M1123.96 769.81C1126.7 769.81 1128.92 767.591 1128.92 764.855C1128.92 762.118 1126.7 759.9 1123.96 759.9C1121.22 759.9 1119 762.118 1119 764.855C1119 767.591 1121.22 769.81 1123.96 769.81Z" fill="#F9DC25"/>
<path d="M1124.55 773.199H1123.15V782.989H1124.55V773.199Z" fill="#3F3D56"/>
<path d="M829.273 761.956C829.273 761.956 829.757 751.837 839.666 753.013Z" fill="#3F3D56"/>
<path d="M826.473 752.327C829.212 752.327 831.432 750.108 831.432 747.372C831.432 744.635 829.212 742.417 826.473 742.417C823.734 742.417 821.514 744.635 821.514 747.372C821.514 750.108 823.734 752.327 826.473 752.327Z" fill="#F9DC25"/>
<path d="M827.066 755.716H825.666V765.506H827.066V755.716Z" fill="#3F3D56"/>
<path d="M905.569 748.669C905.569 748.669 906.053 738.55 915.962 739.726Z" fill="#3F3D56"/>
<path d="M902.769 739.04C905.508 739.04 907.728 736.821 907.728 734.085C907.728 731.348 905.508 729.13 902.769 729.13C900.03 729.13 897.81 731.348 897.81 734.085C897.81 736.821 900.03 739.04 902.769 739.04Z" fill="#F9DC25"/>
<path d="M903.362 742.428H901.962V752.219H903.362V742.428Z" fill="#3F3D56"/>
<path d="M1096.66 767.551C1096.66 767.551 1097.14 757.432 1107.05 758.608Z" fill="#3F3D56"/>
<path d="M1093.86 757.921C1096.6 757.921 1098.82 755.703 1098.82 752.966C1098.82 750.23 1096.6 748.012 1093.86 748.012C1091.12 748.012 1088.9 750.23 1088.9 752.966C1088.9 755.703 1091.12 757.921 1093.86 757.921Z" fill="#F9DC25"/>
<path d="M1094.45 761.31H1093.05V771.101H1094.45V761.31Z" fill="#3F3D56"/>
<path d="M1311.9 747.266L1340.71 789.943L1313.88 816.741L1310.41 809.794L1316.37 795.899C1316.37 795.899 1315.37 782.996 1311.9 779.522C1308.42 776.048 1293.02 755.206 1293.02 755.206L1311.9 747.266Z" fill="#FFB8B8"/>
<path d="M1275.14 609.307C1275.14 609.307 1280.6 617.945 1269.18 655.164C1269.18 655.164 1322.47 745.018 1314.02 750.973C1305.58 756.928 1282.73 770.107 1276.77 766.137C1270.81 762.167 1227.46 627.668 1227.46 627.668L1275.14 609.307Z" fill="#2F2E41"/>
<path d="M1335.49 782.252L1344.18 790.936C1348.65 795.402 1351.63 801.854 1343.19 807.312C1334.75 812.771 1305.44 833.118 1295.51 826.666C1285.57 820.215 1307.43 814.26 1307.43 814.26C1307.43 814.26 1311.04 800.873 1312.96 803.844C1314.88 806.816 1314.88 812.771 1314.88 812.771L1335.49 782.252Z" fill="#2F2E41"/>
<path d="M1230.44 770.589C1230.44 770.589 1214.54 799.869 1214.54 803.342C1214.54 806.816 1215.54 816.741 1215.54 816.741L1185.24 824.185L1174.81 819.222L1178.28 810.29C1178.28 810.29 1197.16 803.839 1201.13 791.432C1205.1 779.026 1209.58 766.123 1209.58 766.123L1230.44 770.589Z" fill="#FFB8B8"/>
<path d="M1248.81 479.288C1260.34 479.288 1269.68 469.956 1269.68 458.445C1269.68 446.934 1260.34 437.603 1248.81 437.603C1237.29 437.603 1227.95 446.934 1227.95 458.445C1227.95 469.956 1237.29 479.288 1248.81 479.288Z" fill="#FFB8B8"/>
<path d="M1243.35 476.31L1253.31 504.902L1275.14 495.168C1275.14 495.168 1260.24 472.34 1260.24 469.363L1243.35 476.31Z" fill="#FFB8B8"/>
<path d="M1240.37 578.043H1266.7C1266.7 578.043 1285.57 606.825 1274.64 637.097C1272.97 641.733 1271.31 648.226 1269.65 655.903C1265.84 673.559 1262.04 697.475 1258.15 719.451C1252.69 750.321 1247.04 777.364 1240.89 777.855C1228.48 778.847 1204.33 778.682 1204.33 773.719C1204.33 768.757 1220.5 625.187 1220.5 625.187L1223.98 619.232L1224.64 593.292C1224.74 589.199 1226.45 585.31 1229.39 582.458C1232.33 579.607 1236.27 578.022 1240.37 578.043V578.043Z" fill="#2F2E41"/>
<path d="M1214.29 803.094C1214.29 803.094 1220.01 812.771 1218.52 819.719C1217.03 826.666 1214.54 825.674 1203.61 826.666C1192.69 827.659 1155.43 827.659 1155.43 820.711C1155.43 813.764 1184.49 804.741 1184.62 807.516C1184.74 810.29 1185.73 815.749 1182.75 816.741C1179.77 817.734 1182.5 816.989 1182.5 816.989L1214.29 803.094Z" fill="#2F2E41"/>
<path d="M1243.36 639.983C1243.36 639.983 1241.19 675.235 1226.78 664.741C1212.37 654.246 1232.4 635.289 1232.4 635.289L1243.36 639.983Z" fill="white"/>
<path d="M1272.12 593.556C1272.81 593.868 1273.58 593.986 1274.33 593.896C1275.09 593.807 1275.8 593.514 1276.4 593.049C1277.27 592.366 1277.85 591.378 1278.03 590.284C1280.11 578.283 1282.65 545.014 1284.11 528.191C1285.94 507.082 1276.78 490.732 1276.71 490.632L1271.31 483.218C1270.75 482.443 1269.94 481.881 1269.02 481.623C1268.1 481.364 1267.12 481.425 1266.24 481.795C1266.24 481.795 1249.39 499.261 1249.33 499.935C1249.06 502.831 1247.06 509.247 1236.6 519.69C1225.17 531.116 1225.1 541.088 1225.36 543.873C1225.37 544.056 1225.38 544.239 1225.38 544.422C1225.36 545.671 1225.53 546.916 1225.89 548.114C1230.68 563.202 1226.92 581.266 1220.9 600.121C1220.67 600.973 1220.71 601.875 1221.02 602.702C1221.33 603.529 1221.89 604.24 1222.62 604.736C1224.38 605.932 1222.27 604.158 1222.89 604.926C1227.05 610.009 1233.02 602.925 1239.85 595.195C1242.23 592.503 1244.93 589.451 1248.11 586.273C1252.49 581.905 1260.84 591.874 1264.72 591.874C1267.28 591.904 1269.8 592.478 1272.12 593.556V593.556Z" fill="#575A89"/>
<path d="M1274.44 498.33C1274.44 498.33 1285.35 507.523 1279.15 519.447C1272.95 531.37 1273.77 540.163 1273.77 540.163C1273.77 540.163 1272.12 622.071 1252.75 618.091L1243.94 642.395L1228.03 636.657L1237.23 615.221C1237.23 615.221 1229.86 614.763 1232.01 609.746C1233.53 606.222 1241.68 567.983 1246.39 545.533C1248.39 536.019 1249.77 529.341 1249.77 529.341C1249.77 529.341 1256.04 495.849 1274.44 498.33Z" fill="#575A89"/>
<path opacity="0.2" d="M1276.72 539.953L1270.59 580.171L1273.9 537.167L1276.72 539.953Z" fill="black"/>
<path d="M1226.05 449.21C1226.05 449.21 1222.55 421.94 1251.16 430.883C1251.16 430.883 1271.6 427.136 1278.3 452.678L1285.09 479.452L1281.78 477.654L1280.24 481.021L1274.88 482.377L1272.59 477.829L1271.48 483.352L1227.58 487.725C1227.58 487.725 1247.24 476.108 1247.55 455.287L1243.81 459.241L1226.05 449.21Z" fill="#2F2E41"/>
<path opacity="0.2" d="M1258.7 721.02L1268.49 655.853L1260.53 726.203L1258.7 721.02Z" fill="black"/>
<path d="M1274.7 442.178C1280.8 442.178 1285.74 437.241 1285.74 431.15C1285.74 425.059 1280.8 420.121 1274.7 420.121C1268.6 420.121 1263.66 425.059 1263.66 431.15C1263.66 437.241 1268.6 442.178 1274.7 442.178Z" fill="#2F2E41"/>
<path d="M1263.32 428.45C1263.5 425.652 1264.75 423.028 1266.8 421.113C1268.85 419.198 1271.55 418.136 1274.36 418.142C1274.13 418.113 1273.9 418.078 1273.67 418.063C1272.22 417.97 1270.77 418.162 1269.4 418.629C1268.03 419.095 1266.76 419.828 1265.67 420.784C1264.58 421.741 1263.69 422.902 1263.05 424.202C1262.41 425.502 1262.03 426.915 1261.94 428.361C1261.85 429.807 1262.04 431.257 1262.51 432.628C1262.98 433.999 1263.71 435.265 1264.67 436.353C1265.63 437.44 1266.79 438.329 1268.09 438.968C1269.39 439.606 1270.81 439.983 1272.25 440.075C1272.49 440.09 1272.71 440.084 1272.94 440.084C1270.16 439.732 1267.62 438.332 1265.83 436.171C1264.04 434.009 1263.14 431.248 1263.32 428.45V428.45Z" fill="#2F2E41"/>
<path opacity="0.2" d="M1243.2 552.486L1233.48 604.491L1246.07 547.051L1243.2 552.486Z" fill="black"/>
<path d="M1243.8 473.465L1238.14 477.729C1232.31 474.798 1227.94 468.017 1226.35 461.544L1232.52 458.435C1233 465.036 1237.7 469.425 1243.8 473.465Z" fill="white"/>
<path d="M1246.15 459.374H1232.05C1231.92 459.374 1231.81 459.325 1231.72 459.237C1231.63 459.149 1231.58 459.029 1231.58 458.905C1231.58 458.78 1231.63 458.66 1231.72 458.572C1231.81 458.484 1231.92 458.435 1232.05 458.435H1246.15C1246.28 458.435 1246.4 458.484 1246.49 458.572C1246.57 458.66 1246.62 458.78 1246.62 458.905C1246.62 459.029 1246.57 459.149 1246.49 459.237C1246.4 459.325 1246.28 459.374 1246.15 459.374V459.374Z" fill="white"/>
<path d="M1243.33 473.465C1243.26 473.465 1243.18 473.447 1243.11 473.411C1243.04 473.375 1242.99 473.323 1242.94 473.259C1242.9 473.195 1242.87 473.122 1242.86 473.046C1242.86 472.97 1242.87 472.893 1242.9 472.821L1246.66 463.427C1246.68 463.37 1246.71 463.317 1246.76 463.273C1246.8 463.229 1246.85 463.193 1246.91 463.169C1246.96 463.145 1247.03 463.132 1247.09 463.131C1247.15 463.13 1247.21 463.141 1247.27 463.164C1247.33 463.187 1247.38 463.221 1247.42 463.264C1247.47 463.308 1247.5 463.359 1247.53 463.416C1247.55 463.473 1247.56 463.534 1247.56 463.596C1247.56 463.657 1247.55 463.719 1247.53 463.776L1243.77 473.17C1243.73 473.257 1243.67 473.332 1243.6 473.385C1243.52 473.437 1243.43 473.465 1243.33 473.465V473.465Z" fill="white"/>
<path d="M1247.1 464.924C1249.01 464.924 1250.55 462.764 1250.55 460.099C1250.55 457.435 1249.01 455.274 1247.1 455.274C1245.2 455.274 1243.65 457.435 1243.65 460.099C1243.65 462.764 1245.2 464.924 1247.1 464.924Z" fill="#FFB8B8"/>
<path d="M1004.04 474.634L1040.78 483.033L1056.3 453.784L1024.89 441.531L1004.04 474.634Z" fill="#2F2E41"/>
<path d="M1023.56 632.086C1023.56 632.086 1011.75 659.124 1011.75 666.99C1011.75 666.99 1016.42 688.375 1014.95 694.274L1009.78 705.336L998.955 700.911L996.003 671.415L996.495 624.22L1023.56 632.086Z" fill="#FFB9B9"/>
<path d="M1030.2 470.347C1030.2 470.347 1031.18 486.57 1029.22 491.486C1027.25 496.402 1036.6 505.742 1036.6 505.742L1051.36 486.57C1051.36 486.57 1041.52 476.738 1043.98 465.922L1030.2 470.347Z" fill="#FFB9B9"/>
<path d="M999.447 582.679C999.447 582.679 985.178 609.226 998.955 607.26C1012.73 605.293 1008.06 581.942 1008.06 581.942" fill="#E6E6E6"/>
<path d="M1008.06 581.942L1012.73 535.485L1012.49 507.218L1001.66 509.183V535.239L999.447 582.679" fill="#FFB9B9"/>
<path d="M996.249 697.47L1017.41 689.112L1019.87 730.899C1019.87 730.899 1024.3 743.681 1022.82 748.597C1022.82 748.597 1023.8 756.954 1021.34 757.446C1018.88 757.938 1011.99 758.921 1011.5 758.429C1011.01 757.938 1011.01 756.463 1011.01 756.463C1011.01 756.463 1006.09 759.904 1005.6 763.837C1005.6 763.837 984.931 770.228 984.439 764.329C983.947 758.429 994.772 753.513 994.772 753.513L1003.14 740.731L996.249 697.47Z" fill="#2F2E41"/>
<path d="M1067.6 632.086C1067.6 632.086 1055.79 659.124 1055.79 666.99C1055.79 666.99 1060.46 688.375 1058.99 694.274L1053.82 705.336L1042.99 700.911L1040.04 671.415L1040.53 624.22L1067.6 632.086Z" fill="#FFB9B9"/>
<path d="M1041.03 697.47L1062.18 689.112L1064.64 730.899C1064.64 730.899 1069.07 743.681 1067.6 748.597C1067.6 748.597 1068.58 756.954 1066.12 757.446C1063.66 757.938 1056.77 758.921 1056.28 758.429C1055.79 757.938 1055.79 756.463 1055.79 756.463C1055.79 756.463 1050.87 759.904 1050.38 763.837C1050.38 763.837 1029.71 770.228 1029.22 764.329C1028.72 758.429 1039.55 753.513 1039.55 753.513L1047.91 740.731L1041.03 697.47Z" fill="#2F2E41"/>
<path d="M1050.87 459.042C1050.87 462.914 1049.44 466.648 1046.85 469.532C1044.27 472.416 1040.71 474.246 1036.86 474.672C1033.01 475.098 1029.13 474.09 1025.98 471.842C1022.82 469.593 1020.61 466.261 1019.76 462.484C1019.5 461.355 1019.37 460.2 1019.37 459.042C1019.38 454.871 1021.04 450.872 1023.99 447.924C1026.94 444.975 1030.95 443.319 1035.12 443.319C1039.3 443.319 1043.3 444.975 1046.25 447.924C1049.21 450.872 1050.87 454.871 1050.87 459.042V459.042Z" fill="#FFB9B9"/>
<path d="M1037.09 490.503L1049.31 484.163L1054.8 488.536C1054.8 488.536 1068.09 488.045 1073.01 493.944C1077.93 499.843 1080.64 514.837 1080.64 514.837C1080.64 514.837 1064.4 511.396 1066.37 525.161L1063.41 517.295L1060.71 523.932L1027.74 535.239L1012.98 510.167C1012.98 510.167 1003.14 507.217 999.693 514.1C999.693 514.1 1000.43 489.274 1010.03 488.536C1016.48 488.04 1021.34 488.045 1021.34 488.045L1026.76 487.061L1030.22 485.832L1037.09 490.503Z" fill="#575A89"/>
<path d="M1058 544.334C1058 544.334 1083.83 621.762 1076.45 632.577C1076.45 632.577 1048.9 646.342 993.788 627.661L1016.18 540.893C1029.93 538.083 1043.87 539.23 1058 544.334Z" fill="#2F2E41"/>
<path d="M1058 544.334L1065.27 519.372C1056.55 509.896 1064.08 488.883 1064.08 488.883L1053.56 486.63C1053.56 486.63 1042.99 515.083 1032.17 511.642C1021.34 508.201 1027.25 486.078 1027.25 486.078L1017.41 487.061L1012.98 504.268L1016.18 540.893C1029.52 539.749 1043.51 541.08 1058 544.334Z" fill="#575A89"/>
<path d="M1070.8 581.942L1074.24 535.239L1075.23 507.218L1064.4 509.183V535.239L1062.19 582.679" fill="#FFB9B9"/>
<path d="M1062.18 582.679C1062.18 582.679 1047.92 609.226 1061.69 607.26C1075.47 605.293 1070.8 581.942 1070.8 581.942" fill="white"/>
<path d="M1080.64 514.837C1080.64 514.837 1078.89 489.59 1064.26 489.678V518.875C1064.26 518.875 1075.22 512.379 1080.64 514.837Z" fill="#575A89"/>
<path d="M1040.16 463.102C1040.07 463.102 1039.99 463.076 1039.93 463.028C1039.86 462.98 1039.81 462.912 1039.78 462.833C1039.75 462.755 1039.75 462.67 1039.77 462.59C1039.79 462.51 1039.84 462.439 1039.91 462.387L1047.94 455.969C1047.98 455.935 1048.03 455.91 1048.08 455.895C1048.13 455.88 1048.18 455.876 1048.23 455.881C1048.29 455.887 1048.34 455.903 1048.38 455.928C1048.43 455.954 1048.47 455.988 1048.5 456.03C1048.54 456.071 1048.56 456.118 1048.58 456.169C1048.59 456.22 1048.6 456.273 1048.59 456.326C1048.58 456.379 1048.57 456.429 1048.54 456.476C1048.52 456.522 1048.48 456.563 1048.44 456.595L1040.41 463.014C1040.34 463.071 1040.25 463.102 1040.16 463.102Z" fill="white"/>
<path d="M1040.77 472.73C1040.59 472.946 1040.41 473.163 1040.23 473.363C1038.1 474.329 1035.78 474.807 1033.44 474.765C1031.1 474.722 1028.8 474.16 1026.71 473.118C1024.61 472.076 1022.78 470.581 1021.33 468.742C1019.89 466.902 1018.87 464.764 1018.36 462.484L1025.97 461.085L1040.77 462.484C1037.38 466.608 1037.79 468.036 1040.77 472.73Z" fill="white"/>
<path d="M1026.23 437.021C1026.23 437.021 1018.09 438.55 1016.21 448.691C1015.92 450.401 1015.86 452.144 1016.05 453.869C1016.24 455.821 1015.97 459.944 1011.72 464.798C1008.96 467.947 1006.38 471.256 1004 474.709V474.709L1012.5 476.971L1016.3 462.895C1018.15 456.07 1020.98 449.554 1024.73 443.555L1024.8 443.43C1024.8 443.43 1027.63 450.97 1035.2 452.003L1032.86 448.933C1032.86 448.933 1041.71 454.044 1046.73 455.605C1047.3 455.784 1047.81 456.114 1048.21 456.562C1048.61 457.01 1048.88 457.558 1048.99 458.147C1049.09 458.736 1049.04 459.343 1048.83 459.904C1048.62 460.464 1048.26 460.957 1047.79 461.328C1047.75 461.356 1047.72 461.384 1047.68 461.412C1043.99 464.211 1036.47 470.888 1039.44 477.347C1042.42 483.807 1038.95 484.985 1038.95 484.985L1045.34 482.555L1048.27 481.304L1047.97 483.465L1062.25 483.764C1062.25 483.764 1066.11 483.74 1059.26 473.449C1059.26 473.449 1057.6 469.59 1058.96 466.642C1060.05 464.409 1060.59 461.95 1060.54 459.466C1060.11 449.091 1055.74 427.982 1026.23 437.021Z" fill="#2F2E41"/>
<path d="M825.903 732.568C825.903 732.568 825.903 799.327 810.567 816.837C810.567 816.837 807.281 825.592 806.186 828.875C805.573 830.744 804.841 832.572 803.995 834.347V838.725C803.995 838.725 774.419 835.442 771.133 827.781L776.61 821.215C776.61 821.215 777.705 820.12 776.61 816.837C775.514 813.554 778.801 813.554 778.801 813.554L786.468 796.043L785.373 723.813L790.85 624.223L837.952 622.034L825.903 732.568Z" fill="#2F2E41"/>
<path d="M801.804 832.159C801.804 832.159 809.472 855.141 801.804 856.235C794.136 857.33 727.316 858.424 728.412 849.669C729.507 840.914 751.415 842.008 751.415 842.008L774.419 827.781L801.804 832.159Z" fill="#2F2E41"/>
<path d="M869.719 624.223C869.719 624.223 871.909 638.45 863.146 653.772C854.383 669.093 859.86 720.53 859.86 720.53L937.633 788.383C937.633 788.383 922.298 814.648 916.821 813.554C911.344 812.459 824.807 742.418 824.807 742.418L790.85 628.6L869.719 624.223Z" fill="#2F2E41"/>
<path d="M936.565 785.483C936.565 785.483 960.099 791.316 956.919 798.372C953.74 805.429 918.893 862.401 912.078 856.789C905.263 851.178 917.916 833.277 917.916 833.277L918.204 806.248L936.565 785.483Z" fill="#2F2E41"/>
<path d="M852.192 420.666C852.2 426.432 850.216 432.024 846.575 436.497C843.696 440.062 839.896 442.772 835.586 444.334C831.276 445.896 826.62 446.25 822.123 445.358C819.871 444.923 817.692 444.174 815.649 443.132C812.405 441.498 809.553 439.182 807.289 436.343C805.025 433.504 803.403 430.21 802.534 426.685C802.044 424.716 801.798 422.695 801.802 420.666C801.802 413.99 804.456 407.588 809.181 402.867C813.906 398.147 820.315 395.495 826.997 395.495C833.679 395.495 840.087 398.147 844.812 402.867C849.537 407.588 852.192 413.99 852.192 420.666V420.666Z" fill="#A0616A"/>
<path d="M846.821 429.546L845.707 461.936L824.508 470.305C824.508 470.305 822.429 437.139 819.494 435.3C816.56 433.462 846.821 429.546 846.821 429.546Z" fill="#A0616A"/>
<path d="M819.33 474.29C819.33 474.29 848.906 444.741 856.574 445.836C864.242 446.93 864.242 450.213 864.242 452.402C864.242 454.591 862.051 455.685 864.242 456.78C866.432 457.874 868.623 456.78 868.623 460.063C868.623 463.346 888.34 496.178 881.768 532.293C875.196 568.408 867.528 585.919 870.814 605.618C874.1 625.317 871.909 629.695 871.909 629.695C871.909 629.695 789.754 636.261 788.659 628.6C787.563 620.94 791.945 625.317 786.468 619.845C780.991 614.373 783.182 614.373 783.182 611.09C783.182 607.807 807.281 474.29 819.33 474.29Z" fill="#575A89"/>
<path d="M834.666 623.128C834.666 623.128 821.521 654.866 811.662 647.205C801.804 639.544 816.044 613.279 816.044 613.279L834.666 623.128Z" fill="white"/>
<path d="M866.433 476.479C866.433 476.479 892.169 479.423 882.587 526.652C873.005 573.88 835.762 628.6 835.762 628.6L810.567 616.562L843.429 551.992L835.762 511.5C835.762 511.5 831.38 473.196 866.433 476.479Z" fill="#575A89"/>
<path opacity="0.2" d="M843.977 552.54L807.828 612.732L811.114 616.015L843.977 552.54Z" fill="black"/>
<path opacity="0.2" d="M863.111 580.589L834.118 628.053H843.977L863.111 580.589Z" fill="black"/>
<path opacity="0.2" d="M797.62 666.844L796.164 667.399L824.99 742.908L826.446 742.353L797.62 666.844Z" fill="black"/>
<path d="M819.485 480.299C820.346 480.299 821.043 479.602 821.043 478.742C821.043 477.882 820.346 477.185 819.485 477.185C818.624 477.185 817.927 477.882 817.927 478.742C817.927 479.602 818.624 480.299 819.485 480.299Z" fill="#D0CDE1"/>
<path d="M806.24 522.334C806.406 522.334 806.568 522.281 806.702 522.182C806.836 522.083 806.935 521.944 806.984 521.785L820.229 478.972C820.26 478.874 820.27 478.772 820.261 478.67C820.252 478.568 820.222 478.469 820.175 478.378C820.127 478.288 820.062 478.207 819.983 478.142C819.904 478.077 819.813 478.028 819.716 477.997C819.618 477.967 819.515 477.956 819.413 477.966C819.311 477.975 819.212 478.005 819.121 478.053C819.031 478.101 818.951 478.166 818.885 478.245C818.82 478.323 818.771 478.414 818.741 478.512L805.495 521.326C805.46 521.443 805.452 521.566 805.472 521.686C805.492 521.806 805.541 521.92 805.613 522.018C805.686 522.116 805.78 522.195 805.889 522.25C805.997 522.305 806.118 522.334 806.24 522.334V522.334Z" fill="#D0CDE1"/>
<path d="M821.946 439.945L815.65 445.929C809.166 442.669 802.902 433.885 801.135 426.685L809.396 423.226C809.935 430.569 815.152 435.451 821.946 439.945Z" fill="white"/>
<path d="M823.516 426.361C823.491 426.361 823.466 426.36 823.441 426.356L808.799 424.266C808.731 424.257 808.666 424.234 808.607 424.199C808.547 424.164 808.496 424.118 808.454 424.063C808.413 424.008 808.383 423.945 808.366 423.879C808.349 423.813 808.345 423.743 808.355 423.675C808.364 423.608 808.387 423.542 808.422 423.483C808.457 423.424 808.504 423.372 808.558 423.331C808.613 423.29 808.676 423.26 808.742 423.243C808.809 423.226 808.878 423.222 808.946 423.232L823.588 425.321C823.719 425.34 823.838 425.407 823.922 425.51C824.005 425.613 824.046 425.743 824.037 425.875C824.027 426.007 823.969 426.13 823.872 426.221C823.775 426.311 823.648 426.361 823.516 426.361V426.361Z" fill="white"/>
<path d="M821.422 439.945C821.331 439.945 821.241 439.921 821.162 439.876C821.083 439.831 821.017 439.765 820.971 439.686C820.925 439.608 820.9 439.518 820.899 439.427C820.899 439.336 820.922 439.246 820.967 439.166L825.818 430.538C825.852 430.478 825.897 430.425 825.951 430.382C826.005 430.34 826.067 430.308 826.133 430.29C826.199 430.271 826.268 430.266 826.337 430.274C826.405 430.282 826.471 430.304 826.531 430.337C826.591 430.371 826.644 430.416 826.686 430.47C826.728 430.524 826.76 430.586 826.778 430.653C826.797 430.719 826.802 430.788 826.793 430.856C826.785 430.924 826.763 430.99 826.729 431.05L821.878 439.679C821.833 439.76 821.766 439.827 821.686 439.874C821.606 439.92 821.515 439.945 821.422 439.945V439.945Z" fill="white"/>
<path d="M838.401 435.79C836.362 434.712 833.993 434.49 831.785 433.821C823.887 431.425 818.595 422.504 820.285 414.432C820.597 413.396 820.737 412.317 820.699 411.236C820.404 408.845 817.956 407.303 815.608 406.755C813.26 406.207 810.762 406.287 808.517 405.406C805.052 404.046 802.751 400.488 802.252 396.802C801.753 393.117 802.847 389.357 804.628 386.091L805.476 388.529C806.77 387.435 807.73 386.001 808.247 384.388C809.211 384.55 810.117 384.957 810.879 385.569C811.641 386.18 812.232 386.977 812.597 387.883C813.958 388.685 814.155 385.392 815.658 384.906C816.288 384.702 816.935 385.089 817.535 385.368C820.565 386.78 824.086 385.573 827.336 384.79C832.964 383.442 838.831 383.435 844.463 384.77C848.204 385.662 851.907 387.214 854.585 389.973C856.783 392.239 858.153 395.169 859.32 398.102C862.191 405.322 864.088 413.134 863.14 420.845C862.351 427.155 859.708 433.09 855.547 437.902C853.378 440.397 846.305 449.104 842.427 447.62C837.553 445.754 844.144 438.823 838.401 435.79Z" fill="#2F2E41"/>
</g>
<defs>
<linearGradient id="paint0_linear" x1="1262.99" y1="178.621" x2="1164.54" y2="726.726" gradientUnits="userSpaceOnUse">
<stop stop-color="#687ECD" stop-opacity="0.04"/>
<stop offset="1" stop-color="white" stop-opacity="0"/>
</linearGradient>
<linearGradient id="paint1_linear" x1="614.621" y1="353.178" x2="1120.12" y2="-94.3213" gradientUnits="userSpaceOnUse">
<stop stop-color="white"/>
<stop offset="0.769795" stop-color="white" stop-opacity="0"/>
</linearGradient>
<clipPath id="clip0">
<rect x="724.621" y="313.178" width="636" height="544" fill="white"/>
</clipPath>
</defs>
</svg>
