<svg width="375" height="629" viewBox="0 0 375 629" fill="none" xmlns="http://www.w3.org/2000/svg">
<path fill-rule="evenodd" clip-rule="evenodd" d="M191.22 50.3202C269.195 66.869 333.061 113.597 376.533 176.198C426.378 247.977 472.241 332.147 440.924 409.903C408.161 491.25 316.352 534.24 224.314 554.135C132.828 573.911 28.1882 573.706 -43.7503 514.67C-111.504 459.069 -105.448 367.173 -103.496 285.121C-101.759 212.121 -92.6363 136.16 -33.6284 89.1485C26.4093 41.3164 111.954 33.4974 191.22 50.3202Z" fill="#C8DDF5" fill-opacity="0.2"/>
<path fill-rule="evenodd" clip-rule="evenodd" d="M191.22 50.3202C269.195 66.869 333.061 113.597 376.533 176.198C426.378 247.977 472.241 332.147 440.924 409.903C408.161 491.25 316.352 534.24 224.314 554.135C132.828 573.911 28.1882 573.706 -43.7503 514.67C-111.504 459.069 -105.448 367.173 -103.496 285.121C-101.759 212.121 -92.6363 136.16 -33.6284 89.1485C26.4093 41.3164 111.954 33.4974 191.22 50.3202Z" fill="url(#paint0_linear)" style="mix-blend-mode:screen"/>
<path fill-rule="evenodd" clip-rule="evenodd" d="M191.22 50.3202C269.195 66.869 333.061 113.597 376.533 176.198C426.378 247.977 472.241 332.147 440.924 409.903C408.161 491.25 316.352 534.24 224.314 554.135C132.828 573.911 28.1882 573.706 -43.7503 514.67C-111.504 459.069 -105.448 367.173 -103.496 285.121C-101.759 212.121 -92.6363 136.16 -33.6284 89.1485C26.4093 41.3164 111.954 33.4974 191.22 50.3202Z" fill="url(#paint1_linear)"/>
<ellipse cx="222" cy="586.603" rx="97" ry="6.60315" fill="#C8DDF5" fill-opacity="0.12"/>
<path d="M229.963 405.748H294.324V477.688H229.963V405.748Z" fill="#CCCCCC"/>
<path d="M261.296 565.555L262.401 580.666C262.451 581.35 262.354 582.036 262.117 582.68C261.88 583.323 261.508 583.909 261.026 584.397C260.544 584.885 259.963 585.264 259.322 585.509C258.681 585.754 257.996 585.86 257.311 585.818L249.547 585.348C249.187 585.326 248.836 585.225 248.52 585.053C248.204 584.88 247.929 584.64 247.716 584.35C247.503 584.059 247.357 583.725 247.287 583.372C247.218 583.018 247.227 582.654 247.314 582.304L251.624 565.072L261.296 565.555Z" fill="#E6E6E6"/>
<path d="M196.352 574.491C187.214 576.628 180.687 579.665 176.398 583.775C174.871 585.228 172.873 586.084 170.768 586.188C168.078 586.33 165.879 586.028 164.227 585.29H164.226C163.803 585.104 163.437 584.807 163.167 584.432C162.897 584.056 162.733 583.616 162.691 583.155C162.641 582.687 162.717 582.215 162.911 581.786C163.105 581.357 163.411 580.989 163.796 580.718L185.467 565.304L194.673 568.985L196.82 571.131C197.053 571.364 197.228 571.647 197.333 571.959C197.437 572.27 197.468 572.602 197.423 572.928C197.377 573.253 197.257 573.564 197.071 573.835C196.885 574.106 196.639 574.331 196.352 574.491H196.352Z" fill="#E6E6E6"/>
<path d="M224.473 327.78L286.419 327.207C286.264 318.187 284.164 309.331 279.576 301.405C276.562 296.2 276.627 290.536 277.353 285.763C278.474 278.398 275.868 270.863 270.076 266.175C265.651 262.586 260.065 260.738 254.371 260.98L253.168 261.03C249.25 261.193 245.436 262.337 242.075 264.358C238.715 266.378 235.916 269.21 233.936 272.593C231.923 276.205 231.111 280.364 231.618 284.467C232.01 288.328 231.071 292.228 228.873 296.166C225.082 304.812 224.261 315.875 224.473 327.78Z" fill="#2F2E41"/>
<path d="M183.028 566.108L195.186 569.278L254.388 440.35L250.688 566.108H262.846C275.837 506.942 299.292 438.658 288.747 417.1L225.844 413.402L183.028 566.108Z" fill="#F9DC25"/>
<path d="M254.916 306.138C245.866 306.138 238.53 298.804 238.53 289.757C238.53 280.711 245.866 273.377 254.916 273.377C263.966 273.377 271.303 280.711 271.303 289.757C271.303 298.804 263.966 306.138 254.916 306.138Z" fill="#FFB9B9"/>
<path d="M240.645 319.876L267.603 318.291C264.961 312.229 263.906 306.392 264.96 300.854H244.874C244.919 305.106 242.802 312.462 240.645 319.876Z" fill="#FFB9B9"/>
<path d="M223.73 418.157L282.932 422.384L276.853 317.498L266.545 314.592L254.917 317.234L243.288 311.421L235.887 314.064L223.73 418.157Z" fill="#F9DC25"/>
<path d="M272.889 493.718L313.326 484.471C301.302 444.612 279.64 353.428 286.632 320.933L265.489 311.422L272.889 493.718Z" fill="#E6E6E6"/>
<path d="M292.447 378.528L307.776 369.016L294.703 330.742C293.245 326.793 290.452 323.477 286.807 321.368L282.403 318.819L285.046 357.392L292.447 378.528Z" fill="#E6E6E6"/>
<path d="M188.578 484.999C201.341 492.38 233.244 496.495 247.252 491.34C248.283 455.327 250.304 353.461 243.816 310.365L220.558 319.876L222.673 348.409C233.792 372.818 201.504 457.833 188.578 484.999Z" fill="#E6E6E6"/>
<path d="M190.428 373.772L204.7 369.017L223.729 347.352L220.558 319.876L188.842 364.261L190.428 373.772Z" fill="#E6E6E6"/>
<path d="M235.157 394.339C234.923 395.363 234.293 396.253 233.404 396.814C232.515 397.374 231.44 397.56 230.414 397.329L218.299 394.586L220.05 386.856L232.165 389.598C233.191 389.831 234.082 390.461 234.643 391.35C235.204 392.239 235.389 393.314 235.157 394.339Z" fill="#FFB9B9"/>
<path d="M240.644 285.53C249.746 281.789 258.735 281.518 267.603 285.002L271.303 271.792H237.473L240.644 285.53Z" fill="#2F2E41"/>
<path d="M224.258 385.397L217.387 398.078C205.828 394.856 195.812 384.697 186.2 372.715L188.843 364.261L205.229 368.488L224.258 385.397Z" fill="#E6E6E6"/>
<path d="M229.28 359.241H231.394C231.394 329.348 237.552 308.515 243.552 308.515L244.081 306.402C238.699 306.402 235.269 315.072 233.338 322.346C230.721 332.206 229.28 345.309 229.28 359.241Z" fill="#3F3D56"/>
<path d="M277.911 351.844H280.025C280.025 324.466 273.825 307.459 264.696 307.459L265.224 309.572C271.539 309.572 277.911 322.643 277.911 351.844Z" fill="#3F3D56"/>
<path d="M230.337 365.054C227.418 365.054 225.051 362.688 225.051 359.77C225.051 356.851 227.418 354.486 230.337 354.486C233.256 354.486 235.623 356.851 235.623 359.77C235.623 362.688 233.256 365.054 230.337 365.054Z" fill="#3F3D56"/>
<path d="M286.368 364.525H288.482C288.482 356.95 284.214 350.787 278.968 350.787V352.9C283.048 352.9 286.368 358.115 286.368 364.525Z" fill="#3F3D56"/>
<path d="M269.453 364.525H271.567C271.567 358.115 274.887 352.9 278.968 352.9V350.787C273.721 350.787 269.453 356.95 269.453 364.525Z" fill="#3F3D56"/>
<path d="M270.51 367.167C269.342 367.167 268.396 366.221 268.396 365.054C268.396 363.886 269.342 362.94 270.51 362.94C271.678 362.94 272.625 363.886 272.625 365.054C272.625 366.221 271.678 367.167 270.51 367.167Z" fill="#3F3D56"/>
<path d="M287.425 367.167C286.257 367.167 285.311 366.221 285.311 365.054C285.311 363.886 286.257 362.94 287.425 362.94C288.593 362.94 289.54 363.886 289.54 365.054C289.54 366.221 288.593 367.167 287.425 367.167Z" fill="#3F3D56"/>
<path d="M313.855 345.618L300.663 347.973L270.51 390.83L286.529 387.062L313.855 345.618Z" fill="#F9A826"/>
<path d="M316.195 345.093C316.396 345.096 316.592 345.153 316.764 345.258C316.935 345.363 317.075 345.512 317.169 345.69C317.263 345.867 317.308 346.067 317.299 346.268C317.289 346.468 317.226 346.663 317.115 346.831L288.93 389.578C288.773 389.817 288.53 389.987 288.252 390.052L275.138 393.137C274.917 393.189 274.685 393.172 274.474 393.09C274.262 393.007 274.081 392.862 273.953 392.674C273.826 392.486 273.759 392.263 273.761 392.036C273.763 391.809 273.834 391.588 273.965 391.403L304.91 347.419C304.994 347.299 305.101 347.197 305.225 347.118C305.348 347.04 305.486 346.986 305.63 346.961L315.983 345.112C316.053 345.1 316.124 345.093 316.195 345.093Z" fill="#3F3D56"/>
<path d="M298.613 375.657L297.829 383.545L285.468 382.318C284.422 382.214 283.46 381.699 282.794 380.886C282.127 380.073 281.811 379.029 281.915 377.983C282.019 376.937 282.534 375.975 283.347 375.309C284.161 374.643 285.205 374.327 286.252 374.431L298.613 375.657Z" fill="#FFB9B9"/>
<path d="M309.361 374.744C309.343 377.433 308.263 380.006 306.355 381.903C304.448 383.799 301.867 384.865 299.177 384.868H297.144L295.665 372.542L307.916 368.133L309.361 374.744Z" fill="#E6E6E6"/>
<path d="M66.8824 588H103.118L107 557H63L66.8824 588Z" fill="#E6E6E6"/>
<path d="M112.069 546.266C102.925 558.692 83.9423 560 83.9423 560C83.9423 560 79.7862 541.161 88.9308 528.734C98.0754 516.308 117.058 515 117.058 515C117.058 515 121.214 533.839 112.069 546.266Z" fill="#E6E6E6"/>
<path d="M64.8974 550.844C70.9067 559.128 83.3808 560 83.3808 560C83.3808 560 86.1119 547.44 80.1026 539.156C74.0933 530.872 61.6192 530 61.6192 530C61.6192 530 58.8881 542.56 64.8974 550.844Z" fill="#E6E6E6"/>
<defs>
<linearGradient id="paint0_linear" x1="161" y1="551" x2="52.928" y2="280.046" gradientUnits="userSpaceOnUse">
<stop stop-color="#687ECD" stop-opacity="0.21"/>
<stop offset="1" stop-color="white" stop-opacity="0"/>
</linearGradient>
<linearGradient id="paint1_linear" x1="-49.4893" y1="326.633" x2="522.393" y2="186.47" gradientUnits="userSpaceOnUse">
<stop stop-color="white"/>
<stop offset="0.769795" stop-color="white" stop-opacity="0"/>
</linearGradient>
</defs>
</svg>
