<svg width="1103" height="802" viewBox="0 0 1103 802" fill="none" xmlns="http://www.w3.org/2000/svg">
<ellipse cx="660" cy="790.044" rx="196" ry="11.0867" fill="#C8DDF5" fill-opacity="0.12"/>
<path fill-rule="evenodd" clip-rule="evenodd" d="M586.87 26.9017C706.06 21.3476 815.907 59.8854 902.025 126.114C1000.77 202.052 1098.3 295.465 1081.53 407.32C1063.99 524.342 946.675 612.025 820.516 669.792C695.115 727.213 543.274 763.244 417.183 711.521C298.428 662.807 273.349 541.349 245.945 434.1C221.564 338.683 206.805 236.858 275.065 155.329C344.516 72.3774 465.706 32.5478 586.87 26.9017Z" fill="#C8DDF5" fill-opacity="0.2"/>
<path fill-rule="evenodd" clip-rule="evenodd" d="M586.87 26.9017C706.06 21.3476 815.907 59.8854 902.025 126.114C1000.77 202.052 1098.3 295.465 1081.53 407.32C1063.99 524.342 946.675 612.025 820.516 669.792C695.115 727.213 543.274 763.244 417.183 711.521C298.428 662.807 273.349 541.349 245.945 434.1C221.564 338.683 206.805 236.858 275.065 155.329C344.516 72.3774 465.706 32.5478 586.87 26.9017Z" fill="url(#paint0_linear)" style="mix-blend-mode:screen"/>
<path fill-rule="evenodd" clip-rule="evenodd" d="M586.87 26.9017C706.06 21.3476 815.907 59.8854 902.025 126.114C1000.77 202.052 1098.3 295.465 1081.53 407.32C1063.99 524.342 946.675 612.025 820.516 669.792C695.115 727.213 543.274 763.244 417.183 711.521C298.428 662.807 273.349 541.349 245.945 434.1C221.564 338.683 206.805 236.858 275.065 155.329C344.516 72.3774 465.706 32.5478 586.87 26.9017Z" fill="url(#paint1_linear)"/>
<path d="M684.906 432.321H811.954V574.286H684.906V432.321Z" fill="#CCCCCC"/>
<path d="M876.633 787.81H941.312L948.242 732.409H869.703L876.633 787.81Z" fill="#E6E6E6"/>
<path d="M746.755 747.682L748.938 777.5C749.036 778.85 748.845 780.205 748.377 781.475C747.909 782.745 747.174 783.9 746.223 784.863C745.271 785.826 744.124 786.574 742.86 787.058C741.595 787.542 740.241 787.75 738.889 787.668L723.563 786.74C722.853 786.697 722.161 786.498 721.536 786.158C720.912 785.817 720.37 785.343 719.949 784.77C719.528 784.197 719.239 783.538 719.102 782.84C718.965 782.142 718.984 781.423 719.156 780.733L727.664 746.728L746.755 747.682Z" fill="#E6E6E6"/>
<path d="M618.557 765.315C600.519 769.531 587.633 775.525 579.168 783.636C576.154 786.503 572.209 788.193 568.053 788.398C562.744 788.677 558.403 788.082 555.141 786.626H555.141C554.305 786.258 553.583 785.673 553.05 784.932C552.517 784.191 552.192 783.321 552.109 782.412C552.01 781.489 552.16 780.556 552.544 779.711C552.927 778.865 553.53 778.137 554.29 777.603L597.07 747.185L615.242 754.449L619.481 758.686C619.94 759.144 620.286 759.703 620.492 760.318C620.699 760.933 620.759 761.587 620.67 762.23C620.58 762.872 620.343 763.485 619.976 764.02C619.609 764.556 619.124 764.999 618.557 765.315H618.557Z" fill="#E6E6E6"/>
<path d="M674.068 278.462L796.35 277.331C796.043 259.533 791.899 242.055 782.841 226.415C776.892 216.144 777.02 204.965 778.454 195.547C780.666 181.014 775.521 166.144 764.089 156.892C755.353 149.81 744.326 146.164 733.086 146.642L730.712 146.741C722.978 147.062 715.448 149.32 708.814 153.307C702.181 157.293 696.656 162.882 692.747 169.559C688.774 176.686 687.171 184.892 688.172 192.989C688.947 200.609 687.092 208.305 682.754 216.075C675.27 233.137 673.649 254.97 674.068 278.462Z" fill="#2F2E41"/>
<path d="M592.255 748.772L616.255 755.028L733.12 500.604L725.816 748.772H749.815C775.46 632.016 821.76 497.267 800.944 454.725L676.774 447.426L592.255 748.772Z" fill="#F9DC25"/>
<path d="M734.164 235.754C716.299 235.754 701.817 221.282 701.817 203.429C701.817 185.577 716.299 171.105 734.164 171.105C752.028 171.105 766.51 185.577 766.51 203.429C766.51 221.282 752.028 235.754 734.164 235.754Z" fill="#FFB9B9"/>
<path d="M705.99 262.864L759.206 259.736C753.991 247.775 751.908 236.256 753.989 225.327H714.338C714.428 233.718 710.249 248.234 705.99 262.864Z" fill="#FFB9B9"/>
<path d="M672.601 456.81L789.465 465.152L777.466 258.172L757.119 252.437L734.164 257.651L711.208 246.18L696.6 251.395L672.601 456.81Z" fill="#F9DC25"/>
<path d="M769.641 605.919L849.464 587.671C825.728 509.016 782.967 329.075 796.77 264.95L755.032 246.181L769.641 605.919Z" fill="#E6E6E6"/>
<path d="M808.248 378.606L838.507 359.837L812.701 284.308C809.823 276.514 804.31 269.971 797.115 265.808L788.422 260.779L793.639 336.897L808.248 378.606Z" fill="#E6E6E6"/>
<path d="M603.211 588.714C628.405 603.28 691.382 611.4 719.033 601.227C721.068 530.16 725.058 329.14 712.251 244.095L666.339 262.864L670.513 319.171C692.463 367.339 628.726 535.106 603.211 588.714Z" fill="#E6E6E6"/>
<path d="M606.863 369.222L635.037 359.838L672.601 317.085L666.339 262.864L603.733 350.453L606.863 369.222Z" fill="#E6E6E6"/>
<path d="M695.157 409.808C694.696 411.829 693.452 413.586 691.697 414.692C689.942 415.798 687.82 416.163 685.796 415.708L661.881 410.296L665.337 395.042L689.252 400.453C691.277 400.911 693.036 402.154 694.143 403.909C695.25 405.663 695.615 407.785 695.157 409.808Z" fill="#FFB9B9"/>
<path d="M705.991 195.088C723.957 187.705 741.702 187.171 759.206 194.045L766.51 167.977H699.73L705.991 195.088Z" fill="#2F2E41"/>
<path d="M673.644 392.162L660.079 417.187C637.263 410.828 617.49 390.78 598.516 367.136L603.733 350.453L636.08 358.795L673.644 392.162Z" fill="#E6E6E6"/>
<path d="M683.557 340.547H687.73C687.73 281.556 699.885 240.446 711.729 240.446L712.773 236.275C702.151 236.275 695.378 253.385 691.568 267.738C686.402 287.197 683.557 313.054 683.557 340.547Z" fill="#3F3D56"/>
<path d="M779.553 325.949H783.727C783.727 271.923 771.489 238.361 753.467 238.361L754.511 242.531C766.976 242.531 779.553 268.325 779.553 325.949Z" fill="#3F3D56"/>
<path d="M685.643 352.017C679.88 352.017 675.209 347.348 675.209 341.59C675.209 335.831 679.88 331.163 685.643 331.163C691.406 331.163 696.078 335.831 696.078 341.59C696.078 347.348 691.406 352.017 685.643 352.017Z" fill="#3F3D56"/>
<path d="M796.248 350.974H800.422C800.422 336.025 791.996 323.863 781.64 323.863V328.034C789.695 328.034 796.248 338.325 796.248 350.974Z" fill="#3F3D56"/>
<path d="M762.858 350.974H767.032C767.032 338.325 773.585 328.034 781.64 328.034V323.863C771.284 323.863 762.858 336.025 762.858 350.974Z" fill="#3F3D56"/>
<path d="M764.945 356.188C762.64 356.188 760.771 354.32 760.771 352.017C760.771 349.713 762.64 347.846 764.945 347.846C767.25 347.846 769.119 349.713 769.119 352.017C769.119 354.32 767.25 356.188 764.945 356.188Z" fill="#3F3D56"/>
<path d="M798.335 356.188C796.03 356.188 794.161 354.32 794.161 352.017C794.161 349.713 796.03 347.846 798.335 347.846C800.64 347.846 802.509 349.713 802.509 352.017C802.509 354.32 800.64 356.188 798.335 356.188Z" fill="#3F3D56"/>
<path d="M850.507 313.663L824.466 318.31L764.945 402.884L796.566 395.449L850.507 313.663Z" fill="#F9A826"/>
<path d="M855.126 312.628C855.523 312.634 855.911 312.746 856.249 312.953C856.588 313.16 856.864 313.454 857.05 313.805C857.236 314.155 857.324 314.549 857.305 314.945C857.286 315.342 857.161 315.725 856.943 316.057L801.306 400.414C800.996 400.885 800.516 401.22 799.966 401.349L774.08 407.435C773.643 407.538 773.186 407.506 772.769 407.342C772.351 407.179 771.993 406.893 771.742 406.522C771.491 406.151 771.358 405.712 771.362 405.264C771.367 404.816 771.507 404.38 771.765 404.013L832.851 317.217C833.017 316.98 833.227 316.779 833.471 316.624C833.715 316.469 833.986 316.363 834.271 316.313L854.709 312.665C854.846 312.641 854.986 312.628 855.126 312.628Z" fill="#3F3D56"/>
<path d="M820.419 372.942L818.873 388.506L794.472 386.086C792.407 385.881 790.508 384.865 789.192 383.261C787.877 381.656 787.253 379.595 787.458 377.531C787.663 375.467 788.68 373.569 790.285 372.255C791.891 370.94 793.953 370.317 796.018 370.522L820.419 372.942Z" fill="#FFB9B9"/>
<path d="M841.637 371.139C841.602 376.446 839.469 381.524 835.703 385.267C831.937 389.009 826.844 391.113 821.533 391.119H817.521L814.6 366.794L838.785 358.093L841.637 371.139Z" fill="#E6E6E6"/>
<path d="M957.922 711.915C941.267 734.203 906.696 736.549 906.696 736.549C906.696 736.549 899.127 702.758 915.781 680.47C932.436 658.181 967.007 655.835 967.007 655.835C967.007 655.835 974.576 689.626 957.922 711.915Z" fill="#E6E6E6"/>
<path d="M873.08 720.293C884.07 735.001 906.883 736.549 906.883 736.549C906.883 736.549 911.877 714.251 900.888 699.544C889.898 684.836 867.085 683.288 867.085 683.288C867.085 683.288 862.09 705.586 873.08 720.293Z" fill="#E6E6E6"/>
<defs>
<linearGradient id="paint0_linear" x1="1072.97" y1="338.15" x2="697.964" y2="749.832" gradientUnits="userSpaceOnUse">
<stop stop-color="#687ECD" stop-opacity="0.04"/>
<stop offset="1" stop-color="white" stop-opacity="0"/>
</linearGradient>
<linearGradient id="paint1_linear" x1="339.571" y1="469.283" x2="1080.64" y2="27.2867" gradientUnits="userSpaceOnUse">
<stop stop-color="white"/>
<stop offset="0.769795" stop-color="white" stop-opacity="0"/>
</linearGradient>
</defs>
</svg>
