<svg width="1102" height="969" viewBox="0 0 1102 969" fill="none" xmlns="http://www.w3.org/2000/svg">
<path fill-rule="evenodd" clip-rule="evenodd" d="M401.621 183.178C499.58 115.052 615.466 90.9286 723.621 101.178C847.632 112.929 978.299 159.55 1023.62 263.178C1071.04 371.592 1026.79 477.706 950.716 593.747C875.097 709.091 765.711 820.395 631.43 843.698C504.962 865.645 419.098 776.154 338.827 699.932C267.412 632.119 200.733 553.76 215.144 448.409C229.806 341.22 302.039 252.431 401.621 183.178Z" fill="#C8DDF5" fill-opacity="0.2"/>
<path fill-rule="evenodd" clip-rule="evenodd" d="M401.621 183.178C499.58 115.052 615.466 90.9286 723.621 101.178C847.632 112.929 978.299 159.55 1023.62 263.178C1071.04 371.592 1026.79 477.706 950.716 593.747C875.097 709.091 765.711 820.395 631.43 843.698C504.962 865.645 419.098 776.154 338.827 699.932C267.412 632.119 200.733 553.76 215.144 448.409C229.806 341.22 302.039 252.431 401.621 183.178Z" fill="url(#paint0_linear)" style="mix-blend-mode:screen"/>
<path fill-rule="evenodd" clip-rule="evenodd" d="M401.621 183.178C499.58 115.052 615.466 90.9286 723.621 101.178C847.632 112.929 978.299 159.55 1023.62 263.178C1071.04 371.592 1026.79 477.706 950.716 593.747C875.097 709.091 765.711 820.395 631.43 843.698C504.962 865.645 419.098 776.154 338.827 699.932C267.412 632.119 200.733 553.76 215.144 448.409C229.806 341.22 302.039 252.431 401.621 183.178Z" fill="url(#paint1_linear)"/>
<g clip-path="url(#clip0)">
<path d="M536.116 680.423C572.985 680.423 602.873 619.495 602.873 544.336C602.873 469.178 572.985 408.25 536.116 408.25C499.247 408.25 469.359 469.178 469.359 544.336C469.359 619.495 499.247 680.423 536.116 680.423Z" fill="#F9DC25"/>
<path d="M535.503 545.748C538.833 486.51 545.543 446.497 545.61 446.1L544.154 445.854C544.087 446.251 537.366 486.328 534.03 545.642C530.952 600.385 530.21 683.188 544.154 766.776L545.61 766.534C531.69 683.087 532.431 600.41 535.503 545.748Z" fill="#3F3D56"/>
<path d="M595.782 516.738L535.423 549.014L536.12 550.315L596.478 518.039L595.782 516.738Z" fill="#3F3D56"/>
<path d="M472.4 532.915L471.703 534.216L532.071 566.476L532.767 565.175L472.4 532.915Z" fill="#3F3D56"/>
<path d="M999.015 666.275C1046.85 666.275 1085.62 587.232 1085.62 489.727C1085.62 392.221 1046.85 313.178 999.015 313.178C951.184 313.178 912.409 392.221 912.409 489.727C912.409 587.232 951.184 666.275 999.015 666.275Z" fill="#F9DC25"/>
<path d="M997.963 491.535C1002.28 414.672 1010.99 362.754 1011.08 362.239L1009.7 362.005C1009.61 362.521 1000.89 414.5 996.567 491.435C992.574 562.442 991.611 669.844 1009.7 778.263L1011.08 778.033C993.014 669.748 993.976 562.466 997.963 491.535Z" fill="#3F3D56"/>
<path d="M1076.54 454.15L998.236 496.023L998.897 497.256L1077.2 455.383L1076.54 454.15Z" fill="#3F3D56"/>
<path d="M916.234 475.136L915.573 476.37L993.89 518.222L994.55 516.988L916.234 475.136Z" fill="#3F3D56"/>
<path d="M894.67 714.092C912.541 714.092 927.028 684.56 927.028 648.129C927.028 611.699 912.541 582.166 894.67 582.166C876.799 582.166 862.312 611.699 862.312 648.129C862.312 684.56 876.799 714.092 894.67 714.092Z" fill="#E6E6E6"/>
<path d="M894.642 650.971L894.833 651.329L924.09 635.684L923.43 634.45L894.703 649.812C896.292 620.58 899.544 600.956 899.609 600.569L898.229 600.336C898.157 600.758 894.294 624.061 892.923 657.781L863.949 642.288L863.289 643.521L892.546 659.166L892.895 658.514C891.798 686.345 892.413 721.145 898.229 756.006L899.609 755.777C893.269 717.767 893.129 679.829 894.642 650.971Z" fill="#3F3D56"/>
<path d="M1058.63 792.747C886.274 738.237 729.989 741.14 629.233 753.176C520.076 766.214 450.81 792.469 450.124 792.733L449.621 791.427C450.31 791.163 519.738 764.846 629.067 751.787C693.376 744.114 758.261 742.456 822.879 746.833C903.096 752.258 982.38 767.224 1059.05 791.414L1058.63 792.747Z" fill="#3F3D56"/>
<path d="M671.167 777.341C671.167 777.341 671.65 767.222 681.559 768.398Z" fill="#3F3D56"/>
<path d="M668.367 767.712C671.106 767.712 673.326 765.493 673.326 762.757C673.326 760.02 671.106 757.802 668.367 757.802C665.628 757.802 663.407 760.02 663.407 762.757C663.407 765.493 665.628 767.712 668.367 767.712Z" fill="#F9DC25"/>
<path d="M668.959 771.101H667.56V780.891H668.959V771.101Z" fill="#3F3D56"/>
<path d="M851.757 779.439C851.757 779.439 852.24 769.32 862.149 770.496Z" fill="#3F3D56"/>
<path d="M848.956 769.81C851.695 769.81 853.916 767.591 853.916 764.855C853.916 762.118 851.695 759.9 848.956 759.9C846.217 759.9 843.997 762.118 843.997 764.855C843.997 767.591 846.217 769.81 848.956 769.81Z" fill="#F9DC25"/>
<path d="M849.549 773.199H848.149V782.989H849.549V773.199Z" fill="#3F3D56"/>
<path d="M554.273 761.956C554.273 761.956 554.757 751.837 564.666 753.013Z" fill="#3F3D56"/>
<path d="M551.473 752.327C554.212 752.327 556.432 750.108 556.432 747.372C556.432 744.635 554.212 742.417 551.473 742.417C548.734 742.417 546.514 744.635 546.514 747.372C546.514 750.108 548.734 752.327 551.473 752.327Z" fill="#F9DC25"/>
<path d="M552.066 755.716H550.666V765.506H552.066V755.716Z" fill="#3F3D56"/>
<path d="M630.569 748.669C630.569 748.669 631.053 738.55 640.962 739.726Z" fill="#3F3D56"/>
<path d="M627.769 739.04C630.508 739.04 632.728 736.821 632.728 734.085C632.728 731.348 630.508 729.13 627.769 729.13C625.03 729.13 622.81 731.348 622.81 734.085C622.81 736.821 625.03 739.04 627.769 739.04Z" fill="#F9DC25"/>
<path d="M628.362 742.428H626.962V752.219H628.362V742.428Z" fill="#3F3D56"/>
<path d="M821.658 767.551C821.658 767.551 822.142 757.432 832.051 758.608Z" fill="#3F3D56"/>
<path d="M818.859 757.921C821.598 757.921 823.818 755.703 823.818 752.966C823.818 750.23 821.598 748.012 818.859 748.012C816.12 748.012 813.899 750.23 813.899 752.966C813.899 755.703 816.12 757.921 818.859 757.921Z" fill="#F9DC25"/>
<path d="M819.451 761.31H818.051V771.101H819.451V761.31Z" fill="#3F3D56"/>
<path d="M1036.9 747.266L1065.71 789.943L1038.88 816.741L1035.41 809.794L1041.37 795.899C1041.37 795.899 1040.37 782.996 1036.9 779.522C1033.42 776.048 1018.02 755.206 1018.02 755.206L1036.9 747.266Z" fill="#FFB8B8"/>
<path d="M1000.14 609.307C1000.14 609.307 1005.6 617.945 994.179 655.164C994.179 655.164 1047.47 745.018 1039.02 750.973C1030.58 756.928 1007.73 770.107 1001.77 766.137C995.807 762.167 952.456 627.668 952.456 627.668L1000.14 609.307Z" fill="#2F2E41"/>
<path d="M1060.49 782.252L1069.18 790.936C1073.65 795.402 1076.63 801.854 1068.19 807.312C1059.75 812.771 1030.44 833.118 1020.51 826.666C1010.57 820.215 1032.43 814.26 1032.43 814.26C1032.43 814.26 1036.04 800.873 1037.96 803.844C1039.88 806.816 1039.88 812.771 1039.88 812.771L1060.49 782.252Z" fill="#2F2E41"/>
<path d="M955.437 770.589C955.437 770.589 939.542 799.869 939.542 803.342C939.542 806.816 940.536 816.741 940.536 816.741L910.237 824.185L899.806 819.222L903.283 810.29C903.283 810.29 922.158 803.839 926.131 791.432C930.105 779.026 934.575 766.123 934.575 766.123L955.437 770.589Z" fill="#FFB8B8"/>
<path d="M973.815 479.288C985.336 479.288 994.677 469.956 994.677 458.445C994.677 446.934 985.336 437.603 973.815 437.603C962.293 437.603 952.953 446.934 952.953 458.445C952.953 469.956 962.293 479.288 973.815 479.288Z" fill="#FFB8B8"/>
<path d="M968.352 476.31L978.312 504.902L1000.14 495.168C1000.14 495.168 985.24 472.34 985.24 469.363L968.352 476.31Z" fill="#FFB8B8"/>
<path d="M965.371 578.043H991.697C991.697 578.043 1010.57 606.825 999.644 637.097C997.971 641.733 996.31 648.226 994.652 655.903C990.838 673.559 987.042 697.475 983.151 719.451C977.687 750.321 972.036 777.364 965.893 777.855C953.475 778.847 929.328 778.682 929.328 773.719C929.328 768.757 945.503 625.187 945.503 625.187L948.98 619.232L949.637 593.292C949.741 589.199 951.446 585.31 954.388 582.458C957.33 579.607 961.273 578.022 965.371 578.043V578.043Z" fill="#2F2E41"/>
<path d="M939.294 803.094C939.294 803.094 945.006 812.771 943.516 819.719C942.026 826.666 939.542 825.674 928.614 826.666C917.687 827.659 880.434 827.659 880.434 820.711C880.434 813.764 909.494 804.741 909.617 807.516C909.739 810.29 910.733 815.749 907.753 816.741C904.772 817.734 907.504 816.989 907.504 816.989L939.294 803.094Z" fill="#2F2E41"/>
<path d="M968.356 639.983C968.356 639.983 966.195 675.235 951.784 664.741C937.372 654.246 957.4 635.289 957.4 635.289L968.356 639.983Z" fill="white"/>
<path d="M997.119 593.556C997.811 593.868 998.576 593.986 999.331 593.896C1000.09 593.807 1000.8 593.514 1001.4 593.049C1002.27 592.366 1002.85 591.378 1003.03 590.284C1005.11 578.283 1007.65 545.014 1009.11 528.191C1010.94 507.082 1001.78 490.732 1001.71 490.632L996.309 483.218C995.749 482.443 994.942 481.881 994.021 481.623C993.1 481.364 992.119 481.425 991.236 481.795C991.236 481.795 974.387 499.261 974.325 499.935C974.061 502.831 972.056 509.247 961.603 519.69C950.167 531.116 950.103 541.088 950.357 543.873C950.373 544.056 950.382 544.239 950.382 544.422C950.36 545.671 950.53 546.916 950.886 548.114C955.676 563.202 951.925 581.266 945.901 600.121C945.672 600.973 945.715 601.875 946.022 602.702C946.33 603.529 946.887 604.24 947.616 604.736C949.376 605.932 947.266 604.158 947.893 604.926C952.045 610.009 958.02 602.925 964.854 595.195C967.235 592.503 969.933 589.451 973.113 586.273C977.486 581.905 985.84 591.874 989.724 591.874C992.281 591.904 994.801 592.478 997.119 593.556V593.556Z" fill="#575A89"/>
<path d="M999.435 498.33C999.435 498.33 1010.35 507.523 1004.15 519.447C997.949 531.37 998.773 540.163 998.773 540.163C998.773 540.163 997.122 622.071 977.753 618.091L968.942 642.395L953.029 636.657L962.231 615.221C962.231 615.221 954.861 614.763 957.014 609.746C958.527 606.222 966.676 567.983 971.393 545.533C973.392 536.019 974.774 529.341 974.774 529.341C974.774 529.341 981.043 495.849 999.435 498.33Z" fill="#575A89"/>
<path opacity="0.2" d="M1001.72 539.953L995.589 580.171L998.899 537.167L1001.72 539.953Z" fill="black"/>
<path d="M951.054 449.21C951.054 449.21 947.547 421.94 976.164 430.883C976.164 430.883 996.602 427.136 1003.3 452.678L1010.09 479.452L1006.78 477.654L1005.24 481.021L999.882 482.377L997.588 477.829L996.479 483.352L952.58 487.725C952.58 487.725 972.241 476.108 972.553 455.287L968.808 459.241L951.054 449.21Z" fill="#2F2E41"/>
<path opacity="0.2" d="M983.7 721.02L993.489 655.853L985.528 726.203L983.7 721.02Z" fill="black"/>
<path d="M999.699 442.178C1005.8 442.178 1010.74 437.241 1010.74 431.15C1010.74 425.059 1005.8 420.121 999.699 420.121C993.602 420.121 988.66 425.059 988.66 431.15C988.66 437.241 993.602 442.178 999.699 442.178Z" fill="#2F2E41"/>
<path d="M988.323 428.45C988.505 425.652 989.747 423.028 991.797 421.113C993.847 419.198 996.55 418.136 999.357 418.142C999.129 418.113 998.903 418.078 998.67 418.063C997.223 417.97 995.772 418.162 994.399 418.629C993.027 419.095 991.759 419.828 990.67 420.784C989.581 421.741 988.691 422.902 988.051 424.202C987.411 425.502 987.034 426.915 986.941 428.361C986.848 429.807 987.041 431.257 987.509 432.628C987.977 433.999 988.711 435.265 989.668 436.353C990.626 437.44 991.789 438.329 993.091 438.968C994.392 439.606 995.807 439.983 997.254 440.075C997.486 440.09 997.715 440.084 997.945 440.084C995.161 439.732 992.615 438.332 990.828 436.171C989.04 434.009 988.145 431.248 988.323 428.45V428.45Z" fill="#2F2E41"/>
<path opacity="0.2" d="M968.196 552.486L958.484 604.491L971.072 547.051L968.196 552.486Z" fill="black"/>
<path d="M968.803 473.465L963.143 477.729C957.313 474.798 952.941 468.017 951.352 461.544L957.52 458.435C958.005 465.036 962.695 469.425 968.803 473.465Z" fill="white"/>
<path d="M971.153 459.374H957.049C956.925 459.374 956.805 459.325 956.717 459.237C956.629 459.149 956.579 459.029 956.579 458.905C956.579 458.78 956.629 458.66 956.717 458.572C956.805 458.484 956.925 458.435 957.049 458.435H971.153C971.278 458.435 971.398 458.484 971.486 458.572C971.574 458.66 971.624 458.78 971.624 458.905C971.624 459.029 971.574 459.149 971.486 459.237C971.398 459.325 971.278 459.374 971.153 459.374V459.374Z" fill="white"/>
<path d="M968.332 473.465C968.255 473.465 968.18 473.447 968.112 473.411C968.044 473.375 967.986 473.323 967.943 473.259C967.9 473.195 967.873 473.122 967.865 473.046C967.857 472.97 967.867 472.893 967.896 472.821L971.657 463.427C971.68 463.37 971.714 463.317 971.757 463.273C971.8 463.229 971.851 463.193 971.908 463.169C971.965 463.145 972.026 463.132 972.088 463.131C972.15 463.13 972.211 463.141 972.268 463.164C972.326 463.187 972.378 463.221 972.422 463.264C972.466 463.308 972.502 463.359 972.526 463.416C972.55 463.473 972.563 463.534 972.564 463.596C972.564 463.657 972.553 463.719 972.529 463.776L968.768 473.17C968.734 473.257 968.673 473.332 968.596 473.385C968.518 473.437 968.426 473.465 968.332 473.465V473.465Z" fill="white"/>
<path d="M972.102 464.924C974.007 464.924 975.551 462.764 975.551 460.099C975.551 457.435 974.007 455.274 972.102 455.274C970.197 455.274 968.652 457.435 968.652 460.099C968.652 462.764 970.197 464.924 972.102 464.924Z" fill="#FFB8B8"/>
<path d="M729.039 474.634L765.777 483.033L781.299 453.784L749.886 441.531L729.039 474.634Z" fill="#2F2E41"/>
<path d="M748.558 632.086C748.558 632.086 736.749 659.124 736.749 666.99C736.749 666.99 741.423 688.375 739.947 694.274L734.781 705.336L723.955 700.911L721.003 671.415L721.495 624.22L748.558 632.086Z" fill="#FFB9B9"/>
<path d="M755.201 470.347C755.201 470.347 756.185 486.57 754.217 491.486C752.248 496.402 761.598 505.742 761.598 505.742L776.359 486.57C776.359 486.57 766.518 476.738 768.978 465.922L755.201 470.347Z" fill="#FFB9B9"/>
<path d="M724.447 582.679C724.447 582.679 710.178 609.226 723.955 607.26C737.733 605.293 733.059 581.942 733.059 581.942" fill="#E6E6E6"/>
<path d="M733.058 581.942L737.732 535.485L737.487 507.218L726.661 509.183V535.239L724.447 582.679" fill="#FFB9B9"/>
<path d="M721.249 697.47L742.407 689.112L744.867 730.899C744.867 730.899 749.296 743.681 747.82 748.597C747.82 748.597 748.804 756.954 746.344 757.446C743.883 757.938 736.994 758.921 736.502 758.429C736.01 757.938 736.01 756.463 736.01 756.463C736.01 756.463 731.09 759.904 730.598 763.837C730.598 763.837 709.931 770.228 709.439 764.329C708.947 758.429 719.772 753.513 719.772 753.513L728.137 740.731L721.249 697.47Z" fill="#2F2E41"/>
<path d="M792.597 632.086C792.597 632.086 780.788 659.124 780.788 666.99C780.788 666.99 785.462 688.375 783.986 694.274L778.82 705.336L767.994 700.911L765.042 671.415L765.534 624.22L792.597 632.086Z" fill="#FFB9B9"/>
<path d="M766.026 697.47L787.184 689.112L789.645 730.899C789.645 730.899 794.073 743.681 792.597 748.597C792.597 748.597 793.581 756.954 791.121 757.446C788.661 757.938 781.772 758.921 781.28 758.429C780.788 757.938 780.788 756.463 780.788 756.463C780.788 756.463 775.867 759.904 775.375 763.837C775.375 763.837 754.709 770.228 754.216 764.329C753.724 758.429 764.55 753.513 764.55 753.513L772.915 740.731L766.026 697.47Z" fill="#2F2E41"/>
<path d="M775.87 459.042C775.868 462.914 774.438 466.648 771.852 469.532C769.267 472.416 765.708 474.246 761.856 474.672C758.005 475.098 754.131 474.09 750.977 471.842C747.823 469.593 745.609 466.261 744.76 462.484C744.501 461.355 744.371 460.2 744.374 459.042C744.377 454.871 746.037 450.872 748.99 447.924C751.943 444.975 755.947 443.319 760.122 443.319C764.297 443.319 768.301 444.975 771.254 447.924C774.207 450.872 775.867 454.871 775.87 459.042V459.042Z" fill="#FFB9B9"/>
<path d="M762.09 490.503L774.309 484.163L779.804 488.536C779.804 488.536 793.09 488.045 798.01 493.944C802.931 499.843 805.637 514.837 805.637 514.837C805.637 514.837 789.399 511.396 791.367 525.161L788.415 517.295L785.709 523.932L752.741 535.239L737.979 510.167C737.979 510.167 728.138 507.217 724.693 514.1C724.693 514.1 725.431 489.274 735.027 488.536C741.48 488.04 746.344 488.045 746.344 488.045L751.757 487.061L755.223 485.832L762.09 490.503Z" fill="#575A89"/>
<path d="M783.002 544.334C783.002 544.334 808.835 621.762 801.454 632.577C801.454 632.577 773.899 646.342 718.788 627.661L741.177 540.893C754.929 538.083 768.871 539.23 783.002 544.334Z" fill="#2F2E41"/>
<path d="M783.002 544.334L790.272 519.372C781.551 509.896 789.078 488.883 789.078 488.883L778.555 486.63C778.555 486.63 767.994 515.083 757.169 511.642C746.344 508.201 752.248 486.078 752.248 486.078L742.407 487.061L737.979 504.268L741.177 540.893C754.516 539.749 768.505 541.08 783.002 544.334Z" fill="#575A89"/>
<path d="M795.796 581.942L799.241 535.239L800.225 507.218L789.4 509.183V535.239L787.186 582.679" fill="#FFB9B9"/>
<path d="M787.185 582.679C787.185 582.679 772.915 609.226 786.693 607.26C800.47 605.293 795.796 581.942 795.796 581.942" fill="white"/>
<path d="M805.637 514.837C805.637 514.837 803.888 489.59 789.263 489.678V518.875C789.263 518.875 800.224 512.379 805.637 514.837Z" fill="#575A89"/>
<path d="M765.158 463.102C765.074 463.102 764.993 463.076 764.925 463.028C764.857 462.98 764.806 462.912 764.779 462.833C764.751 462.755 764.748 462.67 764.771 462.59C764.794 462.51 764.842 462.439 764.907 462.387L772.937 455.969C772.978 455.935 773.026 455.91 773.077 455.895C773.127 455.88 773.181 455.876 773.233 455.881C773.286 455.887 773.337 455.903 773.383 455.928C773.43 455.954 773.471 455.988 773.504 456.03C773.537 456.071 773.562 456.118 773.576 456.169C773.591 456.22 773.595 456.273 773.589 456.326C773.583 456.379 773.567 456.429 773.541 456.476C773.515 456.522 773.481 456.563 773.439 456.595L765.409 463.014C765.337 463.071 765.249 463.102 765.158 463.102Z" fill="white"/>
<path d="M765.766 472.73C765.589 472.946 765.412 473.163 765.228 473.363C763.097 474.329 760.778 474.807 758.439 474.765C756.1 474.722 753.799 474.16 751.705 473.118C749.611 472.076 747.775 470.581 746.332 468.742C744.888 466.902 743.873 464.764 743.36 462.484L750.97 461.085L765.766 462.484C762.377 466.608 762.786 468.036 765.766 472.73Z" fill="white"/>
<path d="M751.231 437.021C751.231 437.021 743.093 438.55 741.211 448.691C740.916 450.401 740.863 452.144 741.051 453.869C741.239 455.821 740.967 459.944 736.724 464.798C733.956 467.947 731.377 471.256 729 474.709V474.709L737.504 476.971L741.303 462.895C743.145 456.07 745.983 449.554 749.725 443.555L749.804 443.43C749.804 443.43 752.628 450.97 760.198 452.003L757.864 448.933C757.864 448.933 766.714 454.044 771.727 455.605C772.3 455.784 772.812 456.114 773.21 456.562C773.608 457.01 773.876 457.558 773.986 458.147C774.095 458.736 774.041 459.343 773.831 459.904C773.62 460.464 773.261 460.957 772.791 461.328C772.755 461.356 772.719 461.384 772.682 461.412C768.994 464.211 761.471 470.888 764.443 477.347C767.415 483.807 763.949 484.985 763.949 484.985L770.341 482.555L773.266 481.304L772.97 483.465L787.251 483.764C787.251 483.764 791.11 483.74 784.255 473.449C784.255 473.449 782.601 469.59 783.959 466.642C785.049 464.409 785.591 461.95 785.542 459.466C785.11 449.091 780.735 427.982 751.231 437.021Z" fill="#2F2E41"/>
<path d="M550.903 732.568C550.903 732.568 550.903 799.327 535.567 816.837C535.567 816.837 532.281 825.592 531.186 828.875C530.573 830.744 529.841 832.572 528.995 834.347V838.725C528.995 838.725 499.419 835.442 496.133 827.781L501.61 821.215C501.61 821.215 502.705 820.12 501.61 816.837C500.514 813.554 503.801 813.554 503.801 813.554L511.468 796.043L510.373 723.813L515.85 624.223L562.952 622.034L550.903 732.568Z" fill="#2F2E41"/>
<path d="M526.804 832.159C526.804 832.159 534.472 855.141 526.804 856.235C519.136 857.33 452.316 858.424 453.412 849.669C454.507 840.914 476.415 842.008 476.415 842.008L499.419 827.781L526.804 832.159Z" fill="#2F2E41"/>
<path d="M594.719 624.223C594.719 624.223 596.909 638.45 588.146 653.772C579.383 669.093 584.86 720.53 584.86 720.53L662.633 788.383C662.633 788.383 647.298 814.648 641.821 813.554C636.344 812.459 549.807 742.418 549.807 742.418L515.85 628.6L594.719 624.223Z" fill="#2F2E41"/>
<path d="M661.565 785.483C661.565 785.483 685.099 791.316 681.919 798.372C678.74 805.429 643.893 862.401 637.078 856.789C630.263 851.178 642.916 833.277 642.916 833.277L643.204 806.248L661.565 785.483Z" fill="#2F2E41"/>
<path d="M577.192 420.666C577.2 426.432 575.216 432.024 571.575 436.497C568.696 440.062 564.896 442.772 560.586 444.334C556.276 445.896 551.62 446.25 547.123 445.358C544.871 444.923 542.692 444.174 540.649 443.132C537.405 441.498 534.553 439.182 532.289 436.343C530.025 433.504 528.403 430.21 527.534 426.685C527.044 424.716 526.798 422.695 526.802 420.666C526.802 413.99 529.456 407.588 534.181 402.867C538.906 398.147 545.315 395.495 551.997 395.495C558.679 395.495 565.087 398.147 569.812 402.867C574.537 407.588 577.192 413.99 577.192 420.666V420.666Z" fill="#A0616A"/>
<path d="M571.821 429.546L570.707 461.936L549.508 470.305C549.508 470.305 547.429 437.139 544.494 435.3C541.56 433.462 571.821 429.546 571.821 429.546Z" fill="#A0616A"/>
<path d="M544.33 474.29C544.33 474.29 573.906 444.741 581.574 445.836C589.242 446.93 589.242 450.213 589.242 452.402C589.242 454.591 587.051 455.685 589.242 456.78C591.432 457.874 593.623 456.78 593.623 460.063C593.623 463.346 613.34 496.178 606.768 532.293C600.196 568.408 592.528 585.919 595.814 605.618C599.1 625.317 596.909 629.695 596.909 629.695C596.909 629.695 514.754 636.261 513.659 628.6C512.563 620.94 516.945 625.317 511.468 619.845C505.991 614.373 508.182 614.373 508.182 611.09C508.182 607.807 532.281 474.29 544.33 474.29Z" fill="#575A89"/>
<path d="M559.666 623.128C559.666 623.128 546.521 654.866 536.662 647.205C526.804 639.544 541.044 613.279 541.044 613.279L559.666 623.128Z" fill="white"/>
<path d="M591.433 476.479C591.433 476.479 617.169 479.423 607.587 526.652C598.005 573.88 560.762 628.6 560.762 628.6L535.567 616.562L568.429 551.992L560.762 511.5C560.762 511.5 556.38 473.196 591.433 476.479Z" fill="#575A89"/>
<path opacity="0.2" d="M568.977 552.54L532.828 612.732L536.114 616.015L568.977 552.54Z" fill="black"/>
<path opacity="0.2" d="M588.111 580.589L559.118 628.053H568.977L588.111 580.589Z" fill="black"/>
<path opacity="0.2" d="M522.62 666.844L521.164 667.399L549.99 742.908L551.446 742.353L522.62 666.844Z" fill="black"/>
<path d="M544.485 480.299C545.346 480.299 546.043 479.602 546.043 478.742C546.043 477.882 545.346 477.185 544.485 477.185C543.624 477.185 542.927 477.882 542.927 478.742C542.927 479.602 543.624 480.299 544.485 480.299Z" fill="#D0CDE1"/>
<path d="M531.24 522.334C531.406 522.334 531.568 522.281 531.702 522.182C531.836 522.083 531.935 521.944 531.984 521.785L545.229 478.972C545.26 478.874 545.27 478.772 545.261 478.67C545.252 478.568 545.222 478.469 545.175 478.378C545.127 478.288 545.062 478.207 544.983 478.142C544.904 478.077 544.813 478.028 544.716 477.997C544.618 477.967 544.515 477.956 544.413 477.966C544.311 477.975 544.212 478.005 544.121 478.053C544.031 478.101 543.951 478.166 543.885 478.245C543.82 478.323 543.771 478.414 543.741 478.512L530.495 521.326C530.46 521.443 530.452 521.566 530.472 521.686C530.492 521.806 530.541 521.92 530.613 522.018C530.686 522.116 530.78 522.195 530.889 522.25C530.997 522.305 531.118 522.334 531.24 522.334V522.334Z" fill="#D0CDE1"/>
<path d="M546.946 439.945L540.65 445.929C534.166 442.669 527.902 433.885 526.135 426.685L534.396 423.226C534.935 430.569 540.152 435.451 546.946 439.945Z" fill="white"/>
<path d="M548.516 426.361C548.491 426.361 548.466 426.36 548.441 426.356L533.799 424.266C533.731 424.257 533.666 424.234 533.607 424.199C533.547 424.164 533.496 424.118 533.454 424.063C533.413 424.008 533.383 423.945 533.366 423.879C533.349 423.813 533.345 423.743 533.355 423.675C533.364 423.608 533.387 423.542 533.422 423.483C533.457 423.424 533.504 423.372 533.558 423.331C533.613 423.29 533.676 423.26 533.742 423.243C533.809 423.226 533.878 423.222 533.946 423.232L548.588 425.321C548.719 425.34 548.838 425.407 548.922 425.51C549.005 425.613 549.046 425.743 549.037 425.875C549.027 426.007 548.969 426.13 548.872 426.221C548.775 426.311 548.648 426.361 548.516 426.361V426.361Z" fill="white"/>
<path d="M546.422 439.945C546.331 439.945 546.241 439.921 546.162 439.876C546.083 439.831 546.017 439.765 545.971 439.686C545.925 439.608 545.9 439.518 545.899 439.427C545.899 439.336 545.922 439.246 545.967 439.166L550.818 430.538C550.852 430.478 550.897 430.425 550.951 430.382C551.005 430.34 551.067 430.308 551.133 430.29C551.199 430.271 551.268 430.266 551.337 430.274C551.405 430.282 551.471 430.304 551.531 430.337C551.591 430.371 551.644 430.416 551.686 430.47C551.728 430.524 551.76 430.586 551.778 430.653C551.797 430.719 551.802 430.788 551.793 430.856C551.785 430.924 551.763 430.99 551.729 431.05L546.878 439.679C546.833 439.76 546.766 439.827 546.686 439.874C546.606 439.92 546.515 439.945 546.422 439.945V439.945Z" fill="white"/>
<path d="M563.401 435.79C561.362 434.712 558.993 434.49 556.785 433.821C548.887 431.425 543.595 422.504 545.285 414.432C545.597 413.396 545.737 412.317 545.699 411.236C545.404 408.845 542.956 407.303 540.608 406.755C538.26 406.207 535.762 406.287 533.517 405.406C530.052 404.046 527.751 400.488 527.252 396.802C526.753 393.117 527.847 389.357 529.628 386.091L530.476 388.529C531.77 387.435 532.73 386.001 533.247 384.388C534.211 384.55 535.117 384.957 535.879 385.569C536.641 386.18 537.232 386.977 537.597 387.883C538.958 388.685 539.155 385.392 540.658 384.906C541.288 384.702 541.935 385.089 542.535 385.368C545.565 386.78 549.086 385.573 552.336 384.79C557.964 383.442 563.831 383.435 569.463 384.77C573.204 385.662 576.907 387.214 579.585 389.973C581.783 392.239 583.153 395.169 584.32 398.102C587.191 405.322 589.088 413.134 588.14 420.845C587.351 427.155 584.708 433.09 580.547 437.902C578.378 440.397 571.305 449.104 567.427 447.62C562.553 445.754 569.144 438.823 563.401 435.79Z" fill="#2F2E41"/>
</g>
<defs>
<linearGradient id="paint0_linear" x1="987.988" y1="178.621" x2="889.545" y2="726.726" gradientUnits="userSpaceOnUse">
<stop stop-color="#687ECD" stop-opacity="0.04"/>
<stop offset="1" stop-color="white" stop-opacity="0"/>
</linearGradient>
<linearGradient id="paint1_linear" x1="339.621" y1="353.178" x2="845.118" y2="-94.3213" gradientUnits="userSpaceOnUse">
<stop stop-color="white"/>
<stop offset="0.769795" stop-color="white" stop-opacity="0"/>
</linearGradient>
<clipPath id="clip0">
<rect x="449.621" y="313.178" width="636" height="544" fill="white"/>
</clipPath>
</defs>
</svg>
