<svg width="301" height="317" viewBox="0 0 301 317" fill="none" xmlns="http://www.w3.org/2000/svg">
<g clip-path="url(#clip0)">
<path d="M215.241 70.1636H213.619V25.7218C213.619 22.3439 212.953 18.9992 211.66 15.8785C210.368 12.7577 208.473 9.92218 206.084 7.5337C203.695 5.14521 200.859 3.25056 197.737 1.95793C194.616 0.665294 191.271 -1.25231e-05 187.892 1.76793e-10H93.7191C90.3407 -8.16716e-06 86.9953 0.665301 83.874 1.95794C80.7528 3.25057 77.9167 5.14522 75.5278 7.53371C73.1389 9.9222 71.2439 12.7577 69.951 15.8785C68.6581 18.9992 67.9927 22.3439 67.9927 25.7218V269.533C67.9927 272.911 68.6581 276.256 69.951 279.377C71.2439 282.497 73.1389 285.333 75.5278 287.721C77.9167 290.11 80.7528 292.004 83.8741 293.297C86.9953 294.59 90.3407 295.255 93.7192 295.255H187.892C191.271 295.255 194.616 294.59 197.737 293.297C200.859 292.004 203.695 290.11 206.084 287.721C208.473 285.333 210.368 282.497 211.66 279.377C212.953 276.256 213.619 272.911 213.619 269.533V101.798H215.241V70.1636Z" fill="#3F3D56"/>
<path d="M297.853 283.133H0.101074V283.962H297.853V283.133Z" fill="#3F3D56"/>
<path opacity="0.2" d="M208.143 25.9025V269.355C208.146 271.879 207.65 274.378 206.685 276.709C205.721 279.041 204.306 281.159 202.521 282.944C200.737 284.728 198.618 286.143 196.286 287.107C193.954 288.072 191.454 288.567 188.93 288.565H94.3051C91.7816 288.567 89.2824 288.071 86.9506 287.106C84.6188 286.141 82.5001 284.727 80.7156 282.942C78.9312 281.158 77.5161 279.04 76.5512 276.709C75.5862 274.377 75.0905 271.879 75.0923 269.355V25.9025C75.0905 23.3794 75.5862 20.8807 76.5512 18.5493C77.5161 16.2179 78.9312 14.0996 80.7156 12.3155C82.5001 10.5313 84.6188 9.11646 86.9506 8.15173C89.2824 7.18699 91.7816 6.69134 94.3051 6.69312H105.784C105.219 8.07879 105.003 9.5822 105.156 11.0709C105.308 12.5596 105.825 13.9879 106.66 15.2299C107.495 16.4719 108.623 17.4895 109.944 18.1931C111.265 18.8966 112.739 19.2646 114.235 19.2644H168.187C169.684 19.2646 171.158 18.8966 172.479 18.1931C173.8 17.4895 174.928 16.4719 175.763 15.2299C176.598 13.9879 177.114 12.5596 177.267 11.0709C177.42 9.5822 177.204 8.07879 176.639 6.69312H188.93C191.454 6.69086 193.954 7.18618 196.286 8.15074C198.618 9.1153 200.737 10.5302 202.521 12.3144C204.306 14.0986 205.721 16.2171 206.685 18.5487C207.65 20.8803 208.146 23.3793 208.143 25.9025Z" fill="black"/>
<path d="M29.6768 283.918L29.2317 283.751C29.1339 283.714 19.3999 279.985 14.8401 271.531C10.28 263.076 12.5129 252.895 12.536 252.794L12.641 252.33L13.0859 252.497C13.1837 252.534 22.9175 256.263 27.4776 264.717C32.0376 273.173 29.8048 283.353 29.7817 283.454L29.6768 283.918ZM15.5702 271.137C19.4254 278.286 27.1175 281.95 29.0665 282.787C29.437 280.698 30.5991 272.253 26.7474 265.111C22.8961 257.97 15.2009 254.3 13.2511 253.462C12.8804 255.551 11.7187 263.996 15.5702 271.137Z" fill="#3F3D56"/>
<path d="M18.3247 268.565C26.5194 273.494 29.6754 283.285 29.6754 283.285C29.6754 283.285 19.5453 285.084 11.3506 280.155C3.15602 275.225 0 265.435 0 265.435C0 265.435 10.1301 263.636 18.3247 268.565Z" fill="#F9DC25"/>
<path d="M98.9663 6.69313V288.565H94.3051C93.086 288.567 91.8695 288.451 90.6724 288.221V7.03727C91.8695 6.80649 93.086 6.69125 94.3051 6.69314L98.9663 6.69313Z" fill="#3F3D56"/>
<path d="M143.753 19.2644H135.459V288.565H143.753V19.2644Z" fill="#3F3D56"/>
<path d="M195.59 7.87895V287.379C193.458 288.166 191.203 288.568 188.93 288.565H187.296V6.69313H188.93C191.203 6.6902 193.458 7.09173 195.59 7.87895Z" fill="#3F3D56"/>
<path d="M208.143 53.6282H75.0923V61.9206H208.143V53.6282Z" fill="#3F3D56"/>
<path d="M208.143 147.747H75.0923V156.039H208.143V147.747Z" fill="#3F3D56"/>
<path d="M203.884 194.185H137.118V202.477H203.884V194.185Z" fill="#3F3D56"/>
<path d="M208.143 88.871H135.459V97.1634H208.143V88.871Z" fill="#3F3D56"/>
<path d="M141.452 61.3652L140.49 61.9208L135.46 64.8231L98.9663 85.89L90.6724 90.6789L75.0923 99.672V90.0943L90.6724 81.1011L98.9663 76.3164L123.902 61.9208L135.46 55.2495L137.305 54.184L141.452 61.3652Z" fill="#3F3D56"/>
<path d="M208.143 238.549H75.0923V246.841H208.143V238.549Z" fill="#3F3D56"/>
<path d="M237.06 89.2855C237.06 115.619 189.37 174.283 189.37 174.283C189.37 174.283 141.68 115.619 141.68 89.2855C141.68 76.6396 146.704 64.5117 155.648 55.5697C164.591 46.6277 176.722 41.6041 189.37 41.6041C202.018 41.6041 214.148 46.6277 223.092 55.5697C232.035 64.5117 237.06 76.6396 237.06 89.2855Z" fill="#F9DC25"/>
<path opacity="0.2" d="M189.37 115.407C204.944 115.407 217.569 102.784 217.569 87.2124C217.569 71.6412 204.944 59.0182 189.37 59.0182C173.796 59.0182 161.17 71.6412 161.17 87.2124C161.17 102.784 173.796 115.407 189.37 115.407Z" fill="black"/>
<path d="M188.443 98.3422C194.245 98.3422 198.949 93.6395 198.949 87.8384C198.949 82.0374 194.245 77.3347 188.443 77.3347C182.641 77.3347 177.938 82.0374 177.938 87.8384C177.938 93.6395 182.641 98.3422 188.443 98.3422Z" fill="#F9DC25"/>
<path d="M204.844 118.309C205.283 116.029 205.213 113.681 204.638 111.431C204.064 109.182 202.999 107.087 201.521 105.297C200.042 103.507 198.186 102.065 196.086 101.076C193.985 100.086 191.692 99.5732 189.37 99.5732C187.048 99.5732 184.754 100.086 182.654 101.076C180.553 102.065 178.697 103.507 177.219 105.297C175.74 107.087 174.676 109.182 174.101 111.431C173.527 113.681 173.457 116.029 173.896 118.309H204.844Z" fill="#F9DC25"/>
<path d="M239.067 50.9098C239.067 50.9098 231.574 48.2343 226.758 58.9362C221.941 69.6382 214.448 81.4103 214.448 81.4103L218.73 82.4804C218.73 82.4804 219.8 74.9891 222.476 73.9189L221.406 83.5506C221.406 83.5506 253.517 94.7876 267.967 82.4804L267.432 78.7348C267.432 78.7348 269.573 79.2699 269.573 82.4804L271.179 80.8752C271.179 80.8752 269.573 77.6646 264.756 73.3838C261.595 70.5741 260.508 65.2287 260.135 61.8866C259.855 59.096 258.739 56.455 256.931 54.31C253.73 50.601 247.898 46.6588 239.067 50.9098Z" fill="#2F2E41"/>
<path d="M284.543 111.468C284.543 111.468 298.642 123.492 300.716 130.54C302.789 137.589 292.837 138.418 292.837 138.418L271.272 140.491C271.272 140.491 270.858 150.442 267.126 151.686C263.393 152.93 266.368 135.231 266.368 135.231L287.446 129.296L277.908 119.346L284.543 111.468Z" fill="#FBBEBE"/>
<path d="M218.606 123.906L216.947 145.881L207.824 183.197C207.824 183.197 199.53 200.197 206.58 200.611C213.629 201.026 213.215 184.441 213.215 184.441L226.485 149.198L227.729 125.15L218.606 123.906Z" fill="#FBBEBE"/>
<path d="M226.071 283.121V299.291L236.024 296.803L233.121 281.877L226.071 283.121Z" fill="#FBBEBE"/>
<path d="M279.152 283.121V299.291L289.105 296.803L286.202 281.877L279.152 283.121Z" fill="#FBBEBE"/>
<path d="M241.829 85.3467C249.387 85.3467 255.514 79.2208 255.514 71.6642C255.514 64.1075 249.387 57.9817 241.829 57.9817C234.271 57.9817 228.144 64.1075 228.144 71.6642C228.144 79.2208 234.271 85.3467 241.829 85.3467Z" fill="#FBBEBE"/>
<path d="M235.608 78.2981C235.608 78.2981 240.585 96.1268 232.705 100.688C224.826 105.248 252.611 108.565 260.075 94.8829C260.075 94.8829 246.805 90.3221 250.537 78.2981H235.608Z" fill="#FBBEBE"/>
<path d="M226.07 102.761L223.582 101.932C223.582 101.932 218.606 104.005 218.606 107.736C218.606 111.468 217.776 126.394 217.776 126.394L228.973 127.638L226.07 102.761Z" fill="#575A89"/>
<path d="M227.729 147.104C227.729 147.104 214.044 164.539 214.044 185.685C214.044 206.83 217.362 283.535 217.362 283.535C217.362 283.535 229.803 289.34 237.267 282.291L243.903 195.221L270.028 285.194C270.028 285.194 282.469 287.682 288.275 283.535L277.078 225.488C277.078 225.488 276.664 156.661 264.223 151.686C251.782 146.71 227.729 147.104 227.729 147.104Z" fill="#2F2E41"/>
<path d="M236.853 294.316C236.853 294.316 226.071 288.511 225.241 296.389C224.412 304.266 223.997 309.242 223.997 309.242C223.997 309.242 222.753 318.778 234.365 316.705C245.976 314.632 241.829 308.827 241.829 308.827C241.829 308.827 237.682 302.193 237.682 300.535C237.682 298.876 236.853 294.316 236.853 294.316Z" fill="#2F2E41"/>
<path d="M278.091 294.127C278.091 294.127 287.903 286.802 289.881 294.472C291.858 302.143 292.999 307.004 292.999 307.004C292.999 307.004 295.631 316.254 283.841 315.908C272.051 315.562 275.3 309.212 275.3 309.212C275.3 309.212 278.428 302.041 278.184 300.4C277.94 298.76 278.091 294.127 278.091 294.127Z" fill="#2F2E41"/>
<path d="M265.881 96.9561C265.881 96.9561 271.272 94.0537 276.663 100.273L287.445 112.712L279.152 121.833L263.393 112.297L265.881 96.9561Z" fill="#575A89"/>
<path d="M227.041 71.7509C231.886 68.2455 235.807 64.2079 238.402 59.405C238.402 59.405 247.292 69.2818 252.725 69.7756C258.159 70.2694 253.219 57.9235 253.219 57.9235L243.341 55.4543L233.956 56.442L226.547 61.3804L227.041 71.7509Z" fill="#2F2E41"/>
<path d="M258.002 94.0537C258.002 94.0537 252.199 103.228 234.781 98.8481L224.896 101.57L223.583 101.932C223.583 101.932 224.827 126.809 228.144 131.37C231.462 135.93 230.632 138.418 229.803 138.833C228.974 139.247 226.9 138.418 228.144 140.491C229.388 142.564 231.047 141.32 229.388 142.564C227.729 143.808 226.9 148.369 226.9 148.369L265.881 153.344C265.881 153.344 264.637 137.174 267.955 128.882C271.273 120.589 272.102 117.272 272.102 117.272L269.614 96.5414L258.002 94.0537Z" fill="#575A89"/>
<path d="M193.517 208.696C200.617 208.696 206.372 202.942 206.372 195.843C206.372 188.744 200.617 182.99 193.517 182.99C186.417 182.99 180.661 188.744 180.661 195.843C180.661 202.942 186.417 208.696 193.517 208.696Z" fill="#F9DC25"/>
</g>
<defs>
<clipPath id="clip0">
<rect width="301" height="317" fill="white"/>
</clipPath>
</defs>
</svg>
