<svg width="445" height="310" viewBox="0 0 445 310" fill="none" xmlns="http://www.w3.org/2000/svg">
<g clip-path="url(#clip0)">
<path d="M371.814 47.6672L337.486 48.0019C335.872 40.0519 330.451 19.1925 335.333 13.5028C335.556 11.3614 336.595 9.38841 338.234 7.99452C339.874 6.60063 341.987 5.89328 344.135 6.0197C349.456 -2.31567 358.318 -1.06417 364.308 4.14164C370.336 6.22337 372.609 9.9217 371.814 14.9405C376.278 18.8514 377.102 23.6097 375.098 29.026L371.814 47.6672Z" fill="#2F2E41"/>
<path d="M368.509 68.8313L343.742 65.3993L338.789 58.1539C345.612 53.6241 348.027 47.2973 344.886 38.7057L362.032 38.3243C361.228 45.9753 363.756 51.8992 370.795 55.4845L368.509 68.8313Z" fill="#FFB9B9"/>
<path d="M337.887 292.403L336.94 305.36C336.897 305.947 336.98 306.535 337.183 307.087C337.386 307.639 337.705 308.141 338.118 308.559C338.531 308.978 339.028 309.303 339.577 309.513C340.126 309.723 340.713 309.814 341.299 309.778L347.949 309.375C348.257 309.356 348.558 309.27 348.829 309.122C349.1 308.974 349.335 308.768 349.517 308.519C349.7 308.27 349.825 307.983 349.885 307.68C349.944 307.377 349.936 307.065 349.861 306.765L346.17 291.988L337.887 292.403Z" fill="#E6E6E6"/>
<path d="M359.416 291.988L355.724 306.765C355.65 307.065 355.642 307.377 355.701 307.68C355.76 307.984 355.886 308.27 356.068 308.519C356.251 308.768 356.486 308.974 356.757 309.122C357.028 309.27 357.328 309.356 357.636 309.375L364.286 309.778C364.873 309.814 365.46 309.723 366.009 309.513C366.558 309.303 367.055 308.978 367.468 308.559C367.881 308.141 368.2 307.639 368.403 307.087C368.606 306.535 368.689 305.947 368.646 305.36L367.699 292.403L359.416 291.988Z" fill="#E6E6E6"/>
<path d="M368.128 294.202L359.154 293.3L350.22 197.724L346.843 292.993L338.026 292.677L323.167 160.734H379.94L368.128 294.202Z" fill="#F9DC25"/>
<path d="M354.411 44.8072C363.881 44.8072 371.557 37.1243 371.557 27.647C371.557 18.1697 363.881 10.4868 354.411 10.4868C344.941 10.4868 337.265 18.1697 337.265 27.647C337.265 37.1243 344.941 44.8072 354.411 44.8072Z" fill="#FFB9B9"/>
<path d="M388.323 163.784L318.976 164.547C329.267 125.337 335.423 88.9138 324.691 63.874L341.837 55.4846C350.105 64.1149 359.312 63.2251 369.271 54.7219L385.656 58.9166C382.849 91.7525 384.107 126.92 388.323 163.784Z" fill="#F9DC25"/>
<path d="M299.924 123.363L342.98 140.523L352.606 143.356C353.037 143.483 353.489 143.521 353.934 143.469C354.38 143.417 354.811 143.275 355.2 143.052C355.59 142.828 355.93 142.529 356.201 142.171C356.472 141.812 356.668 141.403 356.777 140.967C356.967 140.203 356.882 139.396 356.535 138.689C356.188 137.983 355.602 137.422 354.881 137.106L344.885 134.04L314.784 116.499L321.071 99.9104L307.925 92.8557L299.924 123.363Z" fill="#FFB9B9"/>
<path d="M300.305 92.093C308.497 95.2914 315.013 100.75 320.119 108.109L336.122 84.8476L324.691 63.874L300.305 92.093Z" fill="#F9DC25"/>
<path d="M373.736 24.8658C366.777 23.0713 359.935 22.8249 353.284 25.1011C349.047 27.1548 343.959 26.9655 338.3 25.2734V8.15271L368.848 8.96798L373.736 24.8658Z" fill="#2F2E41"/>
<path d="M342.837 103.369C341.491 103.37 340.2 103.906 339.248 104.859C338.296 105.812 337.76 107.104 337.759 108.451L339.763 150.446C339.765 151.793 340.3 153.085 341.252 154.038C342.204 154.991 343.495 155.527 344.842 155.528H367.759C369.106 155.527 370.397 154.991 371.349 154.038C372.301 153.085 372.836 151.793 372.838 150.446L374.842 108.451C374.841 107.104 374.305 105.812 373.353 104.859C372.401 103.906 371.11 103.37 369.764 103.369H342.837Z" fill="#3F3D56"/>
<path d="M407.861 120.19L370.332 135.146L367.501 136.274C367.41 136.309 367.32 136.339 367.225 136.37L357.739 139.163C356.526 139.519 354.847 137.884 353.865 136.756C353.379 136.212 353.103 135.512 353.089 134.782C353.074 134.052 353.321 133.342 353.785 132.779C353.916 132.627 354.06 132.488 354.216 132.362C354.581 132.078 355.012 131.888 355.469 131.811L364.945 129.945C365.285 129.878 365.612 129.756 365.912 129.584L370.332 127.006L393.279 113.635C393.917 113.264 394.403 112.678 394.649 111.982C394.896 111.286 394.888 110.524 394.627 109.833L390.247 98.2732C389.978 97.5658 389.976 96.7848 390.241 96.076C390.505 95.3672 391.019 94.7791 391.685 94.4214L398.941 90.5295C399.356 90.3067 399.816 90.181 400.286 90.1619C400.756 90.1427 401.225 90.2306 401.656 90.4189C402.087 90.6073 402.47 90.8911 402.776 91.2491C403.082 91.607 403.303 92.0298 403.421 92.4855L409.721 116.499C409.914 117.235 409.832 118.017 409.49 118.697C409.147 119.377 408.568 119.908 407.861 120.19Z" fill="#FFB9B9"/>
<path d="M410.041 87.8983C401.849 91.0967 395.334 96.5554 390.228 103.914L374.225 80.6529L385.655 58.9166L410.041 87.8983Z" fill="#F9DC25"/>
<path d="M365.822 42.9204C358.321 46.043 350.456 45.9162 342.269 42.9204C344.651 38.8509 341.09 35.6638 339.262 31.5558L369.831 30.6466C367.493 34.2153 364.044 38.4317 365.822 42.9204Z" fill="white"/>
<path d="M369.507 31.3257L369.152 30.9711L369.653 30.4696L372.647 26.9729L373.028 27.2989L370.021 30.8096L369.507 31.3257Z" fill="white"/>
<path d="M337.168 29.2002L336.847 29.5857L339.853 32.0934L340.174 31.7079L337.168 29.2002Z" fill="white"/>
<path d="M370.371 34.2742L365.108 42.5487L365.531 42.8181L370.794 34.5436L370.371 34.2742Z" fill="white"/>
<path d="M337.72 34.2736L337.297 34.543L342.559 42.8183L342.982 42.5489L337.72 34.2736Z" fill="white"/>
<path d="M371.335 126.297V135.383L368.174 136.642C368.073 136.681 367.973 136.715 367.866 136.749L357.277 139.867C355.924 140.264 354.05 138.439 352.953 137.18C352.411 136.573 352.103 135.791 352.087 134.976C352.07 134.162 352.346 133.369 352.864 132.74C353.01 132.571 353.171 132.416 353.345 132.275C353.753 131.958 354.234 131.746 354.743 131.66L365.321 129.577C365.701 129.503 366.065 129.366 366.401 129.174L371.335 126.297Z" fill="white"/>
<path d="M375.915 93.8878H374.104C374.104 68.2542 368.83 50.3905 363.691 50.3905L363.238 48.5781C367.847 48.5781 370.785 56.0128 372.439 62.25C374.68 70.7055 375.915 81.9413 375.915 93.8878Z" fill="#3F3D56"/>
<path d="M334.264 87.5445H332.453C332.453 64.0682 337.763 49.4844 345.582 49.4844L345.129 51.2968C339.721 51.2968 334.264 62.5049 334.264 87.5445Z" fill="#3F3D56"/>
<path d="M375.009 98.8719C377.51 98.8719 379.537 96.8433 379.537 94.3409C379.537 91.8385 377.51 89.8099 375.009 89.8099C372.509 89.8099 370.482 91.8385 370.482 94.3409C370.482 96.8433 372.509 98.8719 375.009 98.8719Z" fill="#3F3D56"/>
<path d="M327.02 98.4187H325.209C325.209 91.9229 328.865 86.6382 333.358 86.6382V88.4506C329.863 88.4506 327.02 92.9223 327.02 98.4187Z" fill="#3F3D56"/>
<path d="M341.507 98.4187H339.696C339.696 92.9223 336.853 88.4506 333.358 88.4506V86.6382C337.851 86.6382 341.507 91.9229 341.507 98.4187Z" fill="#3F3D56"/>
<path d="M340.602 100.684C341.602 100.684 342.413 99.8728 342.413 98.8718C342.413 97.8709 341.602 97.0594 340.602 97.0594C339.602 97.0594 338.791 97.8709 338.791 98.8718C338.791 99.8728 339.602 100.684 340.602 100.684Z" fill="#3F3D56"/>
<path d="M326.114 100.684C327.114 100.684 327.925 99.8728 327.925 98.8718C327.925 97.8709 327.114 97.0594 326.114 97.0594C325.114 97.0594 324.303 97.8709 324.303 98.8718C324.303 99.8728 325.114 100.684 326.114 100.684Z" fill="#3F3D56"/>
<path d="M107.878 37.9647L76.0734 43.355C75.2877 43.4891 74.4803 43.3268 73.8073 42.8995C73.1343 42.4721 72.6436 41.8101 72.4302 41.0416C70.1324 32.7415 65.3282 21.9137 69.9925 16.4782C70.2302 14.1915 71.3399 12.0847 73.0906 10.5962C74.8413 9.10777 77.0982 8.35242 79.3914 8.48741C85.073 -0.413447 94.5366 0.922962 100.933 6.48194C107.37 8.7049 109.797 12.6541 108.948 18.0134C111.729 20.4496 113.187 23.1936 113.494 26.2054C113.64 27.8814 113.427 29.5693 112.869 31.1563C112.312 32.7434 111.422 34.1931 110.26 35.4089L107.878 37.9647Z" fill="#2F2E41"/>
<path d="M102.933 63.0238L78.2773 61.5723C80.6936 56.0219 81.6589 50.6771 80.6946 45.6057H99.0654C99.0238 49.4995 100.96 56.2351 102.933 63.0238Z" fill="#9F616A"/>
<path d="M73.2544 291.034L72.2432 304.87C72.1974 305.496 72.2859 306.125 72.5029 306.714C72.7199 307.303 73.0602 307.839 73.5011 308.286C73.942 308.733 74.4732 309.08 75.0592 309.305C75.6452 309.529 76.2724 309.625 76.8987 309.587L83.9997 309.157C84.3288 309.137 84.6493 309.045 84.9387 308.887C85.2281 308.729 85.4791 308.509 85.674 308.243C85.8689 307.977 86.0029 307.671 86.0664 307.347C86.1298 307.024 86.1213 306.69 86.0414 306.37L82.0997 290.591L73.2544 291.034Z" fill="#E6E6E6"/>
<path d="M96.2435 290.591L92.3019 306.37C92.2219 306.69 92.2134 307.024 92.2769 307.347C92.3404 307.671 92.4744 307.977 92.6692 308.243C92.8641 308.509 93.1152 308.729 93.4045 308.887C93.6939 309.045 94.0145 309.137 94.3435 309.157L101.445 309.587C102.071 309.625 102.698 309.529 103.284 309.305C103.87 309.08 104.401 308.733 104.842 308.286C105.283 307.839 105.623 307.303 105.84 306.714C106.057 306.125 106.146 305.496 106.1 304.87L105.089 291.034L96.2435 290.591Z" fill="#E6E6E6"/>
<path d="M105.547 292.954L95.9645 291.992L86.4241 189.931L82.8185 291.663L73.4038 291.325L57.5356 150.432H118.16L105.547 292.954Z" fill="#F9DC25"/>
<path d="M90.3647 51.4793C100.477 51.4793 108.674 43.2752 108.674 33.1549C108.674 23.0347 100.477 14.8306 90.3647 14.8306C80.2526 14.8306 72.0552 23.0347 72.0552 33.1549C72.0552 43.2752 80.2526 51.4793 90.3647 51.4793Z" fill="#9F616A"/>
<path d="M111 24.4011C103.569 23.1059 96.2628 22.928 89.1604 24.5709C84.6362 26.0532 79.203 25.9166 73.1606 24.6953V12.3381L105.781 12.9266L111 24.4011Z" fill="#2F2E41"/>
<path d="M102.55 47.8578C94.5401 51.1922 86.1413 51.0568 77.3992 47.8578C79.943 43.5122 76.1406 40.1089 74.1885 35.7222L106.831 34.7513C104.335 38.5622 100.651 43.0645 102.55 47.8578Z" fill="white"/>
<path d="M71.9406 33.2197L71.6196 33.6052L74.8302 36.2828L75.1512 35.8973L71.9406 33.2197Z" fill="white"/>
<path d="M107.422 38.6337L101.802 47.4696L102.225 47.739L107.845 38.903L107.422 38.6337Z" fill="white"/>
<path d="M72.5259 38.6333L72.103 38.9026L77.7218 47.7394L78.1447 47.4701L72.5259 38.6333Z" fill="white"/>
<path d="M55.5555 116.73L41.5356 108.021L53.4921 72.974C54.8257 69.3576 57.3799 66.3213 60.7132 64.3899L64.7409 62.0562L65.0912 97.4115L55.5555 116.73Z" fill="#F9DC25"/>
<path d="M116.156 133.751L114.081 115.97C113.971 106.585 115.566 97.5114 119.37 89.1508L121.304 63.0237L100.032 54.3147C99.967 54.7485 99.9115 55.1821 99.8493 55.6158L89.8799 60.6046L80.1572 58.3931L80.211 55.2824L60.8733 63.9914C67.2683 93.7463 63.7803 124.646 52.7832 161.143L78.2589 168.114L78.4707 155.872L101.175 154.249C101.409 158.221 101.597 162.122 101.706 165.937C114.517 170.658 114.957 170.579 126.63 163.821C121.982 154.039 118.301 143.861 116.156 133.751Z" fill="#F9DC25"/>
<path d="M148.86 112.375L135.807 108.021L114.928 83.6947L121.304 63.024L150.31 103.666L148.86 112.375Z" fill="#F9DC25"/>
<path d="M107.952 131.207C108.166 132.145 108.742 132.96 109.555 133.474C110.368 133.987 111.352 134.157 112.29 133.945L123.37 131.434L121.768 124.356L110.688 126.867C109.75 127.079 108.935 127.656 108.422 128.47C107.909 129.284 107.74 130.269 107.952 131.207V131.207Z" fill="#E6E6E6"/>
<path d="M117.92 123.019L124.205 134.631C134.776 131.681 143.937 122.379 152.728 111.407L150.311 103.666L135.324 107.537L117.92 123.019Z" fill="#F9DC25"/>
<path d="M35.9761 86.595L48.0412 88.7511L75.6187 127.994L60.9682 124.544L35.9761 86.595Z" fill="#E6E6E6"/>
<path d="M33.8359 86.1146C33.6521 86.1174 33.4724 86.1696 33.3155 86.2656C33.1587 86.3617 33.0306 86.4982 32.9445 86.6608C32.8585 86.8235 32.8177 87.0063 32.8263 87.1901C32.835 87.3739 32.8929 87.552 32.9939 87.7058L58.7715 126.848C58.9154 127.067 59.1376 127.223 59.3924 127.282L71.3859 130.107C71.5881 130.154 71.8 130.139 71.9935 130.063C72.187 129.988 72.353 129.855 72.4693 129.683C72.5857 129.511 72.647 129.307 72.645 129.099C72.6431 128.891 72.5781 128.689 72.4585 128.519L44.1563 88.2439C44.0796 88.1342 43.982 88.0407 43.8691 87.9687C43.7562 87.8968 43.6302 87.8478 43.4984 87.8246L34.0293 86.1321C33.9655 86.1207 33.9008 86.1148 33.8359 86.1146Z" fill="#3F3D56"/>
<path d="M49.916 114.101L50.6325 121.323L61.9377 120.2C62.8946 120.105 63.7746 119.634 64.3841 118.889C64.9936 118.145 65.2827 117.188 65.1877 116.231C65.0927 115.273 64.6215 114.392 63.8777 113.782C63.1339 113.172 62.1784 112.883 61.2215 112.978L49.916 114.101Z" fill="#E6E6E6"/>
<path d="M40.0854 113.265C40.1019 115.727 41.0901 118.084 42.8348 119.82C44.5796 121.557 46.9394 122.533 49.4 122.536H51.2589L52.6123 111.248L41.4069 107.211L40.0854 113.265Z" fill="#F9DC25"/>
<path d="M105.938 36L105.583 35.6454L106.119 35.1098L109.316 31.3749L109.697 31.7009L106.486 35.4498L105.938 36Z" fill="white"/>
<path d="M445 308.997H0V310H445V308.997Z" fill="#3F3D56"/>
<path d="M169.882 308.495H275.118V180.747C275.118 173.982 268.461 168.479 260.278 168.479H184.722C176.539 168.479 169.882 173.982 169.882 180.747V308.495Z" fill="#E6E6E6"/>
<path d="M177.9 303.213H267.1V194.931C267.1 189.197 261.457 184.532 254.521 184.532H190.479C183.543 184.532 177.9 189.197 177.9 194.931V303.213Z" fill="white"/>
<path d="M169.087 158.537C166.485 158.537 164.369 160.287 164.369 162.437V173.693C164.369 175.843 166.485 177.593 169.087 177.593H275.913C278.514 177.593 280.63 175.843 280.63 173.693V162.437C280.63 160.287 278.514 158.537 275.913 158.537H169.087Z" fill="#3F3D56"/>
<path d="M191.02 289.328C189.799 289.332 188.628 289.819 187.765 290.683C186.901 291.547 186.415 292.718 186.411 293.941C186.415 295.163 186.901 296.334 187.765 297.198C188.628 298.062 189.799 298.549 191.02 298.553H199.646V289.328H191.02Z" fill="#3F3D56"/>
<path d="M207.564 289.328H199.173V298.553H207.564C208.785 298.549 209.955 298.062 210.818 297.198C211.682 296.334 212.169 295.163 212.172 293.941C212.169 292.718 211.682 291.547 210.818 290.683C209.955 289.819 208.785 289.332 207.564 289.328Z" fill="#F9DC25"/>
<path opacity="0.2" d="M210.571 290.458C211.298 291.292 211.699 292.361 211.7 293.468C211.696 294.69 211.209 295.861 210.346 296.725C209.482 297.589 208.312 298.076 207.091 298.08H199.173V298.553H207.564C208.785 298.549 209.955 298.062 210.818 297.198C211.682 296.334 212.169 295.163 212.172 293.941C212.171 293.279 212.027 292.625 211.751 292.024C211.475 291.423 211.072 290.889 210.571 290.458Z" fill="black"/>
<path d="M229.947 219.853C229.107 218.966 227.95 218.448 226.73 218.412C225.509 218.376 224.324 218.825 223.433 219.66C222.546 220.501 222.029 221.659 221.993 222.881C221.957 224.102 222.405 225.289 223.24 226.181L229.157 232.463L235.865 226.135L229.947 219.853Z" fill="#3F3D56"/>
<path d="M241.295 231.901L235.54 225.791L228.833 232.119L234.588 238.229C235.428 239.116 236.585 239.634 237.806 239.67C239.027 239.706 240.212 239.257 241.103 238.421C241.989 237.58 242.507 236.423 242.543 235.201C242.579 233.979 242.13 232.793 241.295 231.901Z" fill="#F9DC25"/>
<path opacity="0.2" d="M242.537 234.866C242.429 235.967 241.927 236.993 241.123 237.753C240.232 238.588 239.046 239.037 237.826 239.001C236.605 238.965 235.448 238.447 234.608 237.56L229.177 231.794L228.833 232.119L234.588 238.229C235.428 239.116 236.585 239.634 237.806 239.67C239.027 239.706 240.212 239.257 241.103 238.421C241.583 237.967 241.96 237.414 242.207 236.8C242.455 236.187 242.567 235.527 242.537 234.866Z" fill="black"/>
<path d="M205.392 234.397C204.552 233.51 203.395 232.992 202.175 232.956C200.954 232.92 199.768 233.369 198.877 234.205C197.991 235.046 197.474 236.204 197.438 237.425C197.402 238.647 197.85 239.833 198.685 240.725L204.602 247.007L211.309 240.68L205.392 234.397Z" fill="#3F3D56"/>
<path d="M216.74 246.446L210.985 240.335L204.278 246.663L210.033 252.773C210.873 253.66 212.03 254.178 213.251 254.214C214.471 254.25 215.657 253.802 216.548 252.966C217.434 252.125 217.952 250.967 217.988 249.745C218.024 248.524 217.575 247.337 216.74 246.446Z" fill="#F9DC25"/>
<path opacity="0.2" d="M217.982 249.41C217.874 250.512 217.371 251.537 216.568 252.297C215.676 253.133 214.491 253.582 213.27 253.545C212.05 253.509 210.893 252.991 210.053 252.104L204.622 246.339L204.278 246.663L210.033 252.773C210.873 253.66 212.03 254.178 213.251 254.214C214.471 254.25 215.657 253.801 216.548 252.966C217.028 252.511 217.405 251.958 217.652 251.345C217.9 250.731 218.012 250.071 217.982 249.41Z" fill="black"/>
<path d="M229.947 247.939C229.107 247.052 227.95 246.534 226.73 246.498C225.509 246.462 224.324 246.91 223.433 247.746C222.546 248.587 222.029 249.745 221.993 250.967C221.957 252.188 222.405 253.374 223.24 254.266L229.157 260.549L235.865 254.221L229.947 247.939Z" fill="#3F3D56"/>
<path d="M241.295 259.987L235.54 253.877L228.833 260.204L234.588 266.315C235.428 267.201 236.585 267.719 237.806 267.756C239.027 267.792 240.212 267.343 241.103 266.507C241.989 265.666 242.507 264.508 242.543 263.287C242.579 262.065 242.13 260.879 241.295 259.987Z" fill="#F9DC25"/>
<path opacity="0.2" d="M242.537 262.952C242.429 264.053 241.927 265.078 241.123 265.838C240.232 266.674 239.046 267.123 237.826 267.087C236.605 267.051 235.448 266.533 234.608 265.646L229.177 259.88L228.833 260.204L234.588 266.315C235.428 267.201 236.585 267.719 237.806 267.756C239.027 267.792 240.212 267.343 241.103 266.507C241.583 266.052 241.96 265.5 242.207 264.886C242.455 264.272 242.567 263.613 242.537 262.952Z" fill="black"/>
<path d="M244.927 276.76C245.803 275.909 246.307 274.745 246.328 273.523C246.349 272.301 245.886 271.12 245.04 270.238C244.189 269.362 243.026 268.858 241.805 268.837C240.584 268.815 239.405 269.279 238.524 270.125L232.319 276.123L238.722 282.758L244.927 276.76Z" fill="#3F3D56"/>
<path d="M233.028 288.263L239.062 282.43L232.659 275.794L226.624 281.628C225.748 282.48 225.245 283.643 225.223 284.866C225.202 286.088 225.665 287.268 226.511 288.15C227.362 289.026 228.525 289.53 229.746 289.552C230.967 289.573 232.147 289.11 233.028 288.263Z" fill="#F9DC25"/>
<path opacity="0.2" d="M230.08 289.542C228.979 289.447 227.948 288.957 227.179 288.161C226.333 287.28 225.871 286.099 225.892 284.877C225.913 283.655 226.416 282.491 227.292 281.64L232.987 276.135L232.659 275.794L226.624 281.628C225.748 282.48 225.245 283.644 225.223 284.866C225.202 286.088 225.665 287.268 226.511 288.15C226.971 288.625 227.528 288.995 228.144 289.235C228.76 289.476 229.42 289.58 230.08 289.542Z" fill="black"/>
<path d="M211.853 262.216C212.729 261.364 213.232 260.2 213.254 258.978C213.275 257.756 212.812 256.575 211.966 255.694C211.115 254.817 209.952 254.313 208.731 254.292C207.51 254.271 206.33 254.734 205.45 255.581L199.245 261.578L205.648 268.214L211.853 262.216Z" fill="#3F3D56"/>
<path d="M199.953 273.719L205.988 267.885L199.585 261.25L193.55 267.083C192.674 267.935 192.17 269.099 192.149 270.321C192.128 271.543 192.591 272.724 193.437 273.605C194.288 274.482 195.451 274.986 196.672 275.007C197.893 275.028 199.072 274.565 199.953 273.719Z" fill="#F9DC25"/>
<path opacity="0.2" d="M197.006 274.997C195.904 274.902 194.874 274.412 194.105 273.617C193.259 272.735 192.796 271.555 192.818 270.333C192.839 269.111 193.342 267.947 194.218 267.095L199.913 261.59L199.585 261.25L193.55 267.083C192.674 267.935 192.17 269.099 192.149 270.321C192.128 271.543 192.591 272.724 193.437 273.605C193.897 274.081 194.454 274.451 195.07 274.691C195.686 274.931 196.346 275.036 197.006 274.997Z" fill="black"/>
<path d="M258.959 244.662C259.835 243.811 260.338 242.647 260.36 241.425C260.381 240.203 259.918 239.022 259.072 238.14C258.221 237.264 257.058 236.76 255.837 236.738C254.616 236.717 253.436 237.18 252.555 238.027L246.351 244.025L252.754 250.66L258.959 244.662Z" fill="#3F3D56"/>
<path d="M247.059 256.165L253.094 250.331L246.691 243.696L240.656 249.53C239.78 250.381 239.276 251.545 239.255 252.767C239.234 253.989 239.697 255.17 240.543 256.052C241.394 256.928 242.557 257.432 243.778 257.453C244.999 257.475 246.178 257.011 247.059 256.165Z" fill="#F9DC25"/>
<path opacity="0.2" d="M244.112 257.443C243.01 257.349 241.98 256.859 241.211 256.063C240.365 255.182 239.902 254.001 239.923 252.779C239.945 251.557 240.448 250.393 241.324 249.541L247.019 244.036L246.691 243.696L240.656 249.53C239.78 250.381 239.276 251.545 239.255 252.767C239.234 253.989 239.697 255.17 240.543 256.052C241.003 256.527 241.56 256.897 242.176 257.137C242.792 257.377 243.452 257.482 244.112 257.443Z" fill="black"/>
<path d="M248.489 281.04C247.649 280.153 246.492 279.635 245.271 279.599C244.051 279.563 242.865 280.011 241.974 280.847C241.088 281.688 240.57 282.846 240.534 284.068C240.498 285.289 240.947 286.476 241.782 287.367L247.699 293.65L254.406 287.322L248.489 281.04Z" fill="#3F3D56"/>
<path d="M259.837 293.088L254.082 286.978L247.375 293.306L253.13 299.416C253.97 300.303 255.127 300.821 256.348 300.857C257.568 300.893 258.754 300.444 259.645 299.608C260.531 298.767 261.049 297.61 261.085 296.388C261.121 295.166 260.672 293.98 259.837 293.088Z" fill="#F9DC25"/>
<path opacity="0.2" d="M261.079 296.053C260.971 297.154 260.469 298.18 259.665 298.939C258.774 299.775 257.588 300.224 256.368 300.188C255.147 300.152 253.99 299.634 253.15 298.747L247.719 292.981L247.375 293.305L253.13 299.416C253.97 300.303 255.127 300.821 256.348 300.857C257.568 300.893 258.754 300.444 259.645 299.608C260.125 299.154 260.502 298.601 260.749 297.987C260.997 297.374 261.109 296.714 261.079 296.053Z" fill="black"/>
<path d="M215.916 280.538C215.075 279.651 213.919 279.133 212.698 279.097C211.477 279.061 210.292 279.51 209.401 280.346C208.515 281.187 207.997 282.344 207.961 283.566C207.925 284.788 208.373 285.974 209.209 286.866L215.126 293.148L221.833 286.821L215.916 280.538Z" fill="#3F3D56"/>
<path d="M227.264 292.587L221.509 286.476L214.802 292.804L220.557 298.914C221.397 299.801 222.554 300.319 223.775 300.355C224.995 300.391 226.181 299.942 227.072 299.107C227.958 298.266 228.476 297.108 228.512 295.886C228.548 294.665 228.099 293.478 227.264 292.587Z" fill="#F9DC25"/>
<path opacity="0.2" d="M228.506 295.551C228.398 296.653 227.895 297.678 227.091 298.438C226.2 299.274 225.015 299.723 223.794 299.686C222.574 299.65 221.417 299.132 220.577 298.245L215.146 292.479L214.802 292.804L220.557 298.914C221.397 299.801 222.554 300.319 223.775 300.355C224.995 300.391 226.181 299.942 227.072 299.107C227.552 298.652 227.929 298.099 228.176 297.486C228.424 296.872 228.536 296.212 228.506 295.551Z" fill="black"/>
<path d="M225.085 263.991C225.085 265.524 224.556 267.011 223.587 268.199C222.618 269.387 221.269 270.203 219.767 270.51C218.89 270.687 217.986 270.687 217.109 270.51C215.608 270.203 214.258 269.386 213.29 268.199C212.321 267.011 211.792 265.524 211.792 263.991C211.792 262.458 212.321 260.971 213.29 259.783C214.258 258.596 215.608 257.779 217.109 257.472C217.986 257.295 218.89 257.295 219.767 257.472C221.269 257.779 222.618 258.595 223.587 259.783C224.556 260.971 225.085 262.458 225.085 263.991Z" fill="#F9DC25"/>
<path opacity="0.2" d="M219.767 257.472V270.51C218.89 270.687 217.986 270.687 217.109 270.51V257.472C217.986 257.295 218.89 257.295 219.767 257.472Z" fill="black"/>
<path d="M228.091 237.41C228.092 238.943 227.563 240.43 226.594 241.618C225.625 242.806 224.275 243.622 222.774 243.929C221.897 244.106 220.993 244.106 220.116 243.929C218.614 243.622 217.265 242.805 216.296 241.617C215.328 240.429 214.798 238.943 214.798 237.41C214.798 235.876 215.328 234.39 216.296 233.202C217.265 232.014 218.614 231.198 220.116 230.891C220.993 230.714 221.897 230.714 222.774 230.891C224.275 231.198 225.625 232.014 226.594 233.202C227.563 234.39 228.092 235.876 228.091 237.41Z" fill="#F9DC25"/>
<path opacity="0.2" d="M222.774 230.891V243.929C221.897 244.106 220.993 244.106 220.116 243.929V230.891C220.993 230.714 221.897 230.714 222.774 230.891Z" fill="black"/>
<path d="M228.091 275.526C228.092 277.06 227.563 278.546 226.594 279.734C225.625 280.922 224.275 281.738 222.774 282.045C221.897 282.223 220.993 282.223 220.116 282.045C218.614 281.738 217.265 280.922 216.296 279.734C215.328 278.546 214.798 277.06 214.798 275.526C214.798 273.993 215.328 272.507 216.296 271.319C217.265 270.131 218.614 269.314 220.116 269.007C220.993 268.83 221.897 268.83 222.774 269.007C224.275 269.314 225.625 270.131 226.594 271.318C227.563 272.506 228.092 273.993 228.091 275.526Z" fill="#F9DC25"/>
<path opacity="0.2" d="M222.774 269.007V282.045C221.897 282.223 220.993 282.223 220.116 282.045V269.007C220.993 268.83 221.897 268.83 222.774 269.007Z" fill="black"/>
<path d="M244.628 294.083C244.629 295.617 244.1 297.103 243.131 298.291C242.162 299.479 240.813 300.295 239.311 300.602C238.434 300.779 237.53 300.779 236.653 300.602C235.152 300.295 233.802 299.478 232.834 298.291C231.865 297.103 231.335 295.616 231.335 294.083C231.335 292.55 231.865 291.063 232.834 289.875C233.802 288.688 235.152 287.871 236.653 287.564C237.53 287.387 238.434 287.387 239.311 287.564C240.813 287.871 242.162 288.687 243.131 289.875C244.1 291.063 244.629 292.55 244.628 294.083Z" fill="#F9DC25"/>
<path opacity="0.2" d="M239.311 287.564V300.602C238.434 300.779 237.53 300.779 236.653 300.602V287.564C237.53 287.387 238.434 287.387 239.311 287.564Z" fill="black"/>
<path d="M259.237 259.941C260.341 261.005 261.043 262.418 261.225 263.94C261.407 265.463 261.058 267.002 260.237 268.296C259.756 269.051 259.128 269.703 258.392 270.212C257.129 271.081 255.606 271.486 254.079 271.36C252.552 271.234 251.115 270.584 250.012 269.52C248.909 268.455 248.207 267.043 248.025 265.52C247.843 263.998 248.191 262.459 249.012 261.164C249.494 260.409 250.121 259.757 250.857 259.248C252.12 258.379 253.644 257.974 255.171 258.1C256.698 258.226 258.134 258.876 259.237 259.941Z" fill="#F9DC25"/>
<path opacity="0.2" d="M250.858 259.248L260.237 268.296C259.756 269.051 259.129 269.703 258.392 270.212L249.013 261.164C249.494 260.409 250.121 259.757 250.858 259.248Z" fill="black"/>
<path d="M261.242 274.485C262.345 275.549 263.048 276.962 263.23 278.485C263.412 280.007 263.063 281.546 262.242 282.841C261.761 283.596 261.133 284.247 260.397 284.756C259.134 285.625 257.611 286.031 256.084 285.904C254.557 285.778 253.12 285.128 252.017 284.064C250.914 283 250.212 281.587 250.03 280.064C249.847 278.542 250.196 277.003 251.017 275.708C251.498 274.953 252.126 274.302 252.862 273.793C254.125 272.924 255.648 272.518 257.175 272.644C258.702 272.77 260.139 273.421 261.242 274.485Z" fill="#F9DC25"/>
<path opacity="0.2" d="M252.862 273.793L262.242 282.841C261.76 283.596 261.133 284.247 260.397 284.756L251.017 275.708C251.498 274.953 252.126 274.302 252.862 273.793Z" fill="black"/>
<path d="M201.608 277.996C202.711 279.06 203.413 280.473 203.596 281.995C203.778 283.518 203.429 285.057 202.607 286.351C202.126 287.107 201.499 287.758 200.762 288.267C199.5 289.136 197.976 289.541 196.449 289.415C194.922 289.289 193.486 288.639 192.383 287.575C191.28 286.511 190.577 285.098 190.395 283.575C190.213 282.053 190.562 280.514 191.383 279.219C191.864 278.464 192.491 277.813 193.228 277.304C194.49 276.435 196.014 276.029 197.541 276.155C199.068 276.281 200.505 276.932 201.608 277.996Z" fill="#F9DC25"/>
<path opacity="0.2" d="M193.228 277.303L202.607 286.351C202.126 287.107 201.499 287.758 200.762 288.267L191.383 279.219C191.864 278.464 192.491 277.813 193.228 277.303Z" fill="black"/>
<path opacity="0.2" d="M180.155 158.537H177.649V177.094H180.155V158.537Z" fill="black"/>
<path opacity="0.2" d="M194.687 158.537H192.182V177.094H194.687V158.537Z" fill="black"/>
<path opacity="0.2" d="M209.22 158.537H206.714V177.094H209.22V158.537Z" fill="black"/>
<path opacity="0.2" d="M223.753 158.537H221.247V177.094H223.753V158.537Z" fill="black"/>
<path opacity="0.2" d="M238.285 158.537H235.78V177.094H238.285V158.537Z" fill="black"/>
<path opacity="0.2" d="M252.818 158.537H250.312V177.094H252.818V158.537Z" fill="black"/>
<path opacity="0.2" d="M267.351 158.537H264.845V177.094H267.351V158.537Z" fill="black"/>
</g>
<defs>
<clipPath id="clip0">
<rect width="445" height="310" fill="white"/>
</clipPath>
</defs>
</svg>
