<svg width="520" height="248" viewBox="0 0 520 248" fill="none" xmlns="http://www.w3.org/2000/svg">
<g clip-path="url(#clip0)">
<path d="M259.27 207.44L256.721 210.051L256.475 204.872L256.169 212.519L253.821 210.112L256.148 213.047L255.378 232.383H257.784L256.748 210.62L259.27 207.44Z" fill="#E6E6E6"/>
<path d="M264.013 213.879L261.464 216.49L261.218 211.311L260.913 218.958L258.564 216.551L260.892 219.486L260.121 238.822H262.527L261.491 217.059L264.013 213.879Z" fill="#E6E6E6"/>
<path d="M271.126 210.367L268.578 212.978L268.331 207.799L268.026 215.446L265.677 213.039L268.005 215.974L267.234 235.31H269.64L268.605 213.546L271.126 210.367Z" fill="#E6E6E6"/>
<path d="M253.737 213.294L251.188 215.905L250.941 210.726L250.637 218.373L248.288 215.966L250.616 218.901L249.845 238.237H252.251L251.215 216.473L253.737 213.294Z" fill="#E6E6E6"/>
<path d="M199.685 0H7.61279V245.847H199.685V0Z" fill="#E6E6E6"/>
<path d="M186.537 14.8242H20.3623V119.99H186.537V14.8242Z" fill="white"/>
<path d="M186.538 115.677H20.3608V228.391H186.538V115.677Z" fill="white"/>
<path d="M107.766 14.2849H99.1333V119.99H107.766V14.2849Z" fill="#3F3D56"/>
<path d="M186.537 14.2849H177.904V119.99H186.537V14.2849Z" fill="#3F3D56"/>
<path d="M186.537 111.361H20.3623V119.99H186.537V111.361Z" fill="#3F3D56"/>
<path d="M43.8462 71.4521L28.9946 81.4312V89.6869L51.4934 71.4521H43.8462Z" fill="white"/>
<path d="M68.3161 71.4521L28.9946 102.222V109.255L80.2451 71.4521H68.3161Z" fill="#E6E6E6"/>
<path d="M28.9947 14.2849H20.3623V119.99H28.9947V14.2849Z" fill="#3F3D56"/>
<path d="M162.525 22.914L129.347 64.9802L139.598 66.0584L168.193 21.2961L162.525 22.914Z" fill="#E6E6E6"/>
<path d="M186.537 14.2849H20.3623V22.9139H186.537V14.2849Z" fill="#3F3D56"/>
<path d="M186.537 62.8232H20.3623V71.4522H186.537V62.8232Z" fill="#3F3D56"/>
<path d="M514.144 0H322.072V245.847H514.144V0Z" fill="#E6E6E6"/>
<path d="M500.982 14.5154H334.808V119.681H500.982V14.5154Z" fill="white"/>
<path d="M500.98 115.366H334.809V228.081H500.98V115.366Z" fill="white"/>
<path d="M422.211 13.9761H413.579V119.681H422.211V13.9761Z" fill="#3F3D56"/>
<path d="M500.982 13.9761H492.35V119.681H500.982V13.9761Z" fill="#3F3D56"/>
<path d="M500.982 111.052H334.808V119.681H500.982V111.052Z" fill="#3F3D56"/>
<path d="M358.292 71.1428L343.439 81.1224V89.3776L365.938 71.1428H358.292Z" fill="#E6E6E6"/>
<path d="M382.762 71.1428L343.439 101.913V108.946L394.69 71.1428H382.762Z" fill="#E6E6E6"/>
<path d="M343.44 13.9761H334.808V119.681H343.44V13.9761Z" fill="#3F3D56"/>
<path d="M476.971 22.605L443.792 64.6711L454.043 65.7493L482.638 20.9871L476.971 22.605Z" fill="#E6E6E6"/>
<path d="M500.982 13.9761H334.808V22.605H500.982V13.9761Z" fill="#3F3D56"/>
<path d="M500.982 62.5139H334.808V71.1429H500.982V62.5139Z" fill="#3F3D56"/>
<path d="M414.22 140.919C414.22 140.919 414.852 143.026 411.27 144.921C407.687 146.817 406.634 153.978 410.848 156.085C415.063 158.191 416.327 160.929 414.22 162.825C412.113 164.72 408.32 169.776 413.377 171.039C418.434 172.303 419.066 174.831 417.591 175.884C416.116 176.937 420.963 173.988 420.963 173.988C420.963 173.988 421.805 179.043 426.23 177.78C430.656 176.516 443.088 152.504 436.766 149.134C430.445 145.764 414.22 140.919 414.22 140.919Z" fill="#2F2E41"/>
<path d="M408.47 188.957L388.251 203.159C388.251 203.159 372.951 187.318 372.951 178.032C372.951 168.747 364.754 151.268 360.929 158.369C357.104 165.469 365.301 182.402 365.301 182.402L380.601 218.453C380.601 218.453 389.344 220.091 394.262 216.268C399.18 212.444 412.841 204.797 412.841 204.797L408.47 188.957Z" fill="#FFB9B9"/>
<path d="M428.415 165.196C436.865 165.196 443.715 158.349 443.715 149.902C443.715 141.455 436.865 134.608 428.415 134.608C419.965 134.608 413.115 141.455 413.115 149.902C413.115 158.349 419.965 165.196 428.415 165.196Z" fill="#FFB9B9"/>
<path d="M420.491 160.553C420.491 160.553 425.955 174.755 423.77 178.032C421.584 181.31 418.852 181.31 416.666 182.402C415.573 182.948 404.098 187.318 404.098 190.595C404.15 192.701 404.713 194.763 405.737 196.604L407.376 205.89L421.037 214.629L439.07 212.444L452.731 204.797C452.731 204.797 454.917 184.587 448.906 181.31C442.895 178.032 435.791 170.385 436.338 167.654C436.884 164.923 437.431 158.368 437.431 158.368L420.491 160.553Z" fill="#FFB9B9"/>
<path d="M449.455 202.068V202.086L448.963 206.909L448.336 213.096L447.622 220.091L446.814 228.081H407.216C406.683 223.715 405.741 219.084 404.095 216.269C403.061 214.594 402.6 212.627 402.783 210.667C403.152 207.009 405.735 204.457 405.735 203.707C405.735 202.888 401.132 198.082 398.831 195.723C398.058 194.933 397.542 194.418 397.542 194.418L404.646 188.957L404.745 189.126L405.741 190.871L409.014 196.601L407.925 200.974C407.925 200.974 409.617 201.266 411.971 201.641C416.041 202.279 422.096 203.157 424.86 203.157C427.425 203.157 430.558 204.474 433.146 205.229C433.228 205.253 433.304 205.276 433.38 205.3C435.008 205.756 436.402 205.967 437.28 205.44C437.333 205.41 437.384 205.377 437.433 205.341C437.891 205.031 438.386 204.781 438.908 204.597H438.914C440.807 203.928 442.744 203.392 444.711 202.993C446.925 202.507 448.869 202.168 449.343 202.086C449.344 202.085 449.345 202.085 449.346 202.084C449.347 202.084 449.348 202.083 449.349 202.083C449.35 202.083 449.351 202.084 449.352 202.084C449.353 202.085 449.354 202.085 449.355 202.086C449.419 202.074 449.455 202.068 449.455 202.068Z" fill="#F9DC25"/>
<path d="M451.159 201.237C451.118 201.53 451.083 201.829 451.048 202.121C450.878 203.409 450.737 204.697 450.614 205.984C450.275 209.403 450.07 212.831 449.999 216.269C449.979 217.553 449.844 218.832 449.595 220.091C449.052 222.802 448.32 225.472 447.405 228.081H431.934C432.344 225.038 432.894 220.355 433.164 215.45V215.444C433.205 214.683 433.234 213.916 433.263 213.149C433.365 210.572 433.329 207.991 433.158 205.417C433.152 205.352 433.152 205.288 433.146 205.229C433.117 204.896 433.088 204.574 433.058 204.252C431.969 193.329 438.522 181.312 438.522 181.312C440.741 181.312 442.908 182.535 444.84 184.221C447.2 186.329 449.009 188.981 450.11 191.946C451.211 194.912 451.571 198.101 451.159 201.237Z" fill="#FFB9B9"/>
<path opacity="0.1" d="M449.999 216.269C449.979 217.553 449.844 218.832 449.595 220.091C449.051 222.802 448.32 225.472 447.405 228.081H431.816C432.293 223.16 432.439 218.213 432.256 213.272C432.226 212.546 432.185 211.809 432.127 211.077V211.065C432.086 210.433 432.033 209.801 431.969 209.169C431.872 208.438 431.912 207.696 432.086 206.979V206.968C432.21 206.424 432.508 205.935 432.935 205.575C433.004 205.515 433.079 205.463 433.157 205.417C433.227 205.37 433.302 205.33 433.38 205.3C433.451 205.26 433.526 205.227 433.602 205.2C434.213 204.998 434.863 204.942 435.5 205.036C436.106 205.108 436.702 205.244 437.28 205.44C439.86 206.385 442.271 207.741 444.418 209.455C445.846 210.531 447.159 211.751 448.336 213.096C449.366 214.314 449.999 215.438 449.999 216.269Z" fill="black"/>
<path d="M431.42 208.075L433.162 215.449L442.895 220.091H451.092L454.917 202.612C454.917 202.612 448.163 201.185 444.71 202.991C441.256 204.797 433.145 205.229 433.145 205.229L431.42 208.075Z" fill="#F9DC25"/>
<path d="M428.539 134.552C428.539 134.552 429.24 136.885 425.271 138.985C421.303 141.085 420.136 149.019 424.805 151.352C429.473 153.686 430.874 156.719 428.539 158.819C426.205 160.919 422.003 166.519 427.606 167.919C433.208 169.319 433.908 172.119 432.274 173.286C430.64 174.453 436.009 171.186 436.009 171.186C436.009 171.186 436.943 176.786 441.845 175.386C446.747 173.986 451.638 148.537 446.174 141.982C441.093 135.888 428.539 134.552 428.539 134.552Z" fill="#2F2E41"/>
<path d="M427.048 132.15C427.049 128.732 448.305 132.484 452.692 137.257C455.73 140.563 460.343 145.535 456.477 149.04C452.611 152.546 452.08 155.844 454.895 157.237C457.709 158.63 463.266 162.891 458.248 165.749C453.231 168.607 453.312 171.492 455.2 172.175C457.088 172.858 451.037 171.159 451.037 171.159C451.037 171.159 451.648 176.804 446.55 176.777C441.452 176.75 426.826 148.743 430.32 140.958C433.569 133.72 427.048 132.15 427.048 132.15Z" fill="#2F2E41"/>
<path d="M429.264 131.401C415.582 130.577 414.209 140.872 414.209 140.872C414.304 146.83 423.768 143.927 426.397 144.815C429.569 142.535 435.682 138.22 440.054 135.14C436.88 132.906 433.141 131.61 429.264 131.401Z" fill="#2F2E41"/>
<path d="M243.705 224.774L244.775 231.506C244.775 235.464 246.348 239.261 249.149 242.06C251.949 244.86 255.747 246.432 259.708 246.432C263.668 246.432 267.466 244.86 270.266 242.06C273.067 239.261 274.64 235.464 274.64 231.506L274.647 231.413L275.71 224.774H243.705Z" fill="#E6E6E6"/>
<path d="M520 245.753H0V246.923H520V245.753Z" fill="#3F3D56"/>
<path d="M54.0111 226.781V230.222C54.0111 230.222 51.7162 248 45.4053 248C39.0943 248 44.2578 229.648 44.2578 229.648V226.781L54.0111 226.781Z" fill="#9E616A"/>
<path d="M149.822 161.977L148.675 159.109C148.675 159.109 141.217 148.213 146.38 145.345C151.543 142.478 157.854 156.815 157.854 156.815L159.002 161.403L149.822 161.977Z" fill="#9E616A"/>
<path d="M126.013 158.476C134.377 158.476 141.157 151.699 141.157 143.338C141.157 134.978 134.377 128.2 126.013 128.2C117.649 128.2 110.869 134.978 110.869 143.338C110.869 151.699 117.649 158.476 126.013 158.476Z" fill="#9E616A"/>
<path d="M115.112 145.059L104.786 153.088L119.129 165.131L127.16 155.382L115.112 145.059Z" fill="#9E616A"/>
<path d="M124.537 228.391H71.7988L75.7984 185.995L78.7673 154.509V154.503C78.8308 153.827 79.027 153.171 79.3446 152.571C79.6622 151.972 80.0951 151.44 80.6183 151.008C81.1416 150.576 81.745 150.251 82.394 150.052C83.043 149.853 83.7249 149.784 84.4006 149.849L106.284 151.921L122.388 161.176L122.856 165.42L138.924 176.887L128.003 197.655L121.134 210.726L124.537 228.391Z" fill="#F9DC25"/>
<path d="M79.2547 181.475L64.338 200.974L55.1584 228.501H41.3892L51.1424 187.784L76.8873 152.596C77.5496 151.695 78.4852 151.033 79.5548 150.707C80.6243 150.382 81.7705 150.411 82.8223 150.789C83.151 150.925 83.4939 151.022 83.8444 151.08L79.2547 181.475Z" fill="#F9DC25"/>
<path d="M126.3 196.959L162.158 211.583L168.468 205.275L159.576 159.109L148.101 161.403L152.691 188.931L138.922 176.888L134.332 175.74L126.3 196.959Z" fill="#F9DC25"/>
<path d="M111.183 148.242C110.458 142.218 111.132 136.109 113.155 130.389C116.515 121.374 127.227 124.091 133.328 126.135C139.428 128.18 147.511 136.732 145.408 141.4C143.305 146.068 133.323 140.171 129.763 137.164C126.202 134.157 119.982 143.289 119.982 143.289L111.183 148.242Z" fill="#2F2E41"/>
<path d="M121.913 142.823C122.472 141.286 122.232 139.788 121.378 139.477C120.523 139.167 119.378 140.162 118.818 141.699C118.259 143.236 118.499 144.734 119.353 145.045C120.208 145.355 121.353 144.361 121.913 142.823Z" fill="#9E616A"/>
</g>
<defs>
<clipPath id="clip0">
<rect width="520" height="248" fill="white"/>
</clipPath>
</defs>
</svg>
