<svg width="380" height="289" viewBox="0 0 380 289" fill="none" xmlns="http://www.w3.org/2000/svg">
<g clip-path="url(#clip0)">
<path d="M380 260.946H0.09375V289H380V260.946Z" fill="#E6E6E6"/>
<path d="M379.473 260.97H0V260.032H379.643L379.473 260.97Z" fill="#3F3D56"/>
<path d="M298.051 107.985V191.034H82.043V107.985C82.0427 80.4248 92.5821 53.9072 111.503 33.8641C130.423 13.821 156.292 1.76948 183.811 0.178133C185.874 0.057922 187.952 -0.00144636 190.047 2.67507e-05C191.24 2.67507e-05 192.429 0.0178274 193.61 0.0623604C221.014 0.929406 247.054 12.22 266.415 31.6297C266.999 32.213 267.573 32.8008 268.148 33.3976C287.347 53.4846 298.058 80.2012 298.051 107.985V107.985Z" fill="#E6E6E6"/>
<path d="M193.61 0.0623801V191.034H183.812V0.178133C185.874 0.057922 187.953 -0.00144636 190.047 2.67506e-05C191.241 2.67506e-05 192.43 0.0178298 193.61 0.0623801Z" fill="white"/>
<path d="M276.455 43.1941H103.64C106.212 39.7672 108.986 36.4959 111.946 33.3975H268.148C271.108 36.4959 273.882 39.7672 276.455 43.1941V43.1941Z" fill="white"/>
<path d="M281.612 71.2481H205.056V200.831H281.612V71.2481Z" fill="white"/>
<path d="M231.753 93.1398H220.173V104.718H231.753V93.1398Z" fill="#E6E6E6"/>
<path d="M250.41 93.1398H238.83V104.718H250.41V93.1398Z" fill="#E6E6E6"/>
<path d="M269.066 93.1398H257.486V104.718H269.066V93.1398Z" fill="#E6E6E6"/>
<path d="M232.075 119.512H220.495V131.09H232.075V119.512Z" fill="#E6E6E6"/>
<path d="M250.732 119.512H239.152V131.09H250.732V119.512Z" fill="#E6E6E6"/>
<path d="M269.389 119.512H257.809V131.09H269.389V119.512Z" fill="#E6E6E6"/>
<path d="M232.397 145.884H220.817V157.462H232.397V145.884Z" fill="#E6E6E6"/>
<path d="M251.053 145.884H239.473V157.462H251.053V145.884Z" fill="#E6E6E6"/>
<path d="M269.71 145.884H258.13V157.462H269.71V145.884Z" fill="#E6E6E6"/>
<path d="M232.718 172.257H221.138V183.835H232.718V172.257Z" fill="#E6E6E6"/>
<path d="M251.375 172.257H239.794V183.835H251.375V172.257Z" fill="#E6E6E6"/>
<path d="M270.032 172.257H258.452V183.835H270.032V172.257Z" fill="#E6E6E6"/>
<path d="M232.718 172.257H221.138V183.835H232.718V172.257Z" fill="#E6E6E6"/>
<path d="M251.375 172.257H239.794V183.835H251.375V172.257Z" fill="#E6E6E6"/>
<path d="M270.032 172.257H258.452V183.835H270.032V172.257Z" fill="#E6E6E6"/>
<path d="M107.719 164.686C116.534 164.686 123.68 157.541 123.68 148.728C123.68 139.915 116.534 132.771 107.719 132.771C98.9049 132.771 91.7593 139.915 91.7593 148.728C91.7593 157.541 98.9049 164.686 107.719 164.686Z" fill="white"/>
<path d="M107.763 148.728H107.807L108.596 193.97H106.93L107.763 148.728Z" fill="white"/>
<path d="M110.669 173.371L110.302 172.673L107.663 174.062L108.031 174.76L110.669 173.371Z" fill="white"/>
<path d="M154.642 149.438C168.046 149.438 178.912 138.573 178.912 125.172C178.912 111.77 168.046 100.905 154.642 100.905C141.238 100.905 130.372 111.77 130.372 125.172C130.372 138.573 141.238 149.438 154.642 149.438Z" fill="white"/>
<path d="M154.709 125.171H154.775L155.975 193.97H153.442L154.709 125.171Z" fill="white"/>
<path d="M159.128 162.646L158.569 161.584L154.557 163.696L155.116 164.758L159.128 162.646Z" fill="white"/>
<path d="M104.584 102L108.684 98.7216C105.499 98.3703 104.19 100.107 103.654 101.482C101.166 100.449 98.457 101.803 98.457 101.803L106.66 104.78C106.247 103.675 105.526 102.711 104.584 102V102Z" fill="white"/>
<path d="M147.785 75.2823L151.885 72.0036C148.7 71.6523 147.391 73.3891 146.856 74.7637C144.368 73.7307 141.659 75.0846 141.659 75.0846L149.862 78.0622C149.448 76.957 148.728 75.9927 147.785 75.2823V75.2823Z" fill="white"/>
<path d="M131.306 100.664L135.406 97.3858C132.221 97.0344 130.912 98.7712 130.377 100.146C127.889 99.1128 125.18 100.467 125.18 100.467L133.383 103.444C132.969 102.339 132.249 101.375 131.306 100.664V100.664Z" fill="white"/>
<path d="M309.408 181.237H70.686V200.831H309.408V181.237Z" fill="#E6E6E6"/>
<path d="M35.0308 232.24C35.0308 232.24 -13.2575 210.014 3.70613 194.601C20.6698 179.189 35.0308 232.24 35.0308 232.24Z" fill="#E6E6E6"/>
<path d="M34.1901 237.426C34.1901 237.426 11.995 164.512 44.6781 167.999C77.3612 171.486 34.1901 237.426 34.1901 237.426Z" fill="#E6E6E6"/>
<path d="M18.0078 230.959L18.9394 243.156L18.9542 243.367C18.9533 245.271 19.0495 247.175 19.2425 249.07C20.5068 261.511 25.9408 267.18 32.2917 267.18C38.6425 267.18 43.84 261.511 45.1043 249.07C45.2972 247.175 45.3935 245.271 45.3926 243.367L45.4 243.197L45.4037 243.156L46.339 230.959H18.0078Z" fill="#E6E6E6"/>
<path d="M45.4038 243.156L45.4001 243.197L45.3927 243.367C45.3936 245.271 45.2973 247.175 45.1043 249.07H19.2426C19.0496 247.175 18.9534 245.271 18.9542 243.367L18.9395 243.156H45.4038Z" fill="white"/>
<path d="M358.121 232.24C358.121 232.24 309.832 210.014 326.796 194.601C343.76 179.189 358.121 232.24 358.121 232.24Z" fill="#E6E6E6"/>
<path d="M357.28 237.426C357.28 237.426 335.085 164.512 367.768 167.999C400.451 171.486 357.28 237.426 357.28 237.426Z" fill="#E6E6E6"/>
<path d="M341.098 230.959L342.029 243.156L342.044 243.367C342.043 245.271 342.139 247.175 342.332 249.07C343.597 261.511 349.031 267.18 355.382 267.18C361.732 267.18 366.93 261.511 368.194 249.07C368.387 247.175 368.483 245.271 368.482 243.367L368.49 243.197L368.494 243.156L369.429 230.959H341.098Z" fill="#E6E6E6"/>
<path d="M368.494 243.156L368.49 243.197L368.483 243.367C368.483 245.271 368.387 247.175 368.194 249.07H342.332C342.139 247.175 342.043 245.271 342.044 243.367L342.029 243.156H368.494Z" fill="white"/>
<path d="M294.006 276.395L290.84 276.766C288.34 278.274 285.405 278.841 282.154 278.726C281.7 278.712 281.258 278.58 280.871 278.343C280.484 278.106 280.166 277.772 279.947 277.374V277.374C279.758 277.025 279.652 276.636 279.638 276.239C279.623 275.843 279.7 275.448 279.863 275.085C280.026 274.723 280.27 274.403 280.577 274.151C280.884 273.899 281.245 273.72 281.632 273.63L284.037 273.07L289.842 267.394L293.344 261.058L298.43 261.641L299.489 269.689C299.623 271.3 299.127 272.899 298.104 274.15C297.081 275.401 295.611 276.206 294.006 276.395V276.395Z" fill="#FFB8B8"/>
<path d="M244.7 272.323L241.597 273.053C239.284 274.835 236.433 275.733 233.19 275.989C232.738 276.027 232.284 275.946 231.872 275.755C231.46 275.563 231.106 275.268 230.844 274.897V274.897C230.616 274.572 230.467 274.198 230.407 273.805C230.347 273.413 230.379 273.012 230.499 272.633C230.62 272.255 230.826 271.909 231.102 271.624C231.378 271.338 231.717 271.12 232.091 270.986L234.417 270.156L239.537 263.855L242.294 257.161H247.414L249.383 265.037C249.7 266.621 249.388 268.267 248.515 269.626C247.641 270.986 246.273 271.953 244.7 272.323Z" fill="#FFB8B8"/>
<path d="M242.156 257.606L247.946 258.497L257.076 212.408L272.887 185.468L292.038 263.841L299.164 265.176C298.365 221.042 302.265 165.478 293.374 158.75L254.626 163.203L237.702 208.623L242.156 257.606Z" fill="#2F2E41"/>
<path d="M270.214 90.1734C277.593 90.1734 283.576 84.1923 283.576 76.8143C283.576 69.4364 277.593 63.4553 270.214 63.4553C262.835 63.4553 256.853 69.4364 256.853 76.8143C256.853 84.1923 262.835 90.1734 270.214 90.1734Z" fill="#FFB8B8"/>
<path d="M288.921 97.2982L272.887 99.97L268.879 85.7202L280.458 82.1581L288.921 97.2982Z" fill="#FFB8B8"/>
<path d="M295.601 160.531L252.845 164.539C256.273 152.622 259.413 140.747 256.854 128.914C253.603 118.351 256.74 112.07 265.316 107.095L271.106 94.181L286.694 92.3998C290.822 99.0359 292.51 106.902 291.47 114.647C289.249 131.49 289.848 147.119 295.601 160.531Z" fill="#F9DC25"/>
<path d="M269.914 61.0366C265.455 62.0552 260.38 63.4985 260.095 64.8399C255.508 65.9956 252.046 68.7639 251.339 72.9842C251.28 73.349 251.301 73.7222 251.402 74.0777C251.503 74.4332 251.68 74.7623 251.922 75.0417C252.164 75.3212 252.464 75.5442 252.802 75.6952C253.139 75.8461 253.505 75.9212 253.875 75.9153C256.369 75.8832 260.114 75.6443 262.587 74.6116C269.77 79.2394 270.976 91.2757 267.839 99.4687L272.776 99.0162L277.883 84.068L279.187 98.4287L290.453 96.9394L289.002 78.627C288.556 74.3109 287.087 70.1634 284.716 66.5287C284.47 66.1637 284.201 65.8149 283.91 65.4843C282.196 63.5485 279.99 62.1128 277.526 61.3297C275.062 60.5466 272.431 60.4453 269.914 61.0366V61.0366Z" fill="#2F2E41"/>
<path d="M241.62 280.988C241.596 281.206 241.617 281.426 241.684 281.635C241.75 281.844 241.86 282.037 242.005 282.201C242.15 282.365 242.329 282.497 242.528 282.588C242.728 282.679 242.944 282.727 243.163 282.73L248.174 282.781C248.444 282.762 248.696 282.642 248.881 282.444C249.065 282.246 249.168 281.986 249.168 281.716V281.716C249.168 281.502 249.104 281.293 248.984 281.117C248.864 280.94 248.694 280.803 248.496 280.724L247.018 280.133L244.868 277.123H243.148C242.304 278.249 241.776 279.581 241.621 280.979L241.62 280.988H241.62Z" fill="#FFB8B8"/>
<path d="M229.628 280.988C229.652 281.206 229.63 281.426 229.564 281.635C229.498 281.844 229.388 282.037 229.243 282.201C229.098 282.365 228.919 282.497 228.72 282.588C228.52 282.679 228.304 282.727 228.084 282.73L223.074 282.781C222.804 282.762 222.552 282.642 222.367 282.444C222.183 282.246 222.08 281.986 222.08 281.716V281.716C222.08 281.502 222.144 281.293 222.264 281.117C222.383 280.94 222.553 280.803 222.752 280.724L224.23 280.133L226.38 277.123H228.1C228.944 278.249 229.472 279.581 229.627 280.979L229.628 280.988Z" fill="#FFB8B8"/>
<path d="M225.95 277.123H228.53L237.559 238.003L242.289 277.553H245.298L249.383 226.61L228.53 226.396L225.95 277.123Z" fill="#3F3D56"/>
<path d="M214.34 205.33H217.78V197.162L218.563 195.598C218.72 195.284 218.8 194.937 218.798 194.586C218.795 194.235 218.71 193.889 218.549 193.577C218.388 193.266 218.155 192.996 217.87 192.791C217.585 192.587 217.255 192.452 216.908 192.399V192.399C216.59 192.35 216.266 192.37 215.957 192.458C215.648 192.547 215.362 192.701 215.118 192.91C214.874 193.119 214.678 193.378 214.544 193.67C214.41 193.962 214.34 194.28 214.34 194.601V205.33V205.33Z" fill="#FFB8B8"/>
<path d="M234.764 185.125C239.157 185.125 242.718 181.565 242.718 177.172C242.718 172.78 239.157 169.219 234.764 169.219C230.371 169.219 226.81 172.78 226.81 177.172C226.81 181.565 230.371 185.125 234.764 185.125Z" fill="#FFB8B8"/>
<path d="M231.539 190.714H239.708V181.256H231.539V190.714Z" fill="#FFB8B8"/>
<path d="M227.669 227.685C234.9 232.147 242.546 231.71 250.458 228.115L248.738 188.135L239.709 187.705L230.249 188.994L225.52 192.863L227.669 227.685Z" fill="#F9DC25"/>
<path d="M219.07 213.499L228.529 206.19L225.519 192.864L219.93 203.181L218.21 201.461L213.05 205.331L219.07 213.499Z" fill="#F9DC25"/>
<path d="M261.059 188.821L258.05 190.488L254.09 183.344L252.647 182.355C252.357 182.156 252.119 181.892 251.951 181.584C251.783 181.276 251.69 180.932 251.68 180.581C251.67 180.23 251.742 179.882 251.893 179.565C252.043 179.247 252.266 178.97 252.543 178.755V178.755C252.797 178.558 253.091 178.419 253.404 178.346C253.717 178.274 254.042 178.27 254.357 178.334C254.672 178.399 254.969 178.531 255.227 178.721C255.486 178.912 255.701 179.156 255.857 179.437L257.099 181.677L261.059 188.821Z" fill="#FFB8B8"/>
<path d="M244.223 200.817L255.639 194.757L261.637 191.574L262.497 186.415L258.627 182.546L253.897 185.555L254.327 188.994L248.738 188.135L244.223 200.817Z" fill="#F9DC25"/>
<path d="M236.484 183.621C241.708 183.621 245.943 179.386 245.943 174.163C245.943 168.94 241.708 164.705 236.484 164.705C231.26 164.705 227.024 168.94 227.024 174.163C227.024 179.386 231.26 183.621 236.484 183.621Z" fill="#2F2E41"/>
<path d="M241.643 167.714C244.018 167.714 245.943 165.79 245.943 163.415C245.943 161.041 244.018 159.117 241.643 159.117C239.269 159.117 237.344 161.041 237.344 163.415C237.344 165.79 239.269 167.714 241.643 167.714Z" fill="#2F2E41"/>
<path d="M241.435 167.01C242.287 167.455 243.264 167.601 244.21 167.425C245.155 167.249 246.014 166.762 246.65 166.041C247.285 165.319 247.661 164.406 247.716 163.446C247.771 162.486 247.502 161.535 246.953 160.746C247.451 161.12 247.861 161.597 248.155 162.145C248.45 162.693 248.622 163.298 248.659 163.919C248.697 164.54 248.599 165.162 248.373 165.741C248.147 166.321 247.798 166.844 247.349 167.276C246.901 167.707 246.364 168.036 245.777 168.239C245.189 168.443 244.564 168.516 243.945 168.455C243.326 168.393 242.727 168.198 242.191 167.883C241.655 167.567 241.193 167.139 240.839 166.628C241.027 166.771 241.226 166.899 241.435 167.01V167.01Z" fill="#2F2E41"/>
<path d="M267.988 173.89L268.283 184.228C268.324 185.653 267.823 187.041 266.882 188.111C265.94 189.182 264.628 189.856 263.209 189.998C262.3 190.089 261.383 189.957 260.536 189.615C259.689 189.273 258.938 188.731 258.348 188.034C257.757 187.338 257.345 186.508 257.146 185.617C256.947 184.726 256.967 183.8 257.206 182.918L259.526 174.335L266.206 137.82L265.761 116.446L280.013 116.001L277.341 140.047L267.988 173.89Z" fill="#FFB8B8"/>
<path d="M280.904 118.227C275.74 116.261 270.034 116.261 264.87 118.227L265.761 100.415C265.761 98.5256 266.512 96.7134 267.848 95.3772C269.184 94.041 270.997 93.2904 272.887 93.2904V93.2904C274.777 93.2904 276.589 94.041 277.926 95.3772C279.262 96.7134 280.013 98.5256 280.013 100.415L280.904 118.227Z" fill="#F9DC25"/>
</g>
<defs>
<clipPath id="clip0">
<rect width="380" height="289" fill="white"/>
</clipPath>
</defs>
</svg>
