<svg width="431" height="372" viewBox="0 0 431 372" fill="none" xmlns="http://www.w3.org/2000/svg">
<g clip-path="url(#clip0)">
<path d="M105.027 60.1017C93.0547 60.1017 84.3386 69.0207 81.4003 81.7543L77.7578 100.857H80.3495L85.9647 85.2185L84.7826 100.857H87.6925L89.8522 92.8009L89.3976 100.857H124.408V81.3648C124.408 69.6215 115.731 60.1017 105.027 60.1017H105.027Z" fill="#2F2E41"/>
<path d="M89.2046 162.644C89.2046 162.644 71.4948 187.187 72.3587 197.09C73.2226 206.993 84.4532 368.457 84.4532 368.457L110.802 369.749L103.027 253.495L109.506 222.063L125.488 368.457L157.884 369.318L128.943 179.436L123.328 162.644L89.2046 162.644Z" fill="#2F2E41"/>
<path d="M95.252 87.7249C95.252 87.7249 100.867 98.0586 93.5242 104.948C86.1811 111.837 82.7256 130.351 82.7256 130.351L124.192 127.337L120.737 104.087C120.737 104.087 111.666 98.4891 113.826 88.586L95.252 87.7249Z" fill="#FFB8B8"/>
<path d="M88.3411 115.281C88.3411 115.281 90.9327 123.032 102.163 122.171C109.001 121.602 115.562 119.223 121.169 115.281V165.658L86.6133 164.366V133.796L88.3411 115.281Z" fill="#F9DC25"/>
<path d="M90.5004 165.658L93.0921 157.047C93.0921 157.047 92.2282 136.81 88.7726 128.629C88.7726 128.629 95.3754 107.064 96.3935 100.839L93.0921 103.225L73.2227 112.698L80.1338 148.435L84.8852 156.186L79.962 176.548L90.5004 165.658Z" fill="#3F3D56"/>
<path d="M107.347 163.936L117.281 110.115L114.555 96.7668L122.465 104.517L138.015 109.253L130.672 149.727L126.352 158.338L128.488 177.66L107.347 163.936Z" fill="#3F3D56"/>
<path d="M147.085 200.104C147.085 200.104 151.405 218.618 142.766 220.771C134.127 222.924 137.15 200.104 137.15 200.104H147.085Z" fill="#FFB8B8"/>
<path d="M70.8948 180.887C70.8948 180.887 87.5276 190.184 83.3009 197.997C79.0742 205.81 64.1992 188.203 64.1992 188.203L70.8948 180.887Z" fill="#FFB8B8"/>
<path d="M131.535 110.115L138.014 109.253C138.014 109.253 141.901 114.42 142.333 118.295C142.765 122.171 149.676 187.617 149.676 187.617C150.174 189.046 149.683 190.448 149.244 202.257L147.949 207.424C147.949 207.424 145.357 197.52 135.422 202.687L134.126 196.659C134.126 196.659 131.535 173.839 131.535 163.075C131.535 152.311 130.671 140.685 130.671 140.685L131.535 110.115Z" fill="#3F3D56"/>
<path d="M100.243 371.402C103.635 371.402 106.385 370.374 106.385 369.106C106.385 367.838 103.635 366.81 100.243 366.81C96.8505 366.81 94.1006 367.838 94.1006 369.106C94.1006 370.374 96.8505 371.402 100.243 371.402Z" fill="#2F2E41"/>
<path d="M141.703 371.402C145.095 371.402 147.845 370.374 147.845 369.106C147.845 367.838 145.095 366.81 141.703 366.81C138.31 366.81 135.561 367.838 135.561 369.106C135.561 370.374 138.31 371.402 141.703 371.402Z" fill="#2F2E41"/>
<path d="M77.974 112.267L73.2226 112.698L62.424 154.463C62.424 154.463 61.1122 208.694 71.9268 198.381C71.9268 198.381 68.0393 187.187 77.974 183.311V160.491L81.4296 140.685L77.974 112.267Z" fill="#3F3D56"/>
<path d="M119.441 85.7873C119.799 85.7873 120.089 84.8234 120.089 83.6344C120.089 82.4454 119.799 81.4816 119.441 81.4816C119.083 81.4816 118.793 82.4454 118.793 83.6344C118.793 84.8234 119.083 85.7873 119.441 85.7873Z" fill="#FFB8B8"/>
<path d="M90.0688 85.7873C90.4267 85.7873 90.7167 84.8234 90.7167 83.6344C90.7167 82.4454 90.4267 81.4816 90.0688 81.4816C89.711 81.4816 89.4209 82.4454 89.4209 83.6344C89.4209 84.8234 89.711 85.7873 90.0688 85.7873Z" fill="#FFB8B8"/>
<path d="M104.754 96.7669C112.627 96.7669 119.008 90.4054 119.008 82.5581C119.008 74.7107 112.627 68.3492 104.754 68.3492C96.8818 68.3492 90.5 74.7107 90.5 82.5581C90.5 90.4054 96.8818 96.7669 104.754 96.7669Z" fill="#FFB8B8"/>
<path d="M98.4912 75.0233L98.127 78.4677H107.994L109.29 75.884L109.017 78.4677H120.953L112.746 65.5508L94.6041 65.9811L90.2842 78.4677H96.7638L98.4912 75.0233Z" fill="#2F2E41"/>
<path d="M315.542 236.805C251.878 236.805 200.084 185.175 200.084 121.713C200.084 58.252 251.878 6.62231 315.542 6.62231C379.206 6.62231 431 58.252 431 121.713C431 185.175 379.206 236.805 315.542 236.805ZM315.542 7.7343C252.494 7.7343 201.2 58.865 201.2 121.713C201.2 184.562 252.494 235.693 315.542 235.693C378.591 235.693 429.885 184.562 429.885 121.713C429.885 58.865 378.591 7.7343 315.542 7.7343Z" fill="#E6E6E6"/>
<path d="M315.542 204.557C269.716 204.557 232.435 167.394 232.435 121.713C232.435 76.0335 269.716 38.87 315.542 38.87C361.368 38.87 398.65 76.0335 398.65 121.713C398.65 167.394 361.368 204.557 315.542 204.557ZM315.542 39.982C270.332 39.982 233.55 76.6465 233.55 121.713C233.55 166.78 270.332 203.445 315.542 203.445C360.753 203.445 397.534 166.78 397.534 121.713C397.534 76.6465 360.753 39.982 315.542 39.982Z" fill="#E6E6E6"/>
<path d="M315.542 171.943C305.576 171.943 295.834 168.997 287.547 163.478C279.26 157.958 272.802 150.114 268.988 140.935C265.174 131.757 264.176 121.658 266.121 111.914C268.065 102.171 272.864 93.2205 279.911 86.1958C286.958 79.1711 295.937 74.3872 305.712 72.4491C315.486 70.5109 325.618 71.5056 334.825 75.3074C344.033 79.1091 351.903 85.5471 357.44 93.8073C362.977 102.067 365.932 111.779 365.932 121.713C365.917 135.03 360.603 147.798 351.156 157.214C341.71 166.631 328.902 171.928 315.542 171.943V171.943ZM315.542 72.5959C305.796 72.5959 296.27 75.4767 288.167 80.8738C280.064 86.2709 273.748 93.942 270.019 102.917C266.289 111.892 265.313 121.768 267.215 131.296C269.116 140.824 273.809 149.576 280.7 156.445C287.591 163.314 296.371 167.992 305.929 169.887C315.488 171.782 325.395 170.81 334.399 167.092C343.402 163.374 351.098 157.079 356.512 149.002C361.927 140.924 364.816 131.428 364.816 121.713C364.802 108.691 359.605 96.2064 350.368 86.9983C341.13 77.7902 328.606 72.6106 315.542 72.5959V72.5959Z" fill="#E6E6E6"/>
<path d="M315.542 147.219C329.673 147.219 341.129 135.8 341.129 121.714C341.129 107.627 329.673 96.2081 315.542 96.2081C301.411 96.2081 289.955 107.627 289.955 121.714C289.955 135.8 301.411 147.219 315.542 147.219Z" fill="#F9DC25"/>
<path d="M333.846 16.1742C338.327 16.1742 341.959 12.5535 341.959 8.08708C341.959 3.62071 338.327 0 333.846 0C329.366 0 325.733 3.62071 325.733 8.08708C325.733 12.5535 329.366 16.1742 333.846 16.1742Z" fill="#F9DC25"/>
<path d="M232.124 208.398C236.604 208.398 240.236 204.777 240.236 200.311C240.236 195.844 236.604 192.224 232.124 192.224C227.643 192.224 224.011 195.844 224.011 200.311C224.011 204.777 227.643 208.398 232.124 208.398Z" fill="#F9DC25"/>
<path d="M233.239 138.898C237.719 138.898 241.352 135.278 241.352 130.811C241.352 126.345 237.719 122.724 233.239 122.724C228.758 122.724 225.126 126.345 225.126 130.811C225.126 135.278 228.758 138.898 233.239 138.898Z" fill="#E6E6E6"/>
<path d="M384.953 84.4107C389.433 84.4107 393.066 80.79 393.066 76.3237C393.066 71.8573 389.433 68.2366 384.953 68.2366C380.472 68.2366 376.84 71.8573 376.84 76.3237C376.84 80.79 380.472 84.4107 384.953 84.4107Z" fill="#E6E6E6"/>
<path d="M416.745 185.046C421.225 185.046 424.858 181.425 424.858 176.959C424.858 172.493 421.225 168.872 416.745 168.872C412.264 168.872 408.632 172.493 408.632 176.959C408.632 181.425 412.264 185.046 416.745 185.046Z" fill="#E6E6E6"/>
<path d="M393.132 149.3C397.613 149.3 401.245 145.679 401.245 141.213C401.245 136.746 397.613 133.126 393.132 133.126C388.652 133.126 385.02 136.746 385.02 141.213C385.02 145.679 388.652 149.3 393.132 149.3Z" fill="#F9DC25"/>
<path d="M215.274 72.1617C219.755 72.1617 223.387 68.541 223.387 64.0746C223.387 59.6083 219.755 55.9875 215.274 55.9875C210.793 55.9875 207.161 59.6083 207.161 64.0746C207.161 68.541 210.793 72.1617 215.274 72.1617Z" fill="#F9DC25"/>
<path d="M345.704 240.746C350.184 240.746 353.817 237.125 353.817 232.659C353.817 228.193 350.184 224.572 345.704 224.572C341.223 224.572 337.591 228.193 337.591 232.659C337.591 237.125 341.223 240.746 345.704 240.746Z" fill="#F9DC25"/>
<path d="M5.21625 359.96C13.2591 370.697 29.9544 371.827 29.9544 371.827C29.9544 371.827 33.6098 355.55 25.5669 344.813C17.5241 334.076 0.828762 332.946 0.828762 332.946C0.828762 332.946 -2.82659 349.224 5.21625 359.96Z" fill="#E6E6E6"/>
<path d="M46.1883 363.997C40.881 371.082 29.8643 371.827 29.8643 371.827C29.8643 371.827 27.4522 361.086 32.7594 354.001C38.0667 346.916 49.0834 346.171 49.0834 346.171C49.0834 346.171 51.4955 356.912 46.1883 363.997Z" fill="#E6E6E6"/>
<path d="M374.918 370.754H4.55957V372H374.918V370.754Z" fill="#3F3D56"/>
</g>
<defs>
<clipPath id="clip0">
<rect width="431" height="372" fill="white"/>
</clipPath>
</defs>
</svg>
