<svg width="354" height="303" viewBox="0 0 354 303" fill="none" xmlns="http://www.w3.org/2000/svg">
<path d="M48.1435 204.55C68.6648 204.55 85.3006 170.614 85.3006 128.752C85.3006 86.8898 68.6648 52.9539 48.1435 52.9539C27.6222 52.9539 10.9863 86.8898 10.9863 128.752C10.9863 170.614 27.6222 204.55 48.1435 204.55Z" fill="#F9DC25"/>
<path d="M47.8022 129.538C49.6557 96.5438 53.3901 74.2571 53.4277 74.0358L52.6174 73.8986C52.5799 74.1201 48.8388 96.4425 46.9823 129.479C45.2691 159.97 44.8557 206.09 52.6172 252.648L53.4279 252.513C45.6796 206.034 46.092 159.985 47.8022 129.538Z" fill="#3F3D56"/>
<path d="M81.3533 113.38L47.7573 131.358L48.1452 132.082L81.7411 114.105L81.3533 113.38Z" fill="#3F3D56"/>
<path d="M12.6787 122.39L12.291 123.115L45.8918 141.083L46.2794 140.359L12.6787 122.39Z" fill="#3F3D56"/>
<path d="M305.795 196.67C332.418 196.67 354 152.644 354 98.3352C354 44.0262 332.418 0 305.795 0C279.172 0 257.59 44.0262 257.59 98.3352C257.59 152.644 279.172 196.67 305.795 196.67Z" fill="#F9DC25"/>
<path d="M305.209 99.3425C307.614 56.531 312.46 27.6134 312.509 27.3263L311.741 27.1962C311.692 27.4835 306.84 56.4349 304.432 99.2868C302.21 138.837 301.673 198.658 311.74 259.046L312.509 258.918C302.455 198.605 302.99 138.85 305.209 99.3425Z" fill="#3F3D56"/>
<path d="M348.947 78.5193L305.362 101.842L305.73 102.529L349.315 79.2062L348.947 78.5193Z" fill="#3F3D56"/>
<path d="M259.718 90.2086L259.351 90.8956L302.942 114.206L303.309 113.519L259.718 90.2086Z" fill="#3F3D56"/>
<path d="M247.716 223.304C257.663 223.304 265.726 206.854 265.726 186.563C265.726 166.272 257.663 149.823 247.716 149.823C237.769 149.823 229.705 166.272 229.705 186.563C229.705 206.854 237.769 223.304 247.716 223.304Z" fill="#E6E6E6"/>
<path d="M247.7 188.146L247.807 188.345L264.091 179.631L263.723 178.944L247.734 187.501C248.619 171.218 250.428 160.288 250.465 160.073L249.697 159.943C249.657 160.178 247.507 173.158 246.743 191.939L230.617 183.309L230.249 183.996L246.533 192.711L246.728 192.347C246.117 207.849 246.46 227.232 249.697 246.649L250.465 246.521C246.936 225.35 246.858 204.219 247.7 188.146Z" fill="#3F3D56"/>
<path d="M338.975 267.113C243.042 236.752 156.054 238.369 99.9725 245.072C39.2153 252.335 0.661827 266.958 0.279645 267.105L0 266.378C0.383324 266.231 39.0276 251.572 99.88 244.299C135.675 240.025 171.79 239.102 207.757 241.54C252.406 244.561 296.536 252.897 339.21 266.37L338.975 267.113Z" fill="#3F3D56"/>
<path d="M123.313 258.532C123.313 258.532 123.582 252.896 129.097 253.551L123.313 258.532Z" fill="#3F3D56"/>
<path d="M121.755 253.169C123.279 253.169 124.515 251.933 124.515 250.409C124.515 248.885 123.279 247.649 121.755 247.649C120.23 247.649 118.994 248.885 118.994 250.409C118.994 251.933 120.23 253.169 121.755 253.169Z" fill="#F9DC25"/>
<path d="M122.085 255.056H121.306V260.51H122.085V255.056Z" fill="#3F3D56"/>
<path d="M223.83 259.701C223.83 259.701 224.099 254.065 229.615 254.72L223.83 259.701Z" fill="#3F3D56"/>
<path d="M222.272 254.337C223.796 254.337 225.032 253.102 225.032 251.578C225.032 250.053 223.796 248.818 222.272 248.818C220.747 248.818 219.511 250.053 219.511 251.578C219.511 253.102 220.747 254.337 222.272 254.337Z" fill="#F9DC25"/>
<path d="M222.601 256.225H221.822V261.678H222.601V256.225Z" fill="#3F3D56"/>
<path d="M58.25 249.963C58.25 249.963 58.519 244.327 64.0345 244.982L58.25 249.963Z" fill="#3F3D56"/>
<path d="M56.6916 244.6C58.2161 244.6 59.452 243.364 59.452 241.84C59.452 240.316 58.2161 239.08 56.6916 239.08C55.167 239.08 53.9312 240.316 53.9312 241.84C53.9312 243.364 55.167 244.6 56.6916 244.6Z" fill="#F9DC25"/>
<path d="M57.0214 246.487H56.2422V251.94H57.0214V246.487Z" fill="#3F3D56"/>
<path d="M100.716 242.562C100.716 242.562 100.985 236.926 106.501 237.581L100.716 242.562Z" fill="#3F3D56"/>
<path d="M99.1579 237.199C100.682 237.199 101.918 235.963 101.918 234.439C101.918 232.915 100.682 231.679 99.1579 231.679C97.6333 231.679 96.3975 232.915 96.3975 234.439C96.3975 235.963 97.6333 237.199 99.1579 237.199Z" fill="#F9DC25"/>
<path d="M99.4877 239.086H98.7085V244.54H99.4877V239.086Z" fill="#3F3D56"/>
<path d="M207.077 253.079C207.077 253.079 207.346 247.443 212.862 248.098L207.077 253.079Z" fill="#3F3D56"/>
<path d="M205.519 247.716C207.043 247.716 208.279 246.48 208.279 244.956C208.279 243.432 207.043 242.196 205.519 242.196C203.994 242.196 202.758 243.432 202.758 244.956C202.758 246.48 203.994 247.716 205.519 247.716Z" fill="#F9DC25"/>
<path d="M205.849 249.603H205.07V255.056H205.849V249.603Z" fill="#3F3D56"/>
<path d="M326.88 241.781L342.915 265.552L327.986 280.478L326.051 276.608L329.368 268.869C329.368 268.869 328.815 261.682 326.88 259.747C324.945 257.812 316.374 246.203 316.374 246.203L326.88 241.781Z" fill="#FFB8B8"/>
<path d="M306.421 164.94C306.421 164.94 309.462 169.751 303.103 190.481C303.103 190.481 332.763 240.529 328.063 243.846C323.363 247.163 310.645 254.503 307.327 252.292C304.009 250.081 279.88 175.167 279.88 175.167L306.421 164.94Z" fill="#2F2E41"/>
<path d="M340.012 261.267L344.851 266.104C347.339 268.592 348.998 272.185 344.298 275.226C339.598 278.266 323.286 289.599 317.757 286.006C312.227 282.412 324.392 279.096 324.392 279.096C324.392 279.096 326.403 271.639 327.471 273.294C328.539 274.949 328.539 278.266 328.539 278.266L340.012 261.267Z" fill="#2F2E41"/>
<path d="M281.539 254.772C281.539 254.772 272.692 271.08 272.692 273.015C272.692 274.949 273.245 280.477 273.245 280.477L256.38 284.624L250.574 281.86L252.51 276.884C252.51 276.884 263.015 273.291 265.227 266.381C267.439 259.471 269.927 252.284 269.927 252.284L281.539 254.772Z" fill="#FFB8B8"/>
<path d="M291.768 92.5211C298.181 92.5211 303.38 87.3235 303.38 80.912C303.38 74.5005 298.181 69.3029 291.768 69.3029C285.355 69.3029 280.157 74.5005 280.157 80.912C280.157 87.3235 285.355 92.5211 291.768 92.5211Z" fill="#FFB8B8"/>
<path d="M288.727 90.8626L294.271 106.788L306.421 101.366C306.421 101.366 298.127 88.6514 298.127 86.9929L288.727 90.8626Z" fill="#FFB8B8"/>
<path d="M287.069 147.526H301.721C301.721 147.526 312.227 163.558 306.145 180.418C305.214 183 304.289 186.617 303.366 190.893C301.244 200.727 299.131 214.048 296.965 226.289C293.923 243.482 290.778 258.545 287.359 258.818C280.447 259.371 267.007 259.279 267.007 256.515C267.007 253.751 276.01 173.785 276.01 173.785L277.945 170.468L278.311 156.02C278.369 153.74 279.318 151.573 280.955 149.985C282.593 148.397 284.787 147.514 287.069 147.526Z" fill="#2F2E41"/>
<path d="M272.554 272.876C272.554 272.876 275.733 278.266 274.904 282.136C274.074 286.006 272.692 285.453 266.61 286.006C260.527 286.559 239.792 286.559 239.792 282.689C239.792 278.819 255.967 273.794 256.036 275.339C256.104 276.884 256.657 279.925 254.998 280.478C253.339 281.03 254.86 280.616 254.86 280.616L272.554 272.876Z" fill="#2F2E41"/>
<path d="M288.729 182.026C288.729 182.026 287.527 201.661 279.505 195.816C271.484 189.97 282.631 179.411 282.631 179.411L288.729 182.026Z" fill="white"/>
<path d="M304.739 156.167C305.125 156.34 305.55 156.406 305.97 156.356C306.39 156.307 306.789 156.143 307.123 155.884C307.608 155.504 307.931 154.953 308.028 154.344C309.187 147.66 310.599 129.13 311.412 119.759C312.433 108.002 307.335 98.895 307.293 98.8396L304.289 94.7101C303.977 94.2786 303.528 93.9654 303.015 93.8215C302.502 93.6777 301.956 93.7115 301.465 93.9177C301.465 93.9177 292.087 103.646 292.052 104.021C291.905 105.634 290.789 109.208 284.971 115.024C278.606 121.389 278.57 126.943 278.711 128.494C278.72 128.596 278.725 128.698 278.725 128.8C278.713 129.495 278.808 130.189 279.006 130.856C281.672 139.26 279.584 149.321 276.231 159.824C276.104 160.298 276.128 160.8 276.299 161.261C276.47 161.721 276.78 162.117 277.186 162.394C278.165 163.06 276.991 162.072 277.34 162.5C279.651 165.331 282.977 161.385 286.78 157.08C288.106 155.58 289.607 153.88 291.378 152.11C293.811 149.677 298.461 155.23 300.623 155.23C302.046 155.247 303.449 155.566 304.739 156.167Z" fill="#575A89"/>
<path d="M306.028 103.127C306.028 103.127 312.102 108.248 308.651 114.889C305.201 121.53 305.66 126.428 305.66 126.428C305.66 126.428 304.741 172.049 293.96 169.833L289.056 183.369L280.199 180.173L285.32 168.234C285.32 168.234 281.218 167.978 282.417 165.184C283.259 163.221 287.794 141.923 290.42 129.419C291.532 124.12 292.302 120.4 292.302 120.4C292.302 120.4 295.791 101.745 306.028 103.127Z" fill="#575A89"/>
<path opacity="0.2" d="M307.303 126.311L303.888 148.711L305.73 124.759L307.303 126.311Z" fill="black"/>
<path d="M279.1 75.7683C279.1 75.7683 277.147 60.5792 293.076 65.5601C293.076 65.5601 304.452 63.4732 308.182 77.6997L311.96 92.6126L310.119 91.6107L309.261 93.4864L306.277 94.2417L305.001 91.7085L304.383 94.7848L279.949 97.2201C279.949 97.2201 290.893 90.7496 291.066 79.1528L288.982 81.3551L279.1 75.7683Z" fill="#2F2E41"/>
<path opacity="0.2" d="M297.271 227.162L302.719 190.865L298.288 230.049L297.271 227.162Z" fill="black"/>
<path d="M306.175 71.8515C309.569 71.8515 312.319 69.1013 312.319 65.7088C312.319 62.3163 309.569 59.5662 306.175 59.5662C302.782 59.5662 300.031 62.3163 300.031 65.7088C300.031 69.1013 302.782 71.8515 306.175 71.8515Z" fill="#2F2E41"/>
<path d="M299.844 64.205C299.945 62.6466 300.636 61.1852 301.777 60.1185C302.918 59.0518 304.423 58.4601 305.985 58.4639C305.858 58.4478 305.732 58.4282 305.603 58.4199C304.798 58.3677 303.99 58.4747 303.226 58.7347C302.462 58.9947 301.756 59.4027 301.15 59.9354C300.544 60.468 300.048 61.1149 299.692 61.839C299.336 62.5631 299.126 63.3503 299.074 64.1556C299.022 64.9608 299.13 65.7684 299.39 66.5322C299.651 67.2959 300.059 68.0009 300.592 68.6068C301.125 69.2127 301.773 69.7076 302.497 70.0633C303.222 70.419 304.009 70.6285 304.815 70.6799C304.944 70.6882 305.071 70.6849 305.199 70.6852C303.649 70.4889 302.233 69.7094 301.238 68.5055C300.243 67.3015 299.744 65.7636 299.844 64.205Z" fill="#2F2E41"/>
<path opacity="0.2" d="M288.641 133.291L283.235 162.257L290.242 130.264L288.641 133.291Z" fill="black"/>
<path d="M288.979 89.278L285.828 91.6529C282.583 90.0204 280.15 86.2432 279.265 82.6381L282.698 80.9062C282.968 84.5832 285.579 87.0277 288.979 89.278Z" fill="white"/>
<path d="M290.287 81.4294H282.436C282.367 81.4294 282.301 81.4018 282.251 81.3528C282.202 81.3037 282.175 81.2371 282.175 81.1678C282.175 81.0984 282.202 81.0318 282.251 80.9828C282.301 80.9337 282.367 80.9061 282.436 80.9061H290.287C290.356 80.9061 290.423 80.9337 290.472 80.9828C290.521 81.0318 290.549 81.0984 290.549 81.1678C290.549 81.2371 290.521 81.3037 290.472 81.3528C290.423 81.4018 290.356 81.4294 290.287 81.4294Z" fill="white"/>
<path d="M288.717 89.2779C288.674 89.278 288.632 89.2675 288.594 89.2475C288.556 89.2274 288.524 89.1984 288.5 89.163C288.476 89.1276 288.461 89.0869 288.457 89.0444C288.452 89.0019 288.458 88.9589 288.474 88.9192L290.567 83.6869C290.58 83.6549 290.599 83.6257 290.623 83.601C290.647 83.5764 290.675 83.5566 290.707 83.543C290.739 83.5294 290.773 83.5222 290.807 83.5218C290.841 83.5213 290.876 83.5276 290.907 83.5404C290.939 83.5532 290.969 83.5721 290.993 83.5962C291.018 83.6202 291.037 83.6489 291.051 83.6806C291.064 83.7122 291.071 83.7462 291.072 83.7806C291.072 83.815 291.066 83.8491 291.053 83.881L288.959 89.1134C288.94 89.162 288.907 89.2036 288.863 89.233C288.82 89.2623 288.769 89.278 288.717 89.2779Z" fill="white"/>
<path d="M290.815 84.5207C291.875 84.5207 292.735 83.3175 292.735 81.8333C292.735 80.3491 291.875 79.1459 290.815 79.1459C289.755 79.1459 288.895 80.3491 288.895 81.8333C288.895 83.3175 289.755 84.5207 290.815 84.5207Z" fill="#FFB8B8"/>
<path d="M155.525 89.9286L175.973 94.607L184.613 78.3158L167.128 71.4908L155.525 89.9286Z" fill="#2F2E41"/>
<path d="M166.39 177.627C166.39 177.627 159.816 192.687 159.816 197.068C159.816 197.068 162.418 208.979 161.597 212.265L158.721 218.426L152.696 215.962L151.052 199.533L151.326 173.246L166.39 177.627Z" fill="#FFB9B9"/>
<path d="M170.087 87.5409C170.087 87.5409 170.635 96.5769 169.539 99.3151C168.444 102.053 173.647 107.256 173.647 107.256L181.864 96.5769C181.864 96.5769 176.386 91.1006 177.756 85.0765L170.087 87.5409Z" fill="#FFB9B9"/>
<path d="M152.969 150.108C152.969 150.108 145.026 164.895 152.695 163.799C160.364 162.704 157.762 149.698 157.762 149.698" fill="#E6E6E6"/>
<path d="M157.762 149.698L160.364 123.822L160.227 108.078L154.202 109.172V123.685L152.969 150.108" fill="#FFB9B9"/>
<path d="M151.189 214.045L162.966 209.39L164.335 232.665C164.335 232.665 166.8 239.784 165.978 242.522C165.978 242.522 166.526 247.177 165.157 247.451C163.787 247.725 159.953 248.272 159.679 247.999C159.405 247.725 159.405 246.903 159.405 246.903C159.405 246.903 156.666 248.82 156.392 251.011C156.392 251.011 144.889 254.57 144.616 251.284C144.342 247.999 150.367 245.26 150.367 245.26L155.023 238.141L151.189 214.045Z" fill="#2F2E41"/>
<path d="M190.902 177.627C190.902 177.627 184.329 192.687 184.329 197.068C184.329 197.068 186.931 208.979 186.109 212.265L183.233 218.426L177.208 215.962L175.564 199.533L175.838 173.246L190.902 177.627Z" fill="#FFB9B9"/>
<path d="M176.112 214.045L187.889 209.39L189.258 232.665C189.258 232.665 191.723 239.784 190.902 242.522C190.902 242.522 191.449 247.177 190.08 247.451C188.711 247.725 184.876 248.272 184.602 247.999C184.328 247.725 184.328 246.903 184.328 246.903C184.328 246.903 181.59 248.82 181.316 251.011C181.316 251.011 169.813 254.57 169.539 251.284C169.265 247.999 175.29 245.26 175.29 245.26L179.946 238.141L176.112 214.045Z" fill="#2F2E41"/>
<path d="M181.592 81.2444C181.591 83.4007 180.795 85.481 179.356 87.0872C177.917 88.6934 175.936 89.7126 173.792 89.95C171.648 90.1873 169.492 89.6261 167.736 88.3736C165.981 87.1211 164.748 85.2654 164.276 83.1615C164.131 82.5326 164.059 81.8895 164.061 81.2444C164.063 78.9212 164.987 76.6937 166.63 75.0515C168.274 73.4093 170.503 72.4868 172.826 72.4868C175.15 72.4868 177.379 73.4093 179.022 75.0515C180.666 76.6937 181.59 78.9212 181.592 81.2444Z" fill="#FFB9B9"/>
<path d="M173.921 98.7674L180.722 95.2364L183.781 97.6722C183.781 97.6722 191.176 97.3983 193.914 100.684C196.653 103.97 198.16 112.321 198.16 112.321C198.16 112.321 189.121 110.405 190.217 118.072L188.574 113.691L187.067 117.387L168.717 123.685L160.501 109.72C160.501 109.72 155.023 108.077 153.106 111.911C153.106 111.911 153.517 98.0829 158.857 97.6722C162.449 97.396 165.157 97.3984 165.157 97.3984L168.169 96.8507L170.099 96.1662L173.921 98.7674Z" fill="#575A89"/>
<path d="M185.561 128.751C185.561 128.751 199.94 171.877 195.831 177.901C195.831 177.901 180.494 185.568 149.819 175.163L162.281 126.834C169.936 125.269 177.696 125.908 185.561 128.751Z" fill="#2F2E41"/>
<path d="M185.561 128.751L189.608 114.847C184.754 109.569 188.943 97.8655 188.943 97.8655L183.086 96.6107C183.086 96.6107 177.208 112.458 171.182 110.542C165.157 108.625 168.444 96.3031 168.444 96.3031L162.966 96.8508L160.501 106.434L162.281 126.834C169.706 126.197 177.492 126.938 185.561 128.751Z" fill="#575A89"/>
<path d="M192.682 149.698L194.599 123.685L195.147 108.078L189.122 109.172V123.685L187.889 150.108" fill="#FFB9B9"/>
<path d="M187.889 150.108C187.889 150.108 179.947 164.895 187.616 163.799C195.284 162.704 192.682 149.698 192.682 149.698" fill="white"/>
<path d="M198.16 112.321C198.16 112.321 197.186 98.2593 189.046 98.308V114.57C189.046 114.57 195.147 110.952 198.16 112.321Z" fill="#575A89"/>
<path d="M175.629 83.5056C175.583 83.5056 175.537 83.4912 175.5 83.4645C175.462 83.4377 175.433 83.3998 175.418 83.3561C175.403 83.3124 175.401 83.265 175.414 83.2205C175.427 83.1759 175.453 83.1365 175.489 83.1076L179.959 79.5325C179.982 79.514 180.008 79.5001 180.037 79.4917C180.065 79.4834 180.095 79.4807 180.124 79.4839C180.153 79.4871 180.182 79.496 180.207 79.5102C180.233 79.5243 180.256 79.5435 180.275 79.5665C180.293 79.5895 180.307 79.616 180.315 79.6443C180.323 79.6726 180.325 79.7023 180.322 79.7316C180.319 79.7609 180.31 79.7892 180.295 79.815C180.281 79.8407 180.262 79.8634 180.238 79.8816L175.769 83.4567C175.729 83.4883 175.68 83.5056 175.629 83.5056Z" fill="white"/>
<path d="M175.967 88.8682C175.869 88.9888 175.77 89.1095 175.668 89.2212C174.482 89.7588 173.191 90.0254 171.889 90.0018C170.587 89.9781 169.306 89.6647 168.141 89.0844C166.975 88.5041 165.953 87.6714 165.15 86.6468C164.347 85.6223 163.782 84.4317 163.496 83.1615L167.732 82.3824L175.967 83.1615C174.081 85.4584 174.309 86.2539 175.967 88.8682Z" fill="white"/>
<path d="M167.877 68.9789C167.877 68.9789 163.348 69.8307 162.3 75.479C162.136 76.4315 162.106 77.4022 162.211 78.363C162.316 79.4502 162.164 81.7466 159.803 84.4505C158.262 86.2042 156.826 88.0476 155.503 89.9708L160.237 91.2306L162.352 83.3902C163.377 79.589 164.956 75.9594 167.039 72.6183L167.083 72.5485C167.083 72.5485 168.655 76.7481 172.868 77.3238L171.569 75.6137C171.569 75.6137 176.495 78.4605 179.286 79.3301C179.604 79.4295 179.89 79.6138 180.111 79.8632C180.332 80.1126 180.482 80.4177 180.543 80.7457C180.603 81.0736 180.574 81.412 180.456 81.7242C180.339 82.0365 180.139 82.3109 179.877 82.5178C179.858 82.5334 179.837 82.549 179.817 82.5646C177.764 84.1232 173.577 87.8424 175.231 91.4402C176.885 95.038 174.956 95.6939 174.956 95.6939L178.514 94.3409L180.142 93.6438L179.977 94.8474L187.926 95.0139C187.926 95.0139 190.074 95.0008 186.259 89.2687C186.259 89.2687 185.338 87.1193 186.094 85.4773C186.7 84.2338 187.002 82.8638 186.975 81.4806C186.735 75.7015 184.3 63.9444 167.877 68.9789Z" fill="#2F2E41"/>
<path d="M56.3739 233.594C56.3739 233.594 56.3739 270.778 47.838 280.531C47.838 280.531 46.0089 285.407 45.3992 287.236C45.0583 288.277 44.651 289.295 44.1798 290.284V292.722C44.1798 292.722 27.7178 290.893 25.8887 286.627L28.9372 282.969C28.9372 282.969 29.5469 282.36 28.9372 280.531C28.3275 278.702 30.1566 278.702 30.1566 278.702L34.4245 268.949L33.8148 228.718L36.8634 173.248L63.0807 172.029L56.3739 233.594Z" fill="#2F2E41"/>
<path d="M42.9602 289.065C42.9602 289.065 47.2281 301.866 42.9602 302.475C38.6923 303.085 1.50025 303.694 2.10995 298.818C2.71966 293.941 14.9138 294.551 14.9138 294.551L27.7176 286.626L42.9602 289.065Z" fill="#2F2E41"/>
<path d="M80.7615 173.248C80.7615 173.248 81.9809 181.172 77.1033 189.706C72.2257 198.24 75.2742 226.889 75.2742 226.889L118.563 264.682C118.563 264.682 110.027 279.312 106.979 278.702C103.93 278.093 55.7636 239.081 55.7636 239.081L36.8628 175.686L80.7615 173.248Z" fill="#2F2E41"/>
<path d="M117.969 263.067C117.969 263.067 131.068 266.316 129.298 270.246C127.528 274.177 108.133 305.909 104.339 302.784C100.546 299.658 107.589 289.687 107.589 289.687L107.749 274.633L117.969 263.067Z" fill="#2F2E41"/>
<path d="M71.0066 59.8697C71.0115 63.081 69.9073 66.1955 67.8806 68.687C66.2781 70.6726 64.1628 72.1821 61.7638 73.052C59.3648 73.9219 56.7734 74.1192 54.2703 73.6223C53.017 73.3801 51.8039 72.9628 50.6669 72.3826C48.8611 71.4727 47.2737 70.1828 46.0136 68.6015C44.7535 67.0202 43.8506 65.1851 43.367 63.222C43.0945 62.1254 42.9576 60.9996 42.9595 59.8697C42.9595 56.1513 44.437 52.5851 47.0669 49.9558C49.6968 47.3265 53.2638 45.8494 56.9831 45.8494C60.7023 45.8494 64.2693 47.3265 66.8992 49.9558C69.5291 52.5851 71.0066 56.1513 71.0066 59.8697Z" fill="#A0616A"/>
<path d="M68.0172 64.8154L67.3969 82.8565L55.5974 87.5176C55.5974 87.5176 54.4403 69.0447 52.8069 68.0206C51.1734 66.9964 68.0172 64.8154 68.0172 64.8154Z" fill="#A0616A"/>
<path d="M52.7156 89.7373C52.7156 89.7373 69.1777 73.2791 73.4456 73.8887C77.7135 74.4982 77.7135 76.3269 77.7135 77.546C77.7135 78.7652 76.4941 79.3747 77.7135 79.9843C78.9329 80.5939 80.1523 79.9843 80.1523 81.813C80.1523 83.6417 91.127 101.929 87.4688 122.044C83.8106 142.16 79.5426 151.913 81.3718 162.885C83.2009 173.857 81.9815 176.295 81.9815 176.295C81.9815 176.295 36.2536 179.953 35.6439 175.686C35.0342 171.419 37.473 173.857 34.4245 170.809C31.376 167.762 32.5954 167.762 32.5954 165.933C32.5954 164.104 46.0089 89.7373 52.7156 89.7373Z" fill="#575A89"/>
<path d="M61.2511 172.638C61.2511 172.638 53.9347 190.315 48.4473 186.048C42.96 181.782 50.8862 167.152 50.8862 167.152L61.2511 172.638Z" fill="white"/>
<path d="M78.9328 90.9565C78.9328 90.9565 93.2579 92.5961 87.9245 118.902C82.5911 145.208 61.8611 175.686 61.8611 175.686L47.8379 168.981L66.129 133.016L61.8611 110.463C61.8611 110.463 59.4223 89.1278 78.9328 90.9565Z" fill="#575A89"/>
<path opacity="0.2" d="M66.434 133.321L46.3135 166.847L48.1427 168.676L66.434 133.321Z" fill="black"/>
<path opacity="0.2" d="M77.0835 148.945L60.9463 175.381H66.4338L77.0835 148.945Z" fill="black"/>
<path opacity="0.2" d="M40.6314 196.987L39.8208 197.296L55.8652 239.354L56.6758 239.044L40.6314 196.987Z" fill="black"/>
<path d="M52.8019 93.0842C53.2809 93.0842 53.6693 92.6959 53.6693 92.217C53.6693 91.7381 53.2809 91.3499 52.8019 91.3499C52.3229 91.3499 51.9346 91.7381 51.9346 92.217C51.9346 92.6959 52.3229 93.0842 52.8019 93.0842Z" fill="#D0CDE1"/>
<path d="M45.4295 116.497C45.5221 116.497 45.6123 116.468 45.6869 116.413C45.7614 116.357 45.8164 116.28 45.8437 116.192L53.2161 92.3452C53.233 92.2907 53.2391 92.2335 53.2339 92.1768C53.2287 92.12 53.2124 92.0648 53.1858 92.0144C53.1593 91.964 53.123 91.9193 53.0792 91.8829C53.0353 91.8465 52.9847 91.819 52.9303 91.8022C52.8758 91.7854 52.8186 91.7794 52.7618 91.7847C52.7051 91.79 52.6499 91.8065 52.5995 91.8331C52.5491 91.8597 52.5045 91.8961 52.4681 91.94C52.4318 91.9839 52.4045 92.0345 52.3877 92.089L45.0153 115.936C44.9953 116.001 44.9909 116.069 45.0022 116.136C45.0136 116.203 45.0405 116.266 45.0808 116.321C45.1211 116.375 45.1736 116.42 45.2342 116.45C45.2947 116.481 45.3616 116.497 45.4295 116.497V116.497Z" fill="#D0CDE1"/>
<path d="M54.171 70.6076L50.6666 73.9407C47.0574 72.1249 43.5712 67.232 42.5874 63.222L47.1854 61.2956C47.4856 65.3855 50.3894 68.1046 54.171 70.6076Z" fill="white"/>
<path d="M55.0451 63.0416C55.0312 63.0417 55.0173 63.0407 55.0036 63.0388L46.8537 61.8748C46.8159 61.8694 46.7794 61.8566 46.7465 61.8372C46.7136 61.8178 46.6848 61.792 46.6619 61.7615C46.6389 61.7309 46.6222 61.6961 46.6127 61.6591C46.6032 61.6221 46.601 61.5836 46.6064 61.5457C46.6118 61.5079 46.6246 61.4715 46.644 61.4386C46.6635 61.4057 46.6892 61.3769 46.7198 61.3539C46.7503 61.331 46.7851 61.3143 46.8221 61.3048C46.8592 61.2952 46.8977 61.2931 46.9356 61.2985L55.0854 62.4625C55.1583 62.4728 55.2246 62.5104 55.2709 62.5676C55.3172 62.6248 55.3401 62.6974 55.335 62.7708C55.3299 62.8443 55.2971 62.913 55.2433 62.9633C55.1895 63.0135 55.1187 63.0415 55.0451 63.0416Z" fill="white"/>
<path d="M53.88 70.6076C53.8291 70.6077 53.7792 70.5944 53.7351 70.5691C53.691 70.5439 53.6543 70.5075 53.6286 70.4636C53.603 70.4197 53.5893 70.3699 53.5889 70.3191C53.5885 70.2682 53.6014 70.2182 53.6264 70.174L56.3268 65.3679C56.3454 65.3345 56.3705 65.3051 56.4006 65.2814C56.4306 65.2577 56.4651 65.2402 56.5019 65.2298C56.5388 65.2194 56.5773 65.2164 56.6153 65.221C56.6533 65.2255 56.6901 65.2375 56.7234 65.2563C56.7568 65.2751 56.7861 65.3003 56.8097 65.3304C56.8334 65.3605 56.8508 65.395 56.861 65.4319C56.8713 65.4687 56.8742 65.5073 56.8695 65.5453C56.8648 65.5833 56.8527 65.6199 56.8339 65.6532L54.1335 70.4593C54.1083 70.5043 54.0715 70.5418 54.0269 70.5679C53.9823 70.5939 53.9316 70.6077 53.88 70.6076Z" fill="white"/>
<path d="M63.3304 68.2932C62.1952 67.6931 60.8764 67.5694 59.6476 67.1964C55.2514 65.8619 52.3063 60.8933 53.2466 56.3971C53.4203 55.8204 53.4983 55.2192 53.4775 54.6173C53.3131 53.2856 51.9502 52.4264 50.6433 52.1213C49.3365 51.8162 47.946 51.8605 46.6968 51.3699C44.7682 50.6124 43.4871 48.6308 43.2094 46.5778C42.9317 44.5249 43.541 42.4311 44.532 40.6117L45.0041 41.9698C45.724 41.3605 46.2584 40.5614 46.5465 39.6634C47.083 39.7536 47.5873 39.9799 48.0113 40.3207C48.4352 40.6615 48.7645 41.1055 48.9677 41.61C49.7254 42.0567 49.8346 40.2222 50.6715 39.9516C51.022 39.8382 51.3824 40.0535 51.7162 40.2092C53.4027 40.9956 55.3622 40.3232 57.1713 39.8873C60.3041 39.136 63.5697 39.1322 66.7042 39.8761C68.7867 40.3727 70.8479 41.2374 72.338 42.7742C73.5618 44.0363 74.3243 45.6683 74.9735 47.3018C76.5718 51.3232 77.6276 55.6744 77.1 59.9693C76.6606 63.4839 75.1899 66.7897 72.8735 69.4696C71.6667 70.8596 67.7296 75.709 65.5708 74.8823C62.8583 73.8434 66.5265 69.9827 63.3304 68.2932Z" fill="#2F2E41"/>
</svg>
