<svg width="95" height="95" viewBox="0 0 95 95" fill="none" xmlns="http://www.w3.org/2000/svg">
<path d="M75.7031 31.1719C69.1555 31.1719 63.8281 25.8459 63.8281 19.2969C63.8281 12.7493 69.1555 7.42188 75.7031 7.42188C82.2507 7.42188 87.5781 12.7493 87.5781 19.2969C87.5781 25.8459 82.2507 31.1719 75.7031 31.1719Z" fill="#F9DC25"/>
<path d="M59.375 57.8906C56.1005 57.8906 53.4375 55.2277 53.4375 51.9531C53.4375 48.6786 56.1005 46.0156 59.375 46.0156C62.6495 46.0156 65.3125 48.6786 65.3125 51.9531C65.3125 55.2277 62.6495 57.8906 59.375 57.8906Z" fill="#F9DC25"/>
<path d="M75.7031 37.1094C85.5252 37.1094 93.5156 29.119 93.5156 19.2969C93.5156 9.47477 85.5252 1.48438 75.7031 1.48438C65.881 1.48438 57.8906 9.47477 57.8906 19.2969C57.8906 29.119 65.881 37.1094 75.7031 37.1094ZM62.8677 26.7188H68.0334C69.0309 29.6207 70.4722 31.9215 71.771 33.5959C67.9814 32.5509 64.7989 30.0467 62.8677 26.7188ZM60.8594 19.2969C60.8594 17.7457 61.0998 16.2509 61.5437 14.8438H67.2452C66.9705 16.2302 66.7969 17.7086 66.7969 19.2969C66.7969 20.8852 66.9705 22.3636 67.2466 23.75H61.5452C61.0998 22.3428 60.8594 20.848 60.8594 19.2969ZM75.7061 5.00234C76.858 6.175 78.8292 8.51586 80.1859 11.875H71.2292C72.5889 8.52625 74.5572 6.17945 75.7061 5.00234ZM81.1196 14.8438C81.4373 16.2138 81.6406 17.6938 81.6406 19.2969C81.6406 20.8985 81.4358 22.3784 81.1152 23.75H70.2852C69.969 22.3799 69.7656 20.9 69.7656 19.2969C69.7656 17.6952 69.9705 16.2153 70.2911 14.8438H81.1196ZM90.5469 19.2969C90.5469 20.848 90.3064 22.3428 89.8626 23.75H84.1611C84.4357 22.3636 84.6094 20.8852 84.6094 19.2969C84.6094 17.7086 84.4357 16.2302 84.1596 14.8438H89.8611C90.3064 16.2509 90.5469 17.7457 90.5469 19.2969ZM75.7002 33.5914C74.5483 32.4187 72.577 30.0779 71.2203 26.7188H80.177C78.8173 30.069 76.8476 32.4143 75.7002 33.5914ZM79.6352 33.5959C80.9341 31.9215 82.3754 29.6222 83.3729 26.7188H88.5385C86.6073 30.0467 83.4248 32.5509 79.6352 33.5959ZM88.5385 11.875H83.3729C82.3754 8.97305 80.9341 6.67227 79.6352 4.99789C83.4248 6.04289 86.6073 8.54703 88.5385 11.875ZM71.771 4.99789C70.4722 6.67227 69.0309 8.97305 68.0334 11.875H62.8677C64.7989 8.54703 67.9814 6.04289 71.771 4.99789Z" fill="#3F3D56"/>
<path d="M71.25 17.8125H74.2188V20.7812H71.25V17.8125Z" fill="#3F3D56"/>
<path d="M77.1875 17.8125H80.1562V20.7812H77.1875V17.8125Z" fill="#3F3D56"/>
<path d="M81.6406 47.5C81.6406 43.4076 78.3112 40.0781 74.2188 40.0781H60.8594V38.5938C60.8594 30.6301 55.1252 23.9905 47.5727 22.561C50.2431 20.3805 51.9531 17.0673 51.9531 13.3594C51.9531 6.8118 46.6257 1.48438 40.0781 1.48438C33.5305 1.48438 28.2031 6.8118 28.2031 13.3594C28.2031 16.858 29.7335 19.9975 32.1486 22.1736C29.7113 21.8619 27.4372 20.7011 25.7688 18.8649L15.6839 7.77219C14.6241 6.60547 13.113 5.9375 11.538 5.9375C8.45055 5.9375 5.9375 8.45055 5.9375 11.538V11.7429C5.9375 13.162 6.46891 14.5157 7.43375 15.5533L22.4571 31.7315C24.2473 33.6612 25.2344 36.1727 25.2344 38.8045V48.9844H1.48438V93.5156H93.5156V48.9844H81.6406V47.5ZM41.5625 69.7656C39.6269 69.7656 37.9762 68.5247 37.3632 66.7969H81.3853C80.7723 68.5247 79.1216 69.7656 77.186 69.7656H41.5625ZM78.6719 47.5V63.8281H40.0781V47.5C40.0781 45.0448 42.0761 43.0469 44.5312 43.0469H74.2188C76.6739 43.0469 78.6719 45.0448 78.6719 47.5ZM31.1719 13.3594C31.1719 8.44758 35.1663 4.45312 40.0781 4.45312C44.9899 4.45312 48.9844 8.44758 48.9844 13.3594C48.9844 18.2712 44.9899 22.2656 40.0781 22.2656C35.1663 22.2656 31.1719 18.2712 31.1719 13.3594ZM24.6332 29.7127L9.60984 13.533C9.15562 13.0462 8.90625 12.4094 8.90625 11.7429V11.538C8.90625 10.0863 10.0863 8.90625 11.538 8.90625C12.2787 8.90625 12.9883 9.21945 13.4855 9.76867L23.5704 20.8629C26.0983 23.6402 29.7009 25.2344 33.4563 25.2344H38.5938H44.5312C51.8967 25.2344 57.8906 31.2283 57.8906 38.5938V40.0781H53.4375V34.1406H50.4688V40.0781H44.5312C40.4388 40.0781 37.1094 43.4076 37.1094 47.5V48.9844H28.2031V38.8045C28.2031 35.4216 26.9355 32.1931 24.6332 29.7127ZM4.45312 90.5469V87.5781H90.5469V90.5469H4.45312ZM90.5469 51.9531V84.6094H4.45312V51.9531H37.1094V63.8281H34.1406V65.3125C34.1406 69.4049 37.4701 72.7344 41.5625 72.7344H57.8906V74.2188C57.8906 76.6739 55.8927 78.6719 53.4375 78.6719H25.2344C22.7792 78.6719 20.7812 76.6739 20.7812 74.2188V69.7656C23.2364 69.7656 25.2344 67.7677 25.2344 65.3125V60.8594C25.2344 57.5848 22.5714 54.9219 19.2969 54.9219C16.0223 54.9219 13.3594 57.5848 13.3594 60.8594V65.3125C13.3594 67.7677 15.3573 69.7656 17.8125 69.7656V74.2188C17.8125 78.3112 21.142 81.6406 25.2344 81.6406H53.4375C57.5299 81.6406 60.8594 78.3112 60.8594 74.2188V72.7344H77.1875C81.2799 72.7344 84.6094 69.4049 84.6094 65.3125V63.8281H81.6406V51.9531H90.5469ZM17.8125 66.7969C16.9946 66.7969 16.3281 66.1319 16.3281 65.3125V60.8594C16.3281 59.2221 17.6596 57.8906 19.2969 57.8906C20.9341 57.8906 22.2656 59.2221 22.2656 60.8594V65.3125C22.2656 66.1319 21.5991 66.7969 20.7812 66.7969H17.8125Z" fill="#3F3D56"/>
</svg>
