<svg width="17" height="15" viewBox="0 0 17 15" fill="none" xmlns="http://www.w3.org/2000/svg">
<path d="M3.59342 15H0.421428V4.81339H3.59342V15ZM1.92132 3.54006H1.89867C1.65578 3.55818 1.41177 3.52588 1.18195 3.44522C0.952131 3.36455 0.741469 3.23725 0.563184 3.07131C0.384899 2.90536 0.242841 2.70435 0.145926 2.4809C0.0490113 2.25745 -0.000667592 2.01638 6.77462e-06 1.77281C6.77462e-06 0.76684 0.765815 0.00556359 1.94398 0.00556359C2.18803 -0.013797 2.43344 0.0174973 2.66482 0.0974825C2.89619 0.177468 3.10854 0.304417 3.28853 0.470362C3.46851 0.636307 3.61226 0.837666 3.71073 1.0618C3.8092 1.28593 3.86029 1.528 3.86077 1.77281C3.86077 2.76066 3.11309 3.54006 1.92132 3.54006ZM16.3131 15H12.688V9.72997C12.688 8.37055 12.1261 7.40989 10.8754 7.40989C10.4937 7.40986 10.1218 7.5303 9.81259 7.75406C9.5034 7.97782 9.27273 8.29347 9.15346 8.65602C9.07767 8.92548 9.05157 9.20647 9.07642 9.48527V15H5.53286C5.53286 15 5.57817 5.66529 5.53286 4.81792H9.10361V6.4311C9.31659 5.73327 10.463 4.73635 12.2756 4.73635C14.5413 4.73635 16.3131 6.2 16.3131 9.35386V15Z" fill="#3F3D56"/>
</svg>
