<svg width="95" height="95" viewBox="0 0 95 95" fill="none" xmlns="http://www.w3.org/2000/svg">
<path d="M29.6875 29.6875H65.3125V41.5625H29.6875V29.6875Z" fill="#F9DC25"/>
<path d="M78.6719 32.6562C78.519 32.6562 78.3705 32.6741 78.2177 32.6785C74.8585 25.7242 69.2743 20.14 62.32 16.7809C62.3259 16.6295 62.3438 16.481 62.3438 16.3281C62.3438 8.14328 55.6848 1.48438 47.5 1.48438C39.3152 1.48438 32.6562 8.14328 32.6562 16.3281C32.6562 16.481 32.6741 16.6295 32.6785 16.7823C25.7242 20.1415 20.14 25.7257 16.7809 32.68C16.6295 32.6741 16.481 32.6562 16.3281 32.6562C8.14328 32.6562 1.48438 39.3152 1.48438 47.5C1.48438 55.6848 8.14328 62.3438 16.3281 62.3438C16.481 62.3438 16.6295 62.3259 16.7823 62.3215C20.1415 69.2758 25.7257 74.86 32.68 78.2191C32.6741 78.3705 32.6562 78.519 32.6562 78.6719C32.6562 86.8567 39.3152 93.5156 47.5 93.5156C55.6848 93.5156 62.3438 86.8567 62.3438 78.6719C62.3438 78.519 62.3259 78.3705 62.3215 78.2177C69.2758 74.8585 74.86 69.2743 78.2191 62.32C78.3705 62.3259 78.519 62.3438 78.6719 62.3438C86.8567 62.3438 93.5156 55.6848 93.5156 47.5C93.5156 39.3152 86.8567 32.6562 78.6719 32.6562ZM75.1138 33.106C71.7384 33.9417 68.8216 35.9278 66.7969 38.6323V28.2031H56.3691C59.0722 26.1784 61.0598 23.2616 61.8955 19.8862C67.5584 22.8416 72.1584 27.4416 75.1138 33.106ZM31.1719 31.1719H63.8281V63.8281H31.1719V31.1719ZM40.3869 25.8148C42.0568 23.6001 44.6841 22.2656 47.5 22.2656C50.3159 22.2656 52.9432 23.6016 54.6131 25.8148C52.627 27.3066 50.1689 28.2031 47.5 28.2031C44.8311 28.2031 42.373 27.3066 40.3869 25.8148ZM43.0469 14.8438C43.0469 12.3886 45.0448 10.3906 47.5 10.3906C49.9552 10.3906 51.9531 12.3886 51.9531 14.8438C51.9531 17.2989 49.9552 19.2969 47.5 19.2969C45.0448 19.2969 43.0469 17.2989 43.0469 14.8438ZM47.5 4.45312C54.0476 4.45312 59.375 9.78055 59.375 16.3281C59.375 19.138 58.3894 21.7209 56.7506 23.7559C55.575 22.2923 54.0847 21.139 52.3999 20.3745C53.9348 19.0134 54.9219 17.051 54.9219 14.8438C54.9219 10.7513 51.5924 7.42188 47.5 7.42188C43.4076 7.42188 40.0781 10.7513 40.0781 14.8438C40.0781 17.051 41.0652 19.0134 42.6001 20.3745C40.9153 21.1405 39.425 22.2938 38.2494 23.7559C36.6106 21.7209 35.625 19.138 35.625 16.3281C35.625 9.78055 40.9524 4.45312 47.5 4.45312ZM33.106 19.8862C33.9417 23.2616 35.9278 26.1784 38.6323 28.2031H28.2031V38.6309C26.1784 35.9278 23.2616 33.9402 19.8862 33.1045C22.8416 27.4416 27.4416 22.8416 33.106 19.8862ZM4.45312 47.5C4.45312 40.9524 9.78055 35.625 16.3281 35.625C22.8757 35.625 28.2031 40.9524 28.2031 47.5C28.2031 50.3099 27.2175 52.8927 25.5788 54.9278C24.4031 53.4642 22.9128 52.3109 21.228 51.5464C22.7629 50.1852 23.75 48.2229 23.75 46.0156C23.75 41.9232 20.4205 38.5938 16.3281 38.5938C12.2357 38.5938 8.90625 41.9232 8.90625 46.0156C8.90625 48.2229 9.89336 50.1852 11.4282 51.5464C9.74344 52.3123 8.25313 53.4657 7.0775 54.9278C5.43875 52.8927 4.45312 50.3099 4.45312 47.5ZM16.3281 59.375C13.6592 59.375 11.2011 58.4784 9.215 56.9866C10.8849 54.7719 13.5123 53.4375 16.3281 53.4375C19.144 53.4375 21.7713 54.7734 23.4412 56.9866C21.4552 58.4784 18.997 59.375 16.3281 59.375ZM11.875 46.0156C11.875 43.5605 13.873 41.5625 16.3281 41.5625C18.7833 41.5625 20.7812 43.5605 20.7812 46.0156C20.7812 48.4708 18.7833 50.4688 16.3281 50.4688C13.873 50.4688 11.875 48.4708 11.875 46.0156ZM19.8862 61.894C23.2616 61.0583 26.1784 59.0722 28.2031 56.3677V66.7969H38.6309C35.9278 68.8216 33.9402 71.7384 33.1045 75.1138C27.4416 72.1584 22.8416 67.5584 19.8862 61.894ZM40.3869 88.1585C42.0568 85.9438 44.6841 84.6094 47.5 84.6094C50.3159 84.6094 52.9432 85.9453 54.6131 88.1585C52.627 89.6503 50.1689 90.5469 47.5 90.5469C44.8311 90.5469 42.373 89.6503 40.3869 88.1585ZM43.0469 77.1875C43.0469 74.7323 45.0448 72.7344 47.5 72.7344C49.9552 72.7344 51.9531 74.7323 51.9531 77.1875C51.9531 79.6427 49.9552 81.6406 47.5 81.6406C45.0448 81.6406 43.0469 79.6427 43.0469 77.1875ZM56.7506 86.0997C55.575 84.6361 54.0847 83.4827 52.3999 82.7183C53.9348 81.3571 54.9219 79.3948 54.9219 77.1875C54.9219 73.0951 51.5924 69.7656 47.5 69.7656C43.4076 69.7656 40.0781 73.0951 40.0781 77.1875C40.0781 79.3948 41.0652 81.3571 42.6001 82.7183C40.9153 83.4842 39.425 84.6376 38.2494 86.0997C36.6106 84.0646 35.625 81.4818 35.625 78.6719C35.625 72.1243 40.9524 66.7969 47.5 66.7969C54.0476 66.7969 59.375 72.1243 59.375 78.6719C59.375 81.4818 58.3894 84.0646 56.7506 86.0997ZM61.894 75.1138C61.0583 71.7384 59.0722 68.8216 56.3677 66.7969H66.7969V56.3691C68.8216 59.0722 71.7384 61.0598 75.1138 61.8955C72.1584 67.5584 67.5584 72.1584 61.894 75.1138ZM74.2188 46.0156C74.2188 43.5605 76.2167 41.5625 78.6719 41.5625C81.127 41.5625 83.125 43.5605 83.125 46.0156C83.125 48.4708 81.127 50.4688 78.6719 50.4688C76.2167 50.4688 74.2188 48.4708 74.2188 46.0156ZM71.5588 56.9866C73.2287 54.7719 75.856 53.4375 78.6719 53.4375C81.4877 53.4375 84.1151 54.7734 85.785 56.9866C83.7989 58.4784 81.3408 59.375 78.6719 59.375C76.003 59.375 73.5448 58.4784 71.5588 56.9866ZM87.9225 54.9278C86.7469 53.4642 85.2566 52.3109 83.5718 51.5464C85.1066 50.1852 86.0938 48.2229 86.0938 46.0156C86.0938 41.9232 82.7643 38.5938 78.6719 38.5938C74.5795 38.5938 71.25 41.9232 71.25 46.0156C71.25 48.2229 72.2371 50.1852 73.772 51.5464C72.0872 52.3123 70.5969 53.4657 69.4212 54.9278C67.7825 52.8927 66.7969 50.3099 66.7969 47.5C66.7969 40.9524 72.1243 35.625 78.6719 35.625C85.2195 35.625 90.5469 40.9524 90.5469 47.5C90.5469 50.3099 89.5612 52.8927 87.9225 54.9278Z" fill="#3F3D56"/>
<path d="M34.1406 34.1406H37.1094V37.1094H34.1406V34.1406Z" fill="#3F3D56"/>
<path d="M40.0781 34.1406H43.0469V37.1094H40.0781V34.1406Z" fill="#3F3D56"/>
<path d="M46.0156 34.1406H48.9844V37.1094H46.0156V34.1406Z" fill="#3F3D56"/>
</svg>
