<svg width="96" height="96" viewBox="0 0 96 96" fill="none" xmlns="http://www.w3.org/2000/svg">
<path d="M88.5 49.5V36C88.5 31.8645 85.1355 28.5 81 28.5H42C40.8255 28.5 39.729 28.7955 38.739 29.2785C36.4785 26.6535 33.6435 24.708 30.4605 23.598C33.786 21.4605 36 17.7375 36 13.5C36 6.8835 30.6165 1.5 24 1.5C17.3835 1.5 12 6.8835 12 13.5C12 17.7495 14.226 21.48 17.5665 23.613C9.9705 26.2785 4.5 33.504 4.5 42V49.5H1.5V94.5H94.5V49.5H88.5ZM37.5 36C37.5 33.519 39.519 31.5 42 31.5H81C83.481 31.5 85.5 33.519 85.5 36V55.5H37.5V36ZM37.5 58.5H85.5V60C85.5 62.481 83.481 64.5 81 64.5H42C39.519 64.5 37.5 62.481 37.5 60V58.5ZM51 73.5V67.5H72V73.5H51ZM15 13.5C15 8.5365 19.0365 4.5 24 4.5C28.9635 4.5 33 8.5365 33 13.5C33 18.4635 28.9635 22.5 24 22.5C19.0365 22.5 15 18.4635 15 13.5ZM7.5 42C7.5 32.9025 14.9025 25.5 24 25.5C28.8015 25.5 33.228 27.54 36.363 31.107C35.2185 32.424 34.5 34.122 34.5 36V49.5H15V36H12V49.5H7.5V42ZM91.5 91.5H4.5V85.5H91.5V91.5ZM91.5 82.5H4.5V52.5H34.5V60C34.5 64.1355 37.8645 67.5 42 67.5H48V73.5H42V76.5H81V73.5H75V67.5H81C85.1355 67.5 88.5 64.1355 88.5 60V52.5H91.5V82.5Z" fill="#3F3D56"/>
<path d="M21 55.5C16.44 55.5 7.5 57.312 7.5 61.5V73.5C7.5 77.688 16.44 79.5 21 79.5C25.56 79.5 34.5 77.688 34.5 73.5V61.5C34.5 57.312 25.56 55.5 21 55.5ZM10.5 61.5285C10.8165 60.5265 15.8535 58.5 21 58.5C26.0985 58.5 31.092 60.489 31.4925 61.5C31.092 62.511 26.0985 64.5 21 64.5C15.8535 64.5 10.8165 62.4735 10.5 61.542V61.5285ZM10.5 65.199C13.5195 66.7785 18.1275 67.5 21 67.5C23.874 67.5 28.482 66.7785 31.5015 65.199V67.4685C31.1955 68.4705 26.1525 70.5 21 70.5C15.843 70.5 10.7925 68.466 10.5 67.5V65.199ZM21 76.5C15.843 76.5 10.7925 74.466 10.5 73.5V71.199C13.5195 72.7785 18.1275 73.5 21 73.5C23.874 73.5 28.4835 72.7785 31.503 71.1975V73.4655C31.2075 74.466 26.157 76.5 21 76.5Z" fill="#3F3D56"/>
<path d="M78 52.5H69V34.5H78V52.5Z" fill="#F9DC25"/>
<path d="M66 52.5H57V40.5H66V52.5Z" fill="#F9DC25"/>
<path d="M54 52.5H45V37.5H54V52.5Z" fill="#F9DC25"/>
<path d="M77.48 14.8984L85.6617 6.71668L87.7827 8.83768L79.601 17.0194L77.48 14.8984Z" fill="#3F3D56"/>
<path d="M68.3408 11.9771L70.4618 9.85605L75.741 15.1352L73.62 17.2562L68.3408 11.9771Z" fill="#3F3D56"/>
<path d="M55.9321 18.4451L64.5773 9.79987L66.6983 11.9209L58.0531 20.5661L55.9321 18.4451Z" fill="#3F3D56"/>
<path d="M44.9937 14.9949L46.7937 12.5949L54.0093 18.0066L52.2093 20.4066L44.9937 14.9949Z" fill="#3F3D56"/>
<path d="M43.5 16.5C41.019 16.5 39 14.481 39 12C39 9.519 41.019 7.5 43.5 7.5C45.981 7.5 48 9.519 48 12C48 14.481 45.981 16.5 43.5 16.5Z" fill="#F9DC25"/>
<path d="M55.5 25.5C53.019 25.5 51 23.481 51 21C51 18.519 53.019 16.5 55.5 16.5C57.981 16.5 60 18.519 60 21C60 23.481 57.981 25.5 55.5 25.5Z" fill="#F9DC25"/>
<path d="M67.5 13.5C65.019 13.5 63 11.481 63 9C63 6.519 65.019 4.5 67.5 4.5C69.981 4.5 72 6.519 72 9C72 11.481 69.981 13.5 67.5 13.5Z" fill="#F9DC25"/>
<path d="M88.5 10.5C86.019 10.5 84 8.481 84 6C84 3.519 86.019 1.5 88.5 1.5C90.981 1.5 93 3.519 93 6C93 8.481 90.981 10.5 88.5 10.5Z" fill="#F9DC25"/>
<path d="M76.5 22.5C74.019 22.5 72 20.481 72 18C72 15.519 74.019 13.5 76.5 13.5C78.981 13.5 81 15.519 81 18C81 20.481 78.981 22.5 76.5 22.5Z" fill="#F9DC25"/>
<path d="M42 49.5H81V52.5H42V49.5Z" fill="#3F3D56"/>
</svg>
