<svg width="400" height="400" viewBox="0 0 400 400" fill="none" xmlns="http://www.w3.org/2000/svg">
<path fill-rule="evenodd" clip-rule="evenodd" d="M162.643 75.433C162.509 75.781 162.4 95.491 162.4 119.233V162.4H119.233C95.4908 162.4 75.7808 162.509 75.4328 162.643C74.4638 163.015 74.4638 236.985 75.4328 237.357C75.7808 237.491 95.4908 237.6 119.233 237.6H162.4V280.767C162.4 304.509 162.509 324.219 162.643 324.567C163.015 325.536 236.985 325.536 237.357 324.567C237.491 324.219 237.6 304.509 237.6 280.767V237.6H280.767C304.509 237.6 324.219 237.491 324.567 237.357C325.536 236.985 325.536 163.015 324.567 162.643C324.219 162.509 304.509 162.4 280.767 162.4H237.6V119.233C237.6 95.491 237.491 75.781 237.357 75.433C236.985 74.464 163.015 74.464 162.643 75.433Z" fill="#FCFCFC"/>
<path fill-rule="evenodd" clip-rule="evenodd" d="M0 200V400H200H400V200V0H200H0V200ZM237.357 75.433C237.491 75.781 237.6 95.491 237.6 119.233V162.4H280.767C304.509 162.4 324.219 162.509 324.567 162.643C325.536 163.015 325.536 236.985 324.567 237.357C324.219 237.491 304.509 237.6 280.767 237.6H237.6V280.767C237.6 304.509 237.491 324.219 237.357 324.567C236.985 325.536 163.015 325.536 162.643 324.567C162.509 324.219 162.4 304.509 162.4 280.767V237.6H119.233C95.491 237.6 75.781 237.491 75.433 237.357C74.464 236.985 74.464 163.015 75.433 162.643C75.781 162.509 95.491 162.4 119.233 162.4H162.4V119.233C162.4 95.491 162.509 75.781 162.643 75.433C163.015 74.464 236.985 74.464 237.357 75.433Z" fill="#FC0404"/>
</svg>
