<svg width="18" height="16" viewBox="0 0 18 16" fill="none" xmlns="http://www.w3.org/2000/svg">
<path d="M0 0.828132C5.99996 3.69688 12 -2.04061 18 0.828132V15.1719C12 12.3031 5.99996 18.0406 0 15.1719V0.828132Z" fill="#FF0000"/>
<path d="M3.375 7.47471C7.12496 7.62881 10.875 5.68174 14.625 5.83585V8.52529C10.875 8.37119 7.12496 10.3183 3.375 10.1642V7.47471Z" fill="white"/>
<path d="M7.3125 3.90675C8.4375 3.66614 9.5625 3.36886 10.6875 3.12825V12.0931C9.5625 12.3337 8.4375 12.631 7.3125 12.8716V3.90675Z" fill="white"/>
<path d="M8.99989 0.828137C5.99996 1.54532 2.99993 2.26251 0 0.828137V15.1719C2.99993 16.6062 5.99985 15.8891 8.99989 15.1719C11.9999 14.4547 15 13.7375 18 15.1719V0.828137C16.732 0.221846 15.4643 -3.33821e-05 14.1963 5.62662e-05C12.4642 5.62662e-05 10.7319 0.414142 8.99989 0.828137Z" fill="url(#paint0_linear)" fill-opacity="0.15"/>
<defs>
<linearGradient id="paint0_linear" x1="-0.713052" y1="7.32283" x2="18.6286" y2="9.44635" gradientUnits="userSpaceOnUse">
<stop stop-color="#1D1D1B"/>
<stop offset="0.105312" stop-color="#1D1D1B"/>
<stop offset="0.3" stop-color="white"/>
<stop offset="0.466015" stop-color="#1D1D1B"/>
<stop offset="0.7" stop-color="#1D1D1B"/>
<stop offset="0.842975" stop-color="white"/>
<stop offset="0.995868"/>
<stop offset="1"/>
</linearGradient>
</defs>
</svg>
