<svg width="18" height="14" viewBox="0 0 18 14" fill="none" xmlns="http://www.w3.org/2000/svg">
<path d="M17.4331 1.65284C16.7805 1.93786 16.0884 2.12497 15.3799 2.20798C16.1257 1.76728 16.6835 1.07313 16.9489 0.25541C16.247 0.667281 15.4788 0.957036 14.6777 1.11205C14.1867 0.59672 13.5505 0.238868 12.8514 0.0847943C12.1523 -0.0692798 11.4225 -0.0124859 10.7564 0.247828C10.0903 0.508143 9.51862 0.959998 9.11524 1.54494C8.71187 2.12988 8.49539 2.82098 8.49381 3.52884C8.49278 3.79946 8.52365 4.06928 8.58581 4.33284C7.16361 4.2624 5.77222 3.89757 4.50175 3.26195C3.23127 2.62633 2.11003 1.73411 1.21063 0.643053C0.75435 1.42165 0.615044 2.34269 0.821011 3.21911C1.02698 4.09553 1.56277 4.86161 2.31957 5.36177C1.75113 5.34431 1.19506 5.19339 0.697325 4.92149V4.96456C0.697811 5.78089 0.984035 6.57192 1.50744 7.20346C2.03085 7.83499 2.75921 8.26814 3.56895 8.42942C3.26143 8.5134 2.9437 8.55526 2.62465 8.55385C2.39394 8.55531 2.16363 8.53447 1.93701 8.49163C2.16458 9.19456 2.60925 9.80938 3.20855 10.2497C3.80786 10.6901 4.53169 10.9338 5.27836 10.9467C3.78144 12.1003 1.88572 12.6262 0 12.4111C1.63519 13.4495 3.53811 14.001 5.48175 14C12.0628 14 15.6511 8.61606 15.6511 3.94999C15.6511 3.79684 15.6511 3.6437 15.6511 3.47141C16.3494 2.97434 16.9528 2.35858 17.4331 1.65284Z" fill="#3F3D56"/>
</svg>
