<svg width="302" height="101" fill="none" xmlns="http://www.w3.org/2000/svg"><path fill-rule="evenodd" clip-rule="evenodd" d="M198.1 1.119c-3.255.471-6.315 1.537-8.321 2.897-7.322 4.962-7.249 16.158.131 20.155 2.046 1.108 2.876 1.37 12.19 3.843 4.156 1.103 5.922 2.429 6.23 4.68.916 6.682-11.404 7.922-17.73 1.784-5.282-5.124-10.675 1.426-5.551 6.742 6.181 6.413 19.874 7.479 27.051 2.107 5.503-4.12 6.743-12.586 2.641-18.033-2.293-3.045-4.617-4.202-12.841-6.393-6.662-1.775-8.429-2.693-8.78-4.562-.98-5.227 9.938-6.994 15.776-2.553 2.725 2.073 5.699 1.707 7.043-.867 2.713-5.196-8.209-11.196-17.839-9.8zm83.4.075c-8.203 1.172-12.947 5.689-13.246 12.611-.321 7.417 2.678 10.215 14.246 13.292 7.989 2.124 9.683 3.173 9.694 6.003.027 6.387-11.365 7.355-17.668 1.502-1.821-1.692-2.676-2.105-4.038-1.951-3.093.348-4.593 3.425-3.123 6.406 3.281 6.658 16.295 9.83 25.222 6.148 10.599-4.37 11.447-18.54 1.413-23.605-1.945-.982-1.676-.898-11.6-3.596-5.36-1.457-7.089-4.269-4.215-6.853 3.257-2.928 10.429-2.485 14.889.919 3.066 2.34 7.027.649 7.005-2.991-.03-4.986-9.813-9.138-18.579-7.885zm-222.373.687c-1.539.573-2.715 2.223-2.72 3.819-.007 1.389.045 1.53 4.092 11 .8 1.87 2.6 6.1 4.002 9.4 7.68 18.068 7.523 17.735 8.864 18.915 1.891 1.665 5.192 1.866 7.282.443 1.278-.869 1.997-2.283 6.344-12.471A3054.434 3054.434 0 0 1 91.998 21.3c2.774-6.344 5.992-14.114 6.11-14.751.732-3.993-4.213-6.603-7.176-3.788-.877.833-1.368 1.807-3.195 6.339-.93 2.31-2.19 5.415-2.797 6.9a4443.01 4443.01 0 0 0-4.685 11.5c-2.647 6.525-2.743 6.747-2.939 6.736-.1-.006-.336-.398-.52-.873-.186-.475-.766-1.898-1.289-3.163a1167.37 1167.37 0 0 1-2.009-4.9c-.582-1.43-1.372-3.365-1.757-4.3-.779-1.898-1.957-4.778-3.843-9.4-.696-1.705-1.627-3.983-2.069-5.061C64.02 2.126 62.083.78 59.127 1.881zm167.01.009c-.997.355-1.511.83-1.961 1.81-.434.946-.576 24.63-.165 27.586 1.344 9.665 8.281 15.383 18.689 15.407 9.964.023 16.337-4.787 18.54-13.993.508-2.124.819-26.594.36-28.3-.859-3.19-6.016-3.917-7.955-1.122l-.545.787-.113 13.018c-.126 14.462-.085 14.011-1.527 16.762-3.411 6.511-14.241 6.347-17.571-.267-1.171-2.325-1.149-2.055-1.28-15.978-.129-13.661-.132-13.699-1.087-14.776-1.005-1.134-3.575-1.58-5.385-.934zM3.034 2.427c-.518.258-1.08.76-1.4 1.252L1.1 4.5l-.054 19.19-.054 19.19.5 1.01c.297.605.795 1.211 1.238 1.51l.741.5h39.292l.768-.621c1.708-1.38 1.57.503 1.57-21.279V4.7l-.462-.803c-.253-.442-.786-1.027-1.185-1.3L42.73 2.1l-19.414-.051L3.9 1.997l-.866.43zM107.2 2.185c-2.451.759-3.856 2.474-4.212 5.14-.136 1.024-.188 7.246-.149 17.775l.061 16.2.567 1.227c.677 1.464 1.48 2.29 2.833 2.913l1 .46 13 .061c9.033.042 13.23-.006 13.753-.159 3.731-1.089 3.514-6.916-.289-7.793-.513-.118-5.109-.201-11.32-.204-9.768-.005-10.466-.028-10.6-.355-.286-.695-.169-9.559.13-9.919.248-.299 1.166-.331 9.5-.335 10.1-.005 10.153-.011 11.269-1.225 1.815-1.974 1.152-5.488-1.243-6.593-.741-.342-1.484-.37-10.026-.374-8.334-.004-9.252-.036-9.5-.335-.298-.36-.412-7.432-.13-8.119.134-.327.808-.35 10.1-.354 10.591-.004 12.098-.099 13.165-.83 2.188-1.499 2.157-5.253-.055-6.769l-.724-.497-13.315-.035c-7.323-.019-13.54.035-13.815.12zm40.1-.046c-1.748.452-3.372 1.896-4.019 3.573-.365.946-.381 1.772-.381 19.521v18.533l.604.867c1.391 1.998 4.917 2.39 6.782.753 1.258-1.106 1.314-1.537 1.314-10.222 0-4.27.074-7.764.164-7.764.195 0 1.174 1.013 7.726 8 7.604 8.109 9.421 9.921 10.438 10.413 2.59 1.254 5.502.252 6.363-2.189.851-2.409.66-2.677-8.925-12.556-2.564-2.643-2.547-2.579-.759-2.755 13.997-1.379 15.561-21.563 1.993-25.732-1.451-.446-19.811-.827-21.3-.442zm18.284 8.431c4.812 2.002 4.583 8.387-.34 9.506-2.074.472-12.86.48-13.33.01-.552-.552-.46-9.14.103-9.703.657-.657 11.912-.502 13.567.187zm-140.577.38c1.768.902 1.993 1.541 1.993 5.665v3.353l3.565.066c4.905.091 6.231 1.008 5.994 4.145-.228 3.026-1.307 3.695-6.109 3.788l-3.45.066v3.352c0 4.749-.844 6.072-3.872 6.072-3.075 0-3.948-1.293-4.085-6.057l-.097-3.361-3.423-.073c-4.71-.1-5.914-.908-5.914-3.966 0-3.068 1.202-3.876 5.9-3.966l3.437-.066.096-3.334c.124-4.26.517-5.202 2.471-5.918 1.238-.453 2.284-.383 3.494.234zM282.1 55.325c-8.922 1.351-13.539 5.58-13.846 12.68-.301 6.949 2.79 10.237 11.926 12.688 5.957 1.597 6.905 1.868 8.068 2.304 5.809 2.177 5.177 7.924-1.027 9.335-4.943 1.123-8.941-.039-12.976-3.773-4.799-4.441-9.958.694-6.065 6.037 5.096 6.993 20.095 8.575 27.765 2.929 6.573-4.839 6.772-15.445.379-20.251-2.384-1.792-3.879-2.365-11.412-4.379-6.307-1.685-7.925-2.671-7.942-4.839-.04-5.135 9.886-6.228 16.154-1.778 5.266 3.738 9.712-2.592 4.874-6.942-3.164-2.845-10.83-4.779-15.898-4.011zm-163.575.769c-1.777.633-2.859 2.436-2.676 4.458.104 1.144.331 1.775 2.143 5.948.526 1.21 1.816 4.225 2.868 6.7 3.618 8.511 7.365 17.306 8.88 20.842 2.552 5.957 5.024 7.636 9.163 6.226 2.119-.722 2.427-1.235 6.582-10.971 1.502-3.518 3.085-7.207 3.518-8.197 2.176-4.977 7.978-18.723 8.267-19.586 1.491-4.452-3.818-7.714-7.151-4.393-.657.656-1.132 1.641-2.979 6.179-.717 1.76-1.725 4.235-2.242 5.5-.517 1.265-1.595 3.92-2.397 5.9a3776.35 3776.35 0 0 1-4.836 11.871c-.888 2.171-1.019 2.237-1.585.798a634.301 634.301 0 0 0-1.978-4.869c-.856-2.09-1.759-4.295-2.005-4.9-2.004-4.919-3.73-9.135-5.2-12.7-.952-2.31-1.85-4.524-1.995-4.919-1.252-3.426-3.621-4.87-6.377-3.887zm47.433-.096c-.974.293-1.796 1.044-2.279 2.082l-.475 1.02v38.2l.47 1c1.484 3.16 6.49 3.16 7.948 0 .572-1.239.574-38.95.002-40.208-.847-1.864-3.354-2.791-5.666-2.094zm60.4 0c-.923.278-1.788 1.026-2.177 1.882-.439.967-.585 24.624-.17 27.606 1.357 9.757 8.206 15.399 18.689 15.396 10.102-.002 16.473-4.83 18.554-14.06.516-2.29.805-26.518.336-28.258-.856-3.182-6.066-3.83-8.008-.997l-.482.703-.114 13.015c-.125 14.227-.101 13.934-1.355 16.503-3.38 6.922-14.831 6.702-17.948-.346-.974-2.203-.953-1.897-1.071-15.542-.123-14.268-.103-14.045-1.37-15.169-.912-.81-3.394-1.182-4.884-.733zm-39.858.608c-1.357.523-2.298 1.344-3.007 2.623L182.9 60.3v37.834l.564.815c1.675 2.416 6.217 2.149 7.532-.443l.504-.994.1-7.975.1-7.975 2.103 2.169c1.157 1.193 4.781 5.021 8.054 8.507 3.273 3.485 6.319 6.653 6.77 7.039 3.114 2.666 7.788 1.029 7.769-2.721-.008-1.569-.54-2.277-6.061-8.066-5.457-5.723-5.583-5.89-4.436-5.89 5.274 0 10.189-4.159 11.528-9.755 1.837-7.677-2.392-14.597-9.927-16.243-2.719-.594-19.456-.591-21 .004zm102.074.108c7.549 1.114 12.692 5.749 9.562 8.617-1.345 1.232-2.794 1.144-4.761-.291-6.312-4.602-17.186-3.076-17.539 2.461-.234 3.68 1.534 4.76 12.294 7.511 7.941 2.03 11.327 5.38 11.622 11.498.215 4.452-1.683 8.316-5.184 10.555-7.862 5.029-22.651 2.629-26.157-4.244-1.836-3.598 1.721-6.327 4.71-3.615 3.866 3.509 6.498 4.638 10.778 4.625 2.415-.008 2.732-.054 4.701-.68 6.361-2.021 6.486-8.759.209-11.23-.907-.357-1.407-.499-8.109-2.31-8.533-2.304-11.384-5.096-11.34-11.104.062-8.392 8.242-13.413 19.214-11.793zm-166.831.679c.789.482 1.496 1.574 2.242 3.467.313.792.884 2.205 1.27 3.14.68 1.645 1.359 3.305 3.685 9 .606 1.485 1.417 3.465 1.801 4.4.385.935 1.175 2.87 1.757 4.3 3.766 9.259 3.597 8.9 4.19 8.9.539 0 .776-.341 1.476-2.118a1410.82 1410.82 0 0 1 3.938-9.682c.861-2.1 2.107-5.161 4.397-10.8l2.256-5.554c1.964-4.832 2.627-5.58 4.786-5.401 1.879.156 2.973 1.42 2.779 3.212-.091.843-2.655 7.091-7.323 17.843-.525 1.21-2.371 5.53-4.103 9.6-5.045 11.862-5.181 12.036-9.037 11.638-2.477-.256-3.01-.997-6.352-8.838l-4.008-9.4c-.798-1.87-2.597-6.1-3.997-9.4-1.401-3.3-2.958-6.945-3.461-8.1-1.15-2.64-1.325-4.135-.607-5.18.937-1.361 2.969-1.845 4.311-1.027zm47.797-.001c1.334.813 1.26-.414 1.259 20.848 0 18.965-.007 19.27-.404 19.922-1.106 1.814-4.753 1.654-5.616-.247-.574-1.263-.575-38.164-.001-39.427.651-1.435 3.233-2.029 4.762-1.096zm60.389-.065c1.415.672 1.359.119 1.48 14.473.119 14.17.091 13.833 1.397 16.5 3.571 7.289 15.166 7.716 19.494.718 1.718-2.778 1.892-4.5 1.897-18.738l.003-11.421.456-.677c1.23-1.824 4.825-1.61 5.639.336.457 1.094.452 23.742-.006 26.827-1.409 9.485-8.254 14.817-18.489 14.401-10.109-.41-16.078-6.253-16.801-16.446-.224-3.152-.238-22.615-.018-23.954.337-2.052 2.779-3.048 4.948-2.019zm-25.129.072c7.613.756 11.802 5.054 11.796 12.101-.007 6.75-4.138 11.275-10.871 11.907-3.121.293-3.084.762.335 4.328 9.521 9.927 9.138 9.477 9.139 10.735.003 2.448-2.458 3.659-4.933 2.426-.8-.399-2.197-1.767-6.688-6.55C192.072 80.092 192.38 80.4 191.635 80.4c-1.217 0-1.204-.092-1.272 8.802-.052 6.717-.114 8.197-.363 8.68-.986 1.914-4.358 2.064-5.686.253-.412-.561-.414-.671-.414-18.8V61.1l.438-.949c.735-1.59 1.895-2.417 3.862-2.751 1.308-.222 14.366-.223 16.6-.001zm-12.937 5.821c-1.406.407-1.463.649-1.463 6.22 0 6.921-.664 6.36 7.527 6.36 7.547 0 9.031-.299 10.708-2.155 2.717-3.007 1.502-8.057-2.348-9.759-1.825-.807-12.269-1.289-14.424-.666zm13.278 1.452c4.94 1.606 5.106 8.035.247 9.547-1.504.468-13.1.589-13.548.141-.516-.516-.322-9.738.21-9.963.828-.35 11.884-.118 13.091.275z" fill="#E41D25"/></svg>