<svg width="400" height="157" fill="none" xmlns="http://www.w3.org/2000/svg"><path fill-rule="evenodd" clip-rule="evenodd" d="M155.772.375c-.056.206-.102 35.344-.103 78.083l-.002 77.709h156.5v-77.53c0-59.915-.046-77.656-.2-78.084L311.766 0H155.872l-.1.375zm45.561 24.627c2.687.194 6 1.213 6 1.845 0 .084.094.154.209.155.32.002 3.791 3.646 3.791 3.979 0 .063.375.656.834 1.32.458.663.833 1.354.833 1.536 0 .181.057.33.126.33.157 0 .874 1.541.874 1.878 0 .136.105.335.234.441.128.107.28.379.336.604.057.226.177.41.267.41.089 0 .163.183.163.407 0 .224.079.456.176.515.097.06.362.534.59 1.052.227.518.488 1.077.58 1.242.82 1.474 1.229 2.307 1.522 3.102.188.513.424 1.034.523 1.158.222.28.562.858.699 1.191.057.137.248.558.423.935.176.376.32.77.32.875 0 .104.075.19.167.19.092 0 .167.14.167.311 0 .17.15.501.333.734.183.233.333.534.333.669s.113.338.25.452c.138.114.25.361.25.549 0 .188.099.46.219.605.12.145.359.6.531 1.013.172.413.411.868.532 1.013.12.145.218.379.218.521 0 .142.113.352.25.466a.76.76 0 0 1 .25.511c0 .166.08.352.176.411.097.06.364.534.593 1.052.228.518.742 1.618 1.14 2.443.399.825.886 1.837 1.083 2.25.197.412.424.862.505 1 .08.137.188.362.24.5.052.137.16.362.24.5.422.726 1.19 2.384 1.19 2.569 0 .117.15.386.333.597.184.212.334.461.334.555 0 .238 1.685 3.604 1.858 3.711.078.048.142.273.142.499 0 .227.112.456.25.508.137.053.25.229.25.391 0 .163.107.385.239.494.132.109.287.418.346.685.059.268.176.53.261.582.084.052.154.231.154.398 0 .477.412.736.822.516.19-.101.344-.295.344-.43 0-.136.067-.377.148-.536.082-.159.353-.721.603-1.248.251-.527.522-.958.603-.958.08 0 .146-.178.146-.396 0-.218.113-.49.25-.604a.748.748 0 0 0 .25-.5c0-.161.113-.386.25-.5.138-.114.25-.378.25-.586 0-.208.113-.422.25-.474a.407.407 0 0 0 .25-.347c0-.303.7-1.82.875-1.899.069-.03.125-.137.125-.237 0-.261 1.369-3.03 1.531-3.096.075-.03.136-.228.136-.438s.112-.476.25-.59a.762.762 0 0 0 .25-.508c0-.166.112-.414.25-.551a.984.984 0 0 0 .25-.601c0-.192.112-.393.25-.446.137-.053.25-.173.25-.266 0-.195 1.953-4.337 2.496-5.294.377-.665 1.171-2.446 1.171-2.628 0-.113.072-.206.16-.206.088 0 .246-.318.35-.708.105-.39.243-.746.307-.792.164-.118 2.349-4.565 2.349-4.781 0-.098.113-.271.25-.385.138-.114.25-.377.25-.584 0-.206.113-.469.25-.583a.748.748 0 0 0 .25-.5c0-.161.113-.386.25-.5a.748.748 0 0 0 .25-.5c0-.161.113-.386.25-.5a.748.748 0 0 0 .25-.5.73.73 0 0 1 .24-.491c.131-.109.287-.419.346-.687.059-.269.177-.489.261-.489.084 0 .153-.116.153-.258 0-.143.146-.536.324-.875.178-.339.451-.917.608-1.283.156-.367.335-.705.396-.75.096-.072.544-.981.904-1.834.058-.137.293-.58.52-.984.228-.404.415-.801.415-.882 0-.178.699-1.194.875-1.273.069-.03.125-.158.125-.283 0-.125.096-.288.212-.361.117-.073.338-.331.492-.573.459-.723 3.079-3.272 3.494-3.399.212-.066.488-.201.613-.302.292-.234 1.137-.546 2.606-.962 1.222-.347 14.345-.688 15.818-.411l.598.112v8.166c0 9.907.458 8.767-3.548 8.845-1.938.037-3.005.122-3.083.243-.065.102-.271.233-.457.291-.403.126-2.078 1.69-2.078 1.941 0 .097-.113.219-.25.272-.138.053-.25.189-.25.303 0 .113-.15.379-.334.591-.183.211-.333.523-.333.692 0 .169-.069.308-.153.308-.085 0-.202.218-.261.486-.058.267-.214.527-.346.578-.132.05-.24.273-.24.493 0 .221-.113.495-.25.609a.762.762 0 0 0-.25.512c0 .168-.094.365-.208.438-.283.181-.792 1.174-.792 1.543a.73.73 0 0 1-.234.494c-.128.106-.284.396-.346.644-.062.247-.163.488-.225.534-.061.047-.345.535-.631 1.085-.96 1.85-1.414 2.666-1.573 2.825-.087.087-.158.327-.158.532 0 .206-.063.413-.141.461-.077.048-.833 1.476-1.679 3.174-.846 1.698-1.608 3.131-1.692 3.183-.085.052-.154.241-.154.419 0 .177-.07.323-.156.323-.085 0-.208.169-.272.375a3.563 3.563 0 0 1-.405.792c-.159.229-.393.716-.52 1.083s-.324.766-.439.887a.889.889 0 0 0-.208.532c0 .171-.066.352-.145.401-.08.049-.361.522-.624 1.051-.263.529-.529 1.001-.591 1.047-.063.047-.165.288-.227.535-.062.248-.218.537-.346.644-.129.107-.234.291-.234.41 0 .237-.513 1.273-.701 1.415-.192.145-1.74 3.238-1.861 3.718-.061.244-.179.443-.261.443-.083 0-.2.225-.26.5-.061.275-.173.5-.25.5-.077 0-.19.225-.25.5-.061.275-.179.5-.264.5-.084 0-.153.094-.154.209-.001.21-.769 1.746-1.563 3.125-.237.412-.476.862-.529 1a3.85 3.85 0 0 1-.253.5 3.285 3.285 0 0 0-.25.5c-.052.137-.16.362-.239.5-.08.137-.642 1.262-1.251 2.5-.608 1.237-1.174 2.362-1.258 2.5-.083.137-.497.943-.92 1.791-.423.848-.837 1.542-.919 1.542-.083 0-.15.19-.15.422 0 .232-.113.465-.25.518a.424.424 0 0 0-.251.369c-.001.151-.114.491-.253.756-.219.421-.25 2.698-.243 17.966.004 9.616-.037 17.555-.091 17.643-.14.227-18.499.214-18.923-.013-.316-.169-.323-.545-.323-17.987 0-18.966.042-17.823-.691-19.174a38.87 38.87 0 0 1-.866-1.833 5.961 5.961 0 0 0-.249-.5c-.31-.549-.526-.957-.971-1.834a33.029 33.029 0 0 0-.928-1.685c-.254-.422-.461-.883-.461-1.024a.412.412 0 0 0-.25-.351c-.138-.053-.25-.239-.25-.414a.782.782 0 0 0-.25-.526c-.138-.114-.25-.303-.25-.42 0-.176-1.319-2.875-1.83-3.746a50.818 50.818 0 0 1-.836-1.667c-.379-.779-.833-1.642-1.01-1.917a6.935 6.935 0 0 1-.426-.75c-.38-.902-.783-1.678-.913-1.759-.083-.051-.152-.272-.152-.491 0-.218-.08-.446-.177-.506-.097-.06-.249-.271-.336-.468-.088-.198-.345-.69-.573-1.094-.228-.404-.414-.825-.414-.935 0-.111-.15-.392-.333-.625-.184-.234-.334-.544-.334-.69 0-.146-.069-.265-.153-.265-.084 0-.203-.225-.263-.5-.061-.275-.164-.5-.229-.5s-.325-.45-.578-1c-.252-.55-.53-1-.618-1-.087 0-.159-.178-.159-.396 0-.218-.112-.49-.25-.604a.764.764 0 0 1-.25-.511c0-.166-.075-.349-.166-.406-.189-.116-1.5-2.803-1.5-3.073 0-.097-.075-.177-.167-.177a.166.166 0 0 1-.167-.165c0-.295-.725-1.835-.864-1.835-.075 0-.136-.102-.136-.227s-.15-.418-.333-.651c-.183-.234-.333-.534-.333-.669s-.113-.339-.25-.453a.757.757 0 0 1-.25-.508c0-.166-.113-.414-.25-.551-.138-.138-.25-.363-.25-.5 0-.138-.094-.349-.209-.47-.331-.35-.958-1.573-.958-1.868 0-.148-.074-.269-.163-.269-.09 0-.215-.207-.278-.459-.063-.252-.327-.804-.587-1.226-.26-.423-.472-.845-.472-.938 0-.094-.113-.263-.25-.377-.138-.114-.25-.377-.25-.584 0-.206-.113-.469-.25-.583-.138-.114-.25-.311-.25-.437s-.074-.23-.163-.23c-.09 0-.213-.194-.272-.431-.06-.238-.288-.744-.506-1.125-.219-.382-.488-.9-.598-1.152-.11-.252-.259-.458-.331-.458-.071 0-.13-.079-.13-.176 0-.247-.663-1.675-.893-1.922a31.1 31.1 0 0 1-.774-.918c-.877-1.071-1.518-1.651-1.824-1.651a.797.797 0 0 1-.484-.208c-.144-.144-1.118-.234-3.158-.292-1.623-.046-3.044-.144-3.159-.218-.377-.244-.295-16.735.084-16.834.512-.134 11.551-.09 13.541.054zm-174.666.689c14.712.062 27.275.149 27.916.193l1.167.08-1.167-.168c-.736-.106-11.024-.177-27.916-.193l-26.75-.026 26.75.114zm29.916.551c.367.128.892.23 1.167.226.444-.006.425-.024-.167-.162-1.255-.292-1.745-.324-1-.064zm2.478.509c.262.137.562.246.666.243.273-.008-.595-.481-.894-.487-.137-.003-.035.107.228.244zm1.697.397c.087.081.346.202.575.267.405.116.407.112.084-.142-.351-.276-.94-.388-.659-.125zm1.719.609c.712.308.839.308.43-.002-.178-.134-.474-.244-.657-.243-.231.001-.161.076.227.245zm1.25.494c.602.314.701.314.44-.001a.822.822 0 0 0-.562-.249c-.308.001-.291.034.122.25zm.981.364c.161.042.292.146.292.231 0 .084.086.154.19.154.212 0 1.679.691 1.81.852.046.057.271.158.5.224.397.116.401.111.083-.115-.549-.389-2.761-1.462-2.971-1.442-.108.011-.064.054.096.096zm3.625 1.881c.23.186.511.415.625.511.119.098.209.105.209.016 0-.086-.282-.316-.625-.51-.587-.332-.6-.333-.209-.017zm1.438.968c.195.157.52.399.724.536.203.137.504.362.669.5.164.137.62.512 1.013.833.392.321.954.79 1.248 1.042.295.252.593.458.663.458.194 0-.934-.971-3.019-2.599-.752-.587-1.431-1.065-1.51-1.062-.078.003.017.135.212.292zm4.896 4.01c0 .078.15.277.333.443.183.166.333.252.333.192s-.15-.259-.333-.442c-.183-.184-.333-.27-.333-.193zm1.081 1.358c.263.274.506.469.541.435.087-.087-.712-.934-.881-.934-.075 0 .078.225.34.499zm.585.743c0 .078.263.396.584.708.32.311.583.502.583.424 0-.078-.263-.396-.583-.707-.321-.311-.584-.502-.584-.425zm2 2.692c0 .083.263.52.584.971.33.465.583.7.583.541 0-.153-.07-.279-.155-.279-.086 0-.201-.141-.255-.314-.116-.364-.757-1.143-.757-.919zm-48.494 2.555c-.24.449-.24 35.741 0 36.189a.645.645 0 0 0 .542.309c.249-.009.288-.044.119-.108a.901.901 0 0 1-.372-.279c-.225-.336-.154-36.007.072-36.233.149-.149.15-.2.006-.2-.107 0-.272.145-.367.322zM48 42.738a34.8 34.8 0 0 0 2.25.313l1 .093-1.083-.25a15.77 15.77 0 0 0-2.25-.313l-1.167-.062 1.25.219zm32 .388c0 .092.112.26.25.374.139.116.25.134.25.041 0-.092-.113-.26-.25-.374-.139-.116-.25-.134-.25-.041zm-27.417.509c.453.177 1.863.813 2.621 1.183.341.166.578.234.526.149-.106-.171-1.784-.967-2.039-.967a.251.251 0 0 1-.219-.163c-.03-.089-.318-.201-.639-.248-.376-.054-.465-.038-.25.046zm27.917.678c0 .116.112.323.25.461.319.319.316.077-.005-.348-.138-.181-.245-.231-.245-.113zm-24.5.918c0 .032.297.255.661.495.363.241.623.345.577.231-.075-.185-1.238-.867-1.238-.726zm25 .066c0 .112.157.485.35.829.321.574.34.585.239.138-.119-.529-.589-1.3-.589-.967zm-23.5.898c0 .151 1.352 1.509 1.427 1.434.036-.037-.27-.396-.68-.799-.411-.403-.747-.689-.747-.635zm1.667 1.77c0 .07.15.256.333.413.183.157.333.228.333.157 0-.07-.15-.256-.333-.413-.183-.157-.333-.228-.333-.157zm22.84-.018c-.01.297.324 1.111.417 1.018.045-.045-.03-.336-.165-.648s-.249-.478-.252-.37zm-21.888 1.345c.377.589.714.941.714.745 0-.084-.15-.326-.333-.537-.183-.211-.333-.448-.333-.526 0-.077-.077-.141-.171-.141-.094 0-.038.207.123.459zm22.382.494c-.001.111.105.524.235.917.13.392.277.864.326 1.047.05.183.052-.023.004-.459-.078-.711-.562-2.002-.565-1.505zm-21.668.643c0 .052.113.207.25.345.272.271.306.231.149-.177-.095-.248-.399-.376-.399-.168zm.5 1.03c0 .092.113.26.25.374.14.116.25.134.25.041 0-.092-.112-.26-.25-.374-.139-.116-.25-.134-.25-.041zm.519.791c.015.373.456 1.326.463 1 .003-.183-.101-.521-.232-.75-.131-.229-.235-.342-.231-.25zm21.323.417c.004.229.11.641.236.916l.229.5.013-.439c.008-.242-.098-.654-.235-.917-.249-.476-.249-.476-.243-.06zm-20.766 1.416c.141.617.427.951.419.492-.003-.179-.124-.475-.27-.658-.253-.32-.26-.313-.149.166zm80.135.87c.253.038.628.037.833-.002.205-.04-.002-.071-.46-.07-.459.001-.626.034-.373.072zm178.451.137c-.278.334-.243 16.027.036 16.364.12.144.583.202 1.448.179l1.271-.033-1.29-.057c-1.626-.072-1.479.824-1.423-8.626l.046-7.834 6-.086 6-.087-5.938-.038c-5.17-.034-5.965-.006-6.15.218zm70.891-.132c1.541.028 4.016.028 5.5 0 1.483-.028.222-.05-2.803-.05s-4.239.023-2.697.05zm-252.969.299l-.667.232.667-.087c.366-.048 1.154-.146 1.75-.218l1.083-.132-1.083-.013c-.596-.007-1.384.091-1.75.218zm6.819-.09c.267.084.552.249.634.368.105.153.133.118.096-.118-.039-.252-.195-.342-.634-.368l-.582-.034.486.152zm188.764-.043c.504.034.988.132 1.075.219.087.086.387.151.667.144l.508-.012-.583-.225c-.321-.124-1.034-.216-1.584-.206l-1 .018.917.062zm51.583.134l-.5.243.5-.093a27.52 27.52 0 0 0 1.084-.231l.583-.139-.583-.011a2.804 2.804 0 0 0-1.084.231zm-323.225.659c-.005.275.1.725.234 1 .273.563.251.244-.066-.917l-.159-.583-.009.5zm73.832-.226c-.928.267-.476.334.493.073.495-.133.713-.24.484-.238a4.56 4.56 0 0 0-.977.165zm200.56-.072c.183.044.405.148.492.231a.553.553 0 0 0 .333.145c.096-.003.029-.116-.149-.25-.177-.135-.477-.236-.666-.226-.335.019-.335.022-.01.1zm-253.483.964c.125 1.262.127 7.144.004 8.584-.08.932-.066 1.013.097.583.274-.718.276-9.187.003-9.75-.174-.358-.188-.276-.104.583zm299.775-.466c-.482.241-.846.468-.81.504.036.036.354-.089.706-.278.352-.189.731-.343.841-.343a.394.394 0 0 0 .304-.167c.161-.26-.094-.19-1.041.284zm-293.345.301c-.259.568-.282 15.446-.024 15.926.162.305.361.321 3.541.286l3.369-.036-3.333-.089-3.333-.088V56.25l9.916-.047c6.183-.03 10.168.015 10.584.118.366.092.929.206 1.25.255l.583.09-.667-.289c-.604-.261-1.648-.293-11.178-.34l-10.512-.051-.196.432zm44.553-.076c-.864.409-.395.402.583-.009.413-.173.6-.312.417-.31-.183.002-.633.146-1 .319zm203.788-.114c.125.125.412.281.636.346.331.096.304.052-.136-.228-.629-.399-.828-.446-.5-.118zm-205.509.86c-.396.219-.88.448-1.075.51-.327.104-.921.569-.726.569.047 0 .596-.262 1.22-.583.625-.32 1.229-.583 1.344-.583.114-.001.208-.076.208-.168 0-.235-.153-.195-.971.255zm206.638-.36c0 .178 1.049 1.112 1.143 1.018.043-.044.047-.098.009-.121a11.844 11.844 0 0 1-.611-.531c-.298-.269-.541-.434-.541-.366zm42.205.444c-.299.272-.449.491-.333.485.116-.005.385-.23.599-.5.487-.616.424-.613-.266.015zm-267.62.18c.366.193.799.47.964.615.24.213.28.217.205.022-.092-.241-1.356-.99-1.669-.989-.09 0 .135.158.5.352zm16.17 1.111c-.272.158-.589.373-.704.479-.115.106-.474.355-.797.555-.323.2-.588.432-.588.516 0 .129.919-.473 2.417-1.584.452-.336.277-.317-.328.034zm249.856.398c-.235.3-.383.585-.33.634.054.049.134-.015.179-.141.045-.126.228-.376.408-.555.179-.18.291-.362.248-.405-.043-.043-.27.167-.505.467zm-263.649.515c.204.218.371.484.371.593 0 .109.075.198.167.198.091 0 .172.131.179.291.009.187.045.214.1.076.102-.254-.587-1.32-.942-1.457-.14-.055-.087.074.125.299zm263.038.469c0 .098-.113.291-.25.429-.138.137-.249.338-.247.446.005.259.655-.574.66-.845.002-.115-.034-.208-.08-.208s-.083.08-.083.178zm-251.95.536c-.074.118-.35.38-.614.583-.265.203-.402.369-.304.369.097 0 .456-.262.796-.583.34-.321.537-.583.437-.583-.1 0-.242.096-.315.214zm215.116.578c0 .092.113.26.25.374.14.116.25.134.25.041 0-.092-.112-.26-.25-.374-.139-.116-.25-.134-.25-.041zm-225.333.187c0 .103.07.187.155.187.085 0 .188.169.227.375.07.36.074.36.095.021.013-.195-.089-.448-.227-.562-.173-.144-.25-.15-.25-.021zm261.333.271c-.117.142-.176.295-.131.341.046.046.18-.033.298-.175s.177-.295.131-.341c-.046-.046-.18.033-.298.175zm-253.291 1.011c-.826.856-1.014 1.24-.292.598.655-.584 1.479-1.526 1.324-1.515-.086.006-.551.419-1.032.917zm217.791-.167c0 .09.104.313.23.494.127.18.267.441.312.578.045.138.052.026.016-.247-.06-.461-.558-1.197-.558-.825zm35.03.42c-.121.193-.187.383-.148.423.115.115.488-.411.425-.6-.032-.096-.156-.016-.277.177zm-260.36.351c.001.211.075.497.164.635.123.19.162.123.164-.282.001-.293-.073-.578-.164-.635-.093-.057-.166.067-.164.282zm259.862 1.026c-.109.302-.195.656-.19.787.004.131.122-.088.261-.486.14-.399.226-.753.191-.788-.035-.034-.152.185-.262.487zm-314.831.896c-.111.367-.195.847-.188 1.065.008.219.036.323.064.231l.257-.856c.114-.379.175-.783.137-.899-.039-.115-.16.091-.27.459zM118.404 68c0 1.971.024 2.777.054 1.792.029-.986.029-2.598 0-3.584-.03-.985-.054-.179-.054 1.792zm4.658-2.708c-.779 1.07-.701 1.226.105.208.29-.367.46-.667.378-.667-.082 0-.299.207-.483.459zm221.438-.094c0 .053.116.349.258.658.258.559.258.559.155.061-.089-.432-.413-.996-.413-.719zm32.833.385c-.117.142-.176.296-.131.342.046.046.18-.033.298-.175s.177-.296.131-.341c-.046-.046-.18.032-.298.174zm-255.285 1.084c-.048.183-.147.333-.221.333-.074 0-.183.225-.244.5-.06.275-.171.5-.245.5-.075 0-.183.123-.241.274-.228.594.401-.15.775-.917.208-.426.453-.829.545-.896.101-.074.078-.124-.058-.125-.123-.002-.263.147-.311.331zm254.794.234c-.127.237-.187.476-.134.53.128.127.498-.564.423-.789-.032-.095-.162.021-.289.259zM345 66.898c0 .035.112.279.249.541.26.499.317.408.146-.231-.082-.304-.395-.551-.395-.31zm-282.472.383c-.288.537-.236.853.068.418.144-.206.232-.466.194-.578-.041-.123-.145-.059-.262.16zm20.84.833c-.111.2-.198.538-.195.75.007.369.018.366.261-.082.139-.257.227-.595.194-.75-.05-.239-.09-.226-.26.082zm262.137.011c.003.069.116.271.25.449.25.33.326.165.144-.31-.102-.266-.404-.372-.394-.139zm30.858.223c-.121.193-.187.383-.148.422.115.116.488-.41.425-.599-.032-.096-.156-.016-.277.177zm-314.348.5c-.267.891-.136 1.023.152.152.121-.368.183-.706.137-.752-.046-.046-.176.224-.289.6zm58.18.933c-.27.504-.244.625.068.313.145-.145.233-.357.195-.47-.042-.127-.143-.067-.263.157zm225.81-.189a.553.553 0 0 0 .145.333c.083.087.187.308.231.492.078.325.081.325.1-.01.01-.189-.091-.489-.226-.667-.134-.178-.247-.245-.25-.148zm-284.474.444c-.234.234-.258.464-.049.464.153 0 .404-.503.302-.604-.031-.032-.145.032-.253.14zm58.177.793c-.303.486-.255.812.054.37.145-.206.238-.448.208-.538-.03-.09-.148-.015-.262.168zm-36.912-.07c-.055.088-.143.46-.198.826-.054.366-.055.552-.003.415.053-.138.174-.411.27-.609.176-.363.114-.928-.069-.632zm292.496.514c-.411.808-.366 1.109.05.334.188-.351.319-.699.292-.773-.028-.075-.182.123-.342.439zM61 71c-.132.082-.185.204-.117.271.067.068.21.036.317-.071.252-.252.111-.392-.2-.2zm285.5-.052c0 .308.489.833.495.531.003-.149-.108-.365-.245-.479-.137-.114-.25-.138-.25-.052zm51.629.674c.392.035.992.035 1.334-.001.341-.036.02-.064-.713-.064-.733.001-1.013.03-.621.065zm-73.796.295c.548.313.819.316.407.005-.178-.135-.436-.244-.573-.244-.145 0-.075.101.166.239zm72.184-.07c-.219.088-.359.2-.311.248.049.049.341-.022.65-.156.613-.268.308-.35-.339-.092zm-277.313.192c-.098.117-.229.419-.292.67-.153.61-.368.578-.559-.084-.186-.644-.263-.011-.081.667.106.396.561.526.561.16 0-.118.149-.507.331-.864.338-.662.358-.932.04-.549zm205.963.229c0 .055.189.249.42.431.231.182.536.556.679.831.142.276.297.463.343.417.112-.113-.418-.937-.904-1.405-.396-.382-.538-.455-.538-.274zm21.838.075c.003.132.116.386.25.564.173.228.243.252.24.083-.003-.132-.116-.386-.25-.564-.173-.228-.243-.252-.24-.083zm48.62.056c-.16.121-.292.267-.292.322 0 .188.474-.078.566-.317.109-.286.096-.287-.274-.005zm-313.441.569c-.113.21-.172.51-.131.666.056.21.08.19.094-.078.011-.199.106-.39.211-.425.106-.036.156-.173.112-.306-.06-.178-.134-.142-.286.143zm15.316-.182c.138.051.475.2.75.33l.5.237-.417-.339c-.229-.187-.566-.336-.75-.33-.238.006-.262.036-.083.102zm277.081.393c-.062.281-.068.556-.014.611.055.054.1-.059.1-.252 0-.194.075-.398.166-.455.21-.129.219-.416.014-.416-.085 0-.204.23-.266.512zm-315.139.292c-.151.168-.275.367-.275.443 0 .075.15-.036.333-.247.183-.212.333-.411.333-.443 0-.124-.127-.044-.391.247zm288.058.319c0 .25.489.816.495.573.003-.121-.108-.333-.245-.47-.137-.138-.25-.184-.25-.103zm47.062.115c-.103.112-.239.386-.302.608-.094.329-.047.302.25-.145.368-.553.4-.842.052-.463zm-295.287.428c.076.23.158 13.578.181 29.664.023 16.086.074 29.324.113 29.417.039.093.077-13.041.085-29.187.011-26.556-.013-29.401-.253-29.833-.229-.412-.246-.42-.126-.061zm46.225-.166c-.738.09-.798.117-.305.139.336.015.72.069.853.12.133.051.287-.024.342-.166.055-.143.083-.248.063-.233-.02.015-.449.078-.953.14zm228.675.073c-.114.137-.168.345-.121.463.057.14.091.118.1-.064.007-.153.106-.311.221-.352.115-.041.163-.124.107-.185-.056-.06-.194.002-.307.138zm-315.717.274c-.16.176-.228.319-.15.319.077 0 .276-.15.442-.333.166-.183.234-.327.151-.319-.083.007-.282.157-.443.333zm23.33-.247c-.067.067-.121.237-.121.377 0 .188.049.207.185.071.102-.102.157-.272.122-.378-.036-.105-.119-.136-.186-.07zm55.962.154c-.367.121-.854.229-1.083.24-.229.012-.642.131-.917.265-.424.207-.437.229-.083.146a65.3 65.3 0 0 1 1.583-.334 43.392 43.392 0 0 0 1.75-.386l.583-.151H139c-.321 0-.883.099-1.25.22zm188.93-.083c-.007.14.09.402.217.583.126.181.266.441.311.579.045.137.053.029.018-.242-.035-.27-.127-.533-.204-.583-.076-.05-.182-.204-.234-.342-.083-.219-.097-.218-.108.005zM57.277 75.606c-.856.667-1.036.933-.319.47.472-.303 1.315-1.076 1.175-1.076-.043 0-.428.273-.856.606zm24.237-.356c-.014.183-.135.479-.269.657-.135.178-.244.403-.242.5.001.097.157-.065.346-.36.189-.295.309-.67.267-.834-.067-.257-.081-.252-.102.037zm52.778.032c-.161.041-.292.145-.292.23 0 .085-.169.163-.375.174-.228.012-.273.047-.115.089.143.039.593-.081 1-.265.664-.302.544-.428-.218-.228zm259.663-.015c-.067.067-.122.237-.122.377 0 .188.05.207.186.071.102-.102.156-.272.121-.378-.035-.105-.118-.136-.185-.07zm-20.253.472c-.279.613-.253.741.06.294.145-.206.236-.456.202-.556-.033-.1-.151.018-.262.262zm-46.369.491c0 .138.067.291.148.342.081.05.196.336.255.634.127.642.597 1.366.597.919 0-.15-.075-.318-.166-.375-.092-.057-.251-.437-.354-.846-.186-.739-.48-1.151-.48-.674zm21.186.146c-.01.16.138.573.331.916.33.59.343.597.236.126-.062-.274-.173-.536-.247-.583-.073-.047-.171-.235-.217-.418-.068-.272-.087-.28-.103-.041zm-292.894.386c-.344.225-.625.45-.625.5 0 .126.988-.467 1.2-.72.241-.288.146-.252-.575.22zm75.798-.122c-.481.269-1.164.82-.837.674.734-.326 1.414-.733 1.414-.845 0-.162.037-.173-.577.171zm-50.727.375c-.12.193-.187.383-.148.422.116.116.489-.41.426-.6-.032-.095-.157-.016-.278.178zm292.512-.019c-.303.485-.255.812.054.37.145-.206.238-.448.208-.539-.03-.09-.148-.014-.262.169zm-319.134.582c-.178.135-.245.247-.148.25.098.003.323-.105.5-.239.178-.135.245-.247.148-.25-.098-.003-.323.104-.5.239zm75.557.172c-.248.229-.493.417-.545.417-.053 0-.475.3-.939.666-.464.367-.798.667-.742.667.199 0 1.428-.88 1.428-1.022 0-.08.094-.147.209-.149.253-.006 1.445-.985 1.206-.991-.092-.003-.37.183-.617.412zm263.327.19c-.16.315-.289.702-.285.859.003.156.158-.04.343-.435.407-.868.356-1.239-.058-.424zM53 78c0 .092-.131.173-.292.18-.16.007-.21.047-.111.088.099.041.399-.04.667-.179.441-.23.452-.254.111-.255-.206 0-.375.074-.375.166zm27.197.036a.748.748 0 0 0-.197.451c0 .174.084.134.267-.127.292-.418.245-.639-.07-.324zm292.499.55c-.115.251-.174.491-.132.533.113.113.467-.609.399-.814-.032-.097-.153.03-.267.281zm-321.529-.003c-.567.324-.054.329.689.007.51-.222.523-.244.144-.244-.229-.001-.604.106-.833.237zm277.172.177c-.003.097.104.322.239.5s.247.244.25.147c.003-.097-.105-.322-.239-.5-.135-.178-.247-.244-.25-.147zm-279.589.32c-.55.116-.812.217-.583.225.229.007.866-.088 1.416-.212.55-.124.813-.225.584-.224-.229 0-.867.095-1.417.211zm30.917.003c-.118.142-.177.296-.131.342.046.046.18-.033.297-.175.118-.142.177-.296.131-.341-.046-.046-.18.032-.297.174zm312.686.47c-.273.686-.226.943.069.377.14-.267.223-.567.186-.666-.038-.099-.152.03-.255.289zm-20.007.141c-.007.153-.099.307-.204.342-.106.035-.156.173-.112.305.06.179.134.142.286-.142.113-.211.169-.474.125-.583-.046-.113-.087-.08-.095.078zm-246.193.987c-.558.557-.989 1.038-.959 1.068.031.029.534-.427 1.118-1.014.583-.588 1.015-1.068.958-1.068-.057 0-.56.456-1.117 1.014zm223.519-.923a.547.547 0 0 0 .145.334c.083.087.187.308.231.491.078.326.08.325.099-.009.011-.189-.09-.489-.225-.667-.135-.178-.247-.245-.25-.149zM79.1 80.193c-.147.21-.267.477-.267.594 0 .117-.067.213-.149.213-.081 0-.197.127-.257.282-.095.248-.066.245.232-.026.188-.169.341-.384.341-.477 0-.093.125-.307.277-.475.152-.168.235-.348.183-.399-.051-.051-.213.078-.36.288zm249.744-.026c0 .137.11.395.245.573.184.245.244.263.244.074 0-.138-.11-.396-.244-.574-.185-.244-.245-.262-.245-.073zm63.03.662c-.303.486-.254.812.055.37.144-.206.238-.448.208-.538-.03-.09-.148-.015-.263.168zm-41.702.263a.547.547 0 0 0 .145.333c.083.087.187.308.231.492.078.325.08.325.099-.01.011-.189-.09-.489-.225-.667-.135-.178-.247-.245-.25-.148zm-20.838.251c0 .143.109.406.244.583.318.421.322.239.006-.365-.137-.263-.249-.361-.25-.218zm42.288.091c-.067.067-.122.237-.122.377 0 .188.049.206.185.07.102-.102.157-.271.122-.377-.035-.105-.119-.137-.185-.07zm19.752.729c-.303.485-.254.812.055.37.144-.206.238-.449.208-.539-.03-.09-.148-.014-.263.169zm-313.677.206c-.233.234-.257.464-.048.464.153 0 .404-.502.302-.604-.031-.031-.145.032-.254.14zm293.65.048c-.013.183-.134.479-.269.657-.135.177-.236.477-.225.666.018.327.023.328.102.017a2.85 2.85 0 0 1 .328-.7c.134-.206.21-.509.167-.674-.069-.264-.081-.26-.103.034zm-20.679.188c-.001.195.111.448.249.562.314.261.315.162.001-.44-.216-.413-.249-.43-.25-.122zm-20.834.071c0 .143.109.406.244.584.318.421.322.238.006-.366-.137-.263-.249-.36-.25-.218zm-205.723.489c-.244.274-.444.554-.444.621 0 .067.228-.129.508-.435s.48-.585.444-.621c-.035-.035-.264.161-.508.435zm-47.044.193c-.315.355-.315.356.058.16.206-.108.375-.269.375-.357 0-.237-.08-.201-.433.197zm313.794.09c-.287.537-.236.852.068.418.144-.206.232-.466.195-.578-.041-.123-.145-.06-.263.16zm-60.445.635c.122.547.205.685.337.553.047-.048-.034-.304-.181-.57l-.268-.483.112.5zm20.757-.145c.016.392.482.988.488.624.003-.195-.107-.448-.244-.562-.138-.114-.248-.142-.244-.062zm-227.892.401c-.154.221-.281.466-.281.543 0 .078-.112.254-.25.392-.138.137-.244.376-.237.53.011.226.032.233.11.032.054-.136.198-.347.32-.47.123-.123.224-.327.224-.453s.122-.298.271-.382c.15-.083.239-.251.198-.373-.05-.151-.162-.093-.355.181zm247.133.34c-.062.281-.068.556-.013.611.054.054.099-.059.099-.252 0-.194.075-.398.167-.455.209-.129.218-.416.013-.416-.084 0-.204.23-.266.512zm19.938.173c-.122.275-.186.536-.143.58.044.043.175-.151.291-.432.276-.666.141-.801-.148-.148zm-316.291 1.94c-1.816 1.775-2.508 2.375-2.742 2.375-.084 0-.152.079-.152.176 0 .464 2.655-1.839 4.4-3.817.732-.829.045-.252-1.506 1.266zm256.772-1.497c0 .113.15.486.334.828.183.342.333.529.333.416 0-.114-.15-.487-.333-.829-.184-.342-.334-.529-.334-.415zm20.834.002c0 .112.157.485.349.829.322.574.341.585.24.138-.119-.529-.589-1.3-.589-.967zm18.347.678c-.1.185-.18.435-.18.556.001.12.115.002.253-.264.139-.266.22-.516.179-.556-.04-.04-.153.079-.252.264zm19.843.215c-.117.189-.177.379-.132.424.045.045.168-.082.275-.281.252-.47.135-.587-.143-.143zm-267.756.24c-.156.408-.122.448.149.177.283-.283.319-.44.101-.44-.082 0-.194.118-.25.263zm247.326 1.173c-.154.612-.032.649.191.057.103-.271.126-.493.052-.493-.074 0-.183.196-.243.436zm19.861-.002c-.067.067-.121.236-.121.377 0 .187.049.206.185.07.102-.102.157-.272.122-.377-.036-.106-.119-.137-.186-.07zm-267.996.839c-.411.808-.366 1.109.05.334.188-.351.319-.699.292-.774-.028-.074-.182.124-.342.44zm231.375-.31c0 .113.157.486.349.829.322.574.341.585.24.138-.119-.528-.589-1.3-.589-.967zm-20.656.287c0 .091.11.312.244.49.135.178.245.248.245.157 0-.092-.11-.313-.245-.49-.134-.178-.244-.249-.244-.157zm37.019.264c-.121.193-.188.383-.149.423.116.115.489-.411.426-.6-.032-.096-.157-.016-.277.177zm19.762.259c-.411.808-.366 1.109.05.334.188-.351.319-.699.292-.774-.028-.074-.182.124-.342.44zM70.333 90.008c-.229.181-.563.441-.742.578-.518.393-.133.287.457-.128.295-.206.573-.42.619-.475.045-.055.195-.143.333-.195.222-.084.222-.096 0-.103-.138-.004-.437.141-.667.323zm50.362-.06c-.288.537-.237.852.067.418.145-.206.232-.466.195-.578-.041-.123-.145-.06-.262.16zm211.816-.198c0 .092.11.312.244.49.135.178.245.249.245.157s-.11-.312-.245-.49c-.134-.178-.244-.249-.244-.157zm36.024.322c-.279.613-.252.741.061.294.144-.206.235-.456.202-.556-.033-.1-.152.018-.263.262zm-15.196-.216c-.003.058.106.321.243.583.137.263.25.361.25.218.001-.245-.482-1.029-.493-.801zm34.848.697c-.273.686-.226.943.069.377.139-.267.223-.567.185-.666-.037-.099-.152.03-.254.289zm-320.27 1.035c-.367.225-.742.438-.834.472-.091.033-.111.121-.042.194.068.073.261.008.429-.144.169-.152.364-.277.434-.277.069 0 .317-.15.551-.333.585-.461.268-.409-.538.088zm265.284-.096c.23.369.391.323.241-.068-.054-.142-.176-.257-.272-.257-.109 0-.098.119.031.325zm34.738.331c-.171.355-.27.746-.221.87.056.142.094.106.102-.097.007-.176.132-.451.278-.612.145-.161.239-.408.208-.55-.034-.157-.177-.006-.367.389zm-247.731-.038c-.114.247-.205.602-.201.79.004.247.075.182.255-.233.297-.685.247-1.203-.054-.557zm267.473.021c-.114.214-.175.422-.135.462.131.131.488-.417.414-.637-.045-.135-.147-.071-.279.175zm-54.169.361c0 .24.47 1.194.482.977.003-.058-.104-.358-.237-.667-.134-.308-.244-.448-.245-.31zm53.69.905c-.291.64-.247.935.054.358.139-.267.23-.557.201-.643-.029-.087-.144.041-.255.285zm-321.942.017c-.416.314-.262.312.346-.005.263-.137.365-.247.227-.244-.137.002-.395.114-.573.249zm289.073-.191c0 .035.112.279.249.541.26.499.317.408.146-.231-.081-.304-.395-.551-.395-.31zM64 93.587a6.251 6.251 0 0 1-.898.417c-.265.095-.444.209-.399.255.087.086 1.362-.444 1.797-.746.38-.265-.026-.205-.5.074zm55.708.566c-.114.371-.203.845-.196 1.053.006.223.113.047.259-.429.136-.444.225-.917.197-1.053-.028-.135-.145.058-.26.429zm214.311-.512c-.01.123.087.423.216.667.13.243.332.699.449 1.012.117.314.244.48.281.37.036-.111-.007-.292-.097-.404-.089-.111-.215-.446-.279-.744-.063-.298-.179-.542-.257-.542-.077 0-.175-.131-.217-.292-.042-.16-.085-.19-.096-.067zm20.814.577c0 .133.113.335.25.449.189.157.25.159.25.008 0-.109-.112-.311-.25-.449-.214-.214-.25-.215-.25-.008zm-293.316.296c-.658.263-.307.323.406.069.363-.129.51-.234.327-.232a2.483 2.483 0 0 0-.733.163zm325.094-.07c-.249.25-.122.606.139.389.137-.114.25-.273.25-.353 0-.173-.231-.194-.389-.036zm-19.865.402c-.06.19-.065.39-.011.444.054.055.098-.026.098-.179s.075-.278.167-.278a.167.167 0 0 0 .167-.166c0-.304-.309-.173-.421.179zM59.5 95.167c-.203.131-.182.162.115.164.201.001.412-.073.468-.164.131-.213-.255-.213-.583 0zm295.833.281c0 .099.119.395.265.658l.264.477-.109-.5c-.112-.51-.42-.976-.42-.635zm30.877.337c-.114.242-.176.471-.138.509.1.1.459-.62.397-.798-.029-.083-.145.047-.259.289zm-328.576-.197c-.048.049-.417.159-.819.245-.715.154-.71.155.185.069.832-.081 1.613-.402.978-.402-.141 0-.295.04-.344.088zm308.704.65c-.263.691-.191.92.088.278.135-.311.209-.603.165-.648-.045-.044-.159.122-.253.37zm-312.263-.084c-.087.084-.346.187-.575.228-.229.04-.031.042.441.003 1.343-.111 2.026-.352 1.051-.371-.417-.008-.83.055-.917.14zm280.936.013c0 .137.145.55.322.916.177.367.322.555.322.417 0-.138-.145-.55-.322-.917-.177-.366-.322-.554-.322-.416zm-305.085.703c-.314.448-.406 37.073-.093 36.88.11-.068.168-6.324.169-18.218.002-9.964.048-18.284.103-18.489l.1-.374 10.356-.044 10.356-.044-10.366-.041-10.365-.04-.26.37zm89.258.852c-.101.58-.179 1.274-.173 1.542.018.849.307-.12.43-1.446.134-1.441-.013-1.496-.257-.096zm266.601-.805c-.065.183-.165.445-.222.583-.083.202-.048.198.183-.022.157-.15.257-.412.222-.583-.061-.294-.072-.293-.183.022zm-29.952.114c0 .144.113.355.25.469.318.264.315.016-.005-.407-.196-.259-.245-.271-.245-.062zm29.52 1.061c-.011.188-.108.43-.217.539-.108.108-.152.242-.097.297.157.157.491-.578.408-.895-.059-.222-.079-.21-.094.059zm-49.409.599c.304.883.723 1.518.723 1.096 0-.158-.074-.287-.165-.287-.09 0-.249-.338-.353-.75-.104-.413-.246-.75-.316-.75s-.02.311.111.691zm29.723-.463c0 .156-.12.466-.266.689-.146.223-.227.502-.18.619.054.134.091.105.099-.078.007-.16.082-.291.167-.291.18 0 .424-.979.279-1.123-.055-.055-.099.028-.099.184zm-9.334.315c0 .137.113.343.25.457.204.169.25.161.25-.043 0-.137-.112-.343-.25-.457-.203-.169-.25-.161-.25.043zm28.438.909a6.258 6.258 0 0 1-.202.506c-.053.115-.024.209.066.209.089 0 .211-.197.272-.437.126-.504.02-.722-.136-.278zm-27.932.155c-.003.104.143.517.324.916.181.4.329.615.328.477-.003-.298-.644-1.668-.652-1.393zm8.009.699c-.115.214-.175.422-.135.462.131.131.487-.417.414-.637-.045-.135-.148-.071-.279.175zm-28.176.382c-.003.149.107.365.245.479.32.266.323-.006.005-.427-.206-.272-.246-.28-.25-.052zm20.833.835c-.003.058.107.32.244.583.137.263.249.36.25.218.001-.245-.482-1.029-.494-.801zm6.859.18a.737.737 0 0 0-.197.451c0 .174.083.134.267-.128.292-.417.245-.638-.07-.323zm-27.197.423c0 .092.112.26.25.374.139.116.25.134.25.041 0-.092-.113-.26-.25-.374-.14-.116-.25-.134-.25-.041zm46.364.577c-.109.108-.197.351-.197.539.001.282.045.258.253-.142.277-.53.251-.705-.056-.397zm-19.518.158c-.007.153-.099.307-.205.342-.105.035-.155.172-.111.305.06.179.134.142.286-.143.113-.211.169-.473.124-.583-.046-.113-.086-.079-.094.079zm-26.327.162c-.011.149.09.524.224.833.179.411.245.469.25.219.004-.188-.061-.413-.144-.5-.083-.087-.186-.308-.23-.492-.057-.234-.086-.252-.1-.06zm20.314.041c0 .137.075.296.167.353.091.056.166-.01.166-.147 0-.138-.075-.297-.166-.353-.092-.057-.167.009-.167.147zm.341.827c-.004.17.098.545.227.834.13.289.28.637.334.775.055.138.068.063.029-.167-.107-.632-.582-1.792-.59-1.442zm24.687.057c-.288.537-.236.852.068.418.144-.206.232-.466.194-.578-.041-.123-.145-.06-.262.16zm-44.81.774c.063.168.115.374.115.458 0 .084.075.153.167.153.257 0 .198-.326-.116-.637-.264-.262-.275-.26-.166.026zm25.124.179c-.127.237-.187.476-.134.53.128.127.498-.564.423-.789-.032-.095-.162.021-.289.259zm19.172.572c-.114.214-.175.422-.135.462.131.131.488-.418.415-.637-.045-.135-.148-.071-.28.175zm-43.832.527c-.015.353.275.766.429.611.071-.071.049-.181-.049-.245a.871.871 0 0 1-.274-.366c-.084-.222-.096-.222-.106 0zm20.324.093c-.003.189.104.489.239.667.33.436.334-.018.005-.593-.218-.381-.239-.388-.244-.074zm3.765.719c-.172.538-.272 1.082-.222 1.208.05.127.097.039.105-.195.007-.234.082-.496.166-.583.152-.157.44-1.409.324-1.409-.034 0-.201.441-.373.979zm19.267-.104c-.284.785-.245.998.056.305.136-.314.225-.638.198-.721-.027-.082-.142.105-.254.416zm-42.869.463c.004.338.289.76.422.627.06-.061-.01-.281-.157-.491-.172-.246-.266-.294-.265-.136zm20.336.921c.003.178.125.475.27.658.254.32.26.313.15-.167-.142-.616-.427-.95-.42-.491zm22.026-.056c-.234.234-.258.464-.049.464.153 0 .404-.503.302-.604-.031-.032-.145.032-.253.14zm-19.252.75c-.063.103-.143.511-.177.909-.034.397-.031.572.008.388a3.52 3.52 0 0 1 .25-.692c.194-.389.122-.933-.081-.605zm18.901.408c-.007.153-.1.307-.205.342-.105.035-.155.173-.111.305.059.179.133.142.286-.142.113-.211.169-.474.124-.583-.046-.113-.087-.08-.094.078zm-40.929.79c.085.57.391 1.096.547.941.045-.046-.008-.193-.119-.327-.111-.134-.272-.454-.357-.712-.147-.444-.151-.438-.071.098zm19.761-.067c0 .349.472 1.307.482.977.003-.104-.104-.441-.237-.75-.169-.387-.244-.457-.245-.227zm20.408.971c-.165.306-.258.663-.206.793.068.172.097.155.106-.062.007-.164.136-.485.286-.713.15-.229.237-.452.193-.496-.043-.043-.214.172-.379.478zm-18.751.57c.002.357.038.403.164.209.211-.326.211-.667 0-.667-.091 0-.165.206-.164.458zm-20.836.221c0 .098.113.291.25.428.26.26.324.112.149-.343-.114-.298-.399-.359-.399-.085zm19.673.696c.006.4.747 1.428.91 1.264.054-.054.123-.351.153-.66.029-.309.021-.394-.019-.187-.104.541-.343.461-.623-.209-.28-.671-.43-.745-.421-.208zm-19.167.468c.003.132.115.386.25.564.172.228.243.252.239.083-.003-.132-.115-.386-.25-.564-.172-.228-.243-.252-.239-.083zm37.999.901c-.112.135-.174.331-.139.436.035.105.153-.005.262-.244.223-.489.179-.556-.123-.192zm-37.493.423c0 .137.107.437.238.666.138.241.239.311.239.167 0-.138-.108-.437-.239-.667-.137-.24-.238-.311-.238-.166zm36.879 1.09c-.15.391.012.437.242.069.129-.206.14-.326.03-.326-.095 0-.218.116-.272.257zm-36.388.248c.003.337.288.76.422.626.06-.06-.011-.281-.158-.491-.172-.245-.266-.294-.264-.135zm36.005.735c-.113.137-.174.345-.135.462.045.135.148.071.28-.175.245-.458.151-.643-.145-.287zm-35.502.698c.01.295.494.815.494.531 0-.144-.112-.355-.25-.469-.137-.114-.247-.142-.244-.062zm35.013.747c-.122.276-.186.536-.143.58.044.043.175-.151.291-.432.276-.666.141-.801-.148-.148zm-34.512.441c-.004.115.143.488.327.83.183.343.33.511.326.375-.009-.315-.643-1.486-.653-1.205zm34.023.889c-.121.193-.187.383-.148.422.115.116.488-.41.425-.6-.032-.095-.156-.016-.277.178zm-33.352.943c-.006.207.064.375.156.375.091 0 .166.12.166.267 0 .351.519 1.437.632 1.324.049-.049-.028-.333-.17-.631a52.945 52.945 0 0 1-.516-1.126c-.211-.478-.26-.515-.268-.209zm32.864.302c-.115.124-.208.321-.208.437 0 .116.12.039.267-.171.3-.429.26-.612-.059-.266zm-.602 1.563c-.171.355-.271.746-.222.87.057.142.094.106.103-.097.007-.176.132-.451.277-.612.146-.161.24-.408.209-.55-.035-.157-.178-.006-.367.389zm-31.273.763c0 .047.073.215.162.375.09.159.278.582.419.94.141.357.302.605.357.55.055-.055-.058-.428-.252-.828-.194-.401-.353-.817-.353-.926 0-.108-.075-.197-.166-.197-.092 0-.167.039-.167.086zm30.273 1.775c-.17.362-.274.694-.23.738.105.105.662-1.073.593-1.255-.029-.078-.192.155-.363.517zm-29.267.745c-.003.104.106.404.243.667.137.262.247.365.244.227-.006-.299-.479-1.167-.487-.894zm28.696.899c-.111.178-.202.419-.201.534.001.116.114-.006.253-.272.289-.554.251-.746-.052-.262zm-28.202.621c0 .092.113.26.25.374.139.116.25.134.25.041 0-.092-.113-.26-.25-.374-.139-.116-.25-.134-.25-.041zm27.697.577a.743.743 0 0 0-.197.451c0 .174.084.134.267-.128.292-.417.245-.638-.07-.323zm-27.186.547c0 .183.11.479.244.657.325.429.321-.003-.005-.574-.211-.368-.238-.378-.239-.083zm26.656.917c-.117.281-.174.548-.129.594.046.046.179-.147.295-.428.117-.281.174-.548.129-.594-.046-.046-.179.147-.295.428zm-26.166.438a.822.822 0 0 0 .249.562c.315.261.315.162.001-.44-.216-.413-.249-.43-.25-.122zm25.7.903c-.129.206-.14.325-.031.325.096 0 .218-.115.272-.257.15-.391-.011-.437-.241-.068zm-.526 1.226c-.127.238-.187.476-.133.53.127.128.497-.563.422-.789-.032-.095-.162.022-.289.259zm-24.094.516c.259 1.162-.611 1.083 12.016 1.083 11.991 0 11.903.006 11.903-.704 0-.099-.14-.019-.311.179l-.311.359h-22.676l-.367-.709c-.306-.594-.348-.627-.254-.208zM9.976 133.876c.07.07 4.51.107 9.867.084l9.74-.043-9.866-.084c-5.427-.046-9.81-.026-9.741.043zm89.834 0c.069.07 4.284.107 9.366.084l9.241-.043-9.367-.084c-5.152-.046-9.31-.026-9.24.043z" fill="#BB1425"/><path fill-rule="evenodd" clip-rule="evenodd" d="M0 34.08v8.42h9.833l.042 45.625.042 45.625 9.875.043 9.875.043V115.52c0-17.2.017-18.338.291-18.666.291-.348.34-.35 12.075-.393 9.157-.035 11.83-.091 11.992-.253.115-.114.587-.211 1.05-.215.844-.008 1.244-.075 3.258-.553 1.969-.467 2.578-.638 3.109-.874.289-.128.646-.233.794-.233.148 0 .399-.07.558-.156.264-.142.957-.451 2.539-1.13.321-.138.696-.319.834-.404a3.22 3.22 0 0 1 .541-.251c.161-.053.292-.145.293-.203 0-.058.431-.331.956-.606.526-.275 1.042-.575 1.146-.666a6.8 6.8 0 0 1 .563-.417c.205-.138.544-.381.755-.542.21-.16.463-.291.564-.291.1 0 .182-.113.182-.25 0-.138.068-.25.152-.25.366 0 4.507-3.944 4.511-4.297.002-.118.116-.257.253-.31.138-.052.25-.158.25-.235 0-.077.262-.425.583-.774.32-.349.583-.71.583-.803.001-.092.189-.37.418-.617.229-.248.416-.523.416-.612 0-.089.095-.261.211-.382.115-.121.302-.408.415-.637.113-.229.281-.548.373-.708l.336-.584c.092-.16.21-.404.262-.541a3.38 3.38 0 0 1 .25-.5 4.01 4.01 0 0 0 .256-.5c.055-.138.316-.7.579-1.25.264-.55.528-1.246.587-1.545.059-.3.173-.586.253-.635.08-.05.145-.294.145-.543 0-.249.101-.601.225-.782.124-.181.274-.696.334-1.145.059-.449.177-.9.262-1.002.084-.102.205-.672.268-1.267.063-.595.214-1.24.335-1.433.554-.886.581-13.498.031-14.346-.071-.109-.235-.746-.366-1.417-.433-2.22-.632-3.046-.862-3.577-.125-.289-.227-.72-.227-.959 0-.238-.075-.433-.167-.433-.091 0-.166-.132-.166-.294 0-.162-.139-.555-.308-.875a5.638 5.638 0 0 1-.42-1.039c-.062-.252-.186-.458-.276-.458-.089 0-.163-.216-.163-.48s-.105-.567-.234-.673c-.128-.107-.28-.379-.336-.604-.057-.226-.177-.41-.267-.41-.089 0-.163-.099-.163-.221 0-.121-.262-.59-.583-1.041-.321-.451-.584-.914-.584-1.029 0-.115-.075-.209-.166-.209-.092 0-.167-.115-.167-.255a.408.408 0 0 0-.25-.351c-.138-.053-.25-.195-.25-.316 0-.12-.243-.462-.54-.759-.297-.297-.615-.67-.708-.829-.375-.643-1.682-2.139-1.877-2.147a.23.23 0 0 1-.215-.218c-.003-.115-.346-.471-.761-.792a26.74 26.74 0 0 1-1.128-.916 17.65 17.65 0 0 0-.919-.75 27.565 27.565 0 0 1-.746-.584c-.486-.408-1.273-.916-1.419-.916-.087 0-.184-.057-.215-.125-.092-.209-1.035-.82-1.475-.958-.228-.071-.451-.175-.497-.232-.131-.161-1.598-.852-1.81-.852-.104 0-.19-.075-.19-.167 0-.091-.094-.167-.208-.167-.115-.001-.414-.109-.666-.24-.252-.131-1.039-.433-1.75-.67-.711-.237-1.423-.504-1.582-.594-.159-.089-.507-.162-.773-.162-.265 0-.698-.112-.96-.249-.263-.137-.741-.249-1.062-.25a4.67 4.67 0 0 1-1.167-.186c-1.48-.469-4.243-.523-30.124-.588L0 25.661v8.419zm50.333 8.801c.688.154 1.4.351 1.584.438.183.086.614.203.958.26.344.056.625.174.625.262 0 .087.079.159.176.159.295 0 1.601.64 2.383 1.168.407.274.791.499.853.499.162 0 2.921 2.722 2.921 2.882 0 .072.077.222.17.333.654.776.83 1.021.83 1.155 0 .085.113.266.25.403.138.138.25.391.25.562 0 .171.073.357.162.412.204.125.838 1.544.838 1.873 0 .135.105.444.233.687.947 1.799.938 11.627-.013 13.859-.097.23-.34.904-.539 1.5s-.434 1.109-.521 1.139c-.088.031-.16.202-.16.38 0 .179-.112.368-.25.421-.137.053-.25.24-.25.417 0 .176-.112.364-.25.416-.137.053-.25.186-.25.295 0 .928-3.711 4.169-5.929 5.177-3.769 1.713-4.124 1.754-15.19 1.755-8.928 0-9.207-.009-9.375-.322-.242-.452-.24-35.741.002-36.193.247-.461 18.398-.406 20.492.063zm90.334 12.291c-.596.075-1.571.216-2.167.315-1.211.199-4.386 1.181-4.472 1.383-.031.071-.136.13-.235.13-.706 0-4.84 2.511-6.311 3.833-.255.23-.562.502-.681.606-.12.104-.583.573-1.03 1.042-.447.469-.879.852-.959.852-.08 0-.145.078-.145.173 0 .094-.225.392-.5.661-.275.268-.5.539-.5.602 0 .097-1.066 1.486-1.328 1.731-.049.046-.259.431-.467.857-.207.425-.488.866-.625.978-.136.113-.247.301-.247.418 0 .116-.112.255-.25.307-.138.053-.25.286-.25.518 0 .232-.07.422-.155.422-.086 0-.204.169-.262.375-.058.206-.209.6-.334.875-.761 1.668-.916 2.042-.916 2.219 0 .318-.498.227-.513-.094-.008-.16-.031-2.392-.052-4.958-.037-4.403-.237-6.854-.578-7.072-.081-.052-.201-.339-.266-.637-.064-.298-.186-.541-.271-.541-.084 0-.153-.103-.153-.229 0-.322-1.851-2.132-2.524-2.467-2.461-1.229-2.366-1.22-13.893-1.221H90.417v16.167l3.682.083c3.893.088 3.825.074 4.685.957.939.964.878-1.086.924 30.877l.042 29.416 9.489.043c7.481.034 9.518-.001 9.623-.167.073-.115.135-8.047.138-17.626.005-14.74.044-17.596.253-18.583.136-.642.248-1.504.25-1.917.001-.412.11-1.05.242-1.417.132-.366.244-.939.248-1.272.004-.334.119-.821.256-1.084.137-.262.249-.706.25-.987.001-.28.111-.655.246-.833.134-.178.247-.455.25-.616.003-.161.155-.572.338-.914.184-.342.334-.754.334-.916 0-.162.075-.294.166-.294.092 0 .167-.145.167-.322 0-.177.112-.434.25-.571.138-.138.25-.363.25-.5 0-.138.095-.349.21-.47a3.15 3.15 0 0 0 .416-.637c.306-.622.574-1.012 1.082-1.576.251-.279.457-.593.458-.698 0-.105.113-.234.251-.287.137-.052.25-.172.25-.266 0-.327 3.562-3.673 3.91-3.673.057 0 .306-.188.554-.417.247-.229.538-.417.647-.417.109 0 .297-.094.418-.209.307-.292 2.75-1.457 3.054-1.457.138 0 .25-.072.25-.159 0-.088.281-.21.625-.272.344-.062.745-.175.892-.251.962-.495 2.9-.726 6.816-.812l4.084-.09.046-9c.048-9.493.042-9.646-.42-9.83-.448-.179-4.156-.235-5.376-.081zm180.458-.076c-.162.163-.159 15.928.003 16.172.067.102.797.224 1.622.27 2.217.127 4.083 1.46 4.083 2.918 0 .116.072.211.159.211.088 0 .211.274.274.609.063.335.216.804.34 1.042.124.238.226.549.226.692.001.143.111.405.246.583.135.178.25.474.255.657.006.183.121.479.256.657.134.178.247.478.25.667.003.188.115.488.25.666.134.178.245.441.245.584.001.142.113.474.25.737.137.262.249.548.249.634 0 .164.564 1.515.84 2.011.088.159.16.423.16.586 0 .163.15.576.334.918.183.342.333.726.333.854 0 .127.112.446.249.709.137.262.252.589.255.727.004.138.117.396.251.574.135.177.247.477.25.666.003.189.116.489.25.667.135.178.245.507.245.731 0 .225.1.492.223.594.122.101.401.766.62 1.476.219.711.453 1.292.52 1.292s.171.263.232.585c.06.322.176.626.257.677.082.05.151.218.154.373.003.155.15.582.327.948.177.367.325.836.328 1.042.003.206.072.375.153.375.08 0 .231.337.335.75.104.412.263.75.353.75.091 0 .167.206.17.458.003.252.115.604.25.782.135.178.245.525.245.771 0 .247.11.54.245.652.135.112.294.46.352.772.059.313.174.61.255.66.081.05.148.269.148.486 0 .217.099.495.221.617s.27.52.33.885c.059.366.184.69.278.721.094.032.171.164.171.294 0 .13.15.516.333.858.183.343.333.746.333.897 0 .152.112.49.249.753s.25.594.25.737c.001.143.111.406.246.583.135.178.247.461.25.628.003.167.118.416.255.553.138.138.25.418.25.623 0 .205.11.519.245.696.135.178.247.453.25.61.005.283.32 1.107.772 2.019.128.26.233.644.233.855 0 .21.113.476.25.59.138.114.25.346.25.516 0 .17.143.629.318 1.021.174.392.443 1.05.596 1.463.154.412.386.962.516 1.222.13.259.237.653.237.875 0 .222.075.403.167.403.091 0 .166.097.166.215s.15.509.334.868c.183.36.336.807.339.994.003.187.113.527.244.756.131.23.241.571.244.759.003.188.094.429.201.536.198.199.522.994.831 2.039.094.32.24.654.323.741a.655.655 0 0 1 .151.392c0 .223.146.586.87 2.158l.326.709h22.682l.311-.359c.171-.198.311-.454.311-.57 0-.116.106-.423.236-.683.54-1.083 1.089-2.551 1.218-3.258.045-.249.187-.54.314-.645.128-.106.234-.352.237-.547.003-.195.116-.501.25-.679.135-.177.245-.473.245-.655 0-.294.403-1.317.845-2.144a1.4 1.4 0 0 0 .155-.542c0-.139.15-.533.333-.875.184-.342.334-.759.334-.928 0-.168.112-.418.25-.556.137-.137.252-.413.255-.613.003-.2.115-.509.25-.687.135-.177.245-.45.245-.605 0-.156.112-.498.249-.76.137-.263.249-.637.25-.832 0-.195.113-.448.251-.562.137-.114.25-.388.25-.609 0-.221.112-.445.25-.498.151-.058.25-.31.25-.641 0-.3.104-.631.232-.737.127-.106.282-.528.343-.937.062-.41.182-.745.268-.745.086 0 .157-.169.158-.375 0-.206.15-.6.332-.875.182-.275.332-.669.332-.875.001-.206.075-.375.166-.375.091 0 .212-.299.271-.664.058-.364.209-.749.335-.853a.694.694 0 0 0 .229-.462c.001-.34.64-2.05.846-2.263.085-.087.154-.354.154-.593s.11-.58.245-.758c.135-.178.247-.483.25-.678.003-.195.118-.448.255-.562.138-.114.251-.33.251-.479.001-.149.113-.486.25-.749.137-.262.249-.585.249-.717 0-.231.507-1.497.84-2.095.088-.159.163-.384.166-.5.003-.116.151-.51.328-.877.177-.367.324-.752.327-.856.003-.104.118-.404.255-.667.137-.262.249-.648.25-.857.001-.209.114-.424.251-.476.137-.053.25-.273.25-.49 0-.362.169-.838.763-2.154.124-.275.274-.707.333-.96s.174-.501.256-.551c.081-.051.148-.238.148-.416s.15-.604.333-.946c.184-.342.334-.708.334-.814 0-.105.112-.406.249-.669s.251-.59.255-.727c.003-.138.116-.396.251-.574.135-.178.245-.45.245-.606 0-.155.112-.497.249-.76.137-.262.249-.594.25-.737 0-.143.111-.405.245-.583.135-.178.25-.474.256-.657.005-.183.12-.479.255-.657.135-.178.247-.478.25-.667.003-.188.115-.488.25-.666.135-.178.245-.441.246-.584 0-.142.113-.474.25-.737.137-.262.249-.581.249-.709 0-.127.15-.511.333-.853.183-.342.333-.754.333-.916 0-.162.069-.294.152-.294.084 0 .203-.3.265-.666.062-.366.172-.703.246-.748.073-.046.182-.346.243-.668.06-.322.174-.585.252-.585.079 0 .221-.225.317-.5s.254-.5.35-.5c.096 0 .176-.094.177-.208.006-.615 1.858-1.29 3.54-1.291L400 71.5V55l-6.042.007c-3.323.004-6.341.075-6.708.157-2.526.569-2.45.544-4.208 1.367-.389.182-.85.512-1.024.734-.174.221-.399.402-.5.402-.102 0-.185.112-.185.25a.25.25 0 0 1-.25.25c-.137 0-.25.075-.25.166 0 .092-.131.312-.291.488-.565.623-.709.834-.712 1.047-.002.118-.151.403-.33.632-.179.229-.328.539-.33.688-.002.149-.116.365-.253.479-.138.114-.25.414-.25.666 0 .253-.105.546-.232.652-.128.106-.271.396-.319.645-.191.994-.509 1.967-.723 2.216-.125.145-.226.45-.226.677 0 .227-.11.559-.245.737-.135.178-.247.52-.25.761-.003.241-.112.527-.242.635-.131.108-.287.492-.348.853s-.179.698-.263.75c-.084.052-.152.24-.152.418s-.15.604-.334.946c-.183.342-.333.787-.333.99 0 .202-.066.408-.148.459-.081.05-.197.354-.257.676-.061.322-.178.585-.262.585-.083 0-.197.282-.252.625-.056.344-.209.824-.341 1.068-.132.243-.242.581-.245.75-.003.169-.116.453-.25.631-.135.178-.245.52-.245.76s-.11.582-.245.759c-.134.178-.247.476-.25.662-.003.186-.111.49-.241.675-.13.186-.289.616-.352.956-.064.34-.183.659-.264.709-.082.051-.148.26-.148.467 0 .206-.11.52-.245.698-.134.178-.247.436-.251.574-.003.137-.111.451-.239.697a4.717 4.717 0 0 0-.352 1c-.065.304-.173.628-.24.719-.068.092-.298.73-.513 1.417-.215.688-.489 1.368-.609 1.513-.12.145-.22.445-.223.667a1.442 1.442 0 0 1-.25.727c-.135.178-.245.562-.245.854 0 .293-.112.625-.25.739-.137.114-.25.33-.251.479 0 .149-.102.465-.226.703a4.552 4.552 0 0 0-.34 1.042c-.063.335-.18.609-.26.609-.081 0-.194.244-.253.542-.111.56-.316 1.177-.68 2.042a6.117 6.117 0 0 0-.316 1.125c-.058.343-.176.625-.263.625-.086 0-.204.298-.263.663-.058.365-.209.749-.335.854-.126.105-.232.387-.235.628a1.505 1.505 0 0 1-.25.762c-.134.177-.244.482-.244.676 0 .194-.11.499-.245.676-.135.178-.247.589-.25.912-.003.323-.108.736-.232.917-.125.18-.28.683-.343 1.116-.064.433-.18.827-.258.875-.077.048-.19.481-.249.963-.06.481-.175 1.024-.255 1.208-.143.323-.362 1.387-.664 3.224-.187 1.139-.266 1.202-.756.602-.301-.368-.406-.704-.415-1.326-.006-.459-.119-1.021-.25-1.25-.131-.229-.241-.684-.244-1.01-.003-.326-.116-.739-.251-.917-.134-.178-.247-.607-.25-.954-.003-.347-.109-.797-.236-1-.128-.203-.28-.647-.34-.987a4.463 4.463 0 0 0-.351-1.084c-.133-.256-.243-.629-.244-.83 0-.201-.076-.412-.167-.468-.092-.057-.167-.256-.167-.443s-.101-.577-.225-.865c-.536-1.251-.942-2.385-.942-2.633 0-.148-.112-.362-.25-.476-.137-.114-.25-.452-.25-.75s-.112-.636-.25-.75c-.137-.114-.25-.367-.251-.562 0-.195-.113-.569-.25-.832s-.249-.647-.249-.855c0-.207-.112-.47-.25-.584-.137-.114-.252-.33-.255-.479-.003-.149-.151-.571-.328-.938-.177-.367-.325-.765-.328-.885-.008-.335-.535-1.928-.696-2.107a.717.717 0 0 1-.143-.419c0-.143-.15-.54-.333-.883-.183-.342-.333-.805-.333-1.029 0-.224-.075-.454-.167-.51-.092-.057-.167-.222-.167-.367s-.139-.572-.31-.948c-.383-.846-.695-1.719-.812-2.269-.048-.229-.181-.529-.295-.666-.114-.138-.257-.528-.318-.868a4.597 4.597 0 0 0-.353-1.084c-.134-.256-.243-.592-.244-.747-.001-.155-.069-.324-.153-.376-.084-.051-.203-.393-.265-.759-.061-.365-.18-.707-.264-.759-.084-.051-.152-.222-.152-.378s-.15-.564-.334-.906c-.183-.342-.333-.726-.333-.854 0-.127-.112-.446-.249-.709-.137-.262-.252-.627-.255-.81-.004-.184-.117-.479-.251-.657-.135-.178-.245-.483-.245-.677 0-.194-.11-.498-.245-.676-.134-.178-.247-.477-.25-.663-.003-.187-.155-.634-.338-.994-.184-.36-.334-.784-.334-.942 0-.159-.075-.335-.166-.391-.092-.057-.167-.294-.167-.526 0-.233-.108-.622-.241-.865-.319-.586-.62-1.361-1.079-2.776-.208-.642-.484-1.403-.613-1.692-.128-.289-.236-.626-.239-.75-.003-.124-.115-.37-.25-.548-.135-.178-.245-.525-.245-.771 0-.247-.112-.542-.25-.656-.137-.114-.25-.382-.25-.595 0-.214-.094-.448-.21-.521-.115-.074-.359-.423-.541-.777-.183-.354-.426-.681-.54-.726a.364.364 0 0 1-.209-.315c0-.128-.071-.232-.159-.232-.087 0-.481-.327-.875-.726-.393-.399-.903-.784-1.132-.856-.229-.071-.455-.182-.5-.246-.201-.278-1.318-.701-2.084-.789-.458-.053-.938-.179-1.067-.281-.271-.215-14.184-.382-14.391-.173z" fill="#1C1C1C"/></svg>