<svg width="95" height="95" fill="none" xmlns="http://www.w3.org/2000/svg"><path d="M74.78 32.58l-6.498-5.413-6.499 5.413-3.013-2.278 3.207-7.486-6.897-4.601 1.13-3.371h7.984l2.108-7.38h3.96l2.108 7.38h7.983l1.132 3.37-6.898 4.602 3.208 7.486-3.015 2.279zm-2.046 16.404h14.844v7.422H72.734v-7.422zM7.422 65.313h14.844v7.421H7.422v-7.421z" fill="#F9DC25"/><path d="M86.094 1.484H50.469c-4.093 0-7.422 3.33-7.422 7.422v7.422H8.907c-4.093 0-7.423 3.33-7.423 7.422V47.5c0 4.092 3.33 7.422 7.422 7.422h26.719c0 4.205 2.203 7.897 5.508 10.008-7.516 2.639-12.93 9.787-12.93 18.195v10.39h38.594v-10.39c0-8.407-5.414-15.556-12.93-18.195 3.305-2.111 5.508-5.803 5.508-10.008 0-4.973-3.076-9.234-7.422-11v-3.844h34.14c4.093 0 7.423-3.33 7.423-7.422V8.906c0-4.092-3.33-7.422-7.422-7.422zM63.828 83.125v7.422h-4.453v-13.36h-2.969v13.36H38.594v-13.36h-2.969v13.36h-4.453v-7.422c0-9.003 7.325-16.328 16.328-16.328s16.328 7.325 16.328 16.328zm-7.422-28.203c0 4.912-3.994 8.906-8.906 8.906-4.912 0-8.906-3.994-8.906-8.906 0-4.912 3.994-8.906 8.906-8.906 4.912 0 8.906 3.994 8.906 8.906zM47.5 43.047c-5.52 0-10.16 3.793-11.485 8.906H8.906A4.459 4.459 0 0 1 4.453 47.5V23.75a4.459 4.459 0 0 1 4.453-4.453h35.625a4.459 4.459 0 0 1 4.453 4.453v19.4c-.486-.062-.98-.103-1.484-.103zm43.047-10.39a4.459 4.459 0 0 1-4.453 4.452h-34.14V23.75c0-3.583-2.556-6.582-5.938-7.272V8.906a4.459 4.459 0 0 1 4.453-4.453h35.625a4.459 4.459 0 0 1 4.453 4.453v23.75z" fill="#3F3D56"/><path d="M33.394 30.67l-6.683-5.937-6.68 5.937-6.731-5.99-3.143 3.142 6.754 18.572 1.37-.454c.043-.015 4.29-1.409 8.437-1.409 4.148 0 8.394 1.394 8.44 1.409l1.37.456 6.753-18.574-3.14-3.143-6.747 5.991zm1.312 12.044c-1.73-.461-4.836-1.151-7.988-1.151-3.15 0-6.258.69-7.987 1.151l-4.962-13.642 6.262 5.57 6.68-5.937 6.683 5.937 6.274-5.574-4.962 13.646zm48.419.333h-5.938c-5.728 0-10.39 4.662-10.39 10.39v10.391h16.328c5.728 0 10.39-4.662 10.39-10.39 0-5.729-4.662-10.391-10.39-10.391zm0 17.812h-13.36v-7.422c0-4.092 3.33-7.421 7.422-7.421h5.938c4.092 0 7.422 3.33 7.422 7.422s-3.33 7.421-7.422 7.421z" fill="#3F3D56"/><path d="M72.734 48.984h2.97v2.97h-2.97v-2.97zm5.938 0h2.969v2.97h-2.97v-2.97zm5.938 0h2.968v2.97H84.61v-2.97zm-11.876 5.938h14.844v2.969H72.734v-2.97zM28.203 57.89H11.875c-5.728 0-10.39 4.663-10.39 10.391s4.662 10.39 10.39 10.39h5.938c5.728 0 10.39-4.662 10.39-10.39v-10.39zm-2.969 10.391c0 4.093-3.33 7.422-7.422 7.422h-5.937c-4.092 0-7.422-3.33-7.422-7.422s3.33-7.422 7.422-7.422h13.36v7.422z" fill="#3F3D56"/><path d="M19.297 69.766h2.969v2.968h-2.97v-2.968zm-5.937 0h2.968v2.968H13.36v-2.968zm-5.938 0h2.969v2.968H7.42v-2.968zm0-5.938h14.844v2.969H7.422v-2.969zm17.812-28.203h2.97v2.969h-2.97v-2.969z" fill="#3F3D56"/></svg>