<svg width="104" height="52" fill="none" xmlns="http://www.w3.org/2000/svg"><path fill-rule="evenodd" clip-rule="evenodd" d="M29.351.982c-1.206.126-.934-.198-6.141 7.311-5.372 7.748-5.096 7.342-5.23 7.68-1.003 2.535 2.249 4.683 4.154 2.744.223-.228 9.137-12.997 9.683-13.872 1.134-1.817-.314-4.087-2.466-3.863zM4.234 4.693c-1.509.354-2.35 2.18-1.642 3.566.169.33 7.213 10.253 7.485 10.543 1.934 2.064 5.3-.151 4.196-2.762-.152-.359-7.2-10.273-7.585-10.669-.597-.614-1.575-.884-2.454-.678zm40.817 8.468c0 4.93 0 4.978-.107 4.978-.073 0-.134-.064-.19-.197-1.516-3.611-7.113-4.348-10.113-1.33-2.742 2.758-3.093 8.778-.714 12.242 2.668 3.885 9.04 3.572 10.876-.533.067-.15.137-.229.202-.229.095 0 .1.08.1 1.614v1.614h1.946l-.014-11.553-.013-11.554-.986-.015-.987-.015v4.978zm21.51 6.592V31.32h4.431v-4.996c0-4.203.013-5.07.082-5.46.322-1.84 1.528-2.85 3.404-2.854 1.605-.002 2.512.632 2.955 2.066l.124.403.016 5.421.016 5.42h4.488l-.022-5.931c-.023-6.398-.008-6.063-.312-7.208-.597-2.255-2.378-3.673-4.845-3.858-2.576-.193-4.652.83-5.587 2.753-.094.195-.154.256-.248.256h-.124l-.014-4.56-.014-4.56-2.175-.013-2.175-.014v11.568zm-18.7-9.63v1.883h6.594V31.32h4.593l.014-9.643.014-9.645 3.31-.013 3.31-.014V8.239H47.861v1.883zm35.237 4.552c0 .018 1.173 1.9 2.606 4.182 1.433 2.282 2.605 4.186 2.605 4.231 0 .045-1.157 1.897-2.57 4.117a1664.89 1664.89 0 0 0-2.608 4.102c-.031.053.445.067 2.307.067h2.346l1.562-2.77c1.528-2.713 1.565-2.772 1.718-2.758.146.013.254.186 1.722 2.77l1.567 2.758h2.452c1.349 0 2.453-.01 2.453-.023s-1.192-1.913-2.649-4.223a516.127 516.127 0 0 1-2.648-4.222c0-.012 1.18-1.867 2.621-4.121a511.433 511.433 0 0 0 2.622-4.121c0-.012-1.089-.021-2.419-.02l-2.418.001-1.478 2.77c-1.388 2.602-1.486 2.768-1.621 2.767-.135-.002-.241-.185-1.622-2.771l-1.477-2.77h-2.535c-1.395 0-2.536.016-2.536.034zm-42.83 1.851c2.972.288 4.754 2.777 4.756 6.643.001 3.83-1.733 6.267-4.695 6.596-3.49.387-5.92-2.306-5.923-6.569-.003-3.804 1.844-6.41 4.726-6.667.268-.023.512-.046.542-.05.03-.002.297.019.594.047zM11.544 26.588c-.59.081-1.069.32-1.466.733-.336.35-9.64 13.774-9.834 14.19-1.178 2.524 2.195 4.817 4.13 2.807.385-.4 9.602-13.681 9.831-14.167.689-1.458-.27-3.336-1.806-3.54-.463-.061-.563-.064-.855-.023zm8.452.078c-1.62.35-2.45 2.154-1.683 3.66.2.392 14.33 20.167 14.604 20.438 2.154 2.124 5.568-.797 3.853-3.296-1.495-2.178-14.269-19.998-14.46-20.172a2.622 2.622 0 0 0-2.314-.63zm74.452 7.92c-.496.154-.62.68-.232.984.3.235.825.051.906-.318.084-.38-.319-.778-.674-.667zm-35.994.662v.43h1.513v4.412h1.081v-4.412h1.513v-.86h-4.107v.43zm4.54 2.206v2.636h.973v-1.17c.002-1.552.098-1.785.75-1.832.7-.05.762.091.763 1.724v1.278h1.027v-1.375c0-1.627-.025-1.768-.374-2.126-.573-.59-1.59-.481-2.069.22-.088.128-.092.088-.094-.929l-.003-1.062h-.973v2.636zm-22.161-1.466c-.003 1.064-.007 1.11-.094.982-1.043-1.54-3.115-.286-2.776 1.68.256 1.493 1.853 2.064 2.695.965l.178-.233v.708h.432v-5.218h-.432l-.003 1.116zM55.32 37.48v2.61h.432v-5.22h-.432v2.61zm-12.995-2.436c-.16.228-.03.526.23.525.176-.001.245-.043.328-.2.17-.323-.348-.624-.558-.325zm5.41-.021a.326.326 0 0 0 .244.547c.277 0 .421-.372.216-.557-.13-.117-.349-.113-.46.01zm43.837.802l-.016.471-.31.016-.311.017v.742l.31.016.311.016.027 1.238c.03 1.358.041 1.404.395 1.614.197.117.748.193 1.105.152l.284-.033v-.739h-.239c-.531 0-.572-.092-.572-1.315v-.944h.811v-.753h-.811v-.968h-.968l-.016.47zm-42.1.054l-.016.47-.311.017-.31.016v.372h.648v1.412c0 1.761.035 1.846.794 1.948.4.054.503.01.503-.217 0-.183-.002-.184-.247-.184-.58 0-.618-.106-.618-1.693v-1.266h.865v-.377h-.865v-.969h-.428l-.016.471zm18.83.435c-1.504.533-1.585 3.043-.12 3.713.954.437 2.303-.032 2.565-.893.07-.23-.82-.18-1.06.06-.517.514-1.457.168-1.517-.56l-.015-.186 1.31-.014 1.311-.015v-.358c0-1.373-1.18-2.206-2.475-1.747zm4.872-.047a.998.998 0 0 0-.613.477l-.105.198-.002-.338-.002-.339-.5.016-.5.015-.014 1.897-.015 1.896h1.028v-1.148c0-1.597.136-1.83 1.057-1.82l.403.005v-.843l-.17-.034a1.167 1.167 0 0 0-.567.018zm2.085.022c-.494.132-.85.45-.96.855l-.055.201h.46c.426 0 .47-.01.567-.133.364-.46 1.21-.25 1.274.317.033.294.084.272-.806.344-1.368.111-1.932.73-1.508 1.657.323.71 1.612.85 2.134.232.176-.208.194-.2.194.085v.242h.973v-1.412c0-1.62-.023-1.75-.346-2.06-.387-.372-1.23-.515-1.927-.328zm4.915 0a1.209 1.209 0 0 0-.676.478l-.102.148-.027-.31-.027-.309-.5-.015-.5-.016v5.116h1.028v-.915c0-.503.013-.915.029-.915s.107.089.202.197c.631.715 1.886.486 2.332-.426.782-1.601-.278-3.43-1.758-3.032zm3.735-.026c-1.34.436-1.764 2.42-.733 3.428.88.86 2.782.527 3.033-.53l.036-.148H85.8c-.42 0-.451.008-.59.157-.527.561-1.565.164-1.571-.6l-.001-.149h2.664l-.03-.417c-.062-.822-.344-1.315-.924-1.613-.295-.151-1.138-.226-1.44-.128zm2.993.084c-.081.211.01 2.855.105 3.07.39.872 1.674 1.047 2.238.305l.177-.233v.6h1.028l-.014-1.896-.015-1.897-.5-.015-.5-.016v1.215c0 1.614-.09 1.826-.78 1.828-.667.002-.733-.16-.733-1.8V36.27h-.488c-.376 0-.495.018-.518.078zm7.168 1.832v1.91h.972v-3.82h-.972v1.91zm1.597-1.844c.022.038.291.471.599.963s.56.908.56.923c0 .016-.256.429-.568.918-.312.489-.567.904-.567.922 0 .018.236.025.525.017l.526-.016.335-.59c.415-.734.359-.734.772 0l.348.617h.56c.434 0 .552-.015.522-.067-.022-.037-.283-.453-.58-.924-.297-.471-.54-.883-.54-.916 0-.033.26-.465.576-.961.317-.495.577-.913.577-.928 0-.015-.246-.02-.547-.012l-.546.015-.333.619c-.183.34-.351.619-.374.619-.023 0-.193-.279-.378-.62l-.335-.618-.586-.015c-.464-.012-.577-.001-.546.054zm-50.973.06c-.991.372-1.38 1.903-.754 2.967.486.826 1.681.941 2.34.226l.23-.25v.54c0 .597-.052.755-.324.983-.447.374-1.433.318-1.769-.101-.203-.254-.645-.29-.552-.045.396 1.036 2.436 1.069 2.988.047.113-.208.117-.284.133-2.3l.016-2.085h-.438v.691l-.31-.307c-.424-.419-1.037-.563-1.56-.367zm7.584.002c-.418.155-.648.373-.792.752-.091.237.357.21.51-.032.481-.758 1.838-.422 1.818.45-.008.359-.02.37-.376.37-1.617.003-2.278.451-2.095 1.424.164.867 1.567 1.08 2.288.349l.23-.234v.613h.432V38.7c0-1.712-.063-1.942-.611-2.225-.289-.15-1.09-.193-1.404-.077zm-9.929 1.836v1.856h.432v-3.712h-.432v1.856zm5.404 0v1.856h.433v-3.712h-.433v1.856zm-7.513-1.327c.752.455.79 2.14.06 2.63-.928.623-1.87-.034-1.87-1.303 0-1.239.884-1.886 1.81-1.327zm5.375-.148c1.044.262 1.276 2.112.342 2.727-.338.223-.96.216-1.29-.015-.834-.583-.647-2.494.263-2.693.082-.018.173-.041.202-.051.107-.035.253-.025.483.032zm23.8.32c.19.115.42.538.367.675-.023.061-.184.077-.814.077h-.786v-.149c.001-.537.744-.9 1.233-.603zm15.438-.033c.202.084.407.41.407.648v.136h-1.635l.034-.168c.112-.559.657-.84 1.194-.616zm-4.17.12c.37.192.552 1.146.314 1.66-.447.963-1.625.532-1.627-.596-.002-.936.605-1.428 1.312-1.064zm-26.877 1.49c0 1.126-1.766 1.597-2.032.542-.132-.524.277-.787 1.357-.874.327-.027.612-.051.635-.055.022-.005.04.17.04.387zm22.743-.033c.062.64-.966 1.095-1.35.596-.29-.375-.005-.674.708-.743.602-.06.622-.055.642.147z" fill="#36392F"/><path d="M15.26 25.288c-2.1-1.029-1.787-4.12.481-4.727 1.44-.386 2.954.603 3.183 2.08.31 2.011-1.819 3.55-3.663 2.647z" fill="#36392F"/><path fill="#fff" d="M36 34h68v8H36z"/></svg>