<svg width="1440" height="969" fill="none" xmlns="http://www.w3.org/2000/svg"><path fill="#fff" d="M0 0h1440v895H0z"/><path fill-rule="evenodd" clip-rule="evenodd" d="M676.621 183.178c97.959-68.126 213.845-92.25 322-82 124.009 11.751 254.679 58.372 299.999 162 47.42 108.414 3.17 214.528-72.9 330.569-75.62 115.344-185.01 226.648-319.29 249.951-126.468 21.947-212.332-67.544-292.603-143.766-71.415-67.813-138.094-146.172-123.683-251.523 14.662-107.189 86.895-195.978 186.477-265.231z" fill="#C8DDF5" fill-opacity=".2"/><path fill-rule="evenodd" clip-rule="evenodd" d="M676.621 183.178c97.959-68.126 213.845-92.25 322-82 124.009 11.751 254.679 58.372 299.999 162 47.42 108.414 3.17 214.528-72.9 330.569-75.62 115.344-185.01 226.648-319.29 249.951-126.468 21.947-212.332-67.544-292.603-143.766-71.415-67.813-138.094-146.172-123.683-251.523 14.662-107.189 86.895-195.978 186.477-265.231z" fill="url(#paint0_linear)" style="mix-blend-mode:screen"/><path fill-rule="evenodd" clip-rule="evenodd" d="M676.621 183.178c97.959-68.126 213.845-92.25 322-82 124.009 11.751 254.679 58.372 299.999 162 47.42 108.414 3.17 214.528-72.9 330.569-75.62 115.344-185.01 226.648-319.29 249.951-126.468 21.947-212.332-67.544-292.603-143.766-71.415-67.813-138.094-146.172-123.683-251.523 14.662-107.189 86.895-195.978 186.477-265.231z" fill="url(#paint1_linear)"/><g clip-path="url(#clip0)"><path d="M811.116 680.423c36.869 0 66.757-60.928 66.757-136.087 0-75.158-29.888-136.086-66.757-136.086s-66.757 60.928-66.757 136.086c0 75.159 29.888 136.087 66.757 136.087z" fill="#F9DC25"/><path d="M810.503 545.748c3.33-59.238 10.04-99.251 10.107-99.648l-1.456-.246c-.067.397-6.788 40.474-10.124 99.788-3.078 54.743-3.82 137.546 10.124 221.134l1.456-.242c-13.92-83.447-13.179-166.124-10.107-220.786z" fill="#3F3D56"/><path d="M870.782 516.738l-60.359 32.276.697 1.301 60.358-32.276-.696-1.301zM747.4 532.915l-.697 1.301 60.368 32.26.696-1.301-60.367-32.26z" fill="#3F3D56"/><path d="M1274.01 666.275c47.84 0 86.61-79.043 86.61-176.548 0-97.506-38.77-176.549-86.61-176.549-47.83 0-86.6 79.043-86.6 176.549 0 97.505 38.77 176.548 86.6 176.548z" fill="#F9DC25"/><path d="M1272.96 491.535c4.32-76.863 13.03-128.781 13.12-129.296l-1.38-.234c-.09.516-8.81 52.495-13.13 129.43-4 71.007-4.96 178.409 13.13 286.828l1.38-.23c-18.07-108.285-17.1-215.567-13.12-286.498z" fill="#3F3D56"/><path d="M1351.54 454.15l-78.3 41.873.66 1.233 78.3-41.873-.66-1.233zm-160.31 20.986l-.66 1.234 78.32 41.852.66-1.234-78.32-41.852z" fill="#3F3D56"/><path d="M1169.67 714.092c17.87 0 32.36-29.532 32.36-65.963 0-36.43-14.49-65.963-32.36-65.963-17.87 0-32.36 29.533-32.36 65.963 0 36.431 14.49 65.963 32.36 65.963z" fill="#E6E6E6"/><path d="M1169.64 650.971l.19.358 29.26-15.645-.66-1.234-28.73 15.362c1.59-29.232 4.84-48.856 4.91-49.243l-1.38-.233c-.07.422-3.94 23.725-5.31 57.445l-28.97-15.493-.66 1.233 29.26 15.645.35-.652c-1.1 27.831-.49 62.631 5.33 97.492l1.38-.229c-6.34-38.01-6.48-75.948-4.97-104.806z" fill="#3F3D56"/><path d="M1333.63 792.747c-172.36-54.51-328.64-51.607-429.397-39.571-109.157 13.038-178.423 39.293-179.109 39.557l-.503-1.306c.689-.264 70.117-26.581 179.446-39.64a1041.693 1041.693 0 0 1 193.813-4.954 1011.788 1011.788 0 0 1 236.17 44.581l-.42 1.333z" fill="#3F3D56"/><path d="M946.167 777.341s.483-10.119 10.392-8.943z" fill="#3F3D56"/><path d="M943.367 767.712a4.957 4.957 0 0 0 4.959-4.955 4.957 4.957 0 0 0-4.959-4.955 4.957 4.957 0 0 0-4.96 4.955 4.958 4.958 0 0 0 4.96 4.955z" fill="#F9DC25"/><path d="M943.959 771.101h-1.399v9.79h1.399v-9.79zm182.801 8.338s.48-10.119 10.39-8.943z" fill="#3F3D56"/><path d="M1123.96 769.81c2.74 0 4.96-2.219 4.96-4.955a4.957 4.957 0 0 0-4.96-4.955 4.957 4.957 0 0 0-4.96 4.955 4.957 4.957 0 0 0 4.96 4.955z" fill="#F9DC25"/><path d="M1124.55 773.199h-1.4v9.79h1.4v-9.79zm-295.277-11.243s.484-10.119 10.393-8.943z" fill="#3F3D56"/><path d="M826.473 752.327a4.957 4.957 0 0 0 4.959-4.955 4.957 4.957 0 0 0-4.959-4.955 4.957 4.957 0 0 0-4.959 4.955 4.957 4.957 0 0 0 4.959 4.955z" fill="#F9DC25"/><path d="M827.066 755.716h-1.4v9.79h1.4v-9.79zm78.503-7.047s.484-10.119 10.393-8.943z" fill="#3F3D56"/><path d="M902.769 739.04a4.957 4.957 0 0 0 4.959-4.955 4.957 4.957 0 0 0-4.959-4.955 4.957 4.957 0 0 0-4.959 4.955 4.957 4.957 0 0 0 4.959 4.955z" fill="#F9DC25"/><path d="M903.362 742.428h-1.4v9.791h1.4v-9.791zm193.298 25.123s.48-10.119 10.39-8.943z" fill="#3F3D56"/><path d="M1093.86 757.921c2.74 0 4.96-2.218 4.96-4.955a4.957 4.957 0 0 0-4.96-4.954 4.957 4.957 0 0 0-4.96 4.954 4.957 4.957 0 0 0 4.96 4.955z" fill="#F9DC25"/><path d="M1094.45 761.31h-1.4v9.791h1.4v-9.791z" fill="#3F3D56"/><path d="M1311.9 747.266l28.81 42.677-26.83 26.798-3.47-6.947 5.96-13.895s-1-12.903-4.47-16.377c-3.48-3.474-18.88-24.316-18.88-24.316l18.88-7.94z" fill="#FFB8B8"/><path d="M1275.14 609.307s5.46 8.638-5.96 45.857c0 0 53.29 89.854 44.84 95.809-8.44 5.955-31.29 19.134-37.25 15.164-5.96-3.97-49.31-138.469-49.31-138.469l47.68-18.361zm60.35 172.945l8.69 8.684c4.47 4.466 7.45 10.918-.99 16.376-8.44 5.459-37.75 25.806-47.68 19.354-9.94-6.451 11.92-12.406 11.92-12.406s3.61-13.387 5.53-10.416c1.92 2.972 1.92 8.927 1.92 8.927l20.61-30.519z" fill="#2F2E41"/><path d="M1230.44 770.589s-15.9 29.28-15.9 32.753c0 3.474 1 13.399 1 13.399l-30.3 7.444-10.43-4.963 3.47-8.932s18.88-6.451 22.85-18.858c3.97-12.406 8.45-25.309 8.45-25.309l20.86 4.466zm18.37-291.301c11.53 0 20.87-9.332 20.87-20.843s-9.34-20.842-20.87-20.842c-11.52 0-20.86 9.331-20.86 20.842s9.34 20.843 20.86 20.843z" fill="#FFB8B8"/><path d="M1243.35 476.31l9.96 28.592 21.83-9.734s-14.9-22.828-14.9-25.805l-16.89 6.947z" fill="#FFB8B8"/><path d="M1240.37 578.043h26.33s18.87 28.782 7.94 59.054c-1.67 4.636-3.33 11.129-4.99 18.806-3.81 17.656-7.61 41.572-11.5 63.548-5.46 30.87-11.11 57.913-17.26 58.404-12.41.992-36.56.827-36.56-4.136 0-4.962 16.17-148.532 16.17-148.532l3.48-5.955.66-25.94a15.653 15.653 0 0 1 15.73-15.249zm-26.08 225.051s5.72 9.677 4.23 16.625c-1.49 6.947-3.98 5.955-14.91 6.947-10.92.993-48.18.993-48.18-5.955 0-6.947 29.06-15.97 29.19-13.195.12 2.774 1.11 8.233-1.87 9.225-2.98.993-.25.248-.25.248l31.79-13.895z" fill="#2F2E41"/><path d="M1243.36 639.983s-2.17 35.252-16.58 24.758c-14.41-10.495 5.62-29.452 5.62-29.452l10.96 4.694z" fill="#fff"/><path d="M1272.12 593.556a4.177 4.177 0 0 0 4.28-.507 4.426 4.426 0 0 0 1.63-2.765c2.08-12.001 4.62-45.27 6.08-62.093 1.83-21.109-7.33-37.459-7.4-37.559l-5.4-7.414a4.239 4.239 0 0 0-5.07-1.423s-16.85 17.466-16.91 18.14c-.27 2.896-2.27 9.312-12.73 19.755-11.43 11.426-11.5 21.398-11.24 24.183.01.183.02.366.02.549-.02 1.249.15 2.494.51 3.692 4.79 15.088 1.03 33.152-4.99 52.007-.23.852-.19 1.754.12 2.581s.87 1.538 1.6 2.034c1.76 1.196-.35-.578.27.19 4.16 5.083 10.13-2.001 16.96-9.731 2.38-2.692 5.08-5.744 8.26-8.922 4.38-4.368 12.73 5.601 16.61 5.601 2.56.03 5.08.604 7.4 1.682z" fill="#575A89"/><path d="M1274.44 498.33s10.91 9.193 4.71 21.117c-6.2 11.923-5.38 20.716-5.38 20.716s-1.65 81.908-21.02 77.928l-8.81 24.304-15.91-5.738 9.2-21.436s-7.37-.458-5.22-5.475c1.52-3.524 9.67-41.763 14.38-64.213 2-9.514 3.38-16.192 3.38-16.192s6.27-33.492 24.67-31.011z" fill="#575A89"/><path opacity=".2" d="M1276.72 539.953l-6.13 40.218 3.31-43.004 2.82 2.786z" fill="#000"/><path d="M1226.05 449.21s-3.5-27.27 25.11-18.327c0 0 20.44-3.747 27.14 21.795l6.79 26.774-3.31-1.798-1.54 3.367-5.36 1.356-2.29-4.548-1.11 5.523-43.9 4.373s19.66-11.617 19.97-32.438l-3.74 3.954-17.76-10.031z" fill="#2F2E41"/><path opacity=".2" d="M1258.7 721.02l9.79-65.167-7.96 70.35-1.83-5.183z" fill="#000"/><path d="M1274.7 442.178c6.1 0 11.04-4.937 11.04-11.028s-4.94-11.029-11.04-11.029c-6.1 0-11.04 4.938-11.04 11.029s4.94 11.028 11.04 11.028z" fill="#2F2E41"/><path d="M1263.32 428.45a11.017 11.017 0 0 1 3.48-7.337 11.033 11.033 0 0 1 7.56-2.971c-.23-.029-.46-.064-.69-.079a11.066 11.066 0 0 0-8 2.721 11.033 11.033 0 0 0-3.73 7.577 11.04 11.04 0 0 0 6.15 10.607c1.3.638 2.72 1.015 4.16 1.107.24.015.46.009.69.009a11.033 11.033 0 0 1-7.11-3.913 11.002 11.002 0 0 1-2.51-7.721z" fill="#2F2E41"/><path opacity=".2" d="M1243.2 552.486l-9.72 52.005 12.59-57.44-2.87 5.435z" fill="#000"/><path d="M1243.8 473.465l-5.66 4.264c-5.83-2.931-10.2-9.712-11.79-16.185l6.17-3.109c.48 6.601 5.18 10.99 11.28 15.03z" fill="#fff"/><path d="M1246.15 459.374h-14.1a.459.459 0 0 1-.33-.137.465.465 0 0 1 0-.665c.09-.088.2-.137.33-.137h14.1c.13 0 .25.049.34.137a.5.5 0 0 1 .13.333.5.5 0 0 1-.13.332.482.482 0 0 1-.34.137zm-2.82 14.091a.495.495 0 0 1-.22-.054.513.513 0 0 1-.17-.152.54.54 0 0 1-.08-.213c0-.076.01-.153.04-.225l3.76-9.394c.02-.057.05-.11.1-.154a.464.464 0 0 1 .51-.109c.06.023.11.057.15.1.05.044.08.095.11.152a.544.544 0 0 1 0 .36l-3.76 9.394a.57.57 0 0 1-.17.215.486.486 0 0 1-.27.08z" fill="#fff"/><path d="M1247.1 464.924c1.91 0 3.45-2.16 3.45-4.825 0-2.664-1.54-4.825-3.45-4.825-1.9 0-3.45 2.161-3.45 4.825 0 2.665 1.55 4.825 3.45 4.825z" fill="#FFB8B8"/><path d="M1004.04 474.634l36.74 8.399 15.52-29.249-31.41-12.253-20.85 33.103z" fill="#2F2E41"/><path d="M1023.56 632.086s-11.81 27.038-11.81 34.904c0 0 4.67 21.385 3.2 27.284l-5.17 11.062-10.825-4.425-2.952-29.496.492-47.195 27.065 7.866zm6.64-161.739s.98 16.223-.98 21.139c-1.97 4.916 7.38 14.256 7.38 14.256l14.76-19.172s-9.84-9.832-7.38-20.648l-13.78 4.425z" fill="#FFB9B9"/><path d="M999.447 582.679s-14.269 26.547-.492 24.581c13.775-1.967 9.105-25.318 9.105-25.318" fill="#E6E6E6"/><path d="M1008.06 581.942l4.67-46.457-.24-28.267-10.83 1.965v26.056l-2.213 47.44" fill="#FFB9B9"/><path d="M996.249 697.47l21.161-8.358 2.46 41.787s4.43 12.782 2.95 17.698c0 0 .98 8.357-1.48 8.849-2.46.492-9.35 1.475-9.84.983-.49-.491-.49-1.966-.49-1.966s-4.92 3.441-5.41 7.374c0 0-20.669 6.391-21.161.492-.492-5.9 10.333-10.816 10.333-10.816l8.368-12.782-6.891-43.261z" fill="#2F2E41"/><path d="M1067.6 632.086s-11.81 27.038-11.81 34.904c0 0 4.67 21.385 3.2 27.284l-5.17 11.062-10.83-4.425-2.95-29.496.49-47.195 27.07 7.866z" fill="#FFB9B9"/><path d="M1041.03 697.47l21.15-8.358 2.46 41.787s4.43 12.782 2.96 17.698c0 0 .98 8.357-1.48 8.849-2.46.492-9.35 1.475-9.84.983-.49-.491-.49-1.966-.49-1.966s-4.92 3.441-5.41 7.374c0 0-20.67 6.391-21.16.492-.5-5.9 10.33-10.816 10.33-10.816l8.36-12.782-6.88-43.261z" fill="#2F2E41"/><path d="M1050.87 459.042c0 3.872-1.43 7.606-4.02 10.49a15.726 15.726 0 0 1-9.99 5.14 15.76 15.76 0 0 1-10.88-2.83 15.715 15.715 0 0 1-6.22-9.358 15.338 15.338 0 0 1-.39-3.442c.01-4.171 1.67-8.17 4.62-11.118a15.752 15.752 0 0 1 22.26 0 15.687 15.687 0 0 1 4.62 11.118z" fill="#FFB9B9"/><path d="M1037.09 490.503l12.22-6.34 5.49 4.373s13.29-.491 18.21 5.408c4.92 5.899 7.63 20.893 7.63 20.893s-16.24-3.441-14.27 10.324l-2.96-7.866-2.7 6.637-32.97 11.307-14.76-25.072s-9.84-2.95-13.287 3.933c0 0 .737-24.826 10.337-25.564 6.45-.496 11.31-.491 11.31-.491l5.42-.984 3.46-1.229 6.87 4.671z" fill="#575A89"/><path d="M1058 544.334s25.83 77.428 18.45 88.243c0 0-27.55 13.765-82.662-4.916l22.392-86.768c13.75-2.81 27.69-1.663 41.82 3.441z" fill="#2F2E41"/><path d="M1058 544.334l7.27-24.962c-8.72-9.476-1.19-30.489-1.19-30.489l-10.52-2.253s-10.57 28.453-21.39 25.012c-10.83-3.441-4.92-25.564-4.92-25.564l-9.84.983-4.43 17.207 3.2 36.625c13.34-1.144 27.33.187 41.82 3.441z" fill="#575A89"/><path d="M1070.8 581.942l3.44-46.703.99-28.021-10.83 1.965v26.056l-2.21 47.44" fill="#FFB9B9"/><path d="M1062.18 582.679s-14.26 26.547-.49 24.581c13.78-1.967 9.11-25.318 9.11-25.318" fill="#fff"/><path d="M1080.64 514.837s-1.75-25.247-16.38-25.159v29.197s10.96-6.496 16.38-4.038z" fill="#575A89"/><path d="M1040.16 463.102a.364.364 0 0 1-.23-.074.408.408 0 0 1-.16-.438c.02-.08.07-.151.14-.203l8.03-6.418a.393.393 0 0 1 .56.061c.04.041.06.088.08.139a.414.414 0 0 1-.14.426l-8.03 6.419a.399.399 0 0 1-.25.088z" fill="#fff"/><path d="M1040.77 472.73c-.18.216-.36.433-.54.633a15.755 15.755 0 0 1-13.52-.245 15.78 15.78 0 0 1-5.38-4.376 15.74 15.74 0 0 1-2.97-6.258l7.61-1.399 14.8 1.399c-3.39 4.124-2.98 5.552 0 10.246z" fill="#fff"/><path d="M1026.23 437.021s-8.14 1.529-10.02 11.67c-.29 1.71-.35 3.453-.16 5.178.19 1.952-.08 6.075-4.33 10.929a108.207 108.207 0 0 0-7.72 9.911l8.5 2.262 3.8-14.076a72.002 72.002 0 0 1 8.43-19.34l.07-.125s2.83 7.54 10.4 8.573l-2.34-3.07s8.85 5.111 13.87 6.672a3.314 3.314 0 0 1 2.26 2.542c.1.589.05 1.196-.16 1.757-.21.56-.57 1.053-1.04 1.424-.04.028-.07.056-.11.084-3.69 2.799-11.21 9.476-8.24 15.935 2.98 6.46-.49 7.638-.49 7.638l6.39-2.43 2.93-1.251-.3 2.161 14.28.299s3.86-.024-2.99-10.315c0 0-1.66-3.859-.3-6.807a15.637 15.637 0 0 0 1.58-7.176c-.43-10.375-4.8-31.484-34.31-22.445zM825.903 732.568s0 66.759-15.336 84.269c0 0-3.286 8.755-4.381 12.038a46.142 46.142 0 0 1-2.191 5.472v4.378s-29.576-3.283-32.862-10.944l5.477-6.566s1.095-1.095 0-4.378c-1.096-3.283 2.191-3.283 2.191-3.283l7.667-17.511-1.095-72.23 5.477-99.59 47.102-2.189-12.049 110.534z" fill="#2F2E41"/><path d="M801.804 832.159s7.668 22.982 0 24.076c-7.668 1.095-74.488 2.189-73.392-6.566 1.095-8.755 23.003-7.661 23.003-7.661l23.004-14.227 27.385 4.378zm67.915-207.936s2.19 14.227-6.573 29.549c-8.763 15.321-3.286 66.758-3.286 66.758l77.773 67.853s-15.335 26.265-20.812 25.171c-5.477-1.095-92.014-71.136-92.014-71.136L790.85 628.6l78.869-4.377z" fill="#2F2E41"/><path d="M936.565 785.483s23.534 5.833 20.354 12.889c-3.179 7.057-38.026 64.029-44.841 58.417-6.815-5.611 5.838-23.512 5.838-23.512l.288-27.029 18.361-20.765z" fill="#2F2E41"/><path d="M852.192 420.666a25.022 25.022 0 0 1-5.617 15.831 25.13 25.13 0 0 1-10.989 7.837 25.152 25.152 0 0 1-13.463 1.024 24.456 24.456 0 0 1-6.474-2.226 25.182 25.182 0 0 1-8.36-6.789 25.14 25.14 0 0 1-4.755-9.658 25.16 25.16 0 0 1 6.647-23.818 25.21 25.21 0 0 1 35.631 0 25.16 25.16 0 0 1 7.38 17.799z" fill="#A0616A"/><path d="M846.821 429.546l-1.114 32.39-21.199 8.369s-2.079-33.166-5.014-35.005c-2.934-1.838 27.327-5.754 27.327-5.754z" fill="#A0616A"/><path d="M819.33 474.29s29.576-29.549 37.244-28.454c7.668 1.094 7.668 4.377 7.668 6.566s-2.191 3.283 0 4.378c2.19 1.094 4.381 0 4.381 3.283s19.717 36.115 13.145 72.23c-6.572 36.115-14.24 53.626-10.954 73.325 3.286 19.699 1.095 24.077 1.095 24.077s-82.155 6.566-83.25-1.095c-1.096-7.66 3.286-3.283-2.191-8.755-5.477-5.472-3.286-5.472-3.286-8.755 0-3.283 24.099-136.8 36.148-136.8z" fill="#575A89"/><path d="M834.666 623.128s-13.145 31.738-23.004 24.077c-9.858-7.661 4.382-33.926 4.382-33.926l18.622 9.849z" fill="#fff"/><path d="M866.433 476.479s25.736 2.944 16.154 50.173C873.005 573.88 835.762 628.6 835.762 628.6l-25.195-12.038 32.862-64.57-7.667-40.492s-4.382-38.304 30.671-35.021z" fill="#575A89"/><path opacity=".2" d="M843.977 552.54l-36.149 60.192 3.286 3.283 32.863-63.475zm19.134 28.049l-28.993 47.464h9.859l19.134-47.464zm-65.491 86.255l-1.456.555 28.826 75.509 1.456-.555-28.826-75.509z" fill="#000"/><path d="M819.485 480.299a1.557 1.557 0 1 0 .002-3.114 1.557 1.557 0 0 0-.002 3.114z" fill="#D0CDE1"/><path d="M806.24 522.334a.777.777 0 0 0 .744-.549l13.245-42.813a.772.772 0 0 0-.246-.83.777.777 0 0 0-1.098.103.769.769 0 0 0-.144.267l-13.246 42.814a.779.779 0 0 0 .745 1.008z" fill="#D0CDE1"/><path d="M821.946 439.945l-6.296 5.984c-6.484-3.26-12.748-12.044-14.515-19.244l8.261-3.459c.539 7.343 5.756 12.225 12.55 16.719z" fill="#fff"/><path d="M823.516 426.361a.473.473 0 0 1-.075-.005l-14.642-2.09a.524.524 0 0 1-.444-.591.512.512 0 0 1 .203-.344.53.53 0 0 1 .388-.099l14.642 2.089a.524.524 0 0 1-.072 1.04zm-2.094 13.584a.527.527 0 0 1-.451-.259.523.523 0 0 1-.004-.52l4.851-8.628a.522.522 0 0 1 .713-.201.522.522 0 0 1 .198.713l-4.851 8.629a.52.52 0 0 1-.456.266z" fill="#fff"/><path d="M838.401 435.79c-2.039-1.078-4.408-1.3-6.616-1.969-7.898-2.396-13.19-11.317-11.5-19.389a9.877 9.877 0 0 0 .414-3.196c-.295-2.391-2.743-3.933-5.091-4.481-2.348-.548-4.846-.468-7.091-1.349-3.465-1.36-5.766-4.918-6.265-8.604-.499-3.685.595-7.445 2.376-10.711l.848 2.438a9.032 9.032 0 0 0 2.771-4.141 5.716 5.716 0 0 1 4.35 3.495c1.361.802 1.558-2.491 3.061-2.977.63-.204 1.277.183 1.877.462 3.03 1.412 6.551.205 9.801-.578a36.947 36.947 0 0 1 17.127-.02c3.741.892 7.444 2.444 10.122 5.203 2.198 2.266 3.568 5.196 4.735 8.129 2.871 7.22 4.768 15.032 3.82 22.743a32.184 32.184 0 0 1-7.593 17.057c-2.169 2.495-9.242 11.202-13.12 9.718-4.874-1.866 1.717-8.797-4.026-11.83z" fill="#2F2E41"/></g><defs><linearGradient id="paint0_linear" x1="1262.99" y1="178.621" x2="1164.54" y2="726.726" gradientUnits="userSpaceOnUse"><stop stop-color="#687ECD" stop-opacity=".04"/><stop offset="1" stop-color="#fff" stop-opacity="0"/></linearGradient><linearGradient id="paint1_linear" x1="614.621" y1="353.178" x2="1120.12" y2="-94.321" gradientUnits="userSpaceOnUse"><stop stop-color="#fff"/><stop offset=".77" stop-color="#fff" stop-opacity="0"/></linearGradient><clipPath id="clip0"><path fill="#fff" d="M724.621 313.178h636v544h-636z"/></clipPath></defs></svg>