<svg width="375" height="629" fill="none" xmlns="http://www.w3.org/2000/svg"><path fill-rule="evenodd" clip-rule="evenodd" d="M191.22 50.32c77.975 16.549 141.841 63.277 185.313 125.878 49.845 71.779 95.708 155.949 64.391 233.705-32.763 81.347-124.572 124.337-216.61 144.232-91.486 19.776-196.126 19.571-268.064-39.465-67.754-55.601-61.698-147.497-59.746-229.549 1.737-73 10.86-148.961 69.868-195.972C26.409 41.316 111.954 33.497 191.22 50.32z" fill="#C8DDF5" fill-opacity=".2"/><path fill-rule="evenodd" clip-rule="evenodd" d="M191.22 50.32c77.975 16.549 141.841 63.277 185.313 125.878 49.845 71.779 95.708 155.949 64.391 233.705-32.763 81.347-124.572 124.337-216.61 144.232-91.486 19.776-196.126 19.571-268.064-39.465-67.754-55.601-61.698-147.497-59.746-229.549 1.737-73 10.86-148.961 69.868-195.972C26.409 41.316 111.954 33.497 191.22 50.32z" fill="url(#paint0_linear)" style="mix-blend-mode:screen"/><path fill-rule="evenodd" clip-rule="evenodd" d="M191.22 50.32c77.975 16.549 141.841 63.277 185.313 125.878 49.845 71.779 95.708 155.949 64.391 233.705-32.763 81.347-124.572 124.337-216.61 144.232-91.486 19.776-196.126 19.571-268.064-39.465-67.754-55.601-61.698-147.497-59.746-229.549 1.737-73 10.86-148.961 69.868-195.972C26.409 41.316 111.954 33.497 191.22 50.32z" fill="url(#paint1_linear)"/><ellipse cx="222" cy="586.603" rx="97" ry="6.603" fill="#C8DDF5" fill-opacity=".12"/><path d="M229.963 405.748h64.361v71.94h-64.361v-71.94z" fill="#CCC"/><path d="M261.296 565.555l1.105 15.111a4.813 4.813 0 0 1-5.09 5.152l-7.764-.47a2.464 2.464 0 0 1-1.831-.998 2.467 2.467 0 0 1-.402-2.046l4.31-17.232 9.672.483zm-64.944 8.936c-9.138 2.137-15.665 5.174-19.954 9.284a8.797 8.797 0 0 1-5.63 2.413c-2.69.142-4.889-.16-6.541-.898h-.001a2.592 2.592 0 0 1-1.535-2.135 2.64 2.64 0 0 1 1.105-2.437l21.671-15.414 9.206 3.681 2.147 2.146a2.13 2.13 0 0 1 .603 1.797 2.13 2.13 0 0 1-1.071 1.563z" fill="#E6E6E6"/><path d="M224.473 327.78l61.946-.573c-.155-9.02-2.255-17.876-6.843-25.802-3.014-5.205-2.949-10.869-2.223-15.642 1.121-7.365-1.485-14.9-7.277-19.588a23.358 23.358 0 0 0-15.705-5.195l-1.203.05a23.414 23.414 0 0 0-19.232 11.563 19.484 19.484 0 0 0-2.318 11.874c.392 3.861-.547 7.761-2.745 11.699-3.791 8.646-4.612 19.709-4.4 31.614z" fill="#2F2E41"/><path d="M183.028 566.108l12.158 3.17 59.202-128.928-3.7 125.758h12.158c12.991-59.166 36.446-127.45 25.901-149.008l-62.903-3.698-42.816 152.706z" fill="#F9DC25"/><path d="M254.916 306.138c-9.05 0-16.386-7.334-16.386-16.381 0-9.046 7.336-16.38 16.386-16.38 9.05 0 16.387 7.334 16.387 16.38 0 9.047-7.337 16.381-16.387 16.381z" fill="#FFB9B9"/><path d="M240.645 319.876l26.958-1.585c-2.642-6.062-3.697-11.899-2.643-17.437h-20.086c.045 4.252-2.072 11.608-4.229 19.022z" fill="#FFB9B9"/><path d="M223.73 418.157l59.202 4.227-6.079-104.886-10.308-2.906-11.628 2.642-11.629-5.813-7.401 2.643-12.157 104.093z" fill="#F9DC25"/><path d="M272.889 493.718l40.437-9.247c-12.024-39.859-33.686-131.043-26.694-163.538l-21.143-9.511 7.4 182.296z" fill="#E6E6E6"/><path d="M292.447 378.528l15.329-9.512-13.073-38.274a18.056 18.056 0 0 0-7.896-9.374l-4.404-2.549 2.643 38.573 7.401 21.136zM188.578 484.999c12.763 7.381 44.666 11.496 58.674 6.341 1.031-36.013 3.052-137.879-3.436-180.975l-23.258 9.511 2.115 28.533c11.119 24.409-21.169 109.424-34.095 136.59z" fill="#E6E6E6"/><path d="M190.428 373.772l14.272-4.755 19.029-21.665-3.171-27.476-31.716 44.385 1.586 9.511z" fill="#E6E6E6"/><path d="M235.157 394.339a3.973 3.973 0 0 1-4.743 2.99l-12.115-2.743 1.751-7.73 12.115 2.742a3.969 3.969 0 0 1 2.992 4.741z" fill="#FFB9B9"/><path d="M240.644 285.53c9.102-3.741 18.091-4.012 26.959-.528l3.7-13.21h-33.83l3.171 13.738z" fill="#2F2E41"/><path d="M224.258 385.397l-6.871 12.681c-11.559-3.222-21.575-13.381-31.187-25.363l2.643-8.454 16.386 4.227 19.029 16.909z" fill="#E6E6E6"/><path d="M229.28 359.241h2.114c0-29.893 6.158-50.726 12.158-50.726l.529-2.113c-5.382 0-8.812 8.67-10.743 15.944-2.617 9.86-4.058 22.963-4.058 36.895zm48.631-7.397h2.114c0-27.378-6.2-44.385-15.329-44.385l.528 2.113c6.315 0 12.687 13.071 12.687 42.272z" fill="#3F3D56"/><path d="M230.337 365.054a5.285 5.285 0 0 1 0-10.568 5.285 5.285 0 1 1 0 10.568zm56.031-.529h2.114c0-7.575-4.268-13.738-9.514-13.738v2.113c4.08 0 7.4 5.215 7.4 11.625zm-16.915 0h2.114c0-6.41 3.32-11.625 7.401-11.625v-2.113c-5.247 0-9.515 6.163-9.515 13.738z" fill="#3F3D56"/><path d="M270.51 367.167a2.113 2.113 0 1 1 0-4.227 2.114 2.114 0 1 1 0 4.227zm16.915 0a2.113 2.113 0 1 1 0-4.227 2.114 2.114 0 1 1 0 4.227z" fill="#3F3D56"/><path d="M313.855 345.618l-13.192 2.355-30.153 42.857 16.019-3.768 27.326-41.444z" fill="#F9A826"/><path d="M316.195 345.093a1.123 1.123 0 0 1 .92 1.738l-28.185 42.747c-.157.239-.4.409-.678.474l-13.114 3.085a1.124 1.124 0 0 1-1.185-.463 1.123 1.123 0 0 1 .012-1.271l30.945-43.984a1.115 1.115 0 0 1 .72-.458l10.353-1.849c.07-.012.141-.019.212-.019z" fill="#3F3D56"/><path d="M298.613 375.657l-.784 7.888-12.361-1.227a3.964 3.964 0 1 1 .784-7.887l12.361 1.226z" fill="#FFB9B9"/><path d="M309.361 374.744a10.19 10.19 0 0 1-10.184 10.124h-2.033l-1.479-12.326 12.251-4.409 1.445 6.611zM66.882 588h36.236L107 557H63l3.882 31z" fill="#E6E6E6"/><path d="M112.069 546.266C102.925 558.692 83.942 560 83.942 560s-4.156-18.839 4.989-31.266C98.075 516.308 117.058 515 117.058 515s4.156 18.839-4.989 31.266z" fill="#E6E6E6"/><path d="M64.897 550.844c6.01 8.284 18.484 9.156 18.484 9.156s2.73-12.56-3.278-20.844C74.093 530.872 61.619 530 61.619 530s-2.73 12.56 3.278 20.844z" fill="#E6E6E6"/><defs><linearGradient id="paint0_linear" x1="161" y1="551" x2="52.928" y2="280.046" gradientUnits="userSpaceOnUse"><stop stop-color="#687ECD" stop-opacity=".21"/><stop offset="1" stop-color="#fff" stop-opacity="0"/></linearGradient><linearGradient id="paint1_linear" x1="-49.489" y1="326.633" x2="522.393" y2="186.47" gradientUnits="userSpaceOnUse"><stop stop-color="#fff"/><stop offset=".77" stop-color="#fff" stop-opacity="0"/></linearGradient></defs></svg>