<svg width="375" height="629" fill="none" xmlns="http://www.w3.org/2000/svg"><path fill-rule="evenodd" clip-rule="evenodd" d="M191.22 50.32c77.975 16.549 141.841 63.277 185.313 125.878 49.845 71.779 95.708 155.949 64.391 233.705-32.763 81.347-124.572 124.337-216.61 144.232-91.486 19.776-196.126 19.571-268.064-39.465-67.754-55.601-61.698-147.497-59.746-229.549 1.737-73 10.86-148.961 69.868-195.972C26.409 41.316 111.954 33.497 191.22 50.32z" fill="#C8DDF5" fill-opacity=".2"/><path fill-rule="evenodd" clip-rule="evenodd" d="M191.22 50.32c77.975 16.549 141.841 63.277 185.313 125.878 49.845 71.779 95.708 155.949 64.391 233.705-32.763 81.347-124.572 124.337-216.61 144.232-91.486 19.776-196.126 19.571-268.064-39.465-67.754-55.601-61.698-147.497-59.746-229.549 1.737-73 10.86-148.961 69.868-195.972C26.409 41.316 111.954 33.497 191.22 50.32z" fill="url(#paint0_linear)" style="mix-blend-mode:screen"/><path fill-rule="evenodd" clip-rule="evenodd" d="M191.22 50.32c77.975 16.549 141.841 63.277 185.313 125.878 49.845 71.779 95.708 155.949 64.391 233.705-32.763 81.347-124.572 124.337-216.61 144.232-91.486 19.776-196.126 19.571-268.064-39.465-67.754-55.601-61.698-147.497-59.746-229.549 1.737-73 10.86-148.961 69.868-195.972C26.409 41.316 111.954 33.497 191.22 50.32z" fill="url(#paint1_linear)"/><g clip-path="url(#clip0)"><path d="M63.696 504.424c19.477 0 35.267-32.256 35.267-72.046 0-39.79-15.79-72.046-35.267-72.046-19.478 0-35.268 32.256-35.268 72.046 0 39.79 15.79 72.046 35.267 72.046z" fill="#F9DC25"/><path d="M63.372 433.125c1.76-31.361 5.304-52.544 5.34-52.754l-.77-.131c-.035.211-3.586 21.428-5.348 52.829-1.627 28.982-2.019 72.819 5.348 117.072l.77-.129c-7.355-44.177-6.963-87.947-5.34-116.887z" fill="#3F3D56"/><path d="M95.217 417.767l-31.888 17.088.368.688 31.888-17.087-.368-.689zm-65.183 8.564l-.368.689 31.892 17.079.368-.689-31.892-17.079z" fill="#3F3D56"/><path d="M308.246 496.934c25.269 0 45.754-41.846 45.754-93.467 0-51.62-20.485-93.467-45.754-93.467s-45.754 41.847-45.754 93.467c0 51.621 20.485 93.467 45.754 93.467z" fill="#F9DC25"/><path d="M307.69 404.425c2.283-40.693 6.883-68.179 6.929-68.452l-.729-.123c-.046.273-4.652 27.791-6.937 68.522-2.11 37.592-2.619 94.451 6.937 151.85l.729-.122c-9.543-57.327-9.035-114.124-6.929-151.675z" fill="#3F3D56"/><path d="M349.204 384.632L307.835 406.8l.349.653 41.369-22.168-.349-.653zm-84.692 11.111l-.349.653 41.375 22.157.349-.653-41.375-22.157z" fill="#3F3D56"/><path d="M253.12 522.249c9.442 0 17.095-15.635 17.095-34.922 0-19.286-7.653-34.921-17.095-34.921-9.441 0-17.095 15.635-17.095 34.921 0 19.287 7.654 34.922 17.095 34.922z" fill="#E6E6E6"/><path d="M253.105 488.832l.101.189 15.456-8.283-.349-.652-15.176 8.132c.84-15.476 2.557-25.865 2.592-26.069l-.729-.124c-.038.223-2.079 12.561-2.803 30.412l-15.307-8.202-.349.653 15.456 8.282.185-.345c-.58 14.734-.255 33.158 2.818 51.614l.729-.122c-3.35-20.123-3.423-40.208-2.624-55.485z" fill="#3F3D56"/><path d="M339.739 563.889c-91.055-28.858-173.62-27.32-226.85-20.949-57.668 6.903-94.26 20.803-94.624 20.942l-.265-.691c.364-.14 37.043-14.073 94.801-20.986a549.223 549.223 0 0 1 102.392-2.623 533.516 533.516 0 0 1 124.769 23.602l-.223.705z" fill="#3F3D56"/><path d="M135.043 555.734s.255-5.357 5.49-4.735z" fill="#3F3D56"/><path d="M133.563 550.636a2.622 2.622 0 0 0 2.62-2.623 2.622 2.622 0 0 0-2.62-2.624 2.622 2.622 0 0 0-2.62 2.624 2.622 2.622 0 0 0 2.62 2.623z" fill="#F9DC25"/><path d="M133.877 552.43h-.739v5.183h.739v-5.183zm96.572 4.414s.256-5.357 5.491-4.734z" fill="#3F3D56"/><path d="M228.97 551.746a2.621 2.621 0 0 0 2.62-2.623 2.622 2.622 0 0 0-2.62-2.623 2.622 2.622 0 0 0-2.62 2.623 2.621 2.621 0 0 0 2.62 2.623z" fill="#F9DC25"/><path d="M229.283 553.541h-.74v5.183h.74v-5.183zm-155.995-5.952s.255-5.357 5.49-4.735z" fill="#3F3D56"/><path d="M71.808 542.491a2.622 2.622 0 0 0 2.62-2.623 2.622 2.622 0 0 0-2.62-2.624 2.622 2.622 0 0 0-2.62 2.624 2.622 2.622 0 0 0 2.62 2.623z" fill="#F9DC25"/><path d="M72.122 544.285h-.74v5.183h.74v-5.183zm41.474-3.731s.255-5.357 5.49-4.734z" fill="#3F3D56"/><path d="M112.116 535.456a2.621 2.621 0 0 0 2.62-2.623 2.622 2.622 0 0 0-2.62-2.623 2.622 2.622 0 0 0-2.62 2.623 2.621 2.621 0 0 0 2.62 2.623z" fill="#F9DC25"/><path d="M112.429 537.25h-.74v5.184h.74v-5.184zm102.119 13.301s.255-5.358 5.49-4.735z" fill="#3F3D56"/><path d="M213.068 545.453a2.622 2.622 0 0 0 2.62-2.624 2.622 2.622 0 0 0-2.62-2.623 2.622 2.622 0 0 0-2.62 2.623 2.622 2.622 0 0 0 2.62 2.624z" fill="#F9DC25"/><path d="M213.382 547.247h-.739v5.183h.739v-5.183z" fill="#3F3D56"/><path d="M328.259 539.811l15.22 22.595-14.171 14.187-1.836-3.679 3.149-7.356s-.525-6.831-2.362-8.67c-1.837-1.839-9.972-12.873-9.972-12.873l9.972-4.204z" fill="#FFB8B8"/><path d="M308.841 466.774s2.886 4.573-3.149 24.278c0 0 28.152 47.569 23.691 50.722-4.461 3.153-16.533 10.13-19.682 8.028-3.149-2.102-26.052-73.307-26.052-73.307l25.192-9.721zm31.883 91.559l4.592 4.598c2.361 2.364 3.936 5.78-.525 8.67-4.461 2.89-19.943 13.661-25.192 10.246-5.248-3.415 6.298-6.568 6.298-6.568s1.909-7.087 2.923-5.514c1.013 1.573 1.013 4.726 1.013 4.726l10.891-16.158z" fill="#2F2E41"/><path d="M285.223 552.159s-8.397 15.501-8.397 17.34c0 1.839.525 7.094.525 7.094l-16.007 3.94-5.511-2.627 1.837-4.729s9.972-3.415 12.071-9.983c2.099-6.568 4.461-13.399 4.461-13.399l11.021 2.364zm9.709-154.218c6.087 0 11.022-4.94 11.022-11.035 0-6.094-4.935-11.034-11.022-11.034-6.086 0-11.021 4.94-11.021 11.034 0 6.095 4.935 11.035 11.021 11.035z" fill="#FFB8B8"/><path d="M292.046 396.364l5.262 15.137 11.532-5.153s-7.872-12.085-7.872-13.662l-8.922 3.678z" fill="#FFB8B8"/><path d="M290.471 450.223h13.908s9.972 15.238 4.199 31.264c-.884 2.454-1.762 5.892-2.638 9.956-2.014 9.347-4.02 22.009-6.075 33.643-2.887 16.343-5.873 30.66-9.118 30.92-6.56.525-19.317.437-19.317-2.19s8.545-78.635 8.545-78.635l1.837-3.152.347-13.733a8.291 8.291 0 0 1 2.51-5.736 8.268 8.268 0 0 1 5.802-2.337zm-13.776 119.145s3.018 5.123 2.231 8.801c-.787 3.678-2.099 3.153-7.872 3.678-5.773.525-25.454.525-25.454-3.153s15.352-8.454 15.417-6.986c.065 1.469.59 4.359-.985 4.885-1.574.525-.131.131-.131.131l16.794-7.356z" fill="#2F2E41"/><path d="M292.048 483.015s-1.141 18.663-8.755 13.107c-7.613-5.556 2.967-15.592 2.967-15.592l5.788 2.485z" fill="#fff"/><path d="M307.244 458.436a2.21 2.21 0 0 0 2.262-.269c.461-.362.767-.885.859-1.464 1.1-6.353 2.441-23.966 3.212-32.872.969-11.176-3.869-19.832-3.91-19.884l-2.851-3.926a2.237 2.237 0 0 0-2.68-.753s-8.902 9.247-8.934 9.604c-.14 1.533-1.199 4.93-6.721 10.458-6.042 6.049-6.076 11.329-5.942 12.803.009.097.013.194.013.29a6.496 6.496 0 0 0 .267 1.955c2.53 7.988.548 17.551-2.634 27.533a2.256 2.256 0 0 0 .906 2.444c.93.633-.185-.307.147.1 2.193 2.691 5.349-1.059 8.96-5.152 1.258-1.425 2.683-3.041 4.363-4.723 2.31-2.313 6.724 2.965 8.776 2.965a9.512 9.512 0 0 1 3.907.891z" fill="#575A89"/><path d="M308.469 408.022s5.764 4.867 2.489 11.179c-3.275 6.312-2.839 10.968-2.839 10.968s-.872 43.363-11.105 41.256l-4.655 12.866-8.407-3.037 4.861-11.349s-3.893-.242-2.756-2.898c.8-1.866 5.105-22.11 7.597-33.995 1.056-5.037 1.786-8.573 1.786-8.573s3.312-17.73 13.029-16.417z" fill="#575A89"/><path opacity=".2" d="M309.677 430.058l-3.241 21.291 1.748-22.766 1.493 1.475z" fill="#000"/><path d="M282.908 382.017s-1.853-14.437 13.265-9.702c0 0 10.798-1.984 14.339 11.538l3.585 14.175-1.747-.952-.815 1.782-2.831.718-1.212-2.408-.586 2.925-23.192 2.314s10.387-6.15 10.552-17.173l-1.979 2.094-9.379-5.311z" fill="#2F2E41"/><path opacity=".2" d="M300.155 525.916l5.172-34.5-4.206 37.245-.966-2.745z" fill="#000"/><path d="M308.607 378.294a5.835 5.835 0 0 0 5.832-5.838 5.835 5.835 0 0 0-5.832-5.839 5.835 5.835 0 0 0-5.832 5.839 5.835 5.835 0 0 0 5.832 5.838z" fill="#2F2E41"/><path d="M302.598 371.027a5.838 5.838 0 0 1 1.835-3.885 5.82 5.82 0 0 1 3.994-1.572c-.12-.016-.24-.034-.363-.042a5.82 5.82 0 0 0-4.226 1.44 5.832 5.832 0 0 0-1.971 4.012 5.828 5.828 0 0 0 .301 2.258 5.834 5.834 0 0 0 5.148 3.943c.123.008.244.005.365.005a5.828 5.828 0 0 1-5.083-6.159z" fill="#2F2E41"/><path opacity=".2" d="M291.965 436.693l-5.131 27.532 6.65-30.41-1.519 2.878z" fill="#000"/><path d="M292.284 394.858l-2.99 2.258c-3.08-1.552-5.39-5.142-6.23-8.569l3.259-1.646c.256 3.495 2.734 5.818 5.961 7.957z" fill="#fff"/><path d="M293.527 387.398h-7.451a.247.247 0 0 1-.176-.073.247.247 0 0 1 0-.351.247.247 0 0 1 .176-.073h7.451c.066 0 .129.026.175.073a.247.247 0 0 1 0 .351.244.244 0 0 1-.175.073zm-1.491 7.46a.25.25 0 0 1-.23-.341l1.987-4.973a.257.257 0 0 1 .133-.137.237.237 0 0 1 .094-.02.242.242 0 0 1 .177.071.244.244 0 0 1 .075.175.264.264 0 0 1-.018.096l-1.987 4.973a.247.247 0 0 1-.231.156z" fill="#fff"/><path d="M294.027 390.337c1.007 0 1.823-1.144 1.823-2.555 0-1.411-.816-2.554-1.823-2.554-1.006 0-1.822 1.143-1.822 2.554 0 1.411.816 2.555 1.822 2.555z" fill="#FFB8B8"/><path d="M165.617 395.477l19.409 4.447 8.2-15.485-16.595-6.487-11.014 17.525z" fill="#2F2E41"/><path d="M175.929 478.834s-6.239 14.314-6.239 18.479c0 0 2.469 11.321 1.689 14.444l-2.729 5.856-5.719-2.342-1.56-15.616.26-24.985 14.298 4.164zm3.509-85.627s.52 8.589-.52 11.192c-1.04 2.602 3.9 7.547 3.9 7.547l7.798-10.15s-5.199-5.205-3.899-10.931l-7.279 2.342z" fill="#FFB9B9"/><path d="M163.191 452.677s-7.539 14.055-.26 13.014c7.278-1.042 4.809-13.404 4.809-13.404" fill="#E6E6E6"/><path d="M167.741 452.287l2.469-24.595-.13-14.965-5.719 1.041v13.794l-1.17 25.115" fill="#FFB9B9"/><path d="M161.501 513.449l11.179-4.425 1.299 22.123s2.34 6.767 1.56 9.369c0 0 .52 4.425-.78 4.685-1.3.26-4.939.781-5.199.521-.26-.261-.26-1.042-.26-1.042s-2.599 1.822-2.859 3.904c0 0-10.919 3.384-11.178.261-.26-3.123 5.459-5.726 5.459-5.726l4.419-6.767-3.64-22.903z" fill="#2F2E41"/><path d="M199.195 478.834s-6.239 14.314-6.239 18.479c0 0 2.47 11.321 1.69 14.444l-2.73 5.856-5.719-2.342-1.559-15.616.26-24.985 14.297 4.164z" fill="#FFB9B9"/><path d="M185.158 513.449l11.178-4.425 1.3 22.123s2.339 6.767 1.559 9.369c0 0 .52 4.425-.78 4.685-1.299.26-4.939.781-5.199.521-.26-.261-.26-1.042-.26-1.042s-2.599 1.822-2.859 3.904c0 0-10.918 3.384-11.178.261-.26-3.123 5.459-5.726 5.459-5.726l4.419-6.767-3.639-22.903z" fill="#2F2E41"/><path d="M190.358 387.222a8.335 8.335 0 0 1-2.122 5.554 8.316 8.316 0 0 1-14.314-3.731 8.329 8.329 0 0 1 8.117-10.147 8.329 8.329 0 0 1 8.319 8.324z" fill="#FFB9B9"/><path d="M183.078 403.878l6.455-3.356 2.903 2.315s7.019-.26 9.619 2.863c2.599 3.123 4.029 11.061 4.029 11.061s-8.579-1.822-7.539 5.466l-1.559-4.165-1.43 3.514-17.417 5.986-7.799-13.273s-5.199-1.562-7.019 2.082c0 0 .39-13.144 5.459-13.534 3.409-.263 5.979-.26 5.979-.26l2.86-.521 1.831-.651 3.628 2.473z" fill="#575A89"/><path d="M194.125 432.377s13.648 40.991 9.749 46.717c0 0-14.558 7.287-43.673-2.603l11.828-45.936c7.266-1.488 14.631-.88 22.096 1.822z" fill="#2F2E41"/><path d="M194.126 432.377l3.841-13.215c-4.608-5.017-.631-16.141-.631-16.141l-5.56-1.193s-5.579 15.063-11.298 13.241c-5.719-1.822-2.599-13.533-2.599-13.533l-5.2.52-2.339 9.109 1.69 19.39c7.046-.605 14.437.099 22.096 1.822z" fill="#575A89"/><path d="M200.885 452.287l1.82-24.725.52-14.835-5.719 1.041v13.794l-1.17 25.115" fill="#FFB9B9"/><path d="M196.335 452.677s-7.539 14.055-.26 13.014c7.279-1.042 4.809-13.404 4.809-13.404" fill="#fff"/><path d="M206.084 416.761s-.924-13.366-8.65-13.32v15.457s5.791-3.438 8.65-2.137z" fill="#575A89"/><path d="M184.699 389.372a.216.216 0 0 1-.123-.039.21.21 0 0 1-.081-.232.214.214 0 0 1 .071-.108l4.243-3.398a.212.212 0 0 1 .235-.021.217.217 0 0 1 .084.29.218.218 0 0 1-.054.063l-4.243 3.398a.21.21 0 0 1-.132.047z" fill="#fff"/><path d="M185.019 394.469c-.093.114-.186.229-.284.335a8.3 8.3 0 0 1-7.144-.13 8.321 8.321 0 0 1-4.408-5.629l4.02-.741 7.816.741c-1.79 2.183-1.574 2.939 0 5.424z" fill="#fff"/><path d="M177.34 375.564s-4.299.81-5.293 6.178a9.88 9.88 0 0 0-.085 2.742c.1 1.033-.044 3.216-2.286 5.786a56.203 56.203 0 0 0-4.08 5.247l4.492 1.197 2.008-7.452a38.145 38.145 0 0 1 4.449-10.239l.041-.066s1.492 3.992 5.492 4.539l-1.233-1.626s4.675 2.706 7.324 3.533a1.748 1.748 0 0 1 1.111 2.275 1.739 1.739 0 0 1-.55.755l-.057.044c-1.948 1.482-5.923 5.017-4.353 8.436 1.571 3.42-.261 4.044-.261 4.044l3.377-1.286 1.545-.663-.156 1.144 7.545.158s2.039-.012-1.583-5.461c0 0-.874-2.043-.156-3.603a8.31 8.31 0 0 0 .836-3.799c-.228-5.493-2.539-16.668-18.127-11.883zM71.507 532.03s0 35.343-8.101 44.613c0 0-1.736 4.635-2.315 6.374-.324.989-.71 1.957-1.158 2.896v2.318s-15.625-1.738-17.36-5.794l2.893-3.476s.578-.58 0-2.318c-.579-1.738 1.157-1.738 1.157-1.738l4.051-9.27-.579-38.24 2.894-52.724 24.884-1.159-6.366 58.518z" fill="#2F2E41"/><path d="M58.775 584.755s4.051 12.167 0 12.746c-4.05.58-39.352 1.159-38.773-3.476.579-4.635 12.153-4.056 12.153-4.056l12.153-7.532 14.467 2.318zm35.88-110.084s1.157 7.532-3.472 15.643c-4.63 8.112-1.737 35.343-1.737 35.343l41.088 35.922s-8.101 13.905-10.995 13.326c-2.893-.579-48.61-37.66-48.61-37.66l-17.94-60.256 41.666-2.318z" fill="#2F2E41"/><path d="M129.971 560.044s12.433 3.088 10.753 6.824c-1.679 3.736-20.089 33.897-23.689 30.926-3.601-2.97 3.084-12.447 3.084-12.447l.152-14.309 9.7-10.994z" fill="#2F2E41"/><path d="M85.396 366.906a13.262 13.262 0 0 1-2.967 8.381 13.273 13.273 0 0 1-12.918 4.691 12.915 12.915 0 0 1-3.42-1.179 13.306 13.306 0 0 1-6.929-8.707 13.334 13.334 0 0 1 3.512-12.609 13.303 13.303 0 0 1 18.824 0 13.334 13.334 0 0 1 3.898 9.423z" fill="#A0616A"/><path d="M82.558 371.607l-.588 17.148-11.2 4.43s-1.098-17.558-2.648-18.532c-1.55-.973 14.436-3.046 14.436-3.046z" fill="#A0616A"/><path d="M68.035 395.295s15.625-15.644 19.676-15.064c4.05.579 4.05 2.317 4.05 3.476 0 1.159-1.157 1.738 0 2.318 1.158.579 2.315 0 2.315 1.738s10.417 19.12 6.945 38.239c-3.472 19.12-7.523 28.39-5.787 38.819 1.736 10.429.579 12.747.579 12.747s-43.403 3.476-43.982-.579c-.579-4.056 1.736-1.739-1.157-4.636-2.894-2.896-1.736-2.896-1.736-4.635 0-1.738 12.731-72.423 19.097-72.423z" fill="#575A89"/><path d="M76.137 474.092s-6.945 16.802-12.153 12.746c-5.208-4.056 2.315-17.961 2.315-17.961l9.838 5.215z" fill="#fff"/><path d="M92.92 396.454s13.596 1.558 8.534 26.562c-5.063 25.003-24.739 53.973-24.739 53.973l-13.31-6.374 17.361-34.184-4.05-21.437s-2.315-20.278 16.203-18.54z" fill="#575A89"/><path opacity=".2" d="M81.056 436.721L61.96 468.587l1.736 1.739 17.361-33.605zm10.108 14.85l-15.316 25.128h5.208l10.108-25.128zm-34.599 45.664l-.77.294 15.23 39.975.769-.293-15.229-39.976z" fill="#000"/><path d="M68.117 398.476a.824.824 0 1 0 0-1.647.824.824 0 0 0 0 1.647z" fill="#D0CDE1"/><path d="M61.12 420.73a.407.407 0 0 0 .244-.081.407.407 0 0 0 .149-.21l6.997-22.665a.413.413 0 0 0-.585-.487.416.416 0 0 0-.201.243l-6.998 22.666a.416.416 0 0 0 .208.49.41.41 0 0 0 .185.044z" fill="#D0CDE1"/><path d="M69.416 377.112l-3.326 3.168c-3.425-1.726-6.734-6.376-7.668-10.188l4.364-1.831c.285 3.888 3.041 6.472 6.63 8.851z" fill="#fff"/><path d="M70.246 369.921a.26.26 0 0 1-.04-.003l-7.735-1.106a.284.284 0 0 1-.182-.108.276.276 0 0 1 .26-.44l7.735 1.106a.28.28 0 0 1 .237.293.275.275 0 0 1-.275.258zm-1.106 7.191a.276.276 0 0 1-.24-.412l2.563-4.568a.268.268 0 0 1 .07-.082.28.28 0 0 1 .204-.058.287.287 0 0 1 .184.104.284.284 0 0 1 .057.204.275.275 0 0 1-.034.103l-2.563 4.568a.274.274 0 0 1-.24.141z" fill="#fff"/><path d="M78.111 374.912c-1.078-.57-2.33-.688-3.496-1.042-4.172-1.269-6.968-5.991-6.075-10.265a5.244 5.244 0 0 0 .22-1.692c-.157-1.265-1.45-2.082-2.691-2.372-1.24-.29-2.56-.248-3.746-.714-1.83-.72-3.046-2.604-3.31-4.555-.264-1.951.315-3.941 1.256-5.671l.448 1.291a4.79 4.79 0 0 0 1.464-2.192 3.018 3.018 0 0 1 2.298 1.85c.719.425.822-1.319 1.617-1.576.332-.108.674.097.991.245 1.601.747 3.461.108 5.178-.306a19.471 19.471 0 0 1 9.048-.011c1.977.472 3.933 1.294 5.348 2.755 1.161 1.199 1.885 2.751 2.501 4.303 1.517 3.822 2.52 7.958 2.018 12.041a17.058 17.058 0 0 1-4.011 9.03c-1.146 1.321-4.882 5.93-6.931 5.144-2.575-.987.907-4.657-2.127-6.263z" fill="#2F2E41"/></g><defs><linearGradient id="paint0_linear" x1="161" y1="551" x2="52.928" y2="280.046" gradientUnits="userSpaceOnUse"><stop stop-color="#687ECD" stop-opacity=".21"/><stop offset="1" stop-color="#fff" stop-opacity="0"/></linearGradient><linearGradient id="paint1_linear" x1="-49.489" y1="326.633" x2="522.393" y2="186.47" gradientUnits="userSpaceOnUse"><stop stop-color="#fff"/><stop offset=".77" stop-color="#fff" stop-opacity="0"/></linearGradient><clipPath id="clip0"><path fill="#fff" d="M18 310h336v288H18z"/></clipPath></defs></svg>