<svg width="1103" height="802" fill="none" xmlns="http://www.w3.org/2000/svg"><ellipse cx="660" cy="790.044" rx="196" ry="11.087" fill="#C8DDF5" fill-opacity=".12"/><path fill-rule="evenodd" clip-rule="evenodd" d="M586.87 26.902c119.19-5.554 229.037 32.983 315.155 99.212 98.745 75.938 196.275 169.351 179.505 281.206-17.54 117.022-134.855 204.705-261.014 262.472-125.401 57.421-277.242 93.452-403.333 41.729C298.428 662.807 273.349 541.349 245.945 434.1c-24.381-95.417-39.14-197.242 29.12-278.771C344.516 72.377 465.706 32.548 586.87 26.902z" fill="#C8DDF5" fill-opacity=".2"/><path fill-rule="evenodd" clip-rule="evenodd" d="M586.87 26.902c119.19-5.554 229.037 32.983 315.155 99.212 98.745 75.938 196.275 169.351 179.505 281.206-17.54 117.022-134.855 204.705-261.014 262.472-125.401 57.421-277.242 93.452-403.333 41.729C298.428 662.807 273.349 541.349 245.945 434.1c-24.381-95.417-39.14-197.242 29.12-278.771C344.516 72.377 465.706 32.548 586.87 26.902z" fill="url(#paint0_linear)" style="mix-blend-mode:screen"/><path fill-rule="evenodd" clip-rule="evenodd" d="M586.87 26.902c119.19-5.554 229.037 32.983 315.155 99.212 98.745 75.938 196.275 169.351 179.505 281.206-17.54 117.022-134.855 204.705-261.014 262.472-125.401 57.421-277.242 93.452-403.333 41.729C298.428 662.807 273.349 541.349 245.945 434.1c-24.381-95.417-39.14-197.242 29.12-278.771C344.516 72.377 465.706 32.548 586.87 26.902z" fill="url(#paint1_linear)"/><path d="M684.906 432.321h127.048v141.965H684.906V432.321z" fill="#CCC"/><path d="M876.633 787.81h64.679l6.93-55.401h-78.539l6.93 55.401zm-129.878-40.128l2.183 29.818a9.505 9.505 0 0 1-2.715 7.363 9.511 9.511 0 0 1-7.334 2.805l-15.326-.928a4.857 4.857 0 0 1-2.027-.582 4.864 4.864 0 0 1-1.587-1.388 4.83 4.83 0 0 1-.793-4.037l8.508-34.005 19.091.954zm-128.198 17.633c-18.038 4.216-30.924 10.21-39.389 18.321a17.37 17.37 0 0 1-11.115 4.762c-5.309.279-9.65-.316-12.912-1.772a5.113 5.113 0 0 1-3.032-4.214 5.191 5.191 0 0 1 .435-2.701 5.195 5.195 0 0 1 1.746-2.108l42.78-30.418 18.172 7.264 4.239 4.237a4.19 4.19 0 0 1-.924 6.629z" fill="#E6E6E6"/><path d="M674.068 278.462l122.282-1.131c-.307-17.798-4.451-35.276-13.509-50.916-5.949-10.271-5.821-21.45-4.387-30.868 2.212-14.533-2.933-29.403-14.365-38.655a46.122 46.122 0 0 0-31.003-10.25l-2.374.099a46.234 46.234 0 0 0-21.898 6.566 46.184 46.184 0 0 0-16.067 16.252 38.436 38.436 0 0 0-4.575 23.43c.775 7.62-1.08 15.316-5.418 23.086-7.484 17.062-9.105 38.895-8.686 62.387z" fill="#2F2E41"/><path d="M592.255 748.772l24 6.256L733.12 500.604l-7.304 248.168h23.999c25.645-116.756 71.945-251.505 51.129-294.047l-124.17-7.299-84.519 301.346z" fill="#F9DC25"/><path d="M734.164 235.754c-17.865 0-32.347-14.472-32.347-32.325 0-17.852 14.482-32.324 32.347-32.324 17.864 0 32.346 14.472 32.346 32.324 0 17.853-14.482 32.325-32.346 32.325z" fill="#FFB9B9"/><path d="M705.99 262.864l53.216-3.128c-5.215-11.961-7.298-23.48-5.217-34.409h-39.651c.09 8.391-4.089 22.907-8.348 37.537z" fill="#FFB9B9"/><path d="M672.601 456.81l116.864 8.342-11.999-206.98-20.347-5.735-22.955 5.214-22.956-11.471-14.608 5.215-23.999 205.415z" fill="#F9DC25"/><path d="M769.641 605.919l79.823-18.248c-23.736-78.655-66.497-258.596-52.694-322.721l-41.738-18.769 14.609 359.738z" fill="#E6E6E6"/><path d="M808.248 378.606l30.259-18.769-25.806-75.529a35.636 35.636 0 0 0-15.586-18.5l-8.693-5.029 5.217 76.118 14.609 41.709zM603.211 588.714c25.194 14.566 88.171 22.686 115.822 12.513 2.035-71.067 6.025-272.087-6.782-357.132l-45.912 18.769 4.174 56.307c21.95 48.168-41.787 215.935-67.302 269.543z" fill="#E6E6E6"/><path d="M606.863 369.222l28.174-9.384 37.564-42.753-6.262-54.221-62.606 87.589 3.13 18.769z" fill="#E6E6E6"/><path d="M695.157 409.808a7.832 7.832 0 0 1-9.361 5.9l-23.915-5.412 3.456-15.254 23.915 5.411a7.822 7.822 0 0 1 5.905 9.355z" fill="#FFB9B9"/><path d="M705.991 195.088c17.966-7.383 35.711-7.917 53.215-1.043l7.304-26.068h-66.78l6.261 27.111z" fill="#2F2E41"/><path d="M673.644 392.162l-13.565 25.025c-22.816-6.359-42.589-26.407-61.563-50.051l5.217-16.683 32.347 8.342 37.564 33.367z" fill="#E6E6E6"/><path d="M683.557 340.547h4.173c0-58.991 12.155-100.101 23.999-100.101l1.044-4.171c-10.622 0-17.395 17.11-21.205 31.463-5.166 19.459-8.011 45.316-8.011 72.809zm95.996-14.598h4.174c0-54.026-12.238-87.588-30.26-87.588l1.044 4.17c12.465 0 25.042 25.794 25.042 83.418z" fill="#3F3D56"/><path d="M685.643 352.017c-5.763 0-10.434-4.669-10.434-10.427 0-5.759 4.671-10.427 10.434-10.427 5.763 0 10.435 4.668 10.435 10.427 0 5.758-4.672 10.427-10.435 10.427zm110.605-1.043h4.174c0-14.949-8.426-27.111-18.782-27.111v4.171c8.055 0 14.608 10.291 14.608 22.94zm-33.39 0h4.174c0-12.649 6.553-22.94 14.608-22.94v-4.171c-10.356 0-18.782 12.162-18.782 27.111z" fill="#3F3D56"/><path d="M764.945 356.188a4.173 4.173 0 0 1-4.174-4.171 4.172 4.172 0 0 1 4.174-4.171 4.172 4.172 0 0 1 4.174 4.171 4.173 4.173 0 0 1-4.174 4.171zm33.39 0a4.173 4.173 0 0 1-4.174-4.171 4.172 4.172 0 0 1 4.174-4.171 4.172 4.172 0 0 1 4.174 4.171 4.173 4.173 0 0 1-4.174 4.171z" fill="#3F3D56"/><path d="M850.507 313.663l-26.041 4.647-59.521 84.574 31.621-7.435 53.941-81.786z" fill="#F9A826"/><path d="M855.126 312.628a2.214 2.214 0 0 1 1.817 3.429l-55.637 84.357c-.31.471-.79.806-1.34.935l-25.886 6.086a2.208 2.208 0 0 1-2.315-3.422l61.086-86.796a2.19 2.19 0 0 1 1.42-.904l20.438-3.648c.137-.024.277-.037.417-.037z" fill="#3F3D56"/><path d="M820.419 372.942l-1.546 15.564-24.401-2.42a7.822 7.822 0 0 1-4.187-13.831 7.828 7.828 0 0 1 5.733-1.733l24.401 2.42z" fill="#FFB9B9"/><path d="M841.637 371.139a20.106 20.106 0 0 1-5.934 14.128 20.137 20.137 0 0 1-14.17 5.852h-4.012l-2.921-24.325 24.185-8.701 2.852 13.046zm116.285 340.776c-16.655 22.288-51.226 24.634-51.226 24.634s-7.569-33.791 9.085-56.079c16.655-22.289 51.226-24.635 51.226-24.635s7.569 33.791-9.085 56.08z" fill="#E6E6E6"/><path d="M873.08 720.293c10.99 14.708 33.803 16.256 33.803 16.256s4.994-22.298-5.995-37.005c-10.99-14.708-33.803-16.256-33.803-16.256s-4.995 22.298 5.995 37.005z" fill="#E6E6E6"/><defs><linearGradient id="paint0_linear" x1="1072.97" y1="338.15" x2="697.964" y2="749.832" gradientUnits="userSpaceOnUse"><stop stop-color="#687ECD" stop-opacity=".04"/><stop offset="1" stop-color="#fff" stop-opacity="0"/></linearGradient><linearGradient id="paint1_linear" x1="339.571" y1="469.283" x2="1080.64" y2="27.287" gradientUnits="userSpaceOnUse"><stop stop-color="#fff"/><stop offset=".77" stop-color="#fff" stop-opacity="0"/></linearGradient></defs></svg>