<svg width="1102" height="969" fill="none" xmlns="http://www.w3.org/2000/svg"><path fill-rule="evenodd" clip-rule="evenodd" d="M401.621 183.178c97.959-68.126 213.845-92.25 322-82 124.011 11.751 254.678 58.372 299.999 162 47.42 108.414 3.17 214.528-72.904 330.569-75.619 115.344-185.005 226.648-319.286 249.951-126.468 21.947-212.332-67.544-292.603-143.766-71.415-67.813-138.094-146.172-123.683-251.523 14.662-107.189 86.895-195.978 186.477-265.231z" fill="#C8DDF5" fill-opacity=".2"/><path fill-rule="evenodd" clip-rule="evenodd" d="M401.621 183.178c97.959-68.126 213.845-92.25 322-82 124.011 11.751 254.678 58.372 299.999 162 47.42 108.414 3.17 214.528-72.904 330.569-75.619 115.344-185.005 226.648-319.286 249.951-126.468 21.947-212.332-67.544-292.603-143.766-71.415-67.813-138.094-146.172-123.683-251.523 14.662-107.189 86.895-195.978 186.477-265.231z" fill="url(#paint0_linear)" style="mix-blend-mode:screen"/><path fill-rule="evenodd" clip-rule="evenodd" d="M401.621 183.178c97.959-68.126 213.845-92.25 322-82 124.011 11.751 254.678 58.372 299.999 162 47.42 108.414 3.17 214.528-72.904 330.569-75.619 115.344-185.005 226.648-319.286 249.951-126.468 21.947-212.332-67.544-292.603-143.766-71.415-67.813-138.094-146.172-123.683-251.523 14.662-107.189 86.895-195.978 186.477-265.231z" fill="url(#paint1_linear)"/><g clip-path="url(#clip0)"><path d="M536.116 680.423c36.869 0 66.757-60.928 66.757-136.087 0-75.158-29.888-136.086-66.757-136.086s-66.757 60.928-66.757 136.086c0 75.159 29.888 136.087 66.757 136.087z" fill="#F9DC25"/><path d="M535.503 545.748c3.33-59.238 10.04-99.251 10.107-99.648l-1.456-.246c-.067.397-6.788 40.474-10.124 99.788-3.078 54.743-3.82 137.546 10.124 221.134l1.456-.242c-13.92-83.447-13.179-166.124-10.107-220.786z" fill="#3F3D56"/><path d="M595.782 516.738l-60.359 32.276.697 1.301 60.358-32.276-.696-1.301zM472.4 532.915l-.697 1.301 60.368 32.26.696-1.301-60.367-32.26z" fill="#3F3D56"/><path d="M999.015 666.275c47.835 0 86.605-79.043 86.605-176.548 0-97.506-38.77-176.549-86.605-176.549-47.831 0-86.606 79.043-86.606 176.549 0 97.505 38.775 176.548 86.606 176.548z" fill="#F9DC25"/><path d="M997.963 491.535c4.317-76.863 13.027-128.781 13.117-129.296l-1.38-.234c-.09.516-8.81 52.495-13.133 129.43-3.993 71.007-4.956 178.409 13.133 286.828l1.38-.23c-18.066-108.285-17.104-215.567-13.117-286.498z" fill="#3F3D56"/><path d="M1076.54 454.15l-78.304 41.873.661 1.233 78.303-41.873-.66-1.233zm-160.306 20.986l-.661 1.234 78.317 41.852.66-1.234-78.316-41.852z" fill="#3F3D56"/><path d="M894.67 714.092c17.871 0 32.358-29.532 32.358-65.963 0-36.43-14.487-65.963-32.358-65.963-17.871 0-32.358 29.533-32.358 65.963 0 36.431 14.487 65.963 32.358 65.963z" fill="#E6E6E6"/><path d="M894.642 650.971l.191.358 29.257-15.645-.66-1.234-28.727 15.362c1.589-29.232 4.841-48.856 4.906-49.243l-1.38-.233c-.072.422-3.935 23.725-5.306 57.445l-28.974-15.493-.66 1.233 29.257 15.645.349-.652c-1.097 27.831-.482 62.631 5.334 97.492l1.38-.229c-6.34-38.01-6.48-75.948-4.967-104.806z" fill="#3F3D56"/><path d="M1058.63 792.747c-172.356-54.51-328.641-51.607-429.397-39.571-109.157 13.038-178.423 39.293-179.109 39.557l-.503-1.306c.689-.264 70.117-26.581 179.446-39.64a1041.687 1041.687 0 0 1 193.812-4.954 1011.825 1011.825 0 0 1 236.171 44.581l-.42 1.333z" fill="#3F3D56"/><path d="M671.167 777.341s.483-10.119 10.392-8.943z" fill="#3F3D56"/><path d="M668.367 767.712a4.957 4.957 0 0 0 4.959-4.955 4.957 4.957 0 0 0-4.959-4.955 4.957 4.957 0 0 0-4.96 4.955 4.958 4.958 0 0 0 4.96 4.955z" fill="#F9DC25"/><path d="M668.959 771.101h-1.399v9.79h1.399v-9.79zm182.798 8.338s.483-10.119 10.392-8.943z" fill="#3F3D56"/><path d="M848.956 769.81a4.958 4.958 0 0 0 4.96-4.955 4.957 4.957 0 0 0-4.96-4.955 4.957 4.957 0 0 0-4.959 4.955 4.957 4.957 0 0 0 4.959 4.955z" fill="#F9DC25"/><path d="M849.549 773.199h-1.4v9.79h1.4v-9.79zm-295.276-11.243s.484-10.119 10.393-8.943z" fill="#3F3D56"/><path d="M551.473 752.327a4.957 4.957 0 0 0 4.959-4.955 4.957 4.957 0 0 0-4.959-4.955 4.957 4.957 0 0 0-4.959 4.955 4.957 4.957 0 0 0 4.959 4.955z" fill="#F9DC25"/><path d="M552.066 755.716h-1.4v9.79h1.4v-9.79zm78.503-7.047s.484-10.119 10.393-8.943z" fill="#3F3D56"/><path d="M627.769 739.04a4.957 4.957 0 0 0 4.959-4.955 4.957 4.957 0 0 0-4.959-4.955 4.957 4.957 0 0 0-4.959 4.955 4.957 4.957 0 0 0 4.959 4.955z" fill="#F9DC25"/><path d="M628.362 742.428h-1.4v9.791h1.4v-9.791zm193.296 25.123s.484-10.119 10.393-8.943z" fill="#3F3D56"/><path d="M818.859 757.921a4.957 4.957 0 0 0 4.959-4.955 4.956 4.956 0 0 0-4.959-4.954 4.957 4.957 0 0 0-4.96 4.954 4.957 4.957 0 0 0 4.96 4.955z" fill="#F9DC25"/><path d="M819.451 761.31h-1.4v9.791h1.4v-9.791z" fill="#3F3D56"/><path d="M1036.9 747.266l28.81 42.677-26.83 26.798-3.47-6.947 5.96-13.895s-1-12.903-4.47-16.377c-3.48-3.474-18.88-24.316-18.88-24.316l18.88-7.94z" fill="#FFB8B8"/><path d="M1000.14 609.307s5.46 8.638-5.961 45.857c0 0 53.291 89.854 44.841 95.809-8.44 5.955-31.29 19.134-37.25 15.164-5.963-3.97-49.314-138.469-49.314-138.469l47.684-18.361zm60.35 172.945l8.69 8.684c4.47 4.466 7.45 10.918-.99 16.376-8.44 5.459-37.75 25.806-47.68 19.354-9.94-6.451 11.92-12.406 11.92-12.406s3.61-13.387 5.53-10.416c1.92 2.972 1.92 8.927 1.92 8.927l20.61-30.519z" fill="#2F2E41"/><path d="M955.437 770.589s-15.895 29.28-15.895 32.753c0 3.474.994 13.399.994 13.399l-30.299 7.444-10.431-4.963 3.477-8.932s18.875-6.451 22.848-18.858c3.974-12.406 8.444-25.309 8.444-25.309l20.862 4.466zm18.378-291.301c11.521 0 20.862-9.332 20.862-20.843s-9.341-20.842-20.862-20.842c-11.522 0-20.862 9.331-20.862 20.842s9.34 20.843 20.862 20.843z" fill="#FFB8B8"/><path d="M968.352 476.31l9.96 28.592 21.828-9.734s-14.9-22.828-14.9-25.805l-16.888 6.947z" fill="#FFB8B8"/><path d="M965.371 578.043h26.326s18.873 28.782 7.947 59.054c-1.673 4.636-3.334 11.129-4.992 18.806-3.814 17.656-7.61 41.572-11.501 63.548-5.464 30.87-11.115 57.913-17.258 58.404-12.418.992-36.565.827-36.565-4.136 0-4.962 16.175-148.532 16.175-148.532l3.477-5.955.657-25.94a15.641 15.641 0 0 1 4.751-10.834 15.667 15.667 0 0 1 10.983-4.415zm-26.077 225.051s5.712 9.677 4.222 16.625c-1.49 6.947-3.974 5.955-14.902 6.947-10.927.993-48.18.993-48.18-5.955 0-6.947 29.06-15.97 29.183-13.195.122 2.774 1.116 8.233-1.864 9.225-2.981.993-.249.248-.249.248l31.79-13.895z" fill="#2F2E41"/><path d="M968.356 639.983s-2.161 35.252-16.572 24.758c-14.412-10.495 5.616-29.452 5.616-29.452l10.956 4.694z" fill="#fff"/><path d="M997.119 593.556a4.18 4.18 0 0 0 4.281-.507 4.426 4.426 0 0 0 1.63-2.765c2.08-12.001 4.62-45.27 6.08-62.093 1.83-21.109-7.33-37.459-7.4-37.559l-5.401-7.414a4.237 4.237 0 0 0-5.073-1.423s-16.849 17.466-16.911 18.14c-.264 2.896-2.269 9.312-12.722 19.755-11.436 11.426-11.5 21.398-11.246 24.183.016.183.025.366.025.549a12.206 12.206 0 0 0 .504 3.692c4.79 15.088 1.039 33.152-4.985 52.007a4.248 4.248 0 0 0 1.715 4.615c1.76 1.196-.35-.578.277.19 4.152 5.083 10.127-2.001 16.961-9.731 2.381-2.692 5.079-5.744 8.259-8.922 4.373-4.368 12.727 5.601 16.611 5.601 2.557.03 5.077.604 7.395 1.682z" fill="#575A89"/><path d="M999.435 498.33s10.915 9.193 4.715 21.117c-6.201 11.923-5.377 20.716-5.377 20.716s-1.651 81.908-21.02 77.928l-8.811 24.304-15.913-5.738 9.202-21.436s-7.37-.458-5.217-5.475c1.513-3.524 9.662-41.763 14.379-64.213a6048.042 6048.042 0 0 0 3.381-16.192s6.269-33.492 24.661-31.011z" fill="#575A89"/><path opacity=".2" d="M1001.72 539.953l-6.131 40.218 3.31-43.004 2.821 2.786z" fill="#000"/><path d="M951.054 449.21s-3.507-27.27 25.11-18.327c0 0 20.438-3.747 27.136 21.795l6.79 26.774-3.31-1.798-1.54 3.367-5.358 1.356-2.294-4.548-1.109 5.523-43.899 4.373s19.661-11.617 19.973-32.438l-3.745 3.954-17.754-10.031z" fill="#2F2E41"/><path opacity=".2" d="M983.7 721.02l9.789-65.167-7.961 70.35-1.828-5.183z" fill="#000"/><path d="M999.699 442.178c6.101 0 11.041-4.937 11.041-11.028s-4.94-11.029-11.041-11.029c-6.097 0-11.039 4.938-11.039 11.029s4.942 11.028 11.039 11.028z" fill="#2F2E41"/><path d="M988.323 428.45a11.019 11.019 0 0 1 3.474-7.337 11.039 11.039 0 0 1 7.56-2.971c-.228-.029-.454-.064-.687-.079a11.06 11.06 0 0 0-8 2.721 11.016 11.016 0 0 0-3.161 11.844 11.042 11.042 0 0 0 2.159 3.725 11.056 11.056 0 0 0 7.586 3.722c.232.015.461.009.691.009a11.032 11.032 0 0 1-7.117-3.913 11.016 11.016 0 0 1-2.505-7.721z" fill="#2F2E41"/><path opacity=".2" d="M968.196 552.486l-9.712 52.005 12.588-57.44-2.876 5.435z" fill="#000"/><path d="M968.803 473.465l-5.66 4.264c-5.83-2.931-10.202-9.712-11.791-16.185l6.168-3.109c.485 6.601 5.175 10.99 11.283 15.03z" fill="#fff"/><path d="M971.153 459.374h-14.104a.47.47 0 1 1 0-.939h14.104a.47.47 0 1 1 0 .939zm-2.821 14.091a.468.468 0 0 1-.436-.644l3.761-9.394a.476.476 0 0 1 .431-.296.46.46 0 0 1 .334.133.479.479 0 0 1 .142.332.465.465 0 0 1-.035.18l-3.761 9.394a.471.471 0 0 1-.436.295z" fill="#fff"/><path d="M972.102 464.924c1.905 0 3.449-2.16 3.449-4.825 0-2.664-1.544-4.825-3.449-4.825-1.905 0-3.45 2.161-3.45 4.825 0 2.665 1.545 4.825 3.45 4.825z" fill="#FFB8B8"/><path d="M729.039 474.634l36.738 8.399 15.522-29.249-31.413-12.253-20.847 33.103z" fill="#2F2E41"/><path d="M748.558 632.086s-11.809 27.038-11.809 34.904c0 0 4.674 21.385 3.198 27.284l-5.166 11.062-10.826-4.425-2.952-29.496.492-47.195 27.063 7.866zm6.643-161.739s.984 16.223-.984 21.139c-1.969 4.916 7.381 14.256 7.381 14.256l14.761-19.172s-9.841-9.832-7.381-20.648l-13.777 4.425z" fill="#FFB9B9"/><path d="M724.447 582.679s-14.269 26.547-.492 24.581c13.778-1.967 9.104-25.318 9.104-25.318" fill="#E6E6E6"/><path d="M733.058 581.942l4.674-46.457-.245-28.267-10.826 1.965v26.056l-2.214 47.44" fill="#FFB9B9"/><path d="M721.249 697.47l21.158-8.358 2.46 41.787s4.429 12.782 2.953 17.698c0 0 .984 8.357-1.476 8.849-2.461.492-9.35 1.475-9.842.983-.492-.491-.492-1.966-.492-1.966s-4.92 3.441-5.412 7.374c0 0-20.667 6.391-21.159.492-.492-5.9 10.333-10.816 10.333-10.816l8.365-12.782-6.888-43.261z" fill="#2F2E41"/><path d="M792.597 632.086s-11.809 27.038-11.809 34.904c0 0 4.674 21.385 3.198 27.284l-5.166 11.062-10.826-4.425-2.952-29.496.492-47.195 27.063 7.866z" fill="#FFB9B9"/><path d="M766.026 697.47l21.158-8.358 2.461 41.787s4.428 12.782 2.952 17.698c0 0 .984 8.357-1.476 8.849-2.46.492-9.349 1.475-9.841.983-.492-.491-.492-1.966-.492-1.966s-4.921 3.441-5.413 7.374c0 0-20.666 6.391-21.159.492-.492-5.9 10.334-10.816 10.334-10.816l8.365-12.782-6.889-43.261z" fill="#2F2E41"/><path d="M775.87 459.042a15.723 15.723 0 0 1-4.018 10.49 15.76 15.76 0 0 1-20.875 2.31 15.733 15.733 0 0 1-6.217-9.358 15.22 15.22 0 0 1-.386-3.442 15.725 15.725 0 0 1 4.616-11.118 15.753 15.753 0 0 1 11.132-4.605c4.175 0 8.179 1.656 11.132 4.605a15.725 15.725 0 0 1 4.616 11.118z" fill="#FFB9B9"/><path d="M762.09 490.503l12.219-6.34 5.495 4.373s13.286-.491 18.206 5.408c4.921 5.899 7.627 20.893 7.627 20.893s-16.238-3.441-14.27 10.324l-2.952-7.866-2.706 6.637-32.968 11.307-14.762-25.072s-9.841-2.95-13.286 3.933c0 0 .738-24.826 10.334-25.564 6.453-.496 11.317-.491 11.317-.491l5.413-.984 3.466-1.229 6.867 4.671z" fill="#575A89"/><path d="M783.002 544.334s25.833 77.428 18.452 88.243c0 0-27.555 13.765-82.666-4.916l22.389-86.768c13.752-2.81 27.694-1.663 41.825 3.441z" fill="#2F2E41"/><path d="M783.002 544.334l7.27-24.962c-8.721-9.476-1.194-30.489-1.194-30.489l-10.523-2.253s-10.561 28.453-21.386 25.012c-10.825-3.441-4.921-25.564-4.921-25.564l-9.841.983-4.428 17.207 3.198 36.625c13.339-1.144 27.328.187 41.825 3.441z" fill="#575A89"/><path d="M795.796 581.942l3.445-46.703.984-28.021-10.825 1.965v26.056l-2.214 47.44" fill="#FFB9B9"/><path d="M787.185 582.679s-14.27 26.547-.492 24.581c13.777-1.967 9.103-25.318 9.103-25.318" fill="#fff"/><path d="M805.637 514.837s-1.749-25.247-16.374-25.159v29.197s10.961-6.496 16.374-4.038z" fill="#575A89"/><path d="M765.158 463.102a.403.403 0 0 1-.387-.512.404.404 0 0 1 .136-.203l8.03-6.418a.393.393 0 0 1 .296-.088.411.411 0 0 1 .271.149.396.396 0 0 1 .037.446.39.39 0 0 1-.102.119l-8.03 6.419a.404.404 0 0 1-.251.088z" fill="#fff"/><path d="M765.766 472.73c-.177.216-.354.433-.538.633a15.757 15.757 0 0 1-18.896-4.621 15.73 15.73 0 0 1-2.972-6.258l7.61-1.399 14.796 1.399c-3.389 4.124-2.98 5.552 0 10.246z" fill="#fff"/><path d="M751.231 437.021s-8.138 1.529-10.02 11.67a18.603 18.603 0 0 0-.16 5.178c.188 1.952-.084 6.075-4.327 10.929a106.356 106.356 0 0 0-7.724 9.911l8.504 2.262 3.799-14.076a71.98 71.98 0 0 1 8.422-19.34l.079-.125s2.824 7.54 10.394 8.573l-2.334-3.07s8.85 5.111 13.863 6.672a3.296 3.296 0 0 1 2.259 2.542 3.293 3.293 0 0 1-1.195 3.181l-.109.084c-3.688 2.799-11.211 9.476-8.239 15.935 2.972 6.46-.494 7.638-.494 7.638l6.392-2.43 2.925-1.251-.296 2.161 14.281.299s3.859-.024-2.996-10.315c0 0-1.654-3.859-.296-6.807a15.652 15.652 0 0 0 1.583-7.176c-.432-10.375-4.807-31.484-34.311-22.445zM550.903 732.568s0 66.759-15.336 84.269c0 0-3.286 8.755-4.381 12.038a46.142 46.142 0 0 1-2.191 5.472v4.378s-29.576-3.283-32.862-10.944l5.477-6.566s1.095-1.095 0-4.378c-1.096-3.283 2.191-3.283 2.191-3.283l7.667-17.511-1.095-72.23 5.477-99.59 47.102-2.189-12.049 110.534z" fill="#2F2E41"/><path d="M526.804 832.159s7.668 22.982 0 24.076c-7.668 1.095-74.488 2.189-73.392-6.566 1.095-8.755 23.003-7.661 23.003-7.661l23.004-14.227 27.385 4.378zm67.915-207.936s2.19 14.227-6.573 29.549c-8.763 15.321-3.286 66.758-3.286 66.758l77.773 67.853s-15.335 26.265-20.812 25.171c-5.477-1.095-92.014-71.136-92.014-71.136L515.85 628.6l78.869-4.377z" fill="#2F2E41"/><path d="M661.565 785.483s23.534 5.833 20.354 12.889c-3.179 7.057-38.026 64.029-44.841 58.417-6.815-5.611 5.838-23.512 5.838-23.512l.288-27.029 18.361-20.765z" fill="#2F2E41"/><path d="M577.192 420.666a25.022 25.022 0 0 1-5.617 15.831 25.13 25.13 0 0 1-10.989 7.837 25.152 25.152 0 0 1-13.463 1.024 24.456 24.456 0 0 1-6.474-2.226 25.182 25.182 0 0 1-8.36-6.789 25.14 25.14 0 0 1-4.755-9.658 25.16 25.16 0 0 1 6.647-23.818 25.21 25.21 0 0 1 35.631 0 25.16 25.16 0 0 1 7.38 17.799z" fill="#A0616A"/><path d="M571.821 429.546l-1.114 32.39-21.199 8.369s-2.079-33.166-5.014-35.005c-2.934-1.838 27.327-5.754 27.327-5.754z" fill="#A0616A"/><path d="M544.33 474.29s29.576-29.549 37.244-28.454c7.668 1.094 7.668 4.377 7.668 6.566s-2.191 3.283 0 4.378c2.19 1.094 4.381 0 4.381 3.283s19.717 36.115 13.145 72.23c-6.572 36.115-14.24 53.626-10.954 73.325 3.286 19.699 1.095 24.077 1.095 24.077s-82.155 6.566-83.25-1.095c-1.096-7.66 3.286-3.283-2.191-8.755-5.477-5.472-3.286-5.472-3.286-8.755 0-3.283 24.099-136.8 36.148-136.8z" fill="#575A89"/><path d="M559.666 623.128s-13.145 31.738-23.004 24.077c-9.858-7.661 4.382-33.926 4.382-33.926l18.622 9.849z" fill="#fff"/><path d="M591.433 476.479s25.736 2.944 16.154 50.173C598.005 573.88 560.762 628.6 560.762 628.6l-25.195-12.038 32.862-64.57-7.667-40.492s-4.382-38.304 30.671-35.021z" fill="#575A89"/><path opacity=".2" d="M568.977 552.54l-36.149 60.192 3.286 3.283 32.863-63.475zm19.134 28.049l-28.993 47.464h9.859l19.134-47.464zm-65.491 86.255l-1.456.555 28.826 75.509 1.456-.555-28.826-75.509z" fill="#000"/><path d="M544.485 480.299a1.557 1.557 0 1 0 .002-3.114 1.557 1.557 0 0 0-.002 3.114z" fill="#D0CDE1"/><path d="M531.24 522.334a.777.777 0 0 0 .744-.549l13.245-42.813a.772.772 0 0 0-.246-.83.777.777 0 0 0-1.098.103.769.769 0 0 0-.144.267l-13.246 42.814a.779.779 0 0 0 .745 1.008z" fill="#D0CDE1"/><path d="M546.946 439.945l-6.296 5.984c-6.484-3.26-12.748-12.044-14.515-19.244l8.261-3.459c.539 7.343 5.756 12.225 12.55 16.719z" fill="#fff"/><path d="M548.516 426.361a.473.473 0 0 1-.075-.005l-14.642-2.09a.524.524 0 0 1-.444-.591.512.512 0 0 1 .203-.344.53.53 0 0 1 .388-.099l14.642 2.089a.524.524 0 0 1-.072 1.04zm-2.094 13.584a.527.527 0 0 1-.451-.259.523.523 0 0 1-.004-.52l4.851-8.628a.522.522 0 0 1 .713-.201.522.522 0 0 1 .198.713l-4.851 8.629a.52.52 0 0 1-.456.266z" fill="#fff"/><path d="M563.401 435.79c-2.039-1.078-4.408-1.3-6.616-1.969-7.898-2.396-13.19-11.317-11.5-19.389a9.877 9.877 0 0 0 .414-3.196c-.295-2.391-2.743-3.933-5.091-4.481-2.348-.548-4.846-.468-7.091-1.349-3.465-1.36-5.766-4.918-6.265-8.604-.499-3.685.595-7.445 2.376-10.711l.848 2.438a9.032 9.032 0 0 0 2.771-4.141 5.716 5.716 0 0 1 4.35 3.495c1.361.802 1.558-2.491 3.061-2.977.63-.204 1.277.183 1.877.462 3.03 1.412 6.551.205 9.801-.578a36.947 36.947 0 0 1 17.127-.02c3.741.892 7.444 2.444 10.122 5.203 2.198 2.266 3.568 5.196 4.735 8.129 2.871 7.22 4.768 15.032 3.82 22.743a32.184 32.184 0 0 1-7.593 17.057c-2.169 2.495-9.242 11.202-13.12 9.718-4.874-1.866 1.717-8.797-4.026-11.83z" fill="#2F2E41"/></g><defs><linearGradient id="paint0_linear" x1="987.988" y1="178.621" x2="889.545" y2="726.726" gradientUnits="userSpaceOnUse"><stop stop-color="#687ECD" stop-opacity=".04"/><stop offset="1" stop-color="#fff" stop-opacity="0"/></linearGradient><linearGradient id="paint1_linear" x1="339.621" y1="353.178" x2="845.118" y2="-94.321" gradientUnits="userSpaceOnUse"><stop stop-color="#fff"/><stop offset=".77" stop-color="#fff" stop-opacity="0"/></linearGradient><clipPath id="clip0"><path fill="#fff" d="M449.621 313.178h636v544h-636z"/></clipPath></defs></svg>