<svg width="354" height="303" fill="none" xmlns="http://www.w3.org/2000/svg"><path d="M48.144 204.55c20.52 0 37.157-33.936 37.157-75.798S68.665 52.954 48.144 52.954c-20.522 0-37.158 33.936-37.158 75.798s16.636 75.798 37.157 75.798z" fill="#F9DC25"/><path d="M47.802 129.538c1.854-32.994 5.588-55.28 5.626-55.502l-.81-.137c-.038.221-3.78 22.543-5.636 55.58-1.713 30.491-2.126 76.611 5.635 123.169l.81-.135c-7.747-46.479-7.335-92.528-5.625-122.975z" fill="#3F3D56"/><path d="M81.353 113.38l-33.596 17.978.388.724 33.596-17.977-.388-.725zm-68.674 9.01l-.388.725 33.6 17.968.388-.724-33.6-17.969z" fill="#3F3D56"/><path d="M305.795 196.67c26.623 0 48.205-44.026 48.205-98.335C354 44.026 332.418 0 305.795 0c-26.623 0-48.205 44.026-48.205 98.335 0 54.309 21.582 98.335 48.205 98.335z" fill="#F9DC25"/><path d="M305.209 99.343c2.405-42.812 7.251-71.73 7.3-72.017l-.768-.13c-.049.287-4.901 29.239-7.309 72.09-2.222 39.551-2.759 99.372 7.308 159.76l.769-.128c-10.054-60.313-9.519-120.068-7.3-159.576z" fill="#3F3D56"/><path d="M348.947 78.52l-43.585 23.322.368.687 43.585-23.323-.368-.687zm-89.229 11.689l-.367.687 43.591 23.31.367-.687-43.591-23.31z" fill="#3F3D56"/><path d="M247.716 223.304c9.947 0 18.01-16.45 18.01-36.741s-8.063-36.74-18.01-36.74c-9.947 0-18.011 16.449-18.011 36.74s8.064 36.741 18.011 36.741z" fill="#E6E6E6"/><path d="M247.7 188.146l.107.199 16.284-8.714-.368-.687-15.989 8.557c.885-16.283 2.694-27.213 2.731-27.428l-.768-.13c-.04.235-2.19 13.215-2.954 31.996l-16.126-8.63-.368.687 16.284 8.715.195-.364c-.611 15.502-.268 34.885 2.969 54.302l.768-.128c-3.529-21.171-3.607-42.302-2.765-58.375z" fill="#3F3D56"/><path d="M338.975 267.113c-95.933-30.361-182.921-28.744-239.003-22.041C39.215 252.335.662 266.958.28 267.105l-.28-.727c.383-.147 39.028-14.806 99.88-22.079a579.39 579.39 0 0 1 107.877-2.759 562.82 562.82 0 0 1 131.453 24.83l-.235.743z" fill="#3F3D56"/><path d="M123.313 258.532s.269-5.636 5.784-4.981l-5.784 4.981z" fill="#3F3D56"/><path d="M121.755 253.169a2.76 2.76 0 1 0 0-5.52 2.76 2.76 0 0 0 0 5.52z" fill="#F9DC25"/><path d="M122.085 255.056h-.779v5.454h.779v-5.454zm101.745 4.645s.269-5.636 5.785-4.981l-5.785 4.981z" fill="#3F3D56"/><path d="M222.272 254.337a2.76 2.76 0 1 0-2.761-2.759 2.76 2.76 0 0 0 2.761 2.759z" fill="#F9DC25"/><path d="M222.601 256.225h-.779v5.453h.779v-5.453zM58.25 249.963s.269-5.636 5.784-4.981l-5.784 4.981z" fill="#3F3D56"/><path d="M56.692 244.6a2.76 2.76 0 1 0 0-5.52 2.76 2.76 0 0 0 0 5.52z" fill="#F9DC25"/><path d="M57.021 246.487h-.779v5.453h.78v-5.453zm43.695-3.925s.269-5.636 5.785-4.981l-5.785 4.981z" fill="#3F3D56"/><path d="M99.158 237.199a2.76 2.76 0 1 0 0-5.52 2.76 2.76 0 0 0 0 5.52z" fill="#F9DC25"/><path d="M99.488 239.086h-.78v5.454h.78v-5.454zm107.589 13.993s.269-5.636 5.785-4.981l-5.785 4.981z" fill="#3F3D56"/><path d="M205.519 247.716a2.76 2.76 0 1 0 0-5.52 2.76 2.76 0 0 0 0 5.52z" fill="#F9DC25"/><path d="M205.849 249.603h-.779v5.453h.779v-5.453z" fill="#3F3D56"/><path d="M326.88 241.781l16.035 23.771-14.929 14.926-1.935-3.87 3.317-7.739s-.553-7.187-2.488-9.122c-1.935-1.935-10.506-13.544-10.506-13.544l10.506-4.422z" fill="#FFB8B8"/><path d="M306.421 164.94s3.041 4.811-3.318 25.541c0 0 29.66 50.048 24.96 53.365-4.7 3.317-17.418 10.657-20.736 8.446-3.318-2.211-27.447-77.125-27.447-77.125l26.541-10.227zm33.591 96.327l4.839 4.837c2.488 2.488 4.147 6.081-.553 9.122-4.7 3.04-21.012 14.373-26.541 10.78-5.53-3.594 6.635-6.91 6.635-6.91s2.011-7.457 3.079-5.802c1.068 1.655 1.068 4.972 1.068 4.972l11.473-16.999z" fill="#2F2E41"/><path d="M281.539 254.772s-8.847 16.308-8.847 18.243c0 1.934.553 7.462.553 7.462l-16.865 4.147-5.806-2.764 1.936-4.976s10.505-3.593 12.717-10.503c2.212-6.91 4.7-14.097 4.7-14.097l11.612 2.488zm10.229-162.251c6.413 0 11.612-5.198 11.612-11.609 0-6.412-5.199-11.61-11.612-11.61s-11.611 5.198-11.611 11.61c0 6.411 5.198 11.61 11.611 11.61z" fill="#FFB8B8"/><path d="M288.727 90.863l5.544 15.925 12.15-5.422s-8.294-12.715-8.294-14.373l-9.4 3.87z" fill="#FFB8B8"/><path d="M287.069 147.526h14.652s10.506 16.032 4.424 32.892c-.931 2.582-1.856 6.199-2.779 10.475-2.122 9.834-4.235 23.155-6.401 35.396-3.042 17.193-6.187 32.256-9.606 32.529-6.912.553-20.352.461-20.352-2.303s9.003-82.73 9.003-82.73l1.935-3.317.366-14.448a8.717 8.717 0 0 1 8.758-8.494zm-14.515 125.35s3.179 5.39 2.35 9.26c-.83 3.87-2.212 3.317-8.294 3.87-6.083.553-26.818.553-26.818-3.317s16.175-8.895 16.244-7.35c.068 1.545.621 4.586-1.038 5.139-1.659.552-.138.138-.138.138l17.694-7.74z" fill="#2F2E41"/><path d="M288.729 182.026s-1.202 19.635-9.224 13.79c-8.021-5.846 3.126-16.405 3.126-16.405l6.098 2.615z" fill="#fff"/><path d="M304.739 156.167a2.334 2.334 0 0 0 2.384-.283c.485-.38.808-.931.905-1.54 1.159-6.684 2.571-25.214 3.384-34.585 1.021-11.757-4.077-20.864-4.119-20.92l-3.004-4.129a2.358 2.358 0 0 0-2.824-.792s-9.378 9.728-9.413 10.103c-.147 1.613-1.263 5.187-7.081 11.003-6.365 6.365-6.401 11.919-6.26 13.47.009.102.014.204.014.306a6.815 6.815 0 0 0 .281 2.056c2.666 8.404.578 18.465-2.775 28.968a2.369 2.369 0 0 0 .955 2.57c.979.666-.195-.322.154.106 2.311 2.831 5.637-1.115 9.44-5.42 1.326-1.5 2.827-3.2 4.598-4.97 2.433-2.433 7.083 3.12 9.245 3.12a10.03 10.03 0 0 1 4.116.937z" fill="#575A89"/><path d="M306.028 103.127s6.074 5.121 2.623 11.762c-3.45 6.641-2.991 11.539-2.991 11.539s-.919 45.621-11.7 43.405l-4.904 13.536-8.857-3.196 5.121-11.939s-4.102-.256-2.903-3.05c.842-1.963 5.377-23.261 8.003-35.765 1.112-5.299 1.882-9.019 1.882-9.019s3.489-18.655 13.726-17.273z" fill="#575A89"/><path opacity=".2" d="M307.303 126.311l-3.415 22.4 1.842-23.952 1.573 1.552z" fill="#000"/><path d="M279.1 75.768s-1.953-15.189 13.976-10.208c0 0 11.376-2.087 15.106 12.14l3.778 14.913-1.841-1.002-.858 1.875-2.984.756-1.276-2.534-.618 3.077-24.434 2.435s10.944-6.47 11.117-18.067l-2.084 2.202-9.882-5.587z" fill="#2F2E41"/><path opacity=".2" d="M297.271 227.162l5.448-36.297-4.431 39.184-1.017-2.887z" fill="#000"/><path d="M306.175 71.852a6.143 6.143 0 1 0 0-12.286 6.143 6.143 0 1 0 0 12.285z" fill="#2F2E41"/><path d="M299.844 64.205a6.137 6.137 0 0 1 6.141-5.741c-.127-.016-.253-.036-.382-.044a6.145 6.145 0 0 0-6.213 8.112 6.153 6.153 0 0 0 3.107 3.531 6.15 6.15 0 0 0 2.318.617c.129.008.256.005.384.005a6.139 6.139 0 0 1-5.355-6.48z" fill="#2F2E41"/><path opacity=".2" d="M288.641 133.291l-5.406 28.966 7.007-31.993-1.601 3.027z" fill="#000"/><path d="M288.979 89.278l-3.151 2.375c-3.245-1.633-5.678-5.41-6.563-9.015l3.433-1.732c.27 3.677 2.881 6.122 6.281 8.372z" fill="#fff"/><path d="M290.287 81.43h-7.851a.262.262 0 0 1 0-.523h7.851a.262.262 0 0 1 0 .522zm-1.57 7.848a.262.262 0 0 1-.243-.359l2.093-5.232a.268.268 0 0 1 .14-.144.264.264 0 0 1 .286.053.263.263 0 0 1 .06.285l-2.094 5.232a.259.259 0 0 1-.242.165z" fill="#fff"/><path d="M290.815 84.52c1.06 0 1.92-1.203 1.92-2.687 0-1.484-.86-2.687-1.92-2.687s-1.92 1.203-1.92 2.687c0 1.484.86 2.688 1.92 2.688z" fill="#FFB8B8"/><path d="M155.525 89.929l20.448 4.678 8.64-16.291-17.485-6.825-11.603 18.438z" fill="#2F2E41"/><path d="M166.39 177.627s-6.574 15.06-6.574 19.441c0 0 2.602 11.911 1.781 15.197l-2.876 6.161-6.025-2.464-1.644-16.429.274-26.287 15.064 4.381zm3.697-90.087s.548 9.037-.548 11.775c-1.095 2.738 4.108 7.941 4.108 7.941l8.217-10.68s-5.478-5.475-4.108-11.5l-7.669 2.465z" fill="#FFB9B9"/><path d="M152.969 150.108s-7.943 14.787-.274 13.691c7.669-1.095 5.067-14.101 5.067-14.101" fill="#E6E6E6"/><path d="M157.762 149.698l2.602-25.876-.137-15.744-6.025 1.094v14.513l-1.233 26.423" fill="#FFB9B9"/><path d="M151.189 214.045l11.777-4.655 1.369 23.275s2.465 7.119 1.643 9.857c0 0 .548 4.655-.821 4.929-1.37.274-5.204.821-5.478.548-.274-.274-.274-1.096-.274-1.096s-2.739 1.917-3.013 4.108c0 0-11.503 3.559-11.776.273-.274-3.285 5.751-6.024 5.751-6.024l4.656-7.119-3.834-24.096z" fill="#2F2E41"/><path d="M190.902 177.627s-6.573 15.06-6.573 19.441c0 0 2.602 11.911 1.78 15.197l-2.876 6.161-6.025-2.464-1.644-16.429.274-26.287 15.064 4.381z" fill="#FFB9B9"/><path d="M176.112 214.045l11.777-4.655 1.369 23.275s2.465 7.119 1.644 9.857c0 0 .547 4.655-.822 4.929s-5.204.821-5.478.548c-.274-.274-.274-1.096-.274-1.096s-2.738 1.917-3.012 4.108c0 0-11.503 3.559-11.777.273-.274-3.285 5.751-6.024 5.751-6.024l4.656-7.119-3.834-24.096z" fill="#2F2E41"/><path d="M181.592 81.244a8.762 8.762 0 0 1-7.8 8.706 8.768 8.768 0 0 1-9.731-8.706 8.767 8.767 0 0 1 17.531 0z" fill="#FFB9B9"/><path d="M173.921 98.767l6.801-3.53 3.059 2.435s7.395-.274 10.133 3.012c2.739 3.286 4.246 11.637 4.246 11.637s-9.039-1.916-7.943 5.751l-1.643-4.381-1.507 3.696-18.35 6.298-8.216-13.965s-5.478-1.643-7.395 2.191c0 0 .411-13.828 5.751-14.239 3.592-.276 6.3-.274 6.3-.274l3.012-.547 1.93-.685 3.822 2.601z" fill="#575A89"/><path d="M185.561 128.751s14.379 43.126 10.27 49.15c0 0-15.337 7.667-46.012-2.738l12.462-48.329c7.655-1.565 15.415-.926 23.28 1.917z" fill="#2F2E41"/><path d="M185.561 128.751l4.047-13.904c-4.854-5.278-.665-16.981-.665-16.981l-5.857-1.255s-5.878 15.847-11.904 13.931c-6.025-1.917-2.738-14.239-2.738-14.239l-5.478.548-2.465 9.583 1.78 20.4c7.425-.637 15.211.104 23.28 1.917z" fill="#575A89"/><path d="M192.682 149.698l1.917-26.013.548-15.607-6.025 1.094v14.513l-1.233 26.423" fill="#FFB9B9"/><path d="M187.889 150.108s-7.942 14.787-.273 13.691c7.668-1.095 5.066-14.101 5.066-14.101" fill="#fff"/><path d="M198.16 112.321s-.974-14.062-9.114-14.013v16.262s6.101-3.618 9.114-2.249z" fill="#575A89"/><path d="M175.629 83.506a.222.222 0 0 1-.211-.15.224.224 0 0 1 .071-.248l4.47-3.576a.222.222 0 0 1 .248-.022.232.232 0 0 1 .068.056.228.228 0 0 1 .047.166.207.207 0 0 1-.027.083.208.208 0 0 1-.057.067l-4.469 3.575a.225.225 0 0 1-.14.049z" fill="#fff"/><path d="M175.967 88.868c-.098.12-.197.242-.299.353a8.769 8.769 0 0 1-12.172-6.06l4.236-.779 8.235.78c-1.886 2.296-1.658 3.092 0 5.706z" fill="#fff"/><path d="M167.877 68.979s-4.529.852-5.577 6.5a10.362 10.362 0 0 0-.089 2.884c.105 1.087-.047 3.384-2.408 6.088a59.156 59.156 0 0 0-4.3 5.52l4.734 1.26 2.115-7.84a40.088 40.088 0 0 1 4.687-10.773l.044-.07s1.572 4.2 5.785 4.776l-1.299-1.71s4.926 2.846 7.717 3.716a1.834 1.834 0 0 1 .591 3.188l-.06.047c-2.053 1.558-6.24 5.277-4.586 8.875s-.275 4.254-.275 4.254l3.558-1.353 1.628-.697-.165 1.203 7.949.167s2.148-.013-1.667-5.745c0 0-.921-2.15-.165-3.792a8.735 8.735 0 0 0 .881-3.996c-.24-5.78-2.675-17.537-19.098-12.502zM56.374 233.594s0 37.184-8.536 46.937c0 0-1.83 4.876-2.439 6.705a25.633 25.633 0 0 1-1.22 3.048v2.438s-16.461-1.829-18.29-6.095l3.048-3.658s.61-.609 0-2.438c-.61-1.829 1.22-1.829 1.22-1.829l4.268-9.753-.61-40.231 3.048-55.47 26.218-1.219-6.707 61.565z" fill="#2F2E41"/><path d="M42.96 289.065s4.268 12.801 0 13.41c-4.268.61-41.46 1.219-40.85-3.657.61-4.877 12.804-4.267 12.804-4.267l12.804-7.925 15.242 2.439zm37.801-115.817s1.22 7.924-3.658 16.458c-4.877 8.534-1.829 37.183-1.829 37.183l43.289 37.793s-8.536 14.63-11.584 14.02c-3.049-.609-51.215-39.621-51.215-39.621l-18.901-63.395 43.898-2.438z" fill="#2F2E41"/><path d="M117.969 263.067s13.099 3.249 11.329 7.179c-1.77 3.931-21.165 35.663-24.959 32.538-3.793-3.126 3.25-13.097 3.25-13.097l.16-15.054 10.22-11.566z" fill="#2F2E41"/><path d="M71.007 59.87a13.939 13.939 0 0 1-3.126 8.817 13.988 13.988 0 0 1-13.61 4.935 13.609 13.609 0 0 1-3.604-1.24 14.013 14.013 0 0 1-3.6-22.426 14.025 14.025 0 0 1 23.94 9.914z" fill="#A0616A"/><path d="M68.017 64.815l-.62 18.041-11.8 4.662s-1.157-18.473-2.79-19.497c-1.634-1.025 15.21-3.206 15.21-3.206z" fill="#A0616A"/><path d="M52.716 89.737S69.178 73.28 73.446 73.89c4.267.61 4.267 2.438 4.267 3.657 0 1.22-1.219 1.829 0 2.438 1.22.61 2.44 0 2.44 1.829s10.974 20.116 7.316 40.231c-3.658 20.116-7.926 29.869-6.097 40.841 1.829 10.972.61 13.41.61 13.41s-45.728 3.658-46.338-.609c-.61-4.267 1.829-1.829-1.22-4.877-3.048-3.047-1.829-3.047-1.829-4.876 0-1.829 13.414-76.196 20.12-76.196z" fill="#575A89"/><path d="M61.251 172.638s-7.316 17.677-12.804 13.41c-5.487-4.266 2.44-18.896 2.44-18.896l10.364 5.486z" fill="#fff"/><path d="M78.933 90.957s14.325 1.64 8.991 27.945c-5.333 26.306-26.063 56.784-26.063 56.784l-14.023-6.705 18.291-35.965-4.268-22.553s-2.439-21.335 17.072-19.506z" fill="#575A89"/><path opacity=".2" d="M66.434 133.321l-20.12 33.526 1.829 1.829 18.291-35.355zm10.65 15.624l-16.138 26.436h5.488l10.65-26.436zm-36.453 48.042l-.81.309 16.044 42.058.81-.31-16.044-42.057z" fill="#000"/><path d="M52.802 93.084a.867.867 0 1 0 0-1.735.867.867 0 0 0 0 1.735z" fill="#D0CDE1"/><path d="M45.43 116.497a.433.433 0 0 0 .414-.305l7.372-23.847a.435.435 0 1 0-.828-.256l-7.373 23.847a.433.433 0 0 0 .414.561z" fill="#D0CDE1"/><path d="M54.171 70.608l-3.504 3.333c-3.61-1.816-7.096-6.709-8.08-10.719l4.598-1.926c.3 4.09 3.204 6.809 6.986 9.312z" fill="#fff"/><path d="M55.045 63.042a.273.273 0 0 1-.041-.003l-8.15-1.164a.293.293 0 0 1-.248-.33.292.292 0 0 1 .33-.247l8.15 1.164a.291.291 0 0 1-.04.58zm-1.165 7.566a.29.29 0 0 1-.254-.434l2.7-4.806a.29.29 0 0 1 .397-.112.291.291 0 0 1 .11.397l-2.7 4.806a.29.29 0 0 1-.253.149z" fill="#fff"/><path d="M63.33 68.293c-1.135-.6-2.454-.724-3.682-1.097-4.397-1.334-7.342-6.303-6.401-10.799a5.511 5.511 0 0 0 .23-1.78c-.164-1.331-1.527-2.19-2.834-2.496-1.306-.305-2.697-.26-3.946-.751-1.929-.758-3.21-2.74-3.488-4.792-.277-2.053.332-4.147 1.323-5.966l.472 1.358a5.038 5.038 0 0 0 1.543-2.307 3.18 3.18 0 0 1 2.42 1.947c.758.447.868-1.388 1.705-1.658.35-.114.71.102 1.044.257 1.687.787 3.646.114 5.455-.322a20.54 20.54 0 0 1 9.533-.01c2.083.496 4.144 1.36 5.634 2.897 1.224 1.262 1.986 2.894 2.636 4.528 1.598 4.021 2.654 8.372 2.126 12.667a17.93 17.93 0 0 1-4.226 9.5c-1.207 1.39-5.144 6.24-7.303 5.413-2.713-1.039.956-4.9-2.24-6.589z" fill="#2F2E41"/></svg>