<svg width="380" height="289" fill="none" xmlns="http://www.w3.org/2000/svg"><g clip-path="url(#clip0)"><path d="M380 260.946H.094V289H380v-28.054z" fill="#E6E6E6"/><path d="M379.473 260.97H0v-.938h379.643l-.17.938z" fill="#3F3D56"/><path d="M298.051 107.985v83.049H82.043v-83.049c0-27.56 10.54-54.078 29.46-74.12A108.01 108.01 0 0 1 190.047 0c1.193 0 2.382.018 3.563.062a107.64 107.64 0 0 1 72.805 31.568c.584.583 1.158 1.17 1.733 1.768a107.91 107.91 0 0 1 29.903 74.587z" fill="#E6E6E6"/><path d="M193.61.062v190.972h-9.798V.178a105.85 105.85 0 0 1 9.798-.116z" fill="#fff"/><path d="M276.455 43.194H103.64a108.257 108.257 0 0 1 8.306-9.797h156.202a108.43 108.43 0 0 1 8.307 9.797zm5.157 28.054h-76.556v129.583h76.556V71.248z" fill="#fff"/><path d="M231.753 93.14h-11.58v11.578h11.58V93.14zm18.657 0h-11.58v11.578h11.58V93.14zm18.656 0h-11.58v11.578h11.58V93.14zm-36.991 26.372h-11.58v11.578h11.58v-11.578zm18.657 0h-11.58v11.578h11.58v-11.578zm18.657 0h-11.58v11.578h11.58v-11.578zm-36.992 26.372h-11.58v11.578h11.58v-11.578zm18.656 0h-11.58v11.578h11.58v-11.578zm18.657 0h-11.58v11.578h11.58v-11.578zm-36.992 26.373h-11.58v11.578h11.58v-11.578zm18.657 0h-11.581v11.578h11.581v-11.578zm18.657 0h-11.58v11.578h11.58v-11.578z" fill="#E6E6E6"/><path d="M232.718 172.257h-11.58v11.578h11.58v-11.578zm18.657 0h-11.581v11.578h11.581v-11.578zm18.657 0h-11.58v11.578h11.58v-11.578z" fill="#E6E6E6"/><path d="M107.719 164.686c8.815 0 15.961-7.145 15.961-15.958s-7.146-15.957-15.961-15.957c-8.814 0-15.96 7.144-15.96 15.957s7.146 15.958 15.96 15.958z" fill="#fff"/><path d="M107.763 148.728h.044l.789 45.242h-1.666l.833-45.242z" fill="#fff"/><path d="M110.669 173.371l-.367-.698-2.639 1.389.368.698 2.638-1.389zm43.973-23.933c13.404 0 24.27-10.865 24.27-24.266 0-13.402-10.866-24.267-24.27-24.267s-24.27 10.865-24.27 24.267c0 13.401 10.866 24.266 24.27 24.266z" fill="#fff"/><path d="M154.709 125.171h.066l1.2 68.799h-2.533l1.267-68.799z" fill="#fff"/><path d="M159.128 162.646l-.559-1.062-4.012 2.112.559 1.062 4.012-2.112zM104.584 102l4.1-3.278c-3.185-.352-4.494 1.385-5.03 2.76-2.488-1.033-5.197.321-5.197.321l8.203 2.977a6.207 6.207 0 0 0-2.076-2.78zm43.201-26.718l4.1-3.278c-3.185-.352-4.494 1.385-5.029 2.76-2.488-1.033-5.197.32-5.197.32l8.203 2.978a6.205 6.205 0 0 0-2.077-2.78zm-16.479 25.382l4.1-3.278c-3.185-.352-4.494 1.385-5.029 2.76-2.488-1.033-5.197.321-5.197.321l8.203 2.977a6.21 6.21 0 0 0-2.077-2.78z" fill="#fff"/><path d="M309.408 181.237H70.686v19.594h238.722v-19.594zM35.03 232.24s-48.288-22.226-31.324-37.639c16.964-15.412 31.325 37.639 31.325 37.639z" fill="#E6E6E6"/><path d="M34.19 237.426s-22.195-72.914 10.488-69.427c32.683 3.487-10.488 69.427-10.488 69.427z" fill="#E6E6E6"/><path d="M18.008 230.959l.931 12.197.015.211c0 1.904.095 3.808.288 5.703 1.265 12.441 6.699 18.11 13.05 18.11 6.35 0 11.548-5.669 12.812-18.11a56.06 56.06 0 0 0 .289-5.703l.007-.17.004-.041.935-12.197H18.008z" fill="#E6E6E6"/><path d="M45.404 243.156l-.004.041-.007.17c0 1.904-.096 3.808-.289 5.703H19.243a56.06 56.06 0 0 1-.289-5.703l-.015-.211h26.465z" fill="#fff"/><path d="M358.121 232.24s-48.289-22.226-31.325-37.639c16.964-15.412 31.325 37.639 31.325 37.639z" fill="#E6E6E6"/><path d="M357.28 237.426s-22.195-72.914 10.488-69.427c32.683 3.487-10.488 69.427-10.488 69.427z" fill="#E6E6E6"/><path d="M341.098 230.959l.931 12.197.015.211a56.003 56.003 0 0 0 .288 5.703c1.265 12.441 6.699 18.11 13.05 18.11 6.35 0 11.548-5.669 12.812-18.11.193-1.895.289-3.799.288-5.703l.008-.17.004-.041.935-12.197h-28.331z" fill="#E6E6E6"/><path d="M368.494 243.156l-.004.041-.007.17c0 1.904-.096 3.808-.289 5.703h-25.862a56.003 56.003 0 0 1-.288-5.703l-.015-.211h26.465z" fill="#fff"/><path d="M294.006 276.395l-3.166.371c-2.5 1.508-5.435 2.075-8.686 1.96a2.61 2.61 0 0 1-2.207-1.352 2.58 2.58 0 0 1 1.685-3.744l2.405-.56 5.805-5.676 3.502-6.336 5.086.583 1.059 8.048a6.23 6.23 0 0 1-5.483 6.706zm-49.306-4.072l-3.103.73c-2.313 1.782-5.164 2.68-8.407 2.936a2.613 2.613 0 0 1-2.346-1.092 2.578 2.578 0 0 1 .258-3.273c.276-.286.615-.504.989-.638l2.326-.83 5.12-6.301 2.757-6.694h5.12l1.969 7.876a6.23 6.23 0 0 1-4.683 7.286z" fill="#FFB8B8"/><path d="M242.156 257.606l5.79.891 9.13-46.089 15.811-26.94 19.151 78.373 7.126 1.335c-.799-44.134 3.101-99.698-5.79-106.426l-38.748 4.453-16.924 45.42 4.454 48.983z" fill="#2F2E41"/><path d="M270.214 90.173c7.379 0 13.362-5.98 13.362-13.359 0-7.378-5.983-13.359-13.362-13.359-7.379 0-13.361 5.981-13.361 13.36 0 7.377 5.982 13.358 13.361 13.358z" fill="#FFB8B8"/><path d="M288.921 97.298l-16.034 2.672-4.008-14.25 11.579-3.562 8.463 15.14z" fill="#FFB8B8"/><path d="M295.601 160.531l-42.756 4.008c3.428-11.917 6.568-23.792 4.009-35.625-3.251-10.563-.114-16.844 8.462-21.819l5.79-12.914 15.588-1.781a33.642 33.642 0 0 1 4.776 22.247c-2.221 16.843-1.622 32.472 4.131 45.884z" fill="#F9DC25"/><path d="M269.914 61.037c-4.459 1.018-9.534 2.462-9.819 3.803-4.587 1.156-8.049 3.924-8.756 8.144a2.525 2.525 0 0 0 2.536 2.931c2.494-.032 6.239-.27 8.712-1.303 7.183 4.627 8.389 16.664 5.252 24.857l4.937-.453 5.107-14.948 1.304 14.36 11.266-1.489-1.451-18.312a27.274 27.274 0 0 0-4.286-12.098 10.253 10.253 0 0 0-.806-1.045 14.32 14.32 0 0 0-13.996-4.447z" fill="#2F2E41"/><path d="M241.62 280.988a1.558 1.558 0 0 0 .385 1.213 1.57 1.57 0 0 0 1.158.529l5.011.051a1.069 1.069 0 0 0 .994-1.065 1.063 1.063 0 0 0-.672-.992l-1.478-.591-2.15-3.01h-1.72a7.879 7.879 0 0 0-1.527 3.856l-.001.009zm-11.992 0a1.575 1.575 0 0 1-.385 1.213 1.57 1.57 0 0 1-1.159.529l-5.01.051a1.069 1.069 0 0 1-.994-1.065 1.063 1.063 0 0 1 .672-.992l1.478-.591 2.15-3.01h1.72a7.879 7.879 0 0 1 1.527 3.856l.001.009z" fill="#FFB8B8"/><path d="M225.95 277.123h2.58l9.029-39.12 4.73 39.55h3.009l4.085-50.943-20.853-.214-2.58 50.727z" fill="#3F3D56"/><path d="M214.34 205.33h3.44v-8.168l.783-1.564a2.235 2.235 0 0 0-.014-2.021 2.235 2.235 0 0 0-1.641-1.178 2.23 2.23 0 0 0-2.364 1.271c-.134.292-.204.61-.204.931v10.729zm20.424-20.205a7.953 7.953 0 1 0 0-15.906 7.954 7.954 0 1 0 0 15.906z" fill="#FFB8B8"/><path d="M231.539 190.714h8.169v-9.458h-8.169v9.458z" fill="#FFB8B8"/><path d="M227.669 227.685c7.231 4.462 14.877 4.025 22.789.43l-1.72-39.98-9.029-.43-9.46 1.289-4.729 3.869 2.149 34.822z" fill="#F9DC25"/><path d="M219.07 213.499l9.459-7.309-3.01-13.326-5.589 10.317-1.72-1.72-5.16 3.87 6.02 8.168z" fill="#F9DC25"/><path d="M261.059 188.821l-3.009 1.667-3.96-7.144-1.443-.989a2.229 2.229 0 0 1-.104-3.6 2.231 2.231 0 0 1 2.684-.034c.259.191.474.435.63.716l1.242 2.24 3.96 7.144z" fill="#FFB8B8"/><path d="M244.223 200.817l11.416-6.06 5.998-3.183.86-5.159-3.87-3.869-4.73 3.009.43 3.439-5.589-.859-4.515 12.682z" fill="#F9DC25"/><path d="M236.484 183.621c5.224 0 9.459-4.235 9.459-9.458s-4.235-9.458-9.459-9.458c-5.224 0-9.46 4.235-9.46 9.458s4.236 9.458 9.46 9.458z" fill="#2F2E41"/><path d="M241.643 167.714a4.299 4.299 0 1 0 .002-8.598 4.299 4.299 0 0 0-.002 8.598z" fill="#2F2E41"/><path d="M241.435 167.01a4.296 4.296 0 0 0 5.215-.969 4.302 4.302 0 0 0 .303-5.295 4.28 4.28 0 0 1 1.706 3.173 4.292 4.292 0 0 1-1.31 3.357 4.292 4.292 0 0 1-3.404 1.179 4.303 4.303 0 0 1-3.106-1.827c.188.143.387.271.596.382z" fill="#2F2E41"/><path d="M267.988 173.89l.295 10.338a5.636 5.636 0 0 1-9.935 3.806 5.63 5.63 0 0 1-1.142-5.116l2.32-8.583 6.68-36.515-.445-21.374 14.252-.445-2.672 24.046-9.353 33.843z" fill="#FFB8B8"/><path d="M280.904 118.227a22.532 22.532 0 0 0-16.034 0l.891-17.812a7.126 7.126 0 0 1 7.126-7.125 7.128 7.128 0 0 1 7.126 7.125l.891 17.812z" fill="#F9DC25"/></g><defs><clipPath id="clip0"><path fill="#fff" d="M0 0h380v289H0z"/></clipPath></defs></svg>