<svg width="301" height="317" fill="none" xmlns="http://www.w3.org/2000/svg"><g clip-path="url(#clip0)"><path d="M215.241 70.164h-1.622V25.722a25.716 25.716 0 0 0-7.535-18.188A25.723 25.723 0 0 0 187.892 0H93.719a25.73 25.73 0 0 0-23.768 15.878 25.717 25.717 0 0 0-1.958 9.844v243.811a25.721 25.721 0 0 0 25.726 25.722h94.173a25.72 25.72 0 0 0 18.192-7.534 25.72 25.72 0 0 0 7.535-18.188V101.798h1.622V70.164z" fill="#3F3D56"/><path d="M297.853 283.133H.101v.829h297.752v-.829z" fill="#3F3D56"/><path opacity=".2" d="M208.143 25.902v243.453a19.167 19.167 0 0 1-1.458 7.354 19.179 19.179 0 0 1-10.399 10.398 19.199 19.199 0 0 1-7.356 1.458H94.305a19.194 19.194 0 0 1-13.59-5.623 19.195 19.195 0 0 1-5.623-13.587V25.902a19.19 19.19 0 0 1 11.859-17.75 19.202 19.202 0 0 1 7.354-1.459h11.479a9.124 9.124 0 0 0 8.451 12.571h53.952a9.129 9.129 0 0 0 9.08-8.193 9.124 9.124 0 0 0-.628-4.378h12.291a19.202 19.202 0 0 1 13.591 5.621 19.172 19.172 0 0 1 4.164 6.235 19.17 19.17 0 0 1 1.458 7.354z" fill="#000"/><path d="M29.677 283.918l-.445-.167c-.098-.037-9.832-3.766-14.392-12.22-4.56-8.455-2.327-18.636-2.304-18.737l.105-.464.445.167c.098.037 9.832 3.766 14.392 12.22 4.56 8.456 2.327 18.636 2.304 18.737l-.105.464zM15.57 271.137c3.855 7.149 11.547 10.813 13.497 11.65.37-2.089 1.532-10.534-2.32-17.676-3.85-7.141-11.546-10.811-13.496-11.649-.37 2.089-1.532 10.534 2.32 17.675z" fill="#3F3D56"/><path d="M18.325 268.565c8.194 4.929 11.35 14.72 11.35 14.72s-10.13 1.799-18.324-3.13C3.156 275.225 0 265.435 0 265.435s10.13-1.799 18.325 3.13z" fill="#F9DC25"/><path d="M98.966 6.693v281.872h-4.66a19.089 19.089 0 0 1-3.634-.344V7.037a19.035 19.035 0 0 1 3.633-.344h4.661zm44.787 12.571h-8.294v269.301h8.294v-269.3zM195.59 7.879v279.5a19.159 19.159 0 0 1-6.66 1.186h-1.634V6.693h1.634a19.155 19.155 0 0 1 6.66 1.186z" fill="#3F3D56"/><path d="M208.143 53.628H75.093v8.293h133.05v-8.293zm0 94.119H75.093v8.292h133.05v-8.292zm-4.259 46.438h-66.766v8.292h66.766v-8.292zm4.259-105.314h-72.684v8.292h72.684v-8.292z" fill="#3F3D56"/><path d="M141.452 61.365l-.962.556-5.03 2.902L98.966 85.89l-8.294 4.789-15.58 8.993v-9.578l15.58-8.993 8.294-4.785 24.936-14.395 11.558-6.672 1.845-1.065 4.147 7.181zm66.691 177.184H75.093v8.292h133.05v-8.292z" fill="#3F3D56"/><path d="M237.06 89.285c0 26.334-47.69 84.998-47.69 84.998s-47.69-58.664-47.69-84.997a47.675 47.675 0 0 1 13.968-33.716 47.694 47.694 0 0 1 67.444 0 47.68 47.68 0 0 1 13.968 33.715z" fill="#F9DC25"/><path opacity=".2" d="M189.37 115.407c15.574 0 28.199-12.623 28.199-28.195 0-15.57-12.625-28.194-28.199-28.194-15.574 0-28.2 12.623-28.2 28.194 0 15.572 12.626 28.195 28.2 28.195z" fill="#000"/><path d="M188.443 98.342c5.802 0 10.506-4.703 10.506-10.504 0-5.8-4.704-10.503-10.506-10.503-5.802 0-10.505 4.702-10.505 10.503 0 5.802 4.703 10.504 10.505 10.504zm16.401 19.967a15.749 15.749 0 0 0-3.323-13.012 15.765 15.765 0 0 0-12.151-5.724 15.751 15.751 0 0 0-12.151 5.724 15.757 15.757 0 0 0-3.323 13.012h30.948z" fill="#F9DC25"/><path d="M239.067 50.91s-7.493-2.676-12.309 8.026c-4.817 10.702-12.31 22.474-12.31 22.474l4.282 1.07s1.07-7.49 3.746-8.561l-1.07 9.632s32.111 11.237 46.561-1.07l-.535-3.746s2.141.535 2.141 3.745l1.606-1.605s-1.606-3.21-6.423-7.491c-3.161-2.81-4.248-8.155-4.621-11.497a13.91 13.91 0 0 0-3.204-7.577c-3.201-3.709-9.033-7.651-17.864-3.4z" fill="#2F2E41"/><path d="M284.543 111.468s14.099 12.024 16.173 19.072c2.073 7.049-7.879 7.878-7.879 7.878l-21.565 2.073s-.414 9.951-4.146 11.195c-3.733 1.244-.758-16.455-.758-16.455l21.078-5.935-9.538-9.95 6.635-7.878zm-65.937 12.438l-1.659 21.975-9.123 37.316s-8.294 17-1.244 17.414c7.049.415 6.635-16.17 6.635-16.17l13.27-35.243 1.244-24.048-9.123-1.244zm7.465 159.215v16.17l9.953-2.488-2.903-14.926-7.05 1.244zm53.081 0v16.17l9.953-2.488-2.903-14.926-7.05 1.244zM241.829 85.347c7.558 0 13.685-6.126 13.685-13.683 0-7.556-6.127-13.682-13.685-13.682-7.558 0-13.685 6.126-13.685 13.682 0 7.557 6.127 13.683 13.685 13.683z" fill="#FBBEBE"/><path d="M235.608 78.298s4.977 17.829-2.903 22.39c-7.879 4.56 19.906 7.877 27.37-5.805 0 0-13.27-4.56-9.538-16.585h-14.929z" fill="#FBBEBE"/><path d="M226.07 102.761l-2.488-.829s-4.976 2.073-4.976 5.804c0 3.732-.83 18.658-.83 18.658l11.197 1.244-2.903-24.877z" fill="#575A89"/><path d="M227.729 147.104s-13.685 17.435-13.685 38.581c0 21.145 3.318 97.85 3.318 97.85s12.441 5.805 19.905-1.244l6.636-87.07 26.125 89.973s12.441 2.488 18.247-1.659l-11.197-58.047s-.414-68.827-12.855-73.802c-12.441-4.976-36.494-4.582-36.494-4.582zm9.124 147.212s-10.782-5.805-11.612 2.073c-.829 7.877-1.244 12.853-1.244 12.853s-1.244 9.536 10.368 7.463c11.611-2.073 7.464-7.878 7.464-7.878s-4.147-6.634-4.147-8.292c0-1.659-.829-6.219-.829-6.219zm41.238-.189s9.812-7.325 11.79.345c1.977 7.671 3.118 12.532 3.118 12.532s2.632 9.25-9.158 8.904c-11.79-.346-8.541-6.696-8.541-6.696s3.128-7.171 2.884-8.812c-.244-1.64-.093-6.273-.093-6.273z" fill="#2F2E41"/><path d="M265.881 96.956s5.391-2.902 10.782 3.317l10.782 12.439-8.293 9.121-15.759-9.536 2.488-15.34z" fill="#575A89"/><path d="M227.041 71.75c4.845-3.504 8.766-7.542 11.361-12.345 0 0 8.89 9.877 14.323 10.37 5.434.494.494-11.852.494-11.852l-9.878-2.469-9.385.988-7.409 4.938.494 10.37z" fill="#2F2E41"/><path d="M258.002 94.054s-5.803 9.174-23.221 4.794l-9.885 2.722-1.313.362s1.244 24.877 4.561 29.438c3.318 4.56 2.488 7.048 1.659 7.463-.829.414-2.903-.415-1.659 1.658s2.903.829 1.244 2.073-2.488 5.805-2.488 5.805l38.981 4.975s-1.244-16.17 2.074-24.462c3.318-8.293 4.147-11.61 4.147-11.61l-2.488-20.73-11.612-2.488z" fill="#575A89"/><path d="M193.517 208.696c7.1 0 12.855-5.754 12.855-12.853s-5.755-12.853-12.855-12.853c-7.1 0-12.856 5.754-12.856 12.853s5.756 12.853 12.856 12.853z" fill="#F9DC25"/></g><defs><clipPath id="clip0"><path fill="#fff" d="M0 0h301v317H0z"/></clipPath></defs></svg>