<svg width="445" height="310" fill="none" xmlns="http://www.w3.org/2000/svg"><g clip-path="url(#clip0)"><path d="M371.814 47.667l-34.328.335c-1.614-7.95-7.035-28.81-2.153-34.5a8.369 8.369 0 0 1 2.901-5.507 8.353 8.353 0 0 1 5.901-1.975c5.321-8.336 14.183-7.084 20.173-1.878 6.028 2.081 8.301 5.78 7.506 10.799 4.464 3.91 5.288 8.669 3.284 14.085l-3.284 18.641z" fill="#2F2E41"/><path d="M368.509 68.831L343.742 65.4l-4.953-7.245c6.823-4.53 9.238-10.857 6.097-19.448l17.146-.382c-.804 7.651 1.724 13.575 8.763 17.16l-2.286 13.347z" fill="#FFB9B9"/><path d="M337.887 292.403l-.947 12.957a4.127 4.127 0 0 0 2.637 4.153c.549.21 1.136.301 1.722.265l6.65-.403a2.108 2.108 0 0 0 1.568-.856 2.108 2.108 0 0 0 .344-1.754l-3.691-14.777-8.283.415zm21.529-.415l-3.692 14.777a2.1 2.1 0 0 0 1.912 2.61l6.65.403a4.116 4.116 0 0 0 4.117-2.691c.203-.552.286-1.14.243-1.727l-.947-12.957-8.283-.415z" fill="#E6E6E6"/><path d="M368.128 294.202l-8.974-.902-8.934-95.576-3.377 95.269-8.817-.316-14.859-131.943h56.773l-11.812 133.468z" fill="#F9DC25"/><path d="M354.411 44.807c9.47 0 17.146-7.683 17.146-17.16s-7.676-17.16-17.146-17.16-17.146 7.683-17.146 17.16 7.676 17.16 17.146 17.16z" fill="#FFB9B9"/><path d="M388.323 163.784l-69.347.763c10.291-39.21 16.447-75.633 5.715-100.673l17.146-8.39c8.268 8.63 17.475 7.741 27.434-.762l16.385 4.195c-2.807 32.835-1.549 68.003 2.667 104.867z" fill="#F9DC25"/><path d="M299.924 123.363l43.056 17.16 9.626 2.833a3.332 3.332 0 0 0 2.275-6.25l-9.996-3.066-30.101-17.541 6.287-16.589-13.146-7.054-8.001 30.507z" fill="#FFB9B9"/><path d="M300.305 92.093c8.192 3.198 14.708 8.657 19.814 16.016l16.003-23.261-11.431-20.974-24.386 28.219z" fill="#F9DC25"/><path d="M373.736 24.866c-6.959-1.795-13.801-2.041-20.452.235-4.237 2.054-9.325 1.864-14.984.172V8.153l30.548.815 4.888 15.898z" fill="#2F2E41"/><path d="M342.837 103.369a5.089 5.089 0 0 0-5.078 5.082l2.004 41.995a5.093 5.093 0 0 0 1.489 3.592 5.08 5.08 0 0 0 3.59 1.49h22.917a5.08 5.08 0 0 0 3.59-1.49 5.093 5.093 0 0 0 1.489-3.592l2.004-41.995a5.089 5.089 0 0 0-5.078-5.082h-26.927z" fill="#3F3D56"/><path d="M407.861 120.19l-37.529 14.956-2.831 1.128a5.59 5.59 0 0 1-.276.096l-9.486 2.793c-1.213.356-2.892-1.279-3.874-2.407a3.051 3.051 0 0 1-.08-3.977 3.33 3.33 0 0 1 .431-.417 2.8 2.8 0 0 1 1.253-.551l9.476-1.866c.34-.067.667-.189.967-.361l4.42-2.578 22.947-13.371a3.126 3.126 0 0 0 1.348-3.802l-4.38-11.56a3.114 3.114 0 0 1 1.438-3.852l7.256-3.892a3.111 3.111 0 0 1 4.48 1.957l6.3 24.013a3.119 3.119 0 0 1-1.86 3.691z" fill="#FFB9B9"/><path d="M410.041 87.898c-8.192 3.199-14.707 8.657-19.813 16.016l-16.003-23.261 11.43-21.736 24.386 28.981z" fill="#F9DC25"/><path d="M365.822 42.92c-7.501 3.123-15.366 2.996-23.553 0 2.382-4.07-1.179-7.256-3.007-11.364l30.569-.91c-2.338 3.57-5.787 7.786-4.009 12.274z" fill="#fff"/><path d="M369.507 31.326l-.355-.355.501-.501 2.994-3.497.381.326-3.007 3.51-.514.517zM337.168 29.2l-.321.386 3.006 2.507.321-.385-3.006-2.508zm33.203 5.074l-5.263 8.275.423.27 5.263-8.275-.423-.27zm-32.651 0l-.423.269 5.262 8.275.423-.27-5.262-8.274zm33.615 92.023v9.086l-3.161 1.259a5.296 5.296 0 0 1-.308.107l-10.589 3.118c-1.353.397-3.227-1.428-4.324-2.687a3.41 3.41 0 0 1-.089-4.44c.146-.169.307-.324.481-.465a3.131 3.131 0 0 1 1.398-.615l10.578-2.083a3.54 3.54 0 0 0 1.08-.403l4.934-2.877z" fill="#fff"/><path d="M375.915 93.888h-1.811c0-25.634-5.274-43.498-10.413-43.498l-.453-1.812c4.609 0 7.547 7.435 9.201 13.672 2.241 8.456 3.476 19.691 3.476 31.638zm-41.651-6.344h-1.811c0-23.476 5.31-38.06 13.129-38.06l-.453 1.813c-5.408 0-10.865 11.208-10.865 36.248z" fill="#3F3D56"/><path d="M375.009 98.872a4.53 4.53 0 0 0 4.528-4.531 4.53 4.53 0 0 0-4.528-4.531 4.53 4.53 0 0 0-4.527 4.53 4.53 4.53 0 0 0 4.527 4.532zm-47.989-.453h-1.811c0-6.496 3.656-11.78 8.149-11.78v1.812c-3.495 0-6.338 4.471-6.338 9.968zm14.487 0h-1.811c0-5.497-2.843-9.968-6.338-9.968v-1.813c4.493 0 8.149 5.285 8.149 11.78z" fill="#3F3D56"/><path d="M340.602 100.684a1.812 1.812 0 1 0-.001-3.623 1.812 1.812 0 0 0 .001 3.623zm-14.488 0a1.812 1.812 0 1 0-.001-3.623 1.812 1.812 0 0 0 .001 3.623z" fill="#3F3D56"/><path d="M107.878 37.965l-31.805 5.39a3.218 3.218 0 0 1-3.643-2.313c-2.298-8.3-7.102-19.128-2.438-24.564a8.933 8.933 0 0 1 3.099-5.882 8.918 8.918 0 0 1 6.3-2.109c5.682-8.9 15.146-7.564 21.542-2.005 6.437 2.223 8.864 6.172 8.015 11.531 2.781 2.437 4.239 5.18 4.546 8.192a11.83 11.83 0 0 1-3.234 9.204l-2.382 2.556z" fill="#2F2E41"/><path d="M102.933 63.024l-24.656-1.452c2.417-5.55 3.382-10.895 2.418-15.966h18.37c-.041 3.893 1.895 10.63 3.868 17.418z" fill="#9F616A"/><path d="M73.254 291.034l-1.01 13.836a4.405 4.405 0 0 0 4.655 4.717l7.1-.43a2.243 2.243 0 0 0 2.042-2.787L82.1 290.591l-8.846.443zm22.989-.443l-3.941 15.779a2.245 2.245 0 0 0 2.041 2.787l7.102.43a4.403 4.403 0 0 0 3.397-1.301 4.407 4.407 0 0 0 1.258-3.416l-1.011-13.836-8.846-.443z" fill="#E6E6E6"/><path d="M105.547 292.954l-9.582-.962-9.54-102.061-3.606 101.732-9.415-.338-15.868-140.893h60.624l-12.613 142.522z" fill="#F9DC25"/><path d="M90.365 51.48c10.112 0 18.309-8.205 18.309-18.325s-8.197-18.324-18.31-18.324c-10.111 0-18.309 8.204-18.309 18.324 0 10.12 8.198 18.324 18.31 18.324z" fill="#9F616A"/><path d="M111 24.401c-7.431-1.295-14.737-1.473-21.84.17-4.524 1.482-9.957 1.346-16 .124V12.338l32.621.589L111 24.4z" fill="#2F2E41"/><path d="M102.55 47.858c-8.01 3.334-16.409 3.199-25.15 0 2.543-4.346-1.26-7.75-3.212-12.136l32.643-.97c-2.496 3.81-6.18 8.313-4.281 13.106z" fill="#fff"/><path d="M71.94 33.22l-.32.385 3.21 2.678.321-.386-3.21-2.677zm35.482 5.414l-5.62 8.836.423.269 5.62-8.836-.423-.27zm-34.896-.001l-.423.27 5.619 8.836.423-.269-5.62-8.837z" fill="#fff"/><path d="M55.556 116.73l-14.02-8.709 11.956-35.047a16.53 16.53 0 0 1 7.221-8.584l4.028-2.334.35 35.356-9.535 19.318z" fill="#F9DC25"/><path d="M116.156 133.751l-2.075-17.781c-.11-9.385 1.485-18.459 5.289-26.82l1.934-26.126-21.272-8.71c-.065.434-.12.868-.183 1.302l-9.97 4.989-9.722-2.212.054-3.11-19.338 8.708c6.395 29.755 2.907 60.655-8.09 97.152l25.476 6.971.212-12.242 22.704-1.623c.234 3.972.422 7.873.531 11.688 12.811 4.721 13.251 4.642 24.924-2.116-4.648-9.782-8.329-19.96-10.474-30.07z" fill="#F9DC25"/><path d="M148.86 112.375l-13.053-4.354-20.879-24.326 6.376-20.671 29.006 40.642-1.45 8.709z" fill="#F9DC25"/><path d="M107.952 131.207a3.628 3.628 0 0 0 4.338 2.738l11.08-2.511-1.602-7.078-11.08 2.511a3.633 3.633 0 0 0-2.736 4.34z" fill="#E6E6E6"/><path d="M117.92 123.019l6.285 11.612c10.571-2.95 19.732-12.252 28.523-23.224l-2.417-7.741-14.987 3.871-17.404 15.482z" fill="#F9DC25"/><path d="M35.976 86.595l12.065 2.156 27.578 39.243-14.65-3.45-24.993-37.949z" fill="#E6E6E6"/><path d="M33.836 86.115a1.027 1.027 0 0 0-.842 1.59l25.778 39.143c.143.219.366.375.62.434l11.994 2.825a1.026 1.026 0 0 0 1.073-1.588L44.156 88.244a1.019 1.019 0 0 0-.658-.42l-9.469-1.692a1.12 1.12 0 0 0-.193-.017z" fill="#3F3D56"/><path d="M49.916 114.101l.717 7.222 11.305-1.123a3.63 3.63 0 0 0-.716-7.222l-11.306 1.123z" fill="#E6E6E6"/><path d="M40.085 113.265a9.336 9.336 0 0 0 2.75 6.555 9.321 9.321 0 0 0 6.565 2.716h1.859l1.353-11.288-11.205-4.037-1.322 6.054z" fill="#F9DC25"/><path d="M105.938 36l-.355-.355.536-.535 3.197-3.735.381.326-3.211 3.749-.548.55z" fill="#fff"/><path d="M445 308.997H0V310h445v-1.003z" fill="#3F3D56"/><path d="M169.882 308.495h105.236V180.747c0-6.765-6.657-12.268-14.84-12.268h-75.556c-8.183 0-14.84 5.503-14.84 12.268v127.748z" fill="#E6E6E6"/><path d="M177.9 303.213h89.2V194.931c0-5.734-5.643-10.399-12.579-10.399h-64.042c-6.936 0-12.579 4.665-12.579 10.399v108.282z" fill="#fff"/><path d="M169.087 158.537c-2.602 0-4.718 1.75-4.718 3.9v11.256c0 2.15 2.116 3.9 4.718 3.9h106.826c2.601 0 4.717-1.75 4.717-3.9v-11.256c0-2.15-2.116-3.9-4.717-3.9H169.087zm21.933 130.791a4.623 4.623 0 0 0-4.609 4.613 4.627 4.627 0 0 0 4.609 4.612h8.626v-9.225h-8.626z" fill="#3F3D56"/><path d="M207.564 289.328h-8.391v9.225h8.391a4.62 4.62 0 0 0 4.608-4.612 4.623 4.623 0 0 0-4.608-4.613z" fill="#F9DC25"/><path opacity=".2" d="M210.571 290.458a4.587 4.587 0 0 1 1.129 3.01 4.625 4.625 0 0 1-4.609 4.612h-7.918v.473h8.391a4.62 4.62 0 0 0 4.608-4.612 4.611 4.611 0 0 0-1.601-3.483z" fill="#000"/><path d="M229.947 219.853a4.619 4.619 0 0 0-6.514-.193 4.63 4.63 0 0 0-.193 6.521l5.917 6.282 6.708-6.328-5.918-6.282z" fill="#3F3D56"/><path d="M241.295 231.901l-5.755-6.11-6.707 6.328 5.755 6.11a4.62 4.62 0 0 0 6.515.192 4.627 4.627 0 0 0 .192-6.52z" fill="#F9DC25"/><path opacity=".2" d="M242.537 234.866a4.59 4.59 0 0 1-1.414 2.887 4.624 4.624 0 0 1-6.515-.193l-5.431-5.766-.344.325 5.755 6.11a4.62 4.62 0 0 0 6.515.192 4.601 4.601 0 0 0 1.434-3.555z" fill="#000"/><path d="M205.392 234.397a4.619 4.619 0 0 0-6.515-.192 4.628 4.628 0 0 0-.192 6.52l5.917 6.282 6.707-6.327-5.917-6.283z" fill="#3F3D56"/><path d="M216.74 246.446l-5.755-6.111-6.707 6.328 5.755 6.11a4.62 4.62 0 0 0 6.515.193 4.63 4.63 0 0 0 .192-6.52z" fill="#F9DC25"/><path opacity=".2" d="M217.982 249.41a4.592 4.592 0 0 1-1.414 2.887 4.618 4.618 0 0 1-6.515-.193l-5.431-5.765-.344.324 5.755 6.11a4.62 4.62 0 0 0 6.515.193 4.607 4.607 0 0 0 1.434-3.556z" fill="#000"/><path d="M229.947 247.939a4.619 4.619 0 0 0-6.514-.193 4.625 4.625 0 0 0-.193 6.52l5.917 6.283 6.708-6.328-5.918-6.282z" fill="#3F3D56"/><path d="M241.295 259.987l-5.755-6.11-6.707 6.327 5.755 6.111a4.619 4.619 0 0 0 6.515.192 4.629 4.629 0 0 0 .192-6.52z" fill="#F9DC25"/><path opacity=".2" d="M242.537 262.952a4.587 4.587 0 0 1-1.414 2.886 4.62 4.62 0 0 1-6.515-.192l-5.431-5.766-.344.324 5.755 6.111a4.619 4.619 0 0 0 6.515.192 4.598 4.598 0 0 0 1.434-3.555z" fill="#000"/><path d="M244.927 276.76a4.624 4.624 0 0 0 .113-6.522 4.621 4.621 0 0 0-6.516-.113l-6.205 5.998 6.403 6.635 6.205-5.998z" fill="#3F3D56"/><path d="M233.028 288.263l6.034-5.833-6.403-6.636-6.035 5.834a4.63 4.63 0 0 0-.113 6.522 4.62 4.62 0 0 0 6.517.113z" fill="#F9DC25"/><path opacity=".2" d="M230.08 289.542a4.582 4.582 0 0 1-2.901-1.381 4.626 4.626 0 0 1 .113-6.521l5.695-5.505-.328-.341-6.035 5.834a4.629 4.629 0 0 0-.113 6.522 4.595 4.595 0 0 0 3.569 1.392z" fill="#000"/><path d="M211.853 262.216a4.627 4.627 0 0 0 .113-6.522 4.618 4.618 0 0 0-6.516-.113l-6.205 5.997 6.403 6.636 6.205-5.998z" fill="#3F3D56"/><path d="M199.953 273.719l6.035-5.834-6.403-6.635-6.035 5.833a4.628 4.628 0 0 0-.113 6.522 4.618 4.618 0 0 0 6.516.114z" fill="#F9DC25"/><path opacity=".2" d="M197.006 274.997a4.583 4.583 0 0 1-2.901-1.38 4.627 4.627 0 0 1 .113-6.522l5.695-5.505-.328-.34-6.035 5.833a4.628 4.628 0 0 0-.113 6.522 4.585 4.585 0 0 0 3.569 1.392z" fill="#000"/><path d="M258.959 244.662a4.628 4.628 0 0 0 .113-6.522 4.62 4.62 0 0 0-6.517-.113l-6.204 5.998 6.403 6.635 6.205-5.998z" fill="#3F3D56"/><path d="M247.059 256.165l6.035-5.834-6.403-6.635-6.035 5.834a4.624 4.624 0 0 0-.113 6.522 4.621 4.621 0 0 0 6.516.113z" fill="#F9DC25"/><path opacity=".2" d="M244.112 257.443a4.573 4.573 0 0 1-2.901-1.38 4.627 4.627 0 0 1 .113-6.522l5.695-5.505-.328-.34-6.035 5.834a4.624 4.624 0 0 0-.113 6.522 4.595 4.595 0 0 0 3.569 1.391z" fill="#000"/><path d="M248.489 281.04a4.62 4.62 0 0 0-6.515-.193 4.63 4.63 0 0 0-.192 6.52l5.917 6.283 6.707-6.328-5.917-6.282z" fill="#3F3D56"/><path d="M259.837 293.088l-5.755-6.11-6.707 6.328 5.755 6.11a4.62 4.62 0 0 0 6.515.192 4.627 4.627 0 0 0 .192-6.52z" fill="#F9DC25"/><path opacity=".2" d="M261.079 296.053a4.585 4.585 0 0 1-1.414 2.886 4.62 4.62 0 0 1-6.515-.192l-5.431-5.766-.344.324 5.755 6.111a4.62 4.62 0 0 0 6.515.192 4.601 4.601 0 0 0 1.434-3.555z" fill="#000"/><path d="M215.916 280.538a4.621 4.621 0 0 0-6.515-.192 4.627 4.627 0 0 0-.192 6.52l5.917 6.282 6.707-6.327-5.917-6.283z" fill="#3F3D56"/><path d="M227.264 292.587l-5.755-6.111-6.707 6.328 5.755 6.11a4.62 4.62 0 0 0 6.515.193 4.63 4.63 0 0 0 .192-6.52z" fill="#F9DC25"/><path opacity=".2" d="M228.506 295.551a4.589 4.589 0 0 1-1.415 2.887 4.619 4.619 0 0 1-6.514-.193l-5.431-5.766-.344.325 5.755 6.11a4.62 4.62 0 0 0 6.515.193 4.607 4.607 0 0 0 1.434-3.556z" fill="#000"/><path d="M225.085 263.991a6.646 6.646 0 0 1-7.976 6.519 6.649 6.649 0 0 1-5.317-6.519 6.649 6.649 0 0 1 7.975-6.519 6.646 6.646 0 0 1 5.318 6.519z" fill="#F9DC25"/><path opacity=".2" d="M219.767 257.472v13.038a6.719 6.719 0 0 1-2.658 0v-13.038a6.719 6.719 0 0 1 2.658 0z" fill="#000"/><path d="M228.091 237.41a6.652 6.652 0 0 1-5.317 6.519 6.647 6.647 0 0 1-6.478-2.312 6.661 6.661 0 0 1 0-8.415 6.646 6.646 0 0 1 11.795 4.208z" fill="#F9DC25"/><path opacity=".2" d="M222.774 230.891v13.038a6.719 6.719 0 0 1-2.658 0v-13.038a6.719 6.719 0 0 1 2.658 0z" fill="#000"/><path d="M228.091 275.526a6.65 6.65 0 0 1-7.975 6.519 6.646 6.646 0 0 1-5.318-6.519c0-1.533.53-3.019 1.498-4.207a6.647 6.647 0 0 1 6.478-2.312 6.654 6.654 0 0 1 5.317 6.519z" fill="#F9DC25"/><path opacity=".2" d="M222.774 269.007v13.038a6.682 6.682 0 0 1-2.658 0v-13.038a6.719 6.719 0 0 1 2.658 0z" fill="#000"/><path d="M244.628 294.083a6.65 6.65 0 0 1-5.317 6.519 6.649 6.649 0 0 1-7.976-6.519 6.649 6.649 0 0 1 7.976-6.519 6.646 6.646 0 0 1 5.317 6.519z" fill="#F9DC25"/><path opacity=".2" d="M239.311 287.564v13.038a6.719 6.719 0 0 1-2.658 0v-13.038a6.719 6.719 0 0 1 2.658 0z" fill="#000"/><path d="M259.237 259.941a6.65 6.65 0 0 1 1 8.355 6.643 6.643 0 0 1-10.225 1.224 6.657 6.657 0 0 1 .845-10.272 6.646 6.646 0 0 1 8.38.693z" fill="#F9DC25"/><path opacity=".2" d="M250.858 259.248l9.379 9.048a6.71 6.71 0 0 1-1.845 1.916l-9.379-9.048a6.71 6.71 0 0 1 1.845-1.916z" fill="#000"/><path d="M261.242 274.485a6.656 6.656 0 0 1-.845 10.271 6.645 6.645 0 0 1-10.367-4.692 6.653 6.653 0 0 1 2.832-6.271 6.644 6.644 0 0 1 8.38.692z" fill="#F9DC25"/><path opacity=".2" d="M252.862 273.793l9.38 9.048a6.732 6.732 0 0 1-1.845 1.915l-9.38-9.048a6.719 6.719 0 0 1 1.845-1.915z" fill="#000"/><path d="M201.608 277.996a6.652 6.652 0 0 1-5.159 11.419 6.656 6.656 0 0 1-3.221-12.111 6.642 6.642 0 0 1 8.38.692z" fill="#F9DC25"/><path opacity=".2" d="M193.228 277.303l9.379 9.048a6.696 6.696 0 0 1-1.845 1.916l-9.379-9.048a6.722 6.722 0 0 1 1.845-1.916zm-13.073-118.766h-2.506v18.557h2.506v-18.557zm14.532 0h-2.505v18.557h2.505v-18.557zm14.533 0h-2.506v18.557h2.506v-18.557zm14.533 0h-2.506v18.557h2.506v-18.557zm14.532 0h-2.505v18.557h2.505v-18.557zm14.533 0h-2.506v18.557h2.506v-18.557zm14.533 0h-2.506v18.557h2.506v-18.557z" fill="#000"/></g><defs><clipPath id="clip0"><path fill="#fff" d="M0 0h445v310H0z"/></clipPath></defs></svg>