<svg width="520" height="248" fill="none" xmlns="http://www.w3.org/2000/svg"><g clip-path="url(#clip0)"><path d="M259.27 207.44l-2.549 2.611-.246-5.179-.306 7.647-2.348-2.407 2.327 2.935-.77 19.336h2.406l-1.036-21.763 2.522-3.18z" fill="#E6E6E6"/><path d="M264.013 213.879l-2.549 2.611-.246-5.179-.305 7.647-2.349-2.407 2.328 2.935-.771 19.336h2.406l-1.036-21.763 2.522-3.18zm7.113-3.512l-2.548 2.611-.247-5.179-.305 7.647-2.349-2.407 2.328 2.935-.771 19.336h2.406l-1.035-21.764 2.521-3.179zm-17.389 2.927l-2.549 2.611-.247-5.179-.304 7.647-2.349-2.407 2.328 2.935-.771 19.336h2.406l-1.036-21.764 2.522-3.179zM199.685 0H7.613v245.847h192.072V0z" fill="#E6E6E6"/><path d="M186.537 14.824H20.362V119.99h166.175V14.824z" fill="#fff"/><path d="M186.538 115.677H20.361v112.714h166.177V115.677z" fill="#fff"/><path d="M107.766 14.285h-8.633V119.99h8.633V14.285zm78.771 0h-8.633V119.99h8.633V14.285z" fill="#3F3D56"/><path d="M186.537 111.361H20.362v8.629h166.175v-8.629z" fill="#3F3D56"/><path d="M43.846 71.452l-14.851 9.98v8.255l22.498-18.235h-7.647z" fill="#fff"/><path d="M68.316 71.452l-39.321 30.77v7.033l51.25-37.803H68.316z" fill="#E6E6E6"/><path d="M28.995 14.285h-8.633V119.99h8.633V14.285z" fill="#3F3D56"/><path d="M162.525 22.914L129.347 64.98l10.251 1.078 28.595-44.762-5.668 1.618z" fill="#E6E6E6"/><path d="M186.537 14.285H20.362v8.629h166.175v-8.63zm0 48.538H20.362v8.63h166.175v-8.63z" fill="#3F3D56"/><path d="M514.144 0H322.072v245.847h192.072V0z" fill="#E6E6E6"/><path d="M500.982 14.515H334.808v105.166h166.174V14.515z" fill="#fff"/><path d="M500.98 115.366H334.809v112.715H500.98V115.366z" fill="#fff"/><path d="M422.211 13.976h-8.632v105.705h8.632V13.976zm78.771 0h-8.632v105.705h8.632V13.976z" fill="#3F3D56"/><path d="M500.982 111.052H334.808v8.629h166.174v-8.629z" fill="#3F3D56"/><path d="M358.292 71.143l-14.853 9.98v8.255l22.499-18.235h-7.646zm24.47 0l-39.323 30.77v7.033l51.251-37.803h-11.928z" fill="#E6E6E6"/><path d="M343.44 13.976h-8.632v105.705h8.632V13.976z" fill="#3F3D56"/><path d="M476.971 22.605l-33.179 42.066 10.251 1.078 28.595-44.762-5.667 1.618z" fill="#E6E6E6"/><path d="M500.982 13.976H334.808v8.629h166.174v-8.629zm0 48.538H334.808v8.629h166.174v-8.63z" fill="#3F3D56"/><path d="M414.22 140.919s.632 2.107-2.95 4.002c-3.583 1.896-4.636 9.057-.422 11.164 4.215 2.106 5.479 4.844 3.372 6.74-2.107 1.895-5.9 6.951-.843 8.214 5.057 1.264 5.689 3.792 4.214 4.845-1.475 1.053 3.372-1.896 3.372-1.896s.842 5.055 5.267 3.792c4.426-1.264 16.858-25.276 10.536-28.646-6.321-3.37-22.546-8.215-22.546-8.215z" fill="#2F2E41"/><path d="M408.47 188.957l-20.219 14.202s-15.3-15.841-15.3-25.127c0-9.285-8.197-26.764-12.022-19.663-3.825 7.1 4.372 24.033 4.372 24.033l15.3 36.051s8.743 1.638 13.661-2.185c4.918-3.824 18.579-11.471 18.579-11.471l-4.371-15.84zm19.945-23.761c8.45 0 15.3-6.847 15.3-15.294s-6.85-15.294-15.3-15.294c-8.45 0-15.3 6.847-15.3 15.294s6.85 15.294 15.3 15.294z" fill="#FFB9B9"/><path d="M420.491 160.553s5.464 14.202 3.279 17.479c-2.186 3.278-4.918 3.278-7.104 4.37-1.093.546-12.568 4.916-12.568 8.193a13.024 13.024 0 0 0 1.639 6.009l1.639 9.286 13.661 8.739 18.033-2.185 13.661-7.647s2.186-20.21-3.825-23.487c-6.011-3.278-13.115-10.925-12.568-13.656.546-2.731 1.093-9.286 1.093-9.286l-16.94 2.185z" fill="#FFB9B9"/><path d="M449.455 202.068v.018l-.492 4.823-.627 6.187-.714 6.995-.808 7.99h-39.598c-.533-4.366-1.475-8.997-3.121-11.812a9.063 9.063 0 0 1-1.312-5.602c.369-3.658 2.952-6.21 2.952-6.96 0-.819-4.603-5.625-6.904-7.984-.773-.79-1.289-1.305-1.289-1.305l7.104-5.461.099.169.996 1.745 3.273 5.73-1.089 4.373s1.692.292 4.046.667c4.07.638 10.125 1.516 12.889 1.516 2.565 0 5.698 1.317 8.286 2.072l.234.071c1.628.456 3.022.667 3.9.14.053-.03.104-.063.153-.099.458-.31.953-.56 1.475-.744h.006a43.128 43.128 0 0 1 5.797-1.604c2.214-.486 4.158-.825 4.632-.907l.003-.002.003-.001.003.001.003.002.1-.018z" fill="#F9DC25"/><path d="M451.159 201.237c-.041.293-.076.592-.111.884-.17 1.288-.311 2.576-.434 3.863a131.767 131.767 0 0 0-.615 10.285 21.417 21.417 0 0 1-.404 3.822 59.385 59.385 0 0 1-2.19 7.99h-15.471c.41-3.043.96-7.726 1.23-12.631v-.006c.041-.761.07-1.528.099-2.295a73.057 73.057 0 0 0-.105-7.732c-.006-.065-.006-.129-.012-.188l-.088-.977c-1.089-10.923 5.464-22.94 5.464-22.94 2.219 0 4.386 1.223 6.318 2.909a19.425 19.425 0 0 1 6.319 17.016z" fill="#FFB9B9"/><path opacity=".1" d="M449.999 216.269a21.417 21.417 0 0 1-.404 3.822 59.534 59.534 0 0 1-2.19 7.99h-15.589c.477-4.921.623-9.868.44-14.809a58.395 58.395 0 0 0-.129-2.195v-.012a52.647 52.647 0 0 0-.158-1.896 5.96 5.96 0 0 1 .117-2.19v-.011a2.569 2.569 0 0 1 .849-1.393c.069-.06.144-.112.222-.158a1.13 1.13 0 0 1 .223-.117c.071-.04.146-.073.222-.1a4.127 4.127 0 0 1 1.898-.164 8.76 8.76 0 0 1 1.78.404 25.499 25.499 0 0 1 7.138 4.015 25.988 25.988 0 0 1 3.918 3.641c1.03 1.218 1.663 2.342 1.663 3.173z" fill="#000"/><path d="M431.42 208.075l1.742 7.374 9.733 4.642h8.197l3.825-17.479s-6.754-1.427-10.207.379c-3.454 1.806-11.565 2.238-11.565 2.238l-1.725 2.846z" fill="#F9DC25"/><path d="M428.539 134.552s.701 2.333-3.268 4.433c-3.968 2.1-5.135 10.034-.466 12.367 4.668 2.334 6.069 5.367 3.734 7.467-2.334 2.1-6.536 7.7-.933 9.1 5.602 1.4 6.302 4.2 4.668 5.367-1.634 1.167 3.735-2.1 3.735-2.1s.934 5.6 5.836 4.2c4.902-1.4 9.793-26.849 4.329-33.404-5.081-6.094-17.635-7.43-17.635-7.43z" fill="#2F2E41"/><path d="M427.048 132.15c.001-3.418 21.257.334 25.644 5.107 3.038 3.306 7.651 8.278 3.785 11.783-3.866 3.506-4.397 6.804-1.582 8.197 2.814 1.393 8.371 5.654 3.353 8.512-5.017 2.858-4.936 5.743-3.048 6.426 1.888.683-4.163-1.016-4.163-1.016s.611 5.645-4.487 5.618c-5.098-.027-19.724-28.034-16.23-35.819 3.249-7.238-3.272-8.808-3.272-8.808z" fill="#2F2E41"/><path d="M429.264 131.401c-13.682-.824-15.055 9.471-15.055 9.471.095 5.958 9.559 3.055 12.188 3.943 3.172-2.28 9.285-6.595 13.657-9.675a20.68 20.68 0 0 0-10.79-3.739z" fill="#2F2E41"/><path d="M243.705 224.774l1.07 6.732a14.931 14.931 0 0 0 14.933 14.926 14.93 14.93 0 0 0 14.932-14.926l.007-.093 1.063-6.639h-32.005z" fill="#E6E6E6"/><path d="M520 245.753H0v1.17h520v-1.17z" fill="#3F3D56"/><path d="M54.011 226.781v3.441S51.716 248 45.405 248c-6.31 0-1.147-18.352-1.147-18.352v-2.867h9.753zm95.811-64.804l-1.147-2.868s-7.458-10.896-2.295-13.764c5.163-2.867 11.474 11.47 11.474 11.47l1.148 4.588-9.18.574zm-23.809-3.501c8.364 0 15.144-6.777 15.144-15.138 0-8.36-6.78-15.138-15.144-15.138s-15.144 6.778-15.144 15.138c0 8.361 6.78 15.138 15.144 15.138z" fill="#9E616A"/><path d="M115.112 145.059l-10.326 8.029 14.343 12.043 8.031-9.749-12.048-10.323z" fill="#9E616A"/><path d="M124.537 228.391H71.799l4-42.396 2.968-31.486v-.006a5.16 5.16 0 0 1 5.634-4.654l21.883 2.072 16.104 9.255.468 4.244 16.068 11.467-10.921 20.768-6.869 13.071 3.403 17.665z" fill="#F9DC25"/><path d="M79.255 181.475l-14.917 19.499-9.18 27.527H41.39l9.753-40.717 25.745-35.188a5.186 5.186 0 0 1 5.935-1.807c.329.136.672.233 1.022.291l-4.59 30.395zm47.045 15.484l35.858 14.624 6.31-6.308-8.892-46.166-11.475 2.294 4.59 27.528-13.769-12.043-4.59-1.148-8.032 21.219z" fill="#F9DC25"/><path d="M111.183 148.242a39.415 39.415 0 0 1 1.972-17.853c3.36-9.015 14.072-6.298 20.173-4.254 6.1 2.045 14.183 10.597 12.08 15.265-2.103 4.668-12.085-1.229-15.645-4.236-3.561-3.007-9.781 6.125-9.781 6.125l-8.799 4.953z" fill="#2F2E41"/><path d="M121.913 142.823c.559-1.537.319-3.035-.535-3.346-.855-.31-2 .685-2.56 2.222-.559 1.537-.319 3.035.535 3.346.855.31 2-.684 2.56-2.222z" fill="#9E616A"/></g><defs><clipPath id="clip0"><path fill="#fff" d="M0 0h520v248H0z"/></clipPath></defs></svg>