<svg width="431" height="372" fill="none" xmlns="http://www.w3.org/2000/svg"><g clip-path="url(#clip0)"><path d="M105.027 60.102c-11.972 0-20.688 8.919-23.627 21.652l-3.642 19.103h2.592l5.615-15.638-1.182 15.638h2.91l2.16-8.056-.455 8.056h35.01V81.365c0-11.743-8.677-21.263-19.381-21.263zM89.205 162.644s-17.71 24.543-16.846 34.446c.864 9.903 12.094 171.367 12.094 171.367l26.349 1.292-7.775-116.254 6.479-31.432 15.982 146.394 32.396.861-28.941-189.882-5.615-16.792H89.205z" fill="#2F2E41"/><path d="M95.252 87.725s5.615 10.334-1.728 17.223c-7.343 6.889-10.798 25.403-10.798 25.403l41.466-3.014-3.455-23.25s-9.071-5.598-6.911-15.501l-18.574-.861z" fill="#FFB8B8"/><path d="M88.341 115.281s2.592 7.751 13.822 6.89a38.615 38.615 0 0 0 19.006-6.89v50.377l-34.556-1.292v-30.57l1.728-18.515z" fill="#F9DC25"/><path d="M90.5 165.658l2.592-8.611s-.864-20.237-4.32-28.418c0 0 6.603-21.565 7.621-27.79l-3.3 2.386-19.87 9.473 6.91 35.737 4.752 7.751-4.923 20.362 10.538-10.89zm16.847-1.722l9.934-53.821-2.726-13.348 7.91 7.75 15.55 4.736-7.343 40.474-4.32 8.611 2.136 19.322-21.141-13.724z" fill="#3F3D56"/><path d="M147.085 200.104s4.32 18.514-4.319 20.667c-8.639 2.153-5.616-20.667-5.616-20.667h9.935zm-76.19-19.217s16.633 9.297 12.406 17.11c-4.227 7.813-19.102-9.794-19.102-9.794l6.696-7.316z" fill="#FFB8B8"/><path d="M131.535 110.115l6.479-.862s3.887 5.167 4.319 9.042c.432 3.876 7.343 69.322 7.343 69.322.498 1.429.007 2.831-.432 14.64l-1.295 5.167s-2.592-9.904-12.527-4.737l-1.296-6.028s-2.591-22.82-2.591-33.584c0-10.764-.864-22.39-.864-22.39l.864-30.57z" fill="#3F3D56"/><path d="M100.243 371.402c3.392 0 6.142-1.028 6.142-2.296 0-1.268-2.75-2.296-6.142-2.296-3.392 0-6.142 1.028-6.142 2.296 0 1.268 2.75 2.296 6.142 2.296zm41.46 0c3.392 0 6.142-1.028 6.142-2.296 0-1.268-2.75-2.296-6.142-2.296-3.393 0-6.142 1.028-6.142 2.296 0 1.268 2.749 2.296 6.142 2.296z" fill="#2F2E41"/><path d="M77.974 112.267l-4.751.431-10.799 41.765s-1.312 54.231 9.503 43.918c0 0-3.888-11.194 6.047-15.07v-22.82l3.456-19.806-3.456-28.418z" fill="#3F3D56"/><path d="M119.441 85.787c.358 0 .648-.964.648-2.153s-.29-2.152-.648-2.152c-.358 0-.648.963-.648 2.152 0 1.19.29 2.153.648 2.153zm-29.372 0c.358 0 .648-.964.648-2.153s-.29-2.152-.648-2.152c-.358 0-.648.963-.648 2.152 0 1.19.29 2.153.648 2.153z" fill="#FFB8B8"/><path d="M104.754 96.767c7.873 0 14.254-6.362 14.254-14.209 0-7.847-6.381-14.209-14.254-14.209-7.872 0-14.254 6.362-14.254 14.21 0 7.846 6.382 14.208 14.254 14.208z" fill="#FFB8B8"/><path d="M98.491 75.023l-.364 3.445h9.867l1.296-2.584-.273 2.584h11.936l-8.207-12.917-18.142.43-4.32 12.487h6.48l1.727-3.445z" fill="#2F2E41"/><path d="M315.542 236.805c-63.664 0-115.458-51.63-115.458-115.092 0-63.461 51.794-115.09 115.458-115.09S431 58.251 431 121.712c0 63.462-51.794 115.092-115.458 115.092zm0-229.07c-63.048 0-114.342 51.13-114.342 113.978 0 62.849 51.294 113.98 114.342 113.98 63.049 0 114.343-51.131 114.343-113.98 0-62.848-51.294-113.979-114.343-113.979z" fill="#E6E6E6"/><path d="M315.542 204.557c-45.826 0-83.107-37.163-83.107-82.844 0-45.68 37.281-82.843 83.107-82.843s83.108 37.164 83.108 82.843c0 45.681-37.282 82.844-83.108 82.844zm0-164.575c-45.21 0-81.992 36.665-81.992 81.731 0 45.067 36.782 81.732 81.992 81.732 45.211 0 81.992-36.665 81.992-81.732 0-45.066-36.781-81.731-81.992-81.731z" fill="#E6E6E6"/><path d="M315.542 171.943a50.508 50.508 0 0 1-27.995-8.465 50.264 50.264 0 0 1-18.559-22.543 50.073 50.073 0 0 1-2.867-29.021 50.18 50.18 0 0 1 13.79-25.718 50.44 50.44 0 0 1 25.801-13.747 50.535 50.535 0 0 1 29.113 2.858 50.355 50.355 0 0 1 22.615 18.5 50.114 50.114 0 0 1 8.492 27.906 50.203 50.203 0 0 1-14.776 35.501 50.524 50.524 0 0 1-35.614 14.729zm0-99.347a49.384 49.384 0 0 0-27.375 8.278 49.15 49.15 0 0 0-18.148 22.043 48.962 48.962 0 0 0-2.804 28.379 49.067 49.067 0 0 0 13.485 25.149 49.322 49.322 0 0 0 25.229 13.442 49.42 49.42 0 0 0 28.47-2.795 49.245 49.245 0 0 0 22.113-18.09 49.004 49.004 0 0 0 8.304-27.289 49.092 49.092 0 0 0-14.448-34.715 49.41 49.41 0 0 0-34.826-14.402z" fill="#E6E6E6"/><path d="M315.542 147.219c14.131 0 25.587-11.419 25.587-25.505 0-14.087-11.456-25.506-25.587-25.506s-25.587 11.419-25.587 25.506c0 14.086 11.456 25.505 25.587 25.505zm18.304-131.045c4.481 0 8.113-3.62 8.113-8.087 0-4.466-3.632-8.087-8.113-8.087-4.48 0-8.113 3.62-8.113 8.087 0 4.466 3.633 8.087 8.113 8.087zM232.124 208.398c4.48 0 8.112-3.621 8.112-8.087 0-4.467-3.632-8.087-8.112-8.087-4.481 0-8.113 3.62-8.113 8.087 0 4.466 3.632 8.087 8.113 8.087z" fill="#F9DC25"/><path d="M233.239 138.898c4.48 0 8.113-3.62 8.113-8.087 0-4.466-3.633-8.087-8.113-8.087-4.481 0-8.113 3.621-8.113 8.087 0 4.467 3.632 8.087 8.113 8.087zM384.953 84.41c4.48 0 8.113-3.62 8.113-8.086 0-4.467-3.633-8.087-8.113-8.087-4.481 0-8.113 3.62-8.113 8.087 0 4.466 3.632 8.087 8.113 8.087zm31.792 100.636c4.48 0 8.113-3.621 8.113-8.087 0-4.466-3.633-8.087-8.113-8.087-4.481 0-8.113 3.621-8.113 8.087 0 4.466 3.632 8.087 8.113 8.087z" fill="#E6E6E6"/><path d="M393.132 149.3c4.481 0 8.113-3.621 8.113-8.087 0-4.467-3.632-8.087-8.113-8.087-4.48 0-8.112 3.62-8.112 8.087 0 4.466 3.632 8.087 8.112 8.087zM215.274 72.162c4.481 0 8.113-3.621 8.113-8.087 0-4.467-3.632-8.088-8.113-8.088s-8.113 3.621-8.113 8.088c0 4.466 3.632 8.087 8.113 8.087zm130.43 168.584c4.48 0 8.113-3.621 8.113-8.087 0-4.466-3.633-8.087-8.113-8.087-4.481 0-8.113 3.621-8.113 8.087 0 4.466 3.632 8.087 8.113 8.087z" fill="#F9DC25"/><path d="M5.216 359.96c8.043 10.737 24.738 11.867 24.738 11.867s3.656-16.277-4.387-27.014C17.524 334.076.829 332.946.829 332.946s-3.656 16.278 4.387 27.014z" fill="#E6E6E6"/><path d="M46.188 363.997c-5.307 7.085-16.324 7.83-16.324 7.83s-2.412-10.741 2.895-17.826c5.308-7.085 16.324-7.83 16.324-7.83s2.413 10.741-2.895 17.826z" fill="#E6E6E6"/><path d="M374.918 370.754H4.56V372h370.358v-1.246z" fill="#3F3D56"/></g><defs><clipPath id="clip0"><path fill="#fff" d="M0 0h431v372H0z"/></clipPath></defs></svg>