<svg width="95" height="95" fill="none" xmlns="http://www.w3.org/2000/svg"><path d="M75.703 31.172c-6.547 0-11.875-5.326-11.875-11.875 0-6.548 5.328-11.875 11.875-11.875 6.548 0 11.875 5.327 11.875 11.875 0 6.549-5.327 11.875-11.875 11.875zM59.375 57.89a5.943 5.943 0 0 1-5.938-5.937 5.944 5.944 0 0 1 5.938-5.937 5.944 5.944 0 0 1 5.938 5.937 5.943 5.943 0 0 1-5.938 5.938z" fill="#F9DC25"/><path d="M75.703 37.11c9.822 0 17.813-7.991 17.813-17.813S85.526 1.484 75.703 1.484c-9.822 0-17.812 7.99-17.812 17.813 0 9.822 7.99 17.812 17.812 17.812zM62.868 26.718h5.165a23.97 23.97 0 0 0 3.738 6.877 14.888 14.888 0 0 1-8.903-6.877zm-2.009-7.422c0-1.551.24-3.046.685-4.453h5.701a22.782 22.782 0 0 0-.448 4.453c0 1.588.174 3.067.45 4.453h-5.702a14.728 14.728 0 0 1-.686-4.453zM75.706 5.002a21.454 21.454 0 0 1 4.48 6.873h-8.957a21.738 21.738 0 0 1 4.477-6.873zm5.414 9.842a19.6 19.6 0 0 1 .52 4.453c0 1.601-.204 3.081-.525 4.453h-10.83c-.316-1.37-.52-2.85-.52-4.453 0-1.602.206-3.082.526-4.453H81.12zm9.427 4.453c0 1.551-.24 3.046-.684 4.453H84.16a22.79 22.79 0 0 0 .448-4.453c0-1.588-.173-3.067-.45-4.453h5.702a14.73 14.73 0 0 1 .686 4.453zM75.7 33.59a21.454 21.454 0 0 1-4.48-6.872h8.957A21.746 21.746 0 0 1 75.7 33.59zm3.935.005a23.947 23.947 0 0 0 3.738-6.877h5.165a14.888 14.888 0 0 1-8.903 6.877zm8.903-21.721h-5.165a23.967 23.967 0 0 0-3.738-6.877 14.887 14.887 0 0 1 8.903 6.877zM71.772 4.998a23.969 23.969 0 0 0-3.738 6.877h-5.165a14.887 14.887 0 0 1 8.903-6.877z" fill="#3F3D56"/><path d="M71.25 17.813h2.969v2.968H71.25v-2.968zm5.938 0h2.968v2.968h-2.969v-2.968zM81.64 47.5c0-4.092-3.329-7.422-7.421-7.422h-13.36v-1.484c0-7.964-5.734-14.604-13.286-16.033 2.67-2.18 4.38-5.494 4.38-9.202 0-6.547-5.327-11.875-11.875-11.875-6.547 0-11.875 5.328-11.875 11.875 0 3.499 1.53 6.638 3.946 8.815a10.404 10.404 0 0 1-6.38-3.31L15.684 7.773a5.611 5.611 0 0 0-4.146-1.835 5.608 5.608 0 0 0-5.6 5.601v.205c0 1.419.53 2.773 1.496 3.81l15.023 16.178a10.37 10.37 0 0 1 2.777 7.073v10.18H1.484v44.532h92.032V48.984H81.64V47.5zM41.563 69.766a4.462 4.462 0 0 1-4.199-2.97h44.022a4.462 4.462 0 0 1-4.199 2.97H41.562zM78.672 47.5v16.328H40.078V47.5a4.459 4.459 0 0 1 4.453-4.453H74.22a4.459 4.459 0 0 1 4.453 4.453zm-47.5-34.14c0-4.912 3.994-8.907 8.906-8.907 4.912 0 8.906 3.995 8.906 8.906 0 4.912-3.994 8.907-8.906 8.907-4.912 0-8.906-3.995-8.906-8.907zm-6.539 16.353L9.61 13.533a2.616 2.616 0 0 1-.704-1.79v-.205a2.63 2.63 0 1 1 4.58-1.77L23.57 20.864a13.396 13.396 0 0 0 9.886 4.371h11.075c7.366 0 13.36 5.994 13.36 13.36v1.484h-4.453v-5.937h-2.97v5.937h-5.937c-4.092 0-7.422 3.33-7.422 7.422v1.484h-8.906v-10.18c0-3.382-1.267-6.61-3.57-9.091zM4.453 90.547v-2.969h86.094v2.969H4.453zm86.094-38.594V84.61H4.453V51.953H37.11v11.875h-2.968v1.484c0 4.093 3.33 7.422 7.422 7.422H57.89v1.485a4.459 4.459 0 0 1-4.453 4.453H25.233a4.459 4.459 0 0 1-4.453-4.453v-4.453a4.459 4.459 0 0 0 4.453-4.454V60.86a5.943 5.943 0 0 0-5.937-5.937 5.943 5.943 0 0 0-5.938 5.937v4.453a4.458 4.458 0 0 0 4.454 4.454v4.453c0 4.092 3.329 7.422 7.421 7.422h28.203c4.093 0 7.422-3.33 7.422-7.422v-1.485h16.328c4.093 0 7.422-3.33 7.422-7.421v-1.485H81.64V51.953h8.906zM17.813 66.797a1.486 1.486 0 0 1-1.485-1.484v-4.454a2.972 2.972 0 0 1 2.969-2.968 2.972 2.972 0 0 1 2.969 2.968v4.453c0 .82-.667 1.485-1.485 1.485h-2.968z" fill="#3F3D56"/></svg>