<svg width="110" height="19" fill="none" xmlns="http://www.w3.org/2000/svg"><path d="M12.848 12.888c-.288 1.664-.984 2.96-2.088 3.888-1.088.912-2.424 1.368-4.008 1.368-1.792 0-3.264-.576-4.416-1.728-.768-.784-1.248-1.632-1.44-2.544-.192-.928-.288-2.4-.288-4.416 0-2.016.096-3.48.288-4.392.192-.928.672-1.784 1.44-2.568C3.488 1.344 4.96.768 6.752.768c1.6 0 2.936.464 4.008 1.392 1.088.912 1.784 2.2 2.088 3.864h-2.64c-.192-.912-.584-1.632-1.176-2.16-.592-.528-1.352-.792-2.28-.792-1.024 0-1.864.352-2.52 1.056-.432.448-.712 1.024-.84 1.728-.128.688-.192 1.888-.192 3.6 0 1.712.064 2.92.192 3.624.128.688.408 1.256.84 1.704.656.704 1.496 1.056 2.52 1.056.928 0 1.688-.264 2.28-.792.608-.528 1.016-1.248 1.224-2.16h2.592zM26.484 5.04c.192.912.288 2.384.288 4.416 0 2.032-.096 3.504-.288 4.416-.176.912-.656 1.76-1.44 2.544-1.152 1.152-2.624 1.728-4.416 1.728-1.792 0-3.264-.576-4.416-1.728-.784-.784-1.272-1.632-1.464-2.544-.176-.912-.264-2.384-.264-4.416 0-2.032.088-3.504.264-4.416.192-.912.68-1.76 1.464-2.544C17.364 1.344 18.836.768 20.628.768c1.792 0 3.264.576 4.416 1.728.784.784 1.264 1.632 1.44 2.544zm-2.496 8.04c.128-.688.192-1.896.192-3.624 0-1.728-.064-2.936-.192-3.624-.128-.704-.4-1.272-.816-1.704-.672-.704-1.52-1.056-2.544-1.056s-1.872.352-2.544 1.056c-.416.448-.688 1.024-.816 1.728-.128.688-.192 1.888-.192 3.6 0 1.712.064 2.912.192 3.6.128.688.4 1.256.816 1.704.688.72 1.536 1.08 2.544 1.08s1.856-.36 2.544-1.08c.416-.432.688-.992.816-1.68zM35.952 18h-2.448V3.576l-3.336 2.928V3.792l3.336-2.88h2.448V18zM50.716 5.88c0 1.104-.424 2.504-1.272 4.2L45.556 18H42.94l3.672-7.344c-.416.176-.928.264-1.536.264-1.264 0-2.328-.456-3.192-1.368-.848-.912-1.272-2.104-1.272-3.576 0-1.568.464-2.824 1.392-3.768.944-.96 2.16-1.44 3.648-1.44 1.504 0 2.72.464 3.648 1.392.944.912 1.416 2.152 1.416 3.72zm-2.448.048c0-.896-.24-1.616-.72-2.16s-1.112-.816-1.896-.816c-.768 0-1.392.272-1.872.816-.48.528-.72 1.248-.72 2.16 0 .864.232 1.576.696 2.136.464.544 1.096.816 1.896.816.784 0 1.416-.264 1.896-.792s.72-1.248.72-2.16zM72.327 18h-3.144l-1.392-1.68c-1.392 1.216-2.968 1.824-4.728 1.824-1.76 0-3.12-.456-4.08-1.368-.96-.912-1.44-2.152-1.44-3.72 0-1.072.296-1.968.888-2.688.608-.736 1.44-1.448 2.496-2.136-.352-.4-.632-.736-.84-1.008a8.44 8.44 0 0 1-.624-1.176 3.821 3.821 0 0 1-.312-1.488c0-1.104.384-2.008 1.152-2.712.768-.72 1.776-1.08 3.024-1.08 1.2 0 2.176.36 2.928 1.08.752.72 1.128 1.632 1.128 2.736 0 1.184-.608 2.192-1.824 3.024l-1.248.864 3.6 4.296c.592-.832.896-1.976.912-3.432h2.352c-.08 2.272-.648 4.024-1.704 5.256L72.327 18zm-6-3.408L62.27 9.768c-.512.352-.904.648-1.176.888-.272.24-.528.568-.768.984a2.69 2.69 0 0 0-.36 1.368c0 .848.288 1.544.864 2.088.592.544 1.336.816 2.232.816 1.184 0 2.272-.44 3.264-1.32zM65.03 4.608c0-.48-.16-.88-.48-1.2-.32-.336-.728-.504-1.224-.504-.512 0-.92.16-1.224.48-.304.304-.456.704-.456 1.2 0 .544.44 1.328 1.32 2.352l.816-.552c.832-.56 1.248-1.152 1.248-1.776zM94.59 18H92V6.576l-3.936 8.328h-1.92l-4.032-8.328V18H79.52V.912h2.592l4.992 10.632L92 .912h2.592V18zm14.412 0h-10.92V.912h10.92V3.24h-8.328v4.992h7.104v2.304h-7.104v5.136h8.328V18z" fill="#3F3D56"/></svg>