<svg width="95" height="95" fill="none" xmlns="http://www.w3.org/2000/svg"><path d="M29.688 29.688h35.624v11.875H29.688V29.687z" fill="#F9DC25"/><path d="M78.672 32.656c-.153 0-.301.018-.454.023A34.093 34.093 0 0 0 62.32 16.78c.006-.151.024-.3.024-.453 0-8.185-6.66-14.844-14.844-14.844-8.185 0-14.844 6.66-14.844 14.844 0 .153.018.302.023.454A34.093 34.093 0 0 0 16.78 32.68c-.151-.006-.3-.024-.453-.024-8.185 0-14.844 6.66-14.844 14.844 0 8.185 6.66 14.844 14.844 14.844.153 0 .302-.018.454-.023A34.093 34.093 0 0 0 32.68 78.22c-.006.152-.024.3-.024.453 0 8.185 6.66 14.844 14.844 14.844 8.185 0 14.844-6.66 14.844-14.844 0-.153-.018-.301-.023-.454A34.093 34.093 0 0 0 78.22 62.32c.152.006.3.024.453.024 8.185 0 14.844-6.66 14.844-14.844 0-8.185-6.66-14.844-14.844-14.844zm-3.558.45a14.857 14.857 0 0 0-8.317 5.526V28.203H56.369a14.864 14.864 0 0 0 5.526-8.317 31.134 31.134 0 0 1 13.219 13.22zm-43.942-1.934h32.656v32.656H31.172V31.172zm9.215-5.357a8.916 8.916 0 0 1 7.113-3.55 8.92 8.92 0 0 1 7.113 3.55 11.805 11.805 0 0 1-7.113 2.388c-2.669 0-5.127-.896-7.113-2.388zm2.66-10.971A4.459 4.459 0 0 1 47.5 10.39a4.459 4.459 0 0 1 4.453 4.453 4.459 4.459 0 0 1-4.453 4.453 4.459 4.459 0 0 1-4.453-4.453zM47.5 4.454c6.548 0 11.875 5.327 11.875 11.874 0 2.81-.986 5.393-2.624 7.428a11.87 11.87 0 0 0-4.351-3.381c1.535-1.362 2.522-3.324 2.522-5.531 0-4.093-3.33-7.422-7.422-7.422s-7.422 3.33-7.422 7.422c0 2.207.987 4.17 2.522 5.53a11.901 11.901 0 0 0-4.35 3.382 11.806 11.806 0 0 1-2.625-7.428c0-6.547 5.327-11.875 11.875-11.875zM33.106 19.885a14.857 14.857 0 0 0 5.526 8.317H28.203V38.63a14.864 14.864 0 0 0-8.317-5.526 31.134 31.134 0 0 1 13.22-13.219zM4.453 47.5c0-6.548 5.328-11.875 11.875-11.875 6.548 0 11.875 5.327 11.875 11.875 0 2.81-.985 5.393-2.624 7.428a11.87 11.87 0 0 0-4.351-3.382c1.535-1.36 2.522-3.323 2.522-5.53 0-4.093-3.33-7.422-7.422-7.422s-7.422 3.33-7.422 7.422c0 2.207.987 4.17 2.522 5.53a11.9 11.9 0 0 0-4.35 3.382A11.807 11.807 0 0 1 4.452 47.5zm11.875 11.875a11.81 11.81 0 0 1-7.113-2.388 8.916 8.916 0 0 1 7.113-3.55 8.92 8.92 0 0 1 7.113 3.55 11.805 11.805 0 0 1-7.113 2.388zm-4.453-13.36a4.459 4.459 0 0 1 4.453-4.453 4.459 4.459 0 0 1 4.453 4.454 4.459 4.459 0 0 1-4.453 4.453 4.459 4.459 0 0 1-4.453-4.453zm8.011 15.879a14.857 14.857 0 0 0 8.317-5.526v10.429h10.428a14.864 14.864 0 0 0-5.526 8.317 31.134 31.134 0 0 1-13.219-13.22zm20.5 26.265a8.915 8.915 0 0 1 7.114-3.55 8.92 8.92 0 0 1 7.113 3.55 11.805 11.805 0 0 1-7.113 2.388 11.81 11.81 0 0 1-7.113-2.388zm2.66-10.972a4.458 4.458 0 0 1 4.454-4.453 4.458 4.458 0 0 1 4.453 4.454A4.458 4.458 0 0 1 47.5 81.64a4.458 4.458 0 0 1-4.453-4.454zM56.752 86.1a11.868 11.868 0 0 0-4.351-3.382c1.535-1.36 2.522-3.323 2.522-5.53 0-4.093-3.33-7.422-7.422-7.422s-7.422 3.33-7.422 7.421c0 2.208.987 4.17 2.522 5.531a11.9 11.9 0 0 0-4.35 3.382 11.806 11.806 0 0 1-2.625-7.428c0-6.548 5.327-11.875 11.875-11.875s11.875 5.327 11.875 11.875c0 2.81-.986 5.393-2.624 7.428zm5.143-10.986a14.857 14.857 0 0 0-5.526-8.317h10.429V56.369a14.864 14.864 0 0 0 8.317 5.526 31.134 31.134 0 0 1-13.22 13.219zM74.22 46.016a4.459 4.459 0 0 1 4.453-4.453 4.459 4.459 0 0 1 4.453 4.453 4.459 4.459 0 0 1-4.453 4.453 4.459 4.459 0 0 1-4.453-4.453zm-2.66 10.97a8.915 8.915 0 0 1 7.113-3.548 8.92 8.92 0 0 1 7.113 3.549 11.805 11.805 0 0 1-7.113 2.388 11.81 11.81 0 0 1-7.113-2.388zm16.364-2.058a11.87 11.87 0 0 0-4.351-3.382c1.535-1.36 2.522-3.323 2.522-5.53 0-4.093-3.33-7.422-7.422-7.422-4.093 0-7.422 3.33-7.422 7.422 0 2.207.987 4.17 2.522 5.53a11.901 11.901 0 0 0-4.35 3.382 11.807 11.807 0 0 1-2.625-7.428c0-6.548 5.327-11.875 11.875-11.875 6.547 0 11.875 5.327 11.875 11.875 0 2.81-.986 5.393-2.624 7.428z" fill="#3F3D56"/><path d="M34.14 34.14h2.97v2.97h-2.97v-2.97zm5.938 0h2.969v2.97h-2.969v-2.97zm5.938 0h2.968v2.97h-2.968v-2.97z" fill="#3F3D56"/></svg>