<svg width="96" height="96" fill="none" xmlns="http://www.w3.org/2000/svg"><path d="M88.5 49.5V36c0-4.136-3.365-7.5-7.5-7.5H42c-1.175 0-2.271.296-3.261.779-2.26-2.625-5.095-4.571-8.278-5.681C33.785 21.461 36 17.738 36 13.5c0-6.617-5.384-12-12-12s-12 5.383-12 12c0 4.25 2.226 7.98 5.567 10.113C9.97 26.279 4.5 33.504 4.5 42v7.5h-3v45h93v-45h-6zM37.5 36c0-2.481 2.019-4.5 4.5-4.5h39c2.481 0 4.5 2.019 4.5 4.5v19.5h-48V36zm0 22.5h48V60c0 2.481-2.019 4.5-4.5 4.5H42a4.505 4.505 0 0 1-4.5-4.5v-1.5zm13.5 15v-6h21v6H51zm-36-60c0-4.963 4.037-9 9-9s9 4.037 9 9-4.037 9-9 9-9-4.037-9-9zM7.5 42c0-9.097 7.402-16.5 16.5-16.5 4.802 0 9.228 2.04 12.363 5.607C35.218 32.424 34.5 34.122 34.5 36v13.5H15V36h-3v13.5H7.5V42zm84 49.5h-87v-6h87v6zm0-9h-87v-30h30V60c0 4.135 3.364 7.5 7.5 7.5h6v6h-6v3h39v-3h-6v-6h6c4.135 0 7.5-3.365 7.5-7.5v-7.5h3v30z" fill="#3F3D56"/><path d="M21 55.5c-4.56 0-13.5 1.812-13.5 6v12c0 4.188 8.94 6 13.5 6 4.56 0 13.5-1.812 13.5-6v-12c0-4.188-8.94-6-13.5-6zm-10.5 6.029c.316-1.003 5.354-3.029 10.5-3.029 5.099 0 10.092 1.989 10.492 3-.4 1.011-5.393 3-10.492 3-5.146 0-10.184-2.026-10.5-2.958v-.014zm0 3.67c3.02 1.58 7.628 2.301 10.5 2.301 2.874 0 7.482-.722 10.502-2.301v2.27C31.195 68.47 26.151 70.5 21 70.5c-5.157 0-10.207-2.034-10.5-3v-2.301zM21 76.5c-5.157 0-10.207-2.034-10.5-3v-2.301c3.02 1.58 7.628 2.301 10.5 2.301 2.874 0 7.483-.722 10.503-2.302v2.268c-.296 1-5.346 3.034-10.503 3.034z" fill="#3F3D56"/><path d="M78 52.5h-9v-18h9v18zm-12 0h-9v-12h9v12zm-12 0h-9v-15h9v15z" fill="#F9DC25"/><path d="M77.48 14.898l8.182-8.181 2.12 2.12-8.181 8.182-2.121-2.12zm-9.14-2.921l2.122-2.121 5.279 5.28-2.121 2.12-5.28-5.279zm-12.408 6.468L64.577 9.8l2.121 2.12-8.645 8.646-2.12-2.12zm-10.938-3.45l1.8-2.4 7.215 5.412-1.8 2.4-7.215-5.412z" fill="#3F3D56"/><path d="M43.5 16.5A4.505 4.505 0 0 1 39 12c0-2.481 2.019-4.5 4.5-4.5S48 9.519 48 12s-2.019 4.5-4.5 4.5zm12 9A4.505 4.505 0 0 1 51 21c0-2.481 2.019-4.5 4.5-4.5S60 18.519 60 21s-2.019 4.5-4.5 4.5zm12-12A4.505 4.505 0 0 1 63 9c0-2.481 2.019-4.5 4.5-4.5S72 6.519 72 9s-2.019 4.5-4.5 4.5zm21-3A4.505 4.505 0 0 1 84 6c0-2.481 2.019-4.5 4.5-4.5S93 3.519 93 6s-2.019 4.5-4.5 4.5zm-12 12A4.505 4.505 0 0 1 72 18c0-2.481 2.019-4.5 4.5-4.5S81 15.519 81 18s-2.019 4.5-4.5 4.5z" fill="#F9DC25"/><path d="M42 49.5h39v3H42v-3z" fill="#3F3D56"/></svg>