<svg width="18" height="16" fill="none" xmlns="http://www.w3.org/2000/svg"><path d="M0 .828c6 2.869 12-2.869 18 0v14.344c-6-2.869-12 2.869-18 0V.828z" fill="red"/><path d="M3.375 7.475c3.75.154 7.5-1.793 11.25-1.64v2.69c-3.75-.154-7.5 1.793-11.25 1.64v-2.69z" fill="#fff"/><path d="M7.313 3.907c1.125-.24 2.25-.538 3.375-.779v8.965c-1.126.24-2.25.538-3.376.779V3.907z" fill="#fff"/><path d="M9 .828c-3 .717-6 1.435-9 0v14.344c3 1.434 6 .717 9 0s6-1.434 9 0V.828C16.732.222 15.464 0 14.196 0 12.464 0 10.732.414 9 .828z" fill="url(#paint0_linear)" fill-opacity=".15"/><defs><linearGradient id="paint0_linear" x1="-.713" y1="7.323" x2="18.629" y2="9.446" gradientUnits="userSpaceOnUse"><stop stop-color="#1D1D1B"/><stop offset=".105" stop-color="#1D1D1B"/><stop offset=".3" stop-color="#fff"/><stop offset=".466" stop-color="#1D1D1B"/><stop offset=".7" stop-color="#1D1D1B"/><stop offset=".843" stop-color="#fff"/><stop offset=".996"/><stop offset="1"/></linearGradient></defs></svg>