<svg width="400" height="400" fill="none" xmlns="http://www.w3.org/2000/svg"><path fill-rule="evenodd" clip-rule="evenodd" d="M162.643 75.433c-.134.348-.243 20.058-.243 43.8V162.4h-43.167c-23.742 0-43.452.109-43.8.243-.97.372-.97 74.342 0 74.714.348.134 20.058.243 43.8.243H162.4v43.167c0 23.742.109 43.452.243 43.8.372.969 74.342.969 74.714 0 .134-.348.243-20.058.243-43.8V237.6h43.167c23.742 0 43.452-.109 43.8-.243.969-.372.969-74.342 0-74.714-.348-.134-20.058-.243-43.8-.243H237.6v-43.167c0-23.742-.109-43.452-.243-43.8-.372-.969-74.342-.969-74.714 0z" fill="#FCFCFC"/><path fill-rule="evenodd" clip-rule="evenodd" d="M0 200v200h400V0H0v200zM237.357 75.433c.134.348.243 20.058.243 43.8V162.4h43.167c23.742 0 43.452.109 43.8.243.969.372.969 74.342 0 74.714-.348.134-20.058.243-43.8.243H237.6v43.167c0 23.742-.109 43.452-.243 43.8-.372.969-74.342.969-74.714 0-.134-.348-.243-20.058-.243-43.8V237.6h-43.167c-23.742 0-43.452-.109-43.8-.243-.969-.372-.969-74.342 0-74.714.348-.134 20.058-.243 43.8-.243H162.4v-43.167c0-23.742.109-43.452.243-43.8.372-.969 74.342-.969 74.714 0z" fill="#FC0404"/></svg>