<svg width="18" height="14" fill="none" xmlns="http://www.w3.org/2000/svg"><path d="M17.433 1.653a7.234 7.234 0 0 1-2.053.555A3.54 3.54 0 0 0 16.949.255a7.185 7.185 0 0 1-2.271.857A3.589 3.589 0 0 0 12.85.085a3.619 3.619 0 0 0-2.095.163 3.571 3.571 0 0 0-1.64 1.297 3.508 3.508 0 0 0-.53 2.788 10.264 10.264 0 0 1-4.084-1.071A10.148 10.148 0 0 1 1.21.643 3.505 3.505 0 0 0 .82 3.22a3.542 3.542 0 0 0 1.5 2.142 3.616 3.616 0 0 1-1.623-.44v.043c0 .816.287 1.607.81 2.238A3.586 3.586 0 0 0 3.57 8.43a3.526 3.526 0 0 1-.944.125 3.58 3.58 0 0 1-.688-.062 3.533 3.533 0 0 0 1.272 1.758c.599.44 1.323.684 2.07.697A7.296 7.296 0 0 1 0 12.41 10.218 10.218 0 0 0 5.482 14c6.58 0 10.17-5.384 10.17-10.05v-.479a7.218 7.218 0 0 0 1.781-1.818z" fill="#3F3D56"/></svg>